<?xml version="1.0" encoding="utf-8"?>
<!-- Generator: Adobe Illustrator 24.3.0, SVG Export Plug-In . SVG Version: 6.00 Build 0)  -->
<svg version="1.1" id="Layer_2" xmlns="http://www.w3.org/2000/svg" xmlns:xlink="http://www.w3.org/1999/xlink" x="0px" y="0px"
	 viewBox="0 0 1600 900" style="enable-background:new 0 0 1600 900;" xml:space="preserve">
<style type="text/css">
	.st0{fill:none;stroke:#000000;stroke-miterlimit:10;}
</style>
<g>
	<path class="st0" d="M668.68,322.78c1.26,4.27,3.85,10.47,8.29,13.47c4.01,2.71,8.76,2.06,13.81,3.19
		c11.28,2.52,22.61,4.93,33.93,7.37c7.49,1.61,14.41,0.48,20.79-2.62c4.03-1.96,7.94-4.06,11.85-6.15
		c5.94-3.17,12.74-4.5,19.84-4.16c5.28,0.26,10.55,1.26,15.68,2.32c8.71,1.8,17.19,4.26,25.99,5.76c6.1,1.04,12.56,0.89,18.85,1.32
		c3.74,0.26,7.52,0.45,11.2,0.98c5.93,0.85,7.7,4.07,8.13,7.54c0.92,7.43,0.06,14.94,2.39,22.3c2.51,7.95,10.05,11.49,19.57,12.4
		c7.55,0.73,14.81,0.09,22.1-1.05c1.54-0.24,3.15-0.58,4.46-1.2c5.34-2.5,5.74-4.33,2.51-9.18c-3.15-4.72-7.08-9.15-10.45-13.8
		c-2.71-3.75-5.54-7.36-9.59-10.45c-3.77-2.87-8.05-5.24-12.9-6.75c-6.54-2.04-10.63-5.4-12.76-10.28
		c-2.82-6.46-8.5-11.27-15.25-15.74c-5.15-3.41-9.76-7.4-13.77-11.58c-7.35-7.65-17.25-12.92-27.59-18.01
		c-12.13-5.97-25.93-8.24-39.73-10.64c-5.38-0.93-10.77-1.73-16.33-1.39c-4.06,0.24-8.19,0.36-12.15,1
		c-4.54,0.74-8.9,0.16-12.77-1.11c-10.03-3.3-18.7-1.48-27.65,2.39c-14.62,6.32-21.61,2.1-25.29,13.79
		c-1.7,5.41-3.73,21.3-3.15,26.93V322.78z"/>
	<path class="st0" d="M748.91,277.52c-3.9,0.32-8.01,0.5-12.04,1.17c-4.52,0.75-8.89,0.21-12.8-1.01
		c-10.02-3.18-18.75-1.37-27.73,2.44c-14.7,6.23-21.87,2.19-25.34,13.74c-0.37,2.04,2.04,5.68,1.6,9.32
		c-0.39,3.54-4.91,7.42-5.28,10.96c-0.4,3.75-2.29,7.29-3.34,9.64c-0.63,0.25-1.12,3.77-1.2,3.96c1.15,4.38,4.68,10.57,10.25,13.57
		c4.57,2.69,9.92,2.09,15.49,3.22c6.18,1.14,12.1,2.23,16.66,3.33c2.28,0.63,4.55,1.26,6.82,1.87c2.92,0.79,5.92,1.69,9.02,2.71
		c0.94,0.32,1.87,0.59,2.81,0.82c3.88,0.92,7.55,0.88,11.06,0.16c1.45-0.3,3.01-0.67,4.59-1.17c3.93-1.21,7.75-2.55,11.56-3.89
		c1.14-0.42,2.26-0.78,3.46-1.06c1.48-0.35,3.04-0.6,4.63-0.75c3.7-0.38,7.94-0.41,12.4,0c5.82,0.52,11.71,1.63,17.43,2.85
		c3.52,0.74,7.02,1.52,10.54,2.23c2.49,0.5,4.95,0.92,7.31,1.22c2.23,0.19,4.11,0.38,5.81,0.55c1.12,0.11,2.22,0.22,3.36,0.29
		c2.41,0.16,5.09,0.01,7.97-0.23c3.32-0.31,6.9-0.67,10.63-0.81c4.04-0.07,8.2-0.11,12.28,0.2c0.65,0.05,1.26,0.13,1.83,0.23
		c4.97,0.95,6.83,3.57,7.59,6.37c0.77,2.87,1.18,5.73,1.63,8.57c0.5,3.81,1.54,8.35,3.44,12.61c0.9,1.94,2.04,3.58,3.31,4.8
		c3.1,3.57,6.94,4.04,12.75,4.73c1.17,0.14,2.42,0.28,3.71,0.5c7.97,1.09,15.93,1.8,23.64,1.22c1.74-0.03,3.51-0.27,4.91-1
		c5.52-2.75,6.83-5.13,4.56-10.42c-1.06-3.26-2.41-6.4-4.2-9.32c-1.24-1.89-2.96-4.22-4.7-6.65c-2.98-4.15-6.31-8.4-9.11-11.05
		c-0.36-0.41-0.73-0.81-1.13-1.19c-1.74-1.7-3.7-3.16-5.89-4.35c-1.15-0.63-2.34-1.17-3.61-1.68c-5.81-1.99-9.26-5.52-11.06-10.66
		c-0.32-0.92-0.7-1.81-1.13-2.69c-1.32-2.66-3.25-5.06-5.64-7.26c-2.68-2.47-5.76-4.73-9.07-6.92c-0.29-0.19-0.58-0.38-0.86-0.58
		c-5.19-3.53-9.77-7.64-13.7-11.94c-2.64-3.04-5.78-5.61-9.42-7.74c-3.37-1.97-6.63-4.05-9.95-6.12c-2.19-1.37-4.44-2.7-6.73-3.99
		c-2.03-1.14-4.17-2.2-6.36-3.21c-1.48-0.68-3-1.3-4.53-1.87c-3.19-1.07-4.92-2.13-8.17-3.07c-2.39-0.73-5.25-1.33-7.71-1.9
		c-0.52-0.13-1.39-0.27-1.92-0.39c-2.95-0.59-6.8-1.21-9.81-1.58c-4.25-0.52-7.88-0.45-11.49-0.36c-0.75,0.02-1.51,0.04-2.27,0.05
		c-2.86,0.04-5.78,0.09-8.87,0.26C753.87,276.46,751.22,276.86,748.91,277.52z"/>
	<path class="st0" d="M748.04,280.49c-3.74,0.4-7.83,0.64-11.93,1.35c-4.5,0.76-8.88,0.26-12.82-0.91
		c-10.01-3.06-18.8-1.27-27.81,2.48c-14.78,6.14-22.12,2.28-25.38,13.69c-0.16,2.24,5.27,6.48,4.94,10.32
		c-0.27,3.8-8.86,7.94-9.33,11.73c-0.52,4.06-4.19,8.07-6.5,10.87c-1.26,0.5-2.25,4.17-2.4,4.56c1.03,4.49,5.52,10.66,12.21,13.68
		c5.12,2.67,11.08,2.12,17.17,3.25c7.38,1.17,14.22,2.25,18.34,3.38c1.82,0.68,3.63,1.35,5.44,1.96c2.26,0.82,4.68,1.83,7.29,3.1
		c0.78,0.4,1.57,0.76,2.37,1.1c3.35,1.34,6.51,1.71,9.53,1.5c1.22-0.08,2.69-0.16,4.23-0.38c3.83-0.45,7.56-1.04,11.27-1.62
		c1.11-0.22,2.15-0.38,3.33-0.47c1.46-0.11,3.02-0.12,4.61-0.04c3.7,0.14,8.27,0.41,13.2,1.04c6.37,0.78,12.87,2.01,19.19,3.38
		c3.88,0.84,7.75,1.66,11.65,2.32c2.79,0.48,5.5,0.78,8.04,0.88c2.46-0.07,4.24-0.13,5.62-0.21c0.92-0.04,1.8-0.07,2.73-0.15
		c2-0.16,4.44-0.68,7.26-1.32c3.25-0.8,7-1.58,11.09-2.09c4.34-0.39,8.88-0.67,13.36-0.59c0.71,0.02,1.37,0.07,2.01,0.13
		c5.32,0.73,7.57,3.06,8.71,5.52c1.14,2.54,1.9,5.04,2.66,7.48c0.83,3.39,2.6,8.24,5.08,12.56c1.19,1.99,2.59,3.61,4,4.63
		c3.17,3.34,6.05,2.08,11.9,2.49c1.26,0.09,2.63,0.23,4.06,0.55c8.39,1.46,17.04,3.51,25.19,3.49c1.93,0.18,3.86,0.03,5.36-0.81
		c5.7-3.01,7.91-5.92,6.61-11.65c-0.23-3.69-0.75-7.23-2.16-10.33c-1.04-1.97-3.06-4.8-5.2-7.81c-3.62-5.07-7.86-10.43-10.24-12.95
		c-0.2-0.37-0.41-0.73-0.65-1.08c-1.01-1.52-2.25-2.79-3.7-3.81c-0.75-0.54-1.53-1-2.39-1.5c-5.07-1.95-7.9-5.64-9.35-11.04
		c-0.26-0.97-0.58-1.93-0.98-2.86c-1.19-2.87-3.17-5.46-5.77-7.81c-2.88-2.61-6.17-5.01-9.68-7.34c-0.31-0.2-0.61-0.41-0.92-0.62
		c-5.56-3.78-10.37-8.2-14.42-12.85c-2.88-3.59-6.5-6.49-10.92-8.69c-4.08-2.04-7.8-4.42-11.5-6.9c-2.46-1.66-5-3.26-7.59-4.82
		c-2.27-1.36-4.75-2.59-7.31-3.69c-1.72-0.75-3.48-1.41-5.26-2c-4.1-1.17-5.23-2.45-9.37-3.57c-2.64-0.78-6.18-1.35-8.91-1.93
		c-0.51-0.13-1.71-0.26-2.22-0.38c-3.16-0.52-8.1-1.14-11.31-1.35c-5.08-0.35-8.87,0.38-12.62,1.16c-0.78,0.16-1.57,0.32-2.37,0.48
		c-2.99,0.55-6.13,1.09-9.55,1.71C752.51,278.41,749.93,279.33,748.04,280.49z"/>
	<path class="st0" d="M746.73,283.43c-3.58,0.48-7.66,0.78-11.82,1.52c-4.48,0.77-8.88,0.3-12.85-0.81
		c-10-2.95-18.85-1.16-27.89,2.53c-14.86,6.05-22.38,2.37-25.43,13.64c0.05,2.44,8.51,7.29,8.27,11.33
		c-0.16,4.07-12.81,8.45-13.38,12.49c-0.64,4.37-6.09,8.85-9.65,12.09c-1.89,0.75-3.37,4.57-3.59,5.16
		c0.92,4.61,6.35,10.75,14.17,13.79c5.68,2.65,12.23,2.15,18.86,3.27c8.58,1.19,16.34,2.28,20.02,3.42
		c1.36,0.72,2.72,1.43,4.07,2.06c1.6,0.84,3.43,1.98,5.56,3.5c0.63,0.48,1.27,0.94,1.94,1.39c2.83,1.76,5.49,2.53,8.01,2.85
		c0.99,0.13,2.37,0.35,3.86,0.41c3.73,0.3,7.36,0.47,10.98,0.65c1.08-0.02,2.04,0.02,3.21,0.12c1.43,0.13,3,0.35,4.59,0.67
		c3.69,0.66,8.6,1.24,13.99,2.08c6.92,1.04,14.03,2.39,20.94,3.91c4.24,0.93,8.48,1.79,12.77,2.42c3.09,0.45,6.06,0.65,8.76,0.53
		c2.7-0.34,4.36-0.65,5.43-0.96c0.71-0.19,1.38-0.37,2.11-0.6c1.58-0.48,3.79-1.38,6.55-2.41c3.19-1.28,7.09-2.49,11.55-3.36
		c4.64-0.71,9.56-1.23,14.45-1.37c0.76-0.01,1.49,0,2.18,0.04c5.68,0.51,8.31,2.54,9.83,4.67c1.52,2.21,2.61,4.34,3.69,6.4
		c1.16,2.96,3.67,8.12,6.73,12.51c1.49,2.03,3.13,3.63,4.69,4.46c3.23,3.11,5.22,0.94,11.05,0.25c1.35-0.16,2.84,0.18,4.42,0.6
		c8.82,1.82,18.16,5.22,26.74,5.77c2.13,0.39,4.21,0.34,5.81-0.62c5.88-3.26,8.99-6.72,8.67-12.89c0.61-4.11,0.91-8.06-0.12-11.33
		c-0.84-2.05-3.15-5.39-5.7-8.98c-4.26-5.99-9.41-12.46-11.37-14.86c-0.04-0.33-0.09-0.65-0.18-0.96c-0.29-1.34-0.81-2.41-1.51-3.27
		c-0.35-0.45-0.72-0.82-1.17-1.31c-4.33-1.9-6.52-5.76-7.65-11.41c-0.2-1.02-0.47-2.04-0.83-3.03c-1.07-3.08-3.1-5.86-5.9-8.35
		c-3.08-2.75-6.58-5.29-10.28-7.75c-0.32-0.22-0.65-0.43-0.97-0.65c-5.92-4.03-10.97-8.76-15.15-13.76
		c-3.12-4.13-7.22-7.36-12.42-9.63c-4.8-2.1-8.96-4.8-13.05-7.68c-2.74-1.94-5.57-3.82-8.46-5.65c-2.51-1.58-5.33-2.97-8.26-4.18
		c-1.96-0.82-3.97-1.53-5.99-2.14c-5.01-1.28-5.54-2.78-10.56-4.07c-2.9-0.83-7.12-1.37-10.12-1.96c-0.5-0.13-2.02-0.25-2.52-0.37
		c-3.38-0.44-9.4-1.04-12.81-1.13c-5.92-0.15-9.86,1.21-13.75,2.68c-0.81,0.31-1.63,0.61-2.47,0.9c-3.13,1.06-6.47,2.09-10.23,3.16
		C750.7,280.34,748.19,281.78,746.73,283.43z"/>
	<path class="st0" d="M744.75,286.39c-3.42,0.56-7.48,0.92-11.71,1.69c-4.46,0.78-8.87,0.35-12.88-0.71
		c-9.99-2.83-18.9-1.05-27.97,2.58c-14.94,5.95-22.64,2.45-25.48,13.59c0.25,2.64,11.74,8.09,11.61,12.33
		c-0.04,4.33-16.77,8.97-17.43,13.26c-0.76,4.68-7.99,9.63-12.8,13.32c-2.52,0.99-4.49,4.97-4.79,5.76
		c0.81,4.72,7.19,10.85,16.13,13.9c6.24,2.63,13.39,2.18,20.54,3.3c9.78,1.22,18.46,2.3,21.69,3.46c0.91,0.76,1.8,1.51,2.69,2.16
		c0.93,0.86,2.19,2.13,3.83,3.9c0.47,0.56,0.97,1.11,1.51,1.67c2.3,2.19,4.5,3.34,6.48,4.2c0.79,0.34,2.04,0.87,3.5,1.2
		c3.63,1.05,7.17,1.98,10.69,2.91c1.05,0.17,1.94,0.41,3.08,0.71c1.41,0.37,2.98,0.83,4.57,1.38c3.69,1.18,8.93,2.06,14.79,3.12
		c7.47,1.3,15.19,2.77,22.7,4.44c4.6,1.02,9.21,1.92,13.88,2.51c3.39,0.42,6.61,0.51,9.48,0.19c2.94-0.6,4.49-1.17,5.24-1.72
		c0.51-0.35,0.95-0.66,1.49-1.05c1.17-0.8,3.15-2.07,5.85-3.49c3.12-1.76,7.19-3.4,12.01-4.64c4.94-1.04,10.24-1.79,15.53-2.15
		c0.82-0.04,1.6-0.06,2.35-0.06c6.04,0.3,9.06,2.03,10.95,3.82c1.89,1.88,3.33,3.65,4.72,5.32c1.48,2.53,4.74,8,8.38,12.47
		c1.78,2.07,3.68,3.66,5.37,4.28c3.3,2.88,4.42-0.89,10.21-2c1.43-0.27,3.05,0.12,4.77,0.65c9.24,2.19,19.27,6.93,28.28,8.04
		c2.33,0.61,4.57,0.65,6.26-0.42c6.05-3.52,10.07-7.51,10.72-14.13c1.44-4.53,2.56-8.88,1.92-12.34c-0.64-2.13-3.25-5.97-6.2-10.14
		c-4.9-6.91-10.96-14.5-12.5-16.77c0.12-0.3,0.22-0.58,0.3-0.85c0.44-1.16,0.64-2.03,0.67-2.73c0.05-0.36,0.1-0.65,0.05-1.13
		c-3.59-1.85-5.15-5.89-5.95-11.79c-0.15-1.08-0.36-2.15-0.68-3.21c-0.94-3.29-3.03-6.26-6.03-8.9c-3.28-2.9-6.98-5.57-10.89-8.17
		c-0.34-0.23-0.68-0.46-1.02-0.69c-6.29-4.27-11.57-9.32-15.88-14.67c-3.37-4.68-7.94-8.24-13.92-10.58
		c-5.52-2.16-10.12-5.18-14.6-8.46c-3.01-2.22-6.13-4.38-9.32-6.48c-2.75-1.8-5.91-3.35-9.21-4.67c-2.19-0.88-4.45-1.64-6.72-2.27
		c-5.92-1.38-5.85-3.1-11.75-4.57c-3.15-0.87-8.06-1.39-11.32-2c-0.49-0.12-2.34-0.25-2.82-0.36c-3.59-0.36-10.71-0.93-14.31-0.91
		c-6.77,0.05-10.84,2.04-14.88,4.2c-0.84,0.45-1.7,0.89-2.57,1.33c-3.27,1.57-6.81,3.08-10.9,4.6
		C748.22,282.28,745.77,284.24,744.75,286.39z"/>
	<path class="st0" d="M742.6,289.35c-3.25,0.64-7.3,1.05-11.61,1.87c-4.45,0.78-8.86,0.4-12.91-0.61
		c-9.98-2.71-18.96-0.95-28.05,2.63c-15.02,5.86-22.89,2.54-25.53,13.55c0.46,2.84,14.97,8.89,14.94,13.33
		c0.08,4.59-20.72,9.48-21.48,14.02c-0.88,4.99-9.89,10.41-15.96,14.54c-3.15,1.24-5.61,5.37-5.99,6.36
		c0.69,4.84,8.02,10.94,18.09,14c6.79,2.6,14.54,2.2,22.22,3.32c10.98,1.24,20.58,2.32,23.37,3.51c0.45,0.8,0.89,1.59,1.32,2.26
		c0.27,0.89,0.95,2.28,2.1,4.29c0.32,0.64,0.67,1.29,1.07,1.96c1.78,2.61,3.55,4.2,4.95,5.54c0.6,0.57,1.72,1.38,3.13,2
		c3.53,1.81,6.98,3.48,10.39,5.18c1.02,0.37,1.83,0.81,2.95,1.3c1.38,0.61,2.96,1.31,4.54,2.09c3.68,1.69,9.26,2.88,15.58,4.16
		c8.02,1.56,16.34,3.14,24.45,4.97c4.96,1.11,9.94,2.06,15,2.6c3.69,0.39,7.17,0.37,10.2-0.16c3.17-0.87,4.62-1.68,5.05-2.48
		c0.31-0.5,0.53-0.95,0.87-1.49c0.75-1.11,2.5-2.77,5.14-4.58c3.05-2.24,7.29-4.31,12.47-5.91c5.24-1.36,10.92-2.36,16.61-2.93
		c0.87-0.07,1.71-0.12,2.52-0.15c6.39,0.08,9.8,1.51,12.06,2.98c2.26,1.54,4.05,2.95,5.75,4.24c1.81,2.11,5.81,7.89,10.02,12.42
		c2.08,2.11,4.23,3.68,6.06,4.11c3.36,2.65,3.63-2.78,9.36-4.24c1.51-0.38,3.27,0.07,5.12,0.7c9.66,2.56,20.39,8.65,29.83,10.31
		c2.52,0.82,4.92,0.96,6.71-0.23c6.23-3.77,11.15-8.31,12.78-15.36c2.28-4.95,4.22-9.71,3.96-13.34c-0.44-2.21-3.34-6.56-6.7-11.31
		c-5.54-7.83-12.51-16.53-13.62-18.67c0.28-0.26,0.54-0.5,0.78-0.73c1.16-0.98,2.09-1.66,2.86-2.19c0.44-0.27,0.91-0.48,1.27-0.95
		c-2.85-1.8-3.78-6.01-4.25-12.17c-0.09-1.13-0.25-2.26-0.53-3.38c-0.82-3.5-2.95-6.66-6.16-9.44c-3.48-3.04-7.39-5.84-11.5-8.58
		c-0.36-0.24-0.72-0.48-1.08-0.72c-6.65-4.52-12.17-9.88-16.61-15.58c-3.61-5.23-8.66-9.12-15.41-11.53
		c-6.23-2.23-11.29-5.56-16.15-9.24c-3.28-2.51-6.7-4.94-10.18-7.31c-3-2.02-6.49-3.73-10.16-5.16c-2.43-0.95-4.94-1.75-7.45-2.41
		c-6.83-1.49-6.16-3.42-12.95-5.07c-3.4-0.92-9-1.41-12.53-2.03c-0.47-0.12-2.65-0.24-3.13-0.36c-3.8-0.29-12.01-0.82-15.82-0.68
		c-7.61,0.27-11.83,2.87-16.01,5.72c-0.87,0.59-1.76,1.18-2.67,1.75c-3.41,2.08-7.15,4.08-11.58,6.05
		C745.57,284.23,743.18,286.71,742.6,289.35z"/>
	<path class="st0" d="M740.38,292.32c-3.09,0.72-7.13,1.19-11.5,2.04c-4.43,0.79-8.85,0.44-12.94-0.52
		c-9.97-2.59-19.01-0.84-28.13,2.67c-15.1,5.77-23.15,2.63-25.58,13.5c0.67,3.04,18.21,9.7,18.27,14.34
		c0.2,4.86-24.68,10-25.54,14.78c-0.99,5.3-11.79,11.19-19.11,15.77c-3.78,1.49-6.74,5.78-7.19,6.95
		c0.58,4.95,8.85,11.04,20.05,14.11c7.35,2.58,15.7,2.23,23.9,3.35c12.18,1.27,22.7,2.35,25.05,3.55c-0.01,0.84-0.03,1.68-0.06,2.35
		c-0.39,0.91-0.3,2.43,0.37,4.69c0.16,0.72,0.38,1.46,0.64,2.24c1.26,3.03,2.58,5.13,3.42,6.89c0.4,0.83,1.39,1.89,2.77,2.79
		c3.43,2.56,6.79,4.99,10.1,7.44c0.99,0.57,1.72,1.21,2.82,1.89c1.35,0.85,2.93,1.79,4.52,2.8c3.68,2.21,9.6,3.71,16.38,5.2
		c8.57,1.82,17.5,3.52,26.21,5.5c5.32,1.21,10.66,2.19,16.11,2.69c3.99,0.37,7.73,0.24,10.92-0.5c3.41-1.13,4.74-2.2,4.86-3.23
		c0.11-0.65,0.11-1.24,0.24-1.94c0.33-1.43,1.85-3.46,4.43-5.67c2.99-2.72,7.38-5.22,12.93-7.19c5.54-1.69,11.6-2.92,17.7-3.71
		c0.93-0.11,1.83-0.19,2.69-0.25c6.75-0.14,10.54,1,13.18,2.13c2.63,1.21,4.76,2.26,6.78,3.15c2.14,1.68,6.88,7.77,11.67,12.37
		c2.37,2.15,4.78,3.71,6.74,3.93c3.43,2.42,2.84-4.73,8.52-6.48c1.58-0.49,3.48,0.01,5.48,0.75c10.09,2.92,21.5,10.36,31.38,12.59
		c2.72,1.03,5.28,1.27,7.15-0.04c6.41-4.03,12.23-9.1,14.83-16.6c3.11-5.38,5.88-10.54,6-14.35c-0.24-2.29-3.44-7.14-7.2-12.48
		c-6.18-8.75-14.06-18.57-14.75-20.58c0.44-0.22,0.86-0.43,1.26-0.62c1.89-0.81,3.54-1.28,5.04-1.65c0.84-0.19,1.72-0.31,2.49-0.77
		c-2.12-1.76-2.4-6.14-2.55-12.55c-0.03-1.18-0.13-2.37-0.37-3.55c-0.69-3.7-2.88-7.06-6.29-9.99c-3.68-3.18-7.79-6.12-12.1-9
		c-0.38-0.25-0.75-0.51-1.13-0.76c-7.02-4.77-12.78-10.44-17.34-16.48c-3.85-5.78-9.38-10-16.91-12.48
		c-6.95-2.29-12.45-5.94-17.7-10.02c-3.56-2.79-7.26-5.5-11.05-8.14c-3.24-2.24-7.07-4.11-11.11-5.64
		c-2.66-1.02-5.42-1.86-8.18-2.54c-7.74-1.59-6.46-3.74-14.14-5.57c-3.65-0.97-9.94-1.44-13.73-2.06c-0.46-0.12-2.97-0.23-3.43-0.35
		c-4.02-0.21-13.32-0.69-17.32-0.46c-8.46,0.5-12.82,3.7-17.14,7.24c-0.9,0.74-1.82,1.46-2.77,2.18c-3.54,2.6-7.49,5.08-12.26,7.49
		C742.86,286.19,740.53,289.19,740.38,292.32z"/>
	<path class="st0" d="M738.15,295.3c-2.93,0.8-6.95,1.33-11.39,2.21c-4.41,0.8-8.85,0.49-12.96-0.42
		c-9.95-2.47-19.06-0.74-28.21,2.72c-15.17,5.68-23.4,2.72-25.63,13.45c0.88,3.24,21.44,10.5,21.61,15.34
		c0.32,5.12-28.63,10.51-29.59,15.55c-1.11,5.61-13.69,11.97-22.26,16.99c-4.41,1.74-7.86,6.18-8.39,7.55
		c0.46,5.06,9.69,11.13,22.01,14.22c7.9,2.56,16.86,2.26,25.59,3.38c13.37,1.29,24.82,2.37,26.73,3.59
		c-0.46,0.89-0.94,1.76-1.44,2.45c-1.05,0.93-1.54,2.57-1.36,5.09c0.01,0.8,0.08,1.64,0.21,2.53c0.73,3.45,1.55,6.08,1.89,8.24
		c0.17,1.1,1.07,2.4,2.4,3.58c3.33,3.31,6.6,6.5,9.81,9.71c0.96,0.77,1.61,1.6,2.69,2.49c1.33,1.09,2.91,2.26,4.5,3.52
		c3.67,2.73,9.93,4.53,17.18,6.24c9.12,2.08,18.66,3.9,27.96,6.03c5.68,1.3,11.39,2.32,17.23,2.78c4.28,0.34,8.28,0.1,11.65-0.85
		c3.65-1.4,4.87-2.72,4.67-3.99c-0.09-0.8-0.32-1.54-0.38-2.39c-0.08-1.75,1.2-4.16,3.73-6.75c2.92-3.21,7.48-6.13,13.39-8.47
		c5.84-2.01,12.29-3.48,18.78-4.49c0.99-0.14,1.94-0.25,2.86-0.34c7.11-0.36,11.29,0.48,14.3,1.28c3.01,0.88,5.48,1.56,7.81,2.07
		c2.46,1.26,7.95,7.66,13.32,12.33c2.67,2.19,5.32,3.73,7.43,3.76c3.49,2.19,2.05-6.71,7.67-8.72c1.66-0.59,3.69-0.04,5.83,0.8
		c10.51,3.29,22.62,12.07,32.93,14.86c2.92,1.24,5.63,1.58,7.6,0.16c6.59-4.28,13.32-9.9,16.88-17.83
		c3.94-5.8,7.54-11.36,8.04-15.36c-0.04-2.37-3.54-7.73-7.7-13.64c-6.82-9.68-15.61-20.6-15.88-22.48c0.6-0.19,1.18-0.35,1.74-0.5
		c2.61-0.63,4.99-0.9,7.23-1.11c1.24-0.1,2.53-0.14,3.72-0.58c-1.38-1.71-1.02-6.27-0.85-12.93c0.03-1.24-0.02-2.48-0.22-3.73
		c-0.56-3.91-2.81-7.46-6.42-10.53c-3.88-3.32-8.2-6.4-12.71-9.42c-0.4-0.26-0.79-0.53-1.18-0.8c-7.38-5.02-13.38-11-18.07-17.39
		c-4.09-6.33-10.1-10.88-18.41-13.42c-7.67-2.35-13.61-6.32-19.25-10.8c-3.83-3.08-7.83-6.06-11.91-8.97
		c-3.48-2.46-7.65-4.49-12.06-6.13c-2.9-1.08-5.91-1.97-8.91-2.68c-8.65-1.7-6.77-4.06-15.33-6.07c-3.91-1.02-10.88-1.46-14.94-2.09
		c-0.45-0.11-3.28-0.23-3.73-0.34c-4.23-0.14-14.62-0.57-18.82-0.23c-9.3,0.74-13.81,4.53-18.27,8.76c-0.93,0.88-1.88,1.75-2.87,2.6
		c-3.68,3.11-7.83,6.08-12.94,8.94C740.13,288.15,737.87,291.67,738.15,295.3z"/>
	<path class="st0" d="M735.91,295.01c-2.77,0.88-6.77,1.47-11.28,2.38c-4.39,0.81-8.84,0.54-12.99-0.32
		c-9.94-2.35-19.11-0.63-28.29,2.77c-15.25,5.59-23.66,2.8-25.68,13.4c1.09,3.45,24.67,11.3,24.94,16.34
		c0.44,5.39-32.58,11.03-33.64,16.31c-1.23,5.92-15.59,12.75-25.42,18.22c-5.04,1.99-8.98,6.58-9.58,8.15
		c0.35,5.18,10.52,11.22,23.97,14.32c8.46,2.54,18.01,2.29,27.27,3.4c14.57,1.32,26.94,2.4,28.4,3.64
		c-0.92,0.93-1.86,1.84-2.81,2.55c-1.71,0.96-2.78,2.72-3.09,5.48c-0.15,0.88-0.22,1.81-0.23,2.81c0.21,3.87,0.5,7,0.37,9.58
		c-0.07,1.35,0.74,2.91,2.04,4.37c3.22,4.07,6.41,8.01,9.52,11.98c0.93,0.97,1.51,2,2.56,3.08c1.3,1.33,2.89,2.74,4.48,4.23
		c3.67,3.25,10.26,5.35,17.97,7.28c9.66,2.34,19.82,4.28,29.72,6.56c6.04,1.39,12.12,2.45,18.34,2.87
		c4.58,0.31,8.84-0.04,12.37-1.19c3.88-1.66,4.99-3.24,4.48-4.75c-0.3-0.96-0.74-1.83-1-2.83c-0.5-2.07,0.55-4.85,3.02-7.84
		c2.85-3.69,7.57-7.04,13.84-9.74c6.13-2.33,12.97-4.04,19.86-5.27c1.04-0.17,2.05-0.31,3.04-0.44c7.46-0.58,12.03-0.04,15.42,0.43
		c3.38,0.55,6.2,0.87,8.84,0.99c2.79,0.83,9.01,7.54,14.96,12.28c2.96,2.23,5.87,3.76,8.12,3.58c3.56,1.96,0.88-10.13,6.82-10.97
		c1.85-0.26,3.91-0.1,6.19,0.85c10.93,3.65,23.74,13.78,34.47,17.13c3.12,1.45,5.98,1.88,8.05,0.35
		c6.77-4.54,14.4-10.69,18.94-19.07c4.78-6.22,9.2-12.19,10.08-16.36c0.16-2.45-3.63-8.32-8.2-14.81
		c-7.46-10.6-17.16-22.64-17.01-24.39c0.76-0.15,1.5-0.28,2.22-0.39c3.34-0.45,6.44-0.52,9.42-0.56c1.64-0.01,3.34,0.03,4.94-0.4
		c-0.64-1.66,0.36-6.39,0.85-13.3c0.09-1.29,0.09-2.59-0.07-3.9c-0.44-4.12-2.74-7.86-6.55-11.08c-4.08-3.46-8.61-6.68-13.32-9.83
		c-0.41-0.28-0.83-0.55-1.24-0.83c-7.75-5.26-13.98-11.55-18.8-18.3c-4.34-6.87-10.82-11.75-19.91-14.37
		c-8.38-2.42-14.78-6.69-20.8-11.58c-4.11-3.36-8.4-6.62-12.78-9.8c-3.73-2.68-8.23-4.88-13.01-6.62c-3.14-1.15-6.39-2.09-9.64-2.82
		c-9.57-1.8-7.08-4.38-16.53-6.57c-4.16-1.06-11.82-1.48-16.14-2.12c-0.43-0.11-3.59-0.22-4.03-0.33
		c-4.44-0.06-15.93-0.44-20.32-0.01c-10.14,0.99-14.79,5.37-19.4,10.28c-0.96,1.02-1.95,2.03-2.98,3.03
		c-3.82,3.62-8.17,7.08-13.62,10.38C737.4,286.84,735.2,290.88,735.91,295.01z"/>
	<path class="st0" d="M733.67,294.7c-2.61,0.96-6.6,1.61-11.18,2.56c-4.37,0.82-8.83,0.58-13.02-0.22
		c-9.93-2.23-19.17-0.52-28.38,2.82c-15.33,5.5-23.92,2.89-25.73,13.35c1.29,3.65,27.91,12.1,28.28,17.34
		c0.56,5.65-36.54,11.54-37.69,17.08c-1.35,6.23-17.49,13.53-28.57,19.44c-5.67,2.24-10.1,6.98-10.78,8.75
		c0.23,5.29,11.36,11.32,25.93,14.43c9.01,2.52,19.17,2.32,28.95,3.43c15.77,1.34,29.06,2.42,30.08,3.68
		c-1.38,0.97-2.77,1.93-4.19,2.65c-2.37,0.98-4.03,2.87-4.82,5.88c-0.3,0.96-0.52,1.99-0.66,3.1c-0.31,4.3-0.57,7.9-1.16,10.93
		c-0.31,1.6,0.42,3.42,1.67,5.17c3.12,4.82,6.22,9.52,9.22,14.24c0.9,1.17,1.4,2.4,2.44,3.67c1.28,1.57,2.87,3.22,4.46,4.94
		c3.66,3.77,10.59,6.17,18.77,8.32c10.21,2.6,20.98,4.65,31.47,7.09c6.4,1.48,12.85,2.58,19.46,2.96c4.88,0.28,9.39-0.18,13.09-1.54
		c4.12-1.93,5.12-3.75,4.29-5.5c-0.5-1.11-1.16-2.12-1.62-3.28c-0.91-2.39-0.1-5.55,2.31-8.93c2.79-4.17,7.67-7.94,14.3-11.02
		c6.43-2.66,13.65-4.6,20.95-6.05c1.1-0.2,2.17-0.38,3.21-0.54c7.82-0.8,12.77-0.55,16.54-0.42c3.75,0.21,6.91,0.17,9.87-0.09
		c3.12,0.41,10.08,7.42,16.61,12.23c3.26,2.27,6.42,3.78,8.8,3.41c3.62,1.73,0.03-12.21,5.98-13.21c1.96-0.33,4.12-0.15,6.54,0.9
		c11.35,4.02,24.85,15.49,36.02,19.4c3.31,1.67,6.34,2.19,8.5,0.55c6.94-4.79,15.48-11.49,20.99-20.3
		c5.61-6.65,10.86-13.02,12.12-17.37c0.36-2.53-3.73-8.9-8.7-15.97c-8.1-11.52-18.72-24.67-18.14-26.29c0.92-0.11,1.82-0.2,2.7-0.27
		c4.06-0.27,7.88-0.15,11.6-0.02c2.03,0.08,4.16,0.2,6.16-0.22c0.1-1.61,1.74-6.52,2.55-13.68c0.15-1.34,0.2-2.7,0.08-4.07
		c-0.31-4.33-2.66-8.26-6.68-11.62c-4.28-3.61-9.01-6.96-13.92-10.25c-0.43-0.29-0.86-0.58-1.29-0.87
		c-8.11-5.51-14.58-12.11-19.53-19.21c-4.58-7.42-11.54-12.63-21.41-15.32c-9.1-2.48-15.94-7.07-22.34-12.36
		c-4.38-3.65-8.96-7.18-13.64-10.63c-3.97-2.9-8.81-5.26-13.96-7.11c-3.37-1.22-6.88-2.2-10.37-2.95
		c-10.48-1.91-7.39-4.7-17.72-7.07c-4.41-1.11-12.76-1.5-17.35-2.15c-0.42-0.11-3.91-0.21-4.33-0.32
		c-4.66,0.01-17.23-0.3-21.82,0.22c-10.99,1.25-15.78,6.2-20.52,11.8c-0.99,1.17-2.01,2.32-3.08,3.46
		c-3.95,4.13-8.51,8.07-14.3,11.83C734.66,285.53,732.53,290.08,733.67,294.7z"/>
	<path class="st0" d="M731.25,294.41c-2.44,1.04-6.42,1.75-11.07,2.73c-4.35,0.83-8.82,0.63-13.05-0.12
		c-9.92-2.11-19.22-0.42-28.46,2.86c-15.41,5.41-24.17,2.98-25.78,13.3c1.5,3.85,31.14,12.91,31.61,18.35
		c0.68,5.91-40.49,12.06-41.74,17.84c-1.47,6.54-19.39,14.3-31.73,20.67c-6.29,2.48-11.23,7.38-11.98,9.34
		c0.12,5.4,12.19,11.41,27.89,14.54c9.57,2.5,20.33,2.35,30.64,3.46c16.97,1.37,31.18,2.44,31.76,3.72
		c-1.83,1.01-3.69,2.01-5.57,2.74c-3.04,1-5.27,3.02-6.55,6.28c-0.46,1.04-0.82,2.16-1.1,3.38c-0.84,4.72-1.63,8.79-2.69,12.28
		c-0.56,1.84,0.09,3.93,1.31,5.96c3.02,5.57,6.03,11.03,8.93,16.51c0.87,1.37,1.29,2.79,2.31,4.26c1.25,1.81,2.85,3.7,4.44,5.65
		c3.66,4.29,10.92,7,19.56,9.36c10.76,2.86,22.14,5.03,33.23,7.62c6.76,1.58,13.58,2.71,20.57,3.05c5.18,0.26,9.95-0.31,13.81-1.88
		c4.36-2.19,5.25-4.27,4.1-6.26c-0.7-1.26-1.58-2.42-2.25-3.73c-1.33-2.71-0.75-6.24,1.61-10.01c2.72-4.65,7.77-8.85,14.76-12.3
		c6.73-2.98,14.33-5.16,22.03-6.83c1.15-0.23,2.28-0.44,3.38-0.63c8.18-1.02,13.52-1.07,17.66-1.26c4.13-0.12,7.63-0.52,10.9-1.18
		c3.44-0.02,11.15,7.31,18.26,12.19c3.55,2.31,6.97,3.81,9.49,3.24c3.69,1.5-0.83-14.31,5.13-15.45c2.06-0.4,4.33-0.21,6.9,0.95
		c11.78,4.39,25.97,17.2,37.57,21.68c3.51,1.88,6.69,2.5,8.95,0.74c7.12-5.05,16.56-12.29,23.05-21.54
		c6.45-7.07,12.52-13.85,14.16-18.38c0.56-2.61-3.82-9.49-9.2-17.14c-8.74-12.44-20.27-26.71-19.27-28.2
		c1.08-0.07,2.14-0.13,3.18-0.16c4.79-0.09,9.33,0.23,13.79,0.52c2.43,0.17,4.97,0.38,7.38-0.03c0.83-1.57,3.13-6.65,4.26-14.06
		c0.21-1.4,0.32-2.81,0.23-4.25c-0.19-4.54-2.59-8.66-6.81-12.17c-4.48-3.75-9.42-7.24-14.53-10.66c-0.45-0.3-0.9-0.6-1.34-0.91
		c-8.48-5.76-15.18-12.67-20.26-20.11c-4.82-7.97-12.26-13.51-22.91-16.26c-9.82-2.54-17.11-7.45-23.89-13.13
		c-4.66-3.93-9.53-7.74-14.51-11.46c-4.21-3.12-9.39-5.64-14.91-7.59c-3.61-1.29-7.36-2.31-11.1-3.09
		c-11.39-2.01-7.7-5.03-18.92-7.56c-4.67-1.16-13.69-1.52-18.56-2.19c-0.41-0.1-4.22-0.21-4.63-0.31
		c-4.87,0.09-18.53-0.17-23.33,0.44c-11.83,1.51-16.77,7.03-21.65,13.32c-1.02,1.31-2.07,2.61-3.18,3.88
		c-4.09,4.64-8.85,9.07-14.98,13.28C731.75,284.22,729.68,289.29,731.25,294.41z"/>
	<path class="st0" d="M726.98,294.17c-2.28,1.12-6.24,1.89-10.96,2.9c-4.34,0.84-8.82,0.68-13.07-0.02
		c-9.91-1.99-19.27-0.31-28.54,2.91c-15.49,5.32-24.43,3.07-25.83,13.26c1.71,4.05,34.37,13.71,34.94,19.35
		c0.79,6.18-44.44,12.58-45.79,18.6c-1.58,6.85-21.29,15.08-34.88,21.89c-6.92,2.73-12.35,7.78-13.18,9.94
		c0.01,5.52,13.02,11.51,29.85,14.64c10.13,2.48,21.48,2.37,32.32,3.48c18.17,1.4,33.3,2.47,33.44,3.77
		c-2.29,1.05-4.6,2.09-6.94,2.84c-3.7,1.03-6.52,3.17-8.28,6.68c-0.61,1.12-1.12,2.34-1.53,3.67c-1.36,5.14-2.69,9.67-4.22,13.62
		c-0.8,2.07-0.23,4.44,0.94,6.75c2.92,6.33,5.83,12.54,8.64,18.78c0.84,1.57,1.18,3.19,2.18,4.85c1.22,2.05,2.83,4.17,4.42,6.36
		c3.66,4.8,11.25,7.82,20.36,10.4c11.31,3.12,23.3,5.41,34.98,8.15c7.12,1.67,14.31,2.84,21.69,3.14
		c5.48,0.23,10.51-0.45,14.53-2.23c4.59-2.46,5.37-4.79,3.91-7.02c-0.9-1.41-2.01-2.71-2.87-4.17c-1.75-3.03-1.39-6.94,0.9-11.1
		c2.66-5.13,7.86-9.76,15.22-13.57c7.03-3.3,15.01-5.72,23.11-7.62c1.21-0.26,2.39-0.51,3.55-0.73c8.53-1.24,14.26-1.58,18.78-2.11
		c4.5-0.45,8.35-1.22,11.93-2.26c3.77-0.45,12.22,7.19,19.9,12.14c3.85,2.35,7.51,3.83,10.17,3.06c3.75,1.27-1.69-16.4,4.29-17.7
		c2.16-0.47,4.54-0.26,7.25,1c12.2,4.75,27.08,18.91,39.11,23.95c3.71,2.09,7.05,2.81,9.4,0.93c7.3-5.3,17.64-13.08,25.1-22.77
		c7.28-7.49,14.18-14.67,16.19-19.38c0.76-2.68-3.92-10.07-9.7-18.3c-9.38-13.36-21.82-28.74-20.4-30.11
		c1.24-0.04,2.46-0.05,3.66-0.04c5.52,0.09,10.78,0.61,15.97,1.06c2.83,0.25,5.78,0.55,8.6,0.15c1.57-1.52,4.51-6.78,5.96-14.44
		c0.27-1.45,0.43-2.92,0.38-4.42c-0.06-4.75-2.52-9.06-6.94-12.71c-4.68-3.89-9.83-7.51-15.14-11.08c-0.47-0.31-0.93-0.63-1.4-0.94
		c-8.84-6.01-15.79-13.23-20.99-21.02c-5.07-8.52-12.98-14.39-24.41-17.21c-10.53-2.61-18.27-7.83-25.44-13.91
		c-4.93-4.21-10.09-8.3-15.37-12.29c-4.45-3.34-9.97-6.02-15.86-8.08c-3.84-1.35-7.85-2.42-11.83-3.22
		c-12.3-2.12-8.01-5.35-20.11-8.06c-4.92-1.2-14.63-1.55-19.76-2.22c-0.39-0.1-4.54-0.2-4.93-0.3c-5.08,0.16-19.84-0.03-24.83,0.67
		c-12.67,1.78-17.76,7.86-22.78,14.84c-1.05,1.45-2.13,2.89-3.28,4.31c-4.23,5.15-9.19,10.07-15.66,14.72
		C726.98,282.96,724.97,288.55,726.98,294.17z"/>
	<path class="st0" d="M722.69,293.92c-2.12,1.2-6.07,2.03-10.85,3.07c-4.32,0.85-8.81,0.72-13.1,0.08
		c-9.9-1.88-19.32-0.21-28.62,2.96c-15.57,5.22-24.69,3.15-25.88,13.21c1.92,4.25,37.61,14.51,38.28,20.35
		c0.91,6.44-48.4,13.09-49.85,19.37c-1.7,7.16-23.19,15.86-38.03,23.12c-7.55,2.98-13.47,8.19-14.38,10.54
		c-0.11,5.63,13.86,11.6,31.81,14.75c10.68,2.46,22.64,2.4,34,3.51c19.36,1.42,35.42,2.49,35.11,3.81c-2.75,1.1-5.52,2.17-8.32,2.94
		c-4.36,1.05-7.76,3.31-10.01,7.07c-0.77,1.2-1.42,2.51-1.96,3.95c-1.88,5.56-3.74,10.54-5.75,14.97c-1.05,2.31-0.56,4.96,0.57,7.54
		c2.82,7.08,5.64,14.05,8.35,21.04c0.81,1.77,1.08,3.59,2.05,5.44c1.2,2.29,2.81,4.65,4.4,7.07c3.65,5.32,11.59,8.64,21.16,11.44
		c11.86,3.38,24.46,5.79,36.73,8.68c7.48,1.76,15.04,2.97,22.8,3.23c5.78,0.2,11.06-0.59,15.25-2.57c4.83-2.72,5.5-5.31,3.72-7.77
		c-1.1-1.57-2.43-3-3.49-4.62c-2.16-3.35-2.04-7.63,0.19-12.19c2.59-5.62,7.96-10.67,15.68-14.85c7.33-3.63,15.69-6.29,24.2-8.4
		c1.27-0.3,2.51-0.57,3.72-0.82c8.89-1.45,15-2.1,19.9-2.96c4.87-0.78,9.06-1.92,12.96-3.34c4.1-0.87,13.29,7.07,21.55,12.09
		c4.14,2.39,8.06,3.86,10.86,2.89c3.81,1.04-2.55-18.51,3.44-19.94c2.26-0.54,4.76-0.31,7.61,1.06
		c12.62,5.12,28.2,20.62,40.66,26.22c3.91,2.3,7.4,3.12,9.85,1.13c7.48-5.56,18.72-13.88,27.15-24.01
		c8.11-7.91,15.84-15.5,18.23-20.39c0.96-2.76-4.01-10.66-10.2-19.47c-10.02-14.28-23.37-30.78-21.52-32.01
		c1.4,0,2.78,0.03,4.13,0.07c6.24,0.27,12.23,0.99,18.16,1.6c3.23,0.34,6.59,0.72,9.82,0.33c2.31-1.47,5.9-6.9,7.66-14.82
		c0.33-1.5,0.54-3.03,0.53-4.59c0.06-4.96-2.45-9.45-7.07-13.26c-4.88-4.03-10.23-7.79-15.74-11.49c-0.48-0.33-0.97-0.65-1.45-0.98
		c-9.21-6.26-16.39-13.79-21.72-21.93c-5.31-9.06-13.7-15.27-25.91-18.16c-11.25-2.67-19.43-8.21-26.99-14.69
		c-5.21-4.5-10.66-8.86-16.24-13.12c-4.7-3.56-10.55-6.4-16.81-8.57c-4.08-1.42-8.34-2.53-12.56-3.36
		c-13.21-2.22-8.32-5.67-21.3-8.56c-5.17-1.25-15.57-1.57-20.97-2.25c-0.38-0.1-4.85-0.19-5.24-0.29c-5.3,0.24-21.14,0.1-26.33,0.89
		c-13.5,2.05-18.74,8.69-23.91,16.36c-1.08,1.6-2.2,3.18-3.38,4.73c-4.36,5.66-9.53,11.07-16.34,16.17
		C722.2,281.7,720.26,287.8,722.69,293.92z"/>
	<path class="st0" d="M718.4,293.66c-1.96,1.28-5.89,2.17-10.74,3.25c-4.3,0.86-8.8,0.77-13.13,0.18c-9.89-1.76-19.37-0.1-28.7,3
		c-15.64,5.13-24.94,3.24-25.93,13.16c2.13,4.45,40.84,15.32,41.61,21.36c1.03,6.7-52.35,13.61-53.9,20.13
		c-1.82,7.47-25.09,16.64-41.19,24.35c-8.18,3.23-14.59,8.59-15.57,11.14c-0.22,5.74,14.69,11.69,33.77,14.86
		c11.24,2.44,23.8,2.43,35.68,3.54c20.56,1.45,37.54,2.51,36.79,3.85c-3.2,1.14-6.43,2.26-9.7,3.04c-5.02,1.07-9,3.46-11.74,7.47
		c-0.92,1.28-1.72,2.69-2.4,4.24c-2.41,5.99-4.79,11.41-7.28,16.31c-1.29,2.54-0.88,5.47,0.21,8.33c2.72,7.83,5.45,15.56,8.05,23.31
		c0.78,1.96,0.97,3.98,1.92,6.03c1.17,2.53,2.78,5.13,4.37,7.78c3.65,5.84,11.92,9.47,21.95,12.47c12.41,3.64,25.62,6.16,38.49,9.21
		c7.84,1.85,15.77,3.1,23.92,3.32c6.07,0.17,11.62-0.72,15.98-2.92c5.07-2.99,5.62-5.82,3.53-8.53c-1.31-1.72-2.85-3.3-4.11-5.06
		c-2.58-3.67-2.69-8.32-0.52-13.27c2.52-6.1,8.06-11.58,16.14-16.12c7.63-3.95,16.38-6.85,25.28-9.18c1.32-0.33,2.62-0.63,3.9-0.92
		c9.25-1.67,15.75-2.61,21.02-3.81c5.24-1.12,9.78-2.61,13.99-4.43c4.42-1.3,14.36,6.96,23.2,12.04c4.44,2.43,8.61,3.88,11.54,2.71
		c3.88,0.8-3.41-20.61,2.59-22.18c2.36-0.62,4.97-0.37,7.96,1.11c13.04,5.48,29.31,22.33,42.21,28.5c4.1,2.52,7.75,3.43,10.3,1.32
		c7.66-5.81,19.81-14.67,29.21-25.24c8.95-8.34,17.5-16.33,20.27-21.39c1.16-2.84-4.11-11.24-10.7-20.64
		c-10.66-15.2-24.92-32.81-22.65-33.92c1.56,0.04,3.1,0.1,4.61,0.19c6.97,0.44,13.68,1.36,20.35,2.14c3.62,0.43,7.4,0.89,11.04,0.52
		c3.05-1.42,7.28-7.03,9.36-15.19c0.4-1.56,0.65-3.14,0.69-4.77c0.19-5.16-2.37-9.85-7.2-13.8c-5.08-4.18-10.64-8.07-16.35-11.91
		c-0.5-0.34-1-0.68-1.5-1.02c-9.57-6.5-16.99-14.35-22.45-22.84c-5.55-9.61-14.42-16.14-27.4-19.11
		c-11.96-2.73-20.6-8.59-28.54-15.47c-5.48-4.78-11.23-9.42-17.1-13.95c-4.94-3.79-11.14-6.78-17.76-9.06
		c-4.32-1.49-8.82-2.65-13.29-3.49c-14.12-2.33-8.63-5.99-22.5-9.06c-5.43-1.3-16.51-1.59-22.17-2.28
		c-0.37-0.09-5.17-0.19-5.54-0.28c-5.51,0.32-22.44,0.24-27.83,1.12c-14.34,2.33-19.73,9.52-25.04,17.88
		c-1.11,1.74-2.26,3.46-3.48,5.16c-4.5,6.17-9.87,12.07-17.01,17.61C717.41,280.43,715.53,287.06,718.4,293.66z"/>
	<path class="st0" d="M714.11,293.41c-1.8,1.36-5.71,2.31-10.64,3.42c-4.28,0.87-8.79,0.82-13.16,0.28
		c-9.88-1.64-19.43,0-28.78,3.05c-15.72,5.04-25.2,3.33-25.98,13.11c2.34,4.65,44.07,16.12,44.95,22.36
		c1.15,6.97-56.31,14.12-57.95,20.9c-1.94,7.77-26.99,17.42-44.34,25.57c-8.81,3.48-15.72,8.99-16.77,11.73
		c-0.34,5.86,15.53,11.79,35.73,14.97c11.79,2.42,24.95,2.46,37.37,3.56c21.76,1.47,39.66,2.54,38.47,3.9
		c-3.66,1.18-7.35,2.34-11.07,3.13c-5.68,1.1-10.25,3.61-13.47,7.87c-1.08,1.36-2.02,2.86-2.83,4.52
		c-2.93,6.41-5.84,12.28-8.8,17.66c-1.53,2.77-1.21,5.98-0.16,9.13c2.62,8.58,5.26,17.07,7.76,25.57c0.75,2.16,0.86,4.38,1.79,6.63
		c1.15,2.77,2.76,5.61,4.35,8.5c3.64,6.36,12.25,10.29,22.75,13.51c12.95,3.9,26.78,6.54,40.24,9.74c8.2,1.94,16.5,3.23,25.03,3.42
		c6.37,0.14,12.17-0.86,16.7-3.26c5.3-3.25,5.75-6.34,3.34-9.29c-1.51-1.87-3.28-3.59-4.74-5.51c-3-3.99-3.34-9.02-1.22-14.36
		c2.46-6.58,8.15-12.49,16.6-17.4c7.93-4.28,17.06-7.41,26.36-9.96c1.38-0.36,2.73-0.7,4.07-1.01c9.6-1.89,16.49-3.13,22.14-4.66
		c5.62-1.45,10.5-3.31,15.02-5.51c4.75-1.72,15.43,6.84,24.84,12c4.73,2.47,9.16,3.91,12.23,2.54c3.94,0.57-4.27-22.73,1.75-24.42
		c2.46-0.69,5.18-0.42,8.32,1.16c13.47,5.85,30.43,24.04,43.75,30.77c4.3,2.73,8.11,3.74,10.75,1.51
		c7.84-6.07,20.89-15.47,31.26-26.48c9.78-8.76,19.15-17.15,22.31-22.4c1.35-2.92-4.21-11.83-11.2-21.8
		c-11.3-16.12-26.47-34.85-23.78-35.82c1.72,0.07,3.42,0.18,5.09,0.3c7.69,0.62,15.13,1.74,22.53,2.68
		c4.02,0.52,8.22,1.06,12.26,0.7c3.79-1.37,8.67-7.15,11.06-15.57c0.46-1.61,0.76-3.25,0.84-4.94c0.31-5.37-2.3-10.25-7.33-14.35
		c-5.28-4.32-11.04-8.35-16.96-12.32c-0.52-0.35-1.04-0.7-1.56-1.05c-9.94-6.75-17.59-14.91-23.18-23.75
		c-5.79-10.16-15.14-17.02-28.9-20.05c-12.68-2.8-21.76-8.96-30.09-16.25c-5.76-5.07-11.79-9.98-17.97-14.78
		c-5.18-4.01-11.72-7.17-18.71-9.54c-4.55-1.55-9.31-2.76-14.02-3.63c-15.03-2.43-8.94-6.31-23.69-9.56
		c-5.68-1.34-17.45-1.61-23.38-2.31c-0.35-0.09-5.48-0.18-5.84-0.27c-5.72,0.39-23.74,0.38-29.34,1.34
		c-15.17,2.61-20.72,10.35-26.17,19.4c-1.14,1.88-2.32,3.75-3.58,5.58c-4.64,6.69-10.22,13.06-17.69,19.06
		C712.62,279.17,710.81,286.31,714.11,293.41z"/>
	<path class="st0" d="M709.81,293.16c-1.64,1.44-5.54,2.45-10.53,3.59c-4.26,0.88-8.78,0.87-13.19,0.38
		c-9.86-1.52-19.48,0.11-28.86,3.1c-15.8,4.95-25.46,3.42-26.03,13.06c2.54,4.86,47.31,16.92,48.28,23.36
		c1.27,7.23-60.26,14.64-62,21.66c-2.06,8.08-28.89,18.2-47.49,26.8c-9.44,3.73-16.84,9.39-17.97,12.33
		c-0.45,5.97,16.36,11.88,37.69,15.07c12.35,2.4,26.11,2.49,39.05,3.59c22.96,1.5,41.78,2.56,40.15,3.94
		c-4.11,1.22-8.26,2.42-12.45,3.23c-6.34,1.12-11.49,3.76-15.2,8.26c-1.23,1.44-2.32,3.04-3.27,4.81
		c-3.46,6.83-6.89,13.15-10.33,19.01c-1.76,3.01-1.53,6.49-0.52,9.92c2.52,9.34,5.07,18.58,7.47,27.84
		c0.72,2.36,0.75,4.78,1.67,7.22c1.12,3.01,2.74,6.08,4.33,9.21c3.64,6.88,12.58,11.11,23.54,14.55c13.5,4.16,27.93,6.92,42,10.27
		c8.56,2.04,17.23,3.34,26.15,3.51c6.67,0.1,12.73-1,17.42-3.61c5.54-3.52,5.87-6.86,3.15-10.04c-1.71-2.03-3.7-3.88-5.36-5.96
		c-3.41-4.31-3.99-9.71-1.93-15.45c2.39-7.06,8.25-13.4,17.05-18.68c8.23-4.6,17.74-7.97,27.44-10.74c1.43-0.39,2.85-0.76,4.24-1.11
		c9.96-2.11,17.23-3.65,23.26-5.5c5.99-1.78,11.21-4,16.05-6.59c5.08-2.15,16.49,6.73,26.49,11.95c5.03,2.51,9.7,3.93,12.92,2.37
		c4.01,0.34-5.13-24.84,0.9-26.67c2.55-0.77,5.39-0.48,8.67,1.21c13.89,6.22,31.55,25.75,45.3,33.04c4.5,2.94,8.46,4.04,11.19,1.71
		c8.01-6.32,21.97-16.26,33.31-27.71c10.61-9.18,20.81-17.98,24.35-23.41c1.55-3-4.3-12.41-11.7-22.97
		c-11.94-17.04-28.02-36.88-24.91-37.73c1.88,0.11,3.73,0.25,5.57,0.42c8.42,0.8,16.57,2.12,24.72,3.22
		c4.42,0.61,9.03,1.23,13.48,0.88c4.52-1.33,10.06-7.28,12.76-15.95c0.52-1.66,0.88-3.36,0.99-5.11c0.44-5.58-2.23-10.65-7.46-14.89
		c-5.48-4.46-11.45-8.63-17.56-12.74c-0.54-0.36-1.07-0.72-1.61-1.09c-10.3-7-18.19-15.47-23.91-24.65
		c-6.04-10.71-15.86-17.9-30.4-21c-13.4-2.86-22.92-9.34-31.64-17.03c-6.03-5.35-12.36-10.54-18.83-15.61
		c-5.43-4.23-12.3-7.55-19.66-10.03c-4.79-1.62-9.79-2.87-14.75-3.77c-15.94-2.54-9.25-6.63-24.88-10.06
		c-5.93-1.39-18.39-1.63-24.58-2.35c-0.34-0.09-5.8-0.17-6.14-0.26c-5.94,0.47-25.05,0.52-30.84,1.57
		c-16.01,2.89-21.7,11.18-27.3,20.92c-1.16,2.03-2.38,4.03-3.68,6.01c-4.77,7.2-10.56,14.06-18.37,20.5
		C707.83,277.9,706.08,285.56,709.81,293.16z"/>
	<path class="st0" d="M705.52,292.9c-1.47,1.52-5.36,2.59-10.42,3.77c-4.24,0.89-8.78,0.91-13.21,0.48
		c-9.85-1.4-19.53,0.22-28.94,3.15c-15.88,4.86-25.71,3.5-26.08,13.01c2.75,5.06,50.54,17.73,51.62,24.36
		c1.39,7.5-64.21,15.15-66.05,22.42c-2.17,8.39-30.79,18.98-50.65,28.02c-10.07,3.97-17.96,9.79-19.17,12.93
		c-0.57,6.08,17.19,11.98,39.65,15.18c12.91,2.38,27.26,2.51,40.73,3.62c24.16,1.52,43.9,2.58,41.83,3.98
		c-4.57,1.26-9.18,2.51-13.83,3.33c-7.01,1.14-12.73,3.91-16.93,8.66c-1.39,1.52-2.62,3.21-3.7,5.09
		c-3.98,7.25-7.94,14.02-11.86,20.35c-2,3.24-1.86,7-0.89,10.71c2.41,10.09,4.88,20.09,7.18,30.11c0.69,2.56,0.65,5.17,1.54,7.81
		c1.09,3.25,2.72,6.56,4.31,9.92c3.63,7.4,12.91,11.94,24.34,15.59c14.05,4.42,29.09,7.3,43.75,10.8c8.92,2.13,17.95,3.47,27.26,3.6
		c6.97,0.07,13.28-1.13,18.14-3.95c5.78-3.78,6-7.37,2.96-10.8c-1.91-2.18-4.12-4.18-5.98-6.4c-3.83-4.62-4.64-10.41-2.64-16.53
		c2.32-7.54,8.34-14.3,17.51-19.95c8.53-4.92,18.42-8.53,28.53-11.52c1.49-0.42,2.96-0.82,4.41-1.2
		c10.32-2.33,17.98-4.16,24.37-6.35c6.36-2.11,11.93-4.7,17.08-7.67c5.4-2.57,17.56,6.61,28.14,11.9c5.32,2.55,10.25,3.96,13.6,2.19
		c4.07,0.11-6-26.96,0.06-28.91c2.65-0.85,5.61-0.53,9.03,1.26c14.31,6.58,32.66,27.46,46.85,35.32c4.7,3.15,8.81,4.35,11.64,1.9
		c8.19-6.58,23.05-17.06,35.37-28.95c11.45-9.61,22.47-18.81,26.39-24.41c1.75-3.08-4.4-13-12.19-24.13
		c-12.58-17.96-29.57-38.92-26.04-39.63c2.04,0.15,4.05,0.33,6.05,0.53c9.14,0.98,18.02,2.5,26.91,3.76
		c4.82,0.69,9.84,1.41,14.7,1.06c5.26-1.28,11.45-7.41,14.46-16.33c0.58-1.72,0.99-3.47,1.14-5.28c0.56-5.79-2.16-11.05-7.59-15.44
		c-5.68-4.6-11.86-8.9-18.17-13.15c-0.56-0.37-1.11-0.75-1.66-1.13c-10.67-7.25-18.79-16.03-24.64-25.56
		c-6.28-11.26-16.58-18.78-31.9-21.95c-14.11-2.92-24.09-9.72-33.19-17.81c-6.31-5.64-12.92-11.1-19.7-16.44
		c-5.67-4.45-12.88-7.93-20.61-10.52c-5.02-1.69-10.28-2.98-15.48-3.9c-16.85-2.64-9.56-6.95-26.08-10.56
		c-6.18-1.44-19.33-1.65-25.79-2.38c-0.33-0.08-6.11-0.17-6.44-0.25c-6.15,0.54-26.35,0.66-32.34,1.79
		c-16.84,3.18-22.69,12.01-28.43,22.44c-1.19,2.17-2.45,4.32-3.78,6.44c-4.91,7.71-10.9,15.06-19.05,21.95
		C703.04,276.63,701.35,284.81,705.52,292.9z"/>
	<path class="st0" d="M701.22,292.65c-1.31,1.6-5.18,2.72-10.31,3.94c-4.22,0.9-8.77,0.96-13.24,0.58
		c-9.84-1.28-19.58,0.32-29.02,3.19c-15.96,4.77-25.97,3.59-26.12,12.96c2.96,5.26,53.77,18.53,54.95,25.37
		c1.51,7.76-68.17,15.67-70.1,23.19c-2.29,8.7-32.69,19.76-53.8,29.25c-10.7,4.22-19.08,10.19-20.36,13.53
		c-0.68,6.2,18.03,12.07,41.61,15.29c13.46,2.36,28.42,2.54,42.41,3.64c25.36,1.55,46.02,2.61,43.5,4.03
		c-5.03,1.31-10.09,2.59-15.2,3.43c-7.67,1.17-13.98,4.05-18.66,9.06c-1.54,1.6-2.92,3.39-4.13,5.38
		c-4.5,7.67-8.99,14.89-13.39,21.7c-2.24,3.47-2.18,7.51-1.25,11.5c2.31,10.84,4.69,21.6,6.89,32.37c0.66,2.76,0.54,5.57,1.41,8.4
		c1.07,3.49,2.7,7.04,4.29,10.63c3.63,7.91,13.25,12.76,25.14,16.63c14.6,4.68,30.25,7.67,45.51,11.33
		c9.28,2.22,18.68,3.6,28.38,3.69c7.27,0.04,13.84-1.27,18.86-4.3c6.01-4.05,6.13-7.89,2.77-11.56c-2.11-2.33-4.55-4.47-6.6-6.85
		c-4.24-4.94-5.28-11.1-3.34-17.62c2.26-8.03,8.44-15.21,17.97-21.23c8.83-5.25,19.1-9.09,29.61-12.3c1.55-0.45,3.07-0.89,4.58-1.3
		c10.67-2.55,18.72-4.68,25.49-7.2c6.74-2.45,12.65-5.39,18.12-8.76c5.73-3,18.63,6.49,29.78,11.86c5.62,2.59,10.8,3.98,14.29,2.02
		c4.14-0.12-6.87-29.08-0.79-31.15c2.75-0.94,5.82-0.59,9.38,1.31c14.73,6.95,33.78,29.17,48.39,37.59
		c4.89,3.36,9.17,4.66,12.09,2.09c8.37-6.83,24.13-17.85,37.42-30.18c12.28-10.03,24.13-19.63,28.43-25.42
		c1.95-3.16-4.49-13.58-12.69-25.3c-13.22-18.88-31.12-40.95-27.17-41.54c2.2,0.18,4.37,0.4,6.53,0.65
		c9.87,1.16,19.47,2.87,29.09,4.31c5.21,0.78,10.65,1.58,15.92,1.25c6-1.23,12.84-7.53,16.17-16.71c0.64-1.77,1.1-3.59,1.29-5.46
		c0.69-6-2.08-11.45-7.72-15.98c-5.88-4.74-12.26-9.18-18.78-13.57c-0.57-0.39-1.15-0.77-1.72-1.16
		c-11.03-7.49-19.4-16.59-25.37-26.47c-6.52-11.8-17.3-19.65-33.4-22.89c-14.83-2.99-25.25-10.1-34.74-18.59
		c-6.58-5.92-13.49-11.66-20.56-17.27c-5.91-4.67-13.46-8.31-21.56-11c-5.26-1.76-10.76-3.09-16.21-4.04
		c-17.76-2.75-9.87-7.28-27.27-11.06c-6.44-1.48-20.26-1.68-26.99-2.41c-0.31-0.08-6.43-0.16-6.74-0.24
		c-6.36,0.62-27.65,0.8-33.84,2.02c-17.67,3.47-23.68,12.84-29.55,23.96c-1.22,2.32-2.51,4.6-3.88,6.86
		c-5.05,8.22-11.24,16.06-19.73,23.4C698.24,275.36,696.62,284.06,701.22,292.65z"/>
	<path class="st0" d="M696.91,292.39c-1.15,1.68-5.01,2.86-10.2,4.11c-4.21,0.91-8.76,1.01-13.27,0.68
		c-9.83-1.16-19.64,0.43-29.1,3.24c-16.04,4.68-26.23,3.68-26.17,12.92c3.17,5.46,57.01,19.33,58.28,26.37
		c1.63,8.02-72.12,16.18-74.15,23.95c-2.41,9.01-34.59,20.54-56.95,30.47c-11.33,4.47-20.21,10.6-21.56,14.13
		c-0.8,6.31,18.86,12.16,43.57,15.39c14.02,2.34,29.58,2.57,44.1,3.67c26.55,1.58,48.14,2.63,45.18,4.07
		c-5.48,1.35-11.01,2.67-16.58,3.52c-8.33,1.19-15.22,4.2-20.39,9.45c-1.7,1.68-3.22,3.56-4.57,5.66
		c-5.03,8.1-10.03,15.75-14.92,23.05c-2.48,3.7-2.51,8.02-1.62,12.3c2.21,11.6,4.49,23.11,6.59,34.64c0.63,2.96,0.43,5.97,1.28,8.99
		c1.04,3.73,2.68,7.52,4.27,11.34c3.62,8.43,13.58,13.58,25.93,17.67c15.15,4.94,31.41,8.05,47.26,11.86
		c9.64,2.31,19.41,3.73,29.49,3.78c7.57,0.02,14.4-1.41,19.59-4.64c6.25-4.31,6.25-8.41,2.58-12.32c-2.32-2.48-4.97-4.76-7.23-7.3
		c-4.66-5.26-5.93-11.8-4.05-18.71c2.19-8.51,8.54-16.12,18.43-22.5c9.12-5.57,19.78-9.65,30.69-13.08c1.6-0.49,3.19-0.95,4.75-1.39
		c11.03-2.77,19.46-5.19,26.61-8.05c7.11-2.78,13.36-6.09,19.15-9.84c6.06-3.43,19.7,6.38,31.43,11.81
		c5.91,2.63,11.35,4.01,14.97,1.84c4.2-0.35-7.73-31.21-1.64-33.4c2.84-1.02,6.03-0.64,9.74,1.36
		c15.16,7.31,34.89,30.88,49.94,39.86c5.09,3.58,9.52,4.97,12.54,2.29c8.55-7.09,25.21-18.65,39.48-31.42
		c13.12-10.45,25.79-20.46,30.47-26.42c2.15-3.24-4.59-14.17-13.19-26.46c-13.87-19.81-32.67-42.99-28.3-43.45
		c2.36,0.22,4.69,0.48,7.01,0.77c10.6,1.34,20.92,3.25,31.28,4.85c5.61,0.87,11.46,1.75,17.14,1.43
		c6.74-1.18,14.23-7.65,17.87-17.08c0.7-1.82,1.21-3.7,1.44-5.63c0.82-6.21-2.01-11.85-7.85-16.53
		c-6.08-4.89-12.67-9.46-19.38-13.99c-0.59-0.4-1.18-0.8-1.77-1.2c-11.4-7.74-20-17.15-26.1-27.38
		c-6.77-12.35-18.02-20.53-34.9-23.84c-15.55-3.05-26.41-10.48-36.29-19.37c-6.86-6.2-14.05-12.22-21.43-18.1
		c-6.16-4.89-14.04-8.69-22.51-11.49c-5.5-1.82-11.25-3.21-16.94-4.17c-18.67-2.86-10.17-7.6-28.46-11.56
		c-6.69-1.53-21.2-1.7-28.2-2.44c-0.3-0.08-6.74-0.15-7.05-0.23c-6.58,0.69-28.95,0.94-35.35,2.24
		c-18.5,3.76-24.67,13.67-30.68,25.48c-1.25,2.46-2.57,4.89-3.98,7.29c-5.19,8.73-11.58,17.06-20.41,24.84
		C693.45,274.1,691.88,283.31,696.91,292.39z"/>
	<path class="st0" d="M692.61,292.14c-0.99,1.76-4.83,3-10.1,4.28c-4.19,0.92-8.75,1.05-13.3,0.78c-9.82-1.04-19.69,0.53-29.18,3.29
		c-16.11,4.59-26.48,3.77-26.22,12.87c3.38,5.66,60.24,20.13,61.62,27.37c1.74,8.29-76.07,16.7-78.21,24.72
		c-2.53,9.32-36.49,21.32-60.11,31.7c-11.96,4.72-21.33,11-22.76,14.72c-0.91,6.42,19.7,12.26,45.53,15.5
		c14.57,2.32,30.73,2.6,45.78,3.7c27.75,1.6,50.26,2.65,46.86,4.11c-5.94,1.39-11.92,2.75-17.96,3.62
		c-8.99,1.22-16.46,4.35-22.12,9.85c-1.85,1.76-3.52,3.74-5,5.95c-5.55,8.52-11.08,16.62-16.45,24.39
		c-2.71,3.93-2.83,8.54-1.98,13.09c2.11,12.35,4.3,24.62,6.3,36.9c0.6,3.16,0.33,6.36,1.15,9.58c1.02,3.97,2.66,7.99,4.25,12.05
		c3.62,8.95,13.91,14.41,26.73,18.71c15.7,5.2,32.57,8.43,49.02,12.39c9.99,2.41,20.14,3.86,30.61,3.87
		c7.86-0.01,14.95-1.54,20.31-4.99c6.49-4.58,6.38-8.93,2.39-13.07c-2.52-2.64-5.39-5.06-7.85-7.74
		c-5.08-5.58-6.58-12.49-4.76-19.79c2.13-8.99,8.63-17.03,18.89-23.78c9.42-5.9,20.47-10.22,31.78-13.86
		c1.66-0.52,3.3-1.01,4.93-1.49c11.39-2.98,20.21-5.71,27.73-8.9c7.48-3.11,14.08-6.78,20.18-10.92
		c6.38-3.85,20.77,6.26,33.08,11.76c6.21,2.67,11.89,4.03,15.66,1.67c4.27-0.58-8.6-33.33-2.48-35.64
		c2.94-1.11,6.25-0.69,10.09,1.41c15.58,7.68,36.01,32.59,51.49,42.14c5.29,3.79,9.88,5.28,12.99,2.48
		c8.73-7.34,26.3-19.45,41.53-32.65c13.95-10.87,27.45-21.29,32.51-27.43c2.35-3.32-4.68-14.76-13.69-27.63
		c-14.51-20.73-34.22-45.02-29.42-45.35c2.52,0.26,5.01,0.56,7.49,0.88c11.32,1.52,22.37,3.63,33.46,5.39
		c6.01,0.96,12.28,1.92,18.37,1.61c7.47-1.14,15.62-7.78,19.57-17.46c0.76-1.87,1.33-3.81,1.6-5.8c0.94-6.41-1.94-12.25-7.98-17.07
		c-6.28-5.03-13.08-9.74-19.99-14.4c-0.61-0.41-1.22-0.82-1.82-1.23c-11.76-7.99-20.6-17.71-26.83-28.29
		c-7.01-12.9-18.74-21.41-36.4-24.79c-16.26-3.11-27.58-10.86-37.84-20.15c-7.13-6.49-14.62-12.78-22.29-18.93
		c-6.4-5.11-14.62-9.08-23.46-11.98c-5.73-1.89-11.73-3.32-17.67-4.31c-19.58-2.96-10.48-7.92-29.66-12.06
		c-6.94-1.58-22.14-1.72-29.4-2.47c-0.29-0.07-7.06-0.15-7.35-0.22c-6.79,0.77-30.25,1.08-36.85,2.46
		c-19.33,4.05-25.65,14.5-31.81,27c-1.28,2.6-2.63,5.18-4.08,7.71c-5.32,9.24-11.92,18.05-21.09,26.29
		C688.65,272.83,687.15,282.55,692.61,292.14z"/>
	<path class="st0" d="M688.31,291.88c-0.83,1.84-4.65,3.14-9.99,4.46c-4.17,0.93-8.75,1.1-13.32,0.88
		c-9.81-0.92-19.74,0.64-29.26,3.34c-16.19,4.49-26.74,3.85-26.27,12.82c3.58,5.86,63.47,20.94,64.95,28.38
		c1.86,8.55-80.03,17.21-82.26,25.48c-2.65,9.63-38.39,22.09-63.26,32.92c-12.59,4.97-22.45,11.4-23.96,15.32
		c-1.02,6.54,20.53,12.35,47.49,15.61c15.13,2.3,31.89,2.63,47.46,3.72c28.95,1.63,52.38,2.68,48.54,4.16
		c-6.4,1.43-12.84,2.84-19.33,3.72c-9.65,1.24-17.71,4.5-23.85,10.25c-2.01,1.84-3.82,3.91-5.44,6.23
		c-6.07,8.94-12.13,17.49-17.97,25.74c-2.95,4.16-3.15,9.05-2.35,13.88c2.01,13.1,4.11,26.13,6.01,39.17
		c0.57,3.36,0.22,6.76,1.02,10.18c0.99,4.21,2.63,8.47,4.23,12.77c3.61,9.47,14.24,15.23,27.52,19.75
		c16.25,5.46,33.73,8.8,50.77,12.92c10.35,2.5,20.87,3.99,31.72,3.96c8.16-0.04,15.51-1.68,21.03-5.33c6.72-4.85,6.5-9.44,2.2-13.83
		c-2.72-2.79-5.82-5.35-8.47-8.19c-5.49-5.9-7.23-13.19-5.46-20.88c2.06-9.47,8.73-17.94,19.35-25.06
		c9.72-6.22,21.15-10.78,32.86-14.64c1.71-0.55,3.41-1.08,5.1-1.59c11.74-3.2,20.95-6.22,28.85-9.74
		c7.85-3.45,14.8-7.48,21.21-12.01c6.71-4.28,21.84,6.14,34.72,11.72c6.5,2.71,12.44,4.06,16.35,1.49
		c4.33-0.81-9.48-35.46-3.33-37.88c3.03-1.19,6.46-0.75,10.45,1.46c16,8.05,37.13,34.3,53.04,44.41c5.48,4,10.23,5.59,13.44,2.67
		c8.9-7.6,27.38-20.24,43.58-33.89c14.78-11.3,29.11-22.12,34.55-28.44c2.55-3.4-4.78-15.34-14.19-28.8
		c-15.15-21.65-35.77-47.06-30.55-47.26c2.68,0.3,5.33,0.63,7.97,1c12.05,1.7,23.81,4,35.65,5.93c6.41,1.05,13.09,2.09,19.59,1.8
		c8.21-1.09,17.01-7.9,21.27-17.84c0.83-1.93,1.44-3.92,1.75-5.98c1.07-6.62-1.86-12.65-8.11-17.62
		c-6.48-5.17-13.48-10.02-20.6-14.82c-0.63-0.42-1.25-0.85-1.88-1.27c-12.13-8.24-21.2-18.27-27.56-29.19
		c-7.25-13.45-19.46-22.29-37.9-25.74c-16.98-3.18-28.74-11.23-39.39-20.93c-7.4-6.77-15.19-13.34-23.16-19.76
		c-6.64-5.33-15.2-9.46-24.41-12.47c-5.97-1.96-12.22-3.43-18.41-4.44c-20.49-3.07-10.79-8.24-30.85-12.55
		c-7.2-1.62-23.08-1.74-30.61-2.5c-0.28-0.07-7.37-0.14-7.65-0.21c-7,0.84-31.55,1.22-38.35,2.69
		c-20.16,4.35-26.64,15.33-32.94,28.52c-1.31,2.75-2.7,5.46-4.18,8.14c-5.46,9.75-12.26,19.05-21.77,27.73
		C683.85,271.56,682.41,281.8,688.31,291.88z"/>
	<path class="st0" d="M684,291.62c-0.66,1.92-4.48,3.28-9.88,4.63c-4.15,0.94-8.74,1.15-13.35,0.97c-9.8-0.81-19.79,0.75-29.35,3.38
		c-16.27,4.4-27,3.94-26.32,12.77c3.79,6.06,66.71,21.74,68.29,29.38c1.98,8.82-83.98,17.73-86.31,26.24
		c-2.76,9.94-40.29,22.87-66.42,34.15c-13.22,5.22-23.58,11.8-25.16,15.92c-1.14,6.65,21.36,12.45,49.45,15.72
		c15.69,2.28,33.05,2.65,49.14,3.75c30.15,1.65,54.5,2.7,50.21,4.2c-6.85,1.47-13.75,2.92-20.71,3.81
		c-10.32,1.26-18.95,4.65-25.58,10.64c-2.16,1.92-4.12,4.09-5.87,6.51c-6.6,9.36-13.17,18.35-19.5,27.09
		c-3.19,4.39-3.48,9.56-2.71,14.67c1.91,13.86,3.92,27.64,5.72,41.44c0.54,3.56,0.11,7.16,0.9,10.77c0.97,4.45,2.61,8.95,4.2,13.48
		c3.61,9.99,14.57,16.05,28.32,20.79c16.79,5.72,34.89,9.18,52.53,13.45c10.71,2.59,21.6,4.12,32.84,4.05
		c8.46-0.07,16.06-1.82,21.75-5.68c6.96-5.11,6.63-9.96,2.01-14.59c-2.92-2.94-6.24-5.64-9.1-8.64c-5.91-6.22-7.88-13.88-6.17-21.97
		c1.99-9.96,8.83-18.85,19.81-26.33c10.02-6.54,21.83-11.34,33.94-15.43c1.77-0.58,3.53-1.14,5.27-1.68
		c12.1-3.42,21.69-6.74,29.97-10.59c8.23-3.78,15.51-8.18,22.24-13.09c7.04-4.7,22.9,6.03,36.37,11.67
		c6.8,2.76,12.99,4.08,17.03,1.32c4.4-1.04-10.35-37.59-4.17-40.12c3.12-1.28,6.67-0.8,10.8,1.51
		c16.42,8.41,38.24,36.01,54.58,46.68c5.68,4.21,10.58,5.89,13.89,2.87c9.08-7.85,28.46-21.04,45.64-35.12
		c15.62-11.72,30.77-22.94,36.59-29.44c2.75-3.48-4.88-15.93-14.69-29.96c-15.79-22.57-37.32-49.09-31.68-49.16
		c2.84,0.33,5.65,0.71,8.44,1.11c12.77,1.87,25.26,4.38,37.84,6.47c6.8,1.13,13.9,2.26,20.81,1.98c8.95-1.04,18.4-8.02,22.97-18.22
		c0.89-1.98,1.55-4.03,1.9-6.15c1.19-6.83-1.79-13.05-8.24-18.16c-6.68-5.31-13.89-10.29-21.2-15.23c-0.64-0.44-1.29-0.87-1.93-1.31
		c-12.49-8.48-21.8-18.83-28.29-30.1c-7.49-13.99-20.18-23.17-39.39-26.68c-17.7-3.24-29.91-11.61-40.94-21.71
		c-7.68-7.06-15.75-13.9-24.02-20.59c-6.88-5.55-15.78-9.84-25.36-12.95c-6.21-2.02-12.7-3.54-19.14-4.58
		c-21.4-3.17-11.1-8.56-32.05-13.05c-7.45-1.67-24.02-1.76-31.81-2.54c-0.26-0.07-7.69-0.13-7.95-0.2
		c-7.22,0.92-32.85,1.37-39.85,2.91c-20.99,4.64-27.63,16.16-34.07,30.04c-1.34,2.89-2.76,5.75-4.28,8.57
		c-5.6,10.27-12.6,20.05-22.44,29.18C679.05,270.29,677.68,281.05,684,291.62z"/>
	<path class="st0" d="M679.7,291.37c-0.5,2-4.3,3.42-9.77,4.8c-4.13,0.95-8.73,1.19-13.38,1.07c-9.78-0.69-19.85,0.85-29.43,3.43
		c-16.35,4.31-27.25,4.03-26.37,12.72c4,6.27,69.94,22.54,71.62,30.38c2.1,9.08-87.93,18.24-90.36,27.01
		c-2.88,10.25-42.19,23.65-69.57,35.37c-13.85,5.47-24.7,12.2-26.35,16.52c-1.25,6.77,22.2,12.54,51.41,15.82
		c16.24,2.26,34.2,2.68,50.83,3.78c31.35,1.68,56.62,2.72,51.89,4.24c-7.31,1.52-14.67,3-22.09,3.91
		c-10.98,1.29-20.2,4.79-27.31,11.04c-2.32,2-4.42,4.26-6.3,6.8c-7.12,9.79-14.21,19.22-21.03,28.43
		c-3.42,4.63-3.8,10.07-3.08,15.47c1.81,14.61,3.73,29.15,5.42,43.7c0.51,3.76,0,7.55,0.77,11.36c0.94,4.69,2.59,9.43,4.18,14.19
		c3.61,10.51,14.91,16.87,29.12,21.83c17.34,5.98,36.05,9.56,54.28,13.98c11.07,2.68,22.33,4.24,33.95,4.14
		c8.76-0.1,16.62-1.96,22.47-6.02c7.2-5.38,6.76-10.48,1.82-15.34c-3.12-3.09-6.66-5.94-9.72-9.08c-6.32-6.54-8.53-14.58-6.88-23.05
		c1.93-10.44,8.92-19.76,20.27-27.61c10.32-6.87,22.51-11.9,35.03-16.21c1.83-0.61,3.64-1.2,5.44-1.78
		c12.46-3.64,22.44-7.26,31.09-11.44c8.6-4.11,16.23-8.87,23.27-14.17c7.37-5.13,23.97,5.91,38.02,11.62
		c7.09,2.8,13.54,4.11,17.72,1.15c4.46-1.27-11.23-39.72-5.02-42.37c3.22-1.37,6.88-0.86,11.16,1.56
		c16.85,8.78,39.36,37.72,56.13,48.96c5.88,4.42,10.94,6.2,14.34,3.06c9.26-8.11,29.54-21.83,47.69-36.36
		c16.45-12.14,32.43-23.77,38.63-30.45c2.95-3.55-4.97-16.51-15.19-31.13c-16.43-23.49-38.88-51.13-32.81-51.07
		c3,0.37,5.97,0.78,8.92,1.23c13.5,2.05,26.71,4.76,40.02,7.01c7.2,1.22,14.71,2.43,22.03,2.16c9.69-0.99,19.79-8.15,24.67-18.6
		c0.95-2.03,1.66-4.14,2.05-6.32c1.32-7.04-1.72-13.45-8.37-18.71c-6.88-5.45-14.29-10.57-21.81-15.65
		c-0.66-0.45-1.32-0.9-1.98-1.34c-12.86-8.73-22.41-19.38-29.01-31.01c-7.74-14.54-20.9-24.04-40.89-27.63
		c-18.41-3.31-31.07-11.99-42.49-22.49c-7.95-7.34-16.32-14.46-24.89-21.42c-7.13-5.77-16.36-10.22-26.31-13.44
		c-6.44-2.09-13.19-3.65-19.87-4.72c-22.31-3.28-11.41-8.88-33.24-13.55c-7.7-1.72-24.96-1.79-33.02-2.57
		c-0.25-0.06-8-0.13-8.25-0.19c-7.43,1-34.15,1.51-41.35,3.14c-21.82,4.94-28.61,16.99-35.2,31.56c-1.37,3.03-2.82,6.03-4.38,8.99
		c-5.73,10.78-12.94,21.05-23.12,30.62C674.25,269.01,672.94,280.29,679.7,291.37z"/>
	<path class="st0" d="M675.39,291.11c-0.34,2.08-4.12,3.56-9.66,4.97c-4.11,0.96-8.72,1.24-13.41,1.17
		c-9.77-0.57-19.9,0.96-29.51,3.48c-16.43,4.22-27.51,4.12-26.42,12.67c4.21,6.47,73.17,23.35,74.95,31.38
		c2.22,9.34-91.89,18.76-94.41,27.77c-3,10.56-44.09,24.43-72.72,36.6c-14.48,5.71-25.82,12.6-27.55,17.11
		c-1.37,6.88,23.03,12.63,53.37,15.93c16.8,2.24,35.36,2.71,52.51,3.8c32.54,1.7,58.74,2.75,53.57,4.29
		c-7.77,1.56-15.58,3.09-23.46,4.01c-11.64,1.31-21.44,4.94-29.04,11.44c-2.47,2.08-4.72,4.44-6.74,7.08
		c-7.65,10.21-15.26,20.09-22.56,29.78c-3.66,4.86-4.13,10.58-3.44,16.26c1.71,15.36,3.54,30.66,5.13,45.97
		c0.48,3.95-0.1,7.95,0.64,11.95c0.91,4.93,2.57,9.9,4.16,14.9c3.6,11.02,15.24,17.7,29.91,22.87c17.89,6.24,37.21,9.94,56.04,14.51
		c11.43,2.77,23.06,4.37,35.07,4.23c9.06-0.13,17.18-2.09,23.2-6.37c7.43-5.64,6.88-11,1.63-16.1c-3.33-3.25-7.08-6.23-10.34-9.53
		c-6.74-6.86-9.18-15.27-7.58-24.14c1.86-10.92,9.02-20.67,20.72-28.89c10.62-7.19,23.19-12.46,36.11-16.99
		c1.88-0.65,3.75-1.27,5.61-1.87c12.81-3.86,23.18-7.77,32.21-12.29c8.97-4.44,16.95-9.57,24.3-15.25
		c7.69-5.55,25.04,5.8,39.66,11.58c7.39,2.84,14.08,4.13,18.4,0.97c4.53-1.5-12.1-41.85-5.87-44.61c3.31-1.46,7.1-0.91,11.51,1.61
		c17.27,9.14,40.47,39.44,57.68,51.23c6.08,4.64,11.29,6.51,14.79,3.25c9.44-8.36,30.62-22.63,49.75-37.59
		c17.29-12.57,34.09-24.6,40.67-31.46c3.15-3.63-5.07-17.1-15.69-32.29c-17.07-24.41-40.43-53.16-33.94-52.97
		c3.16,0.41,6.29,0.86,9.4,1.34c14.22,2.23,28.16,5.14,42.21,7.55c7.6,1.31,15.53,2.61,23.25,2.35
		c10.43-0.95,21.18-8.27,26.37-18.97c1.01-2.08,1.78-4.25,2.2-6.5c1.44-7.25-1.65-13.85-8.51-19.25
		c-7.08-5.6-14.7-10.85-22.42-16.06c-0.68-0.46-1.36-0.92-2.04-1.38c-13.22-8.98-23.01-19.94-29.74-31.92
		c-7.98-15.09-21.62-24.92-42.39-28.58c-19.13-3.37-32.23-12.37-44.04-23.27c-8.23-7.62-16.88-15.02-25.75-22.25
		c-7.37-5.99-16.94-10.6-27.26-13.93c-6.68-2.16-13.67-3.77-20.6-4.85c-23.22-3.38-11.72-9.21-34.43-14.05
		c-7.95-1.76-25.9-1.81-34.22-2.6c-0.24-0.06-8.32-0.12-8.55-0.18c-7.64,1.07-35.45,1.65-42.86,3.36
		c-22.65,5.24-29.6,17.82-36.33,33.08c-1.4,3.18-2.88,6.32-4.49,9.42c-5.87,11.29-13.28,22.05-23.8,32.07
		C669.44,267.74,668.2,279.54,675.39,291.11z"/>
	<path class="st0" d="M671.08,290.85c-0.18,2.16-3.95,3.7-9.56,5.15c-4.1,0.96-8.71,1.29-13.44,1.27
		c-9.76-0.45-19.95,1.06-29.59,3.52c-16.51,4.13-27.76,4.2-26.47,12.63c4.42,6.67,76.41,24.15,78.29,32.39
		c2.34,9.61-95.84,19.27-98.46,28.54c-3.12,10.87-46,25.21-75.88,37.82c-15.11,5.96-26.94,13-28.75,17.71
		c-1.48,6.99,23.86,12.73,55.33,16.04c17.35,2.22,36.52,2.74,54.19,3.83c33.74,1.73,60.85,2.77,55.25,4.33
		c-8.22,1.6-16.5,3.17-24.84,4.11c-12.3,1.33-22.68,5.09-30.77,11.83c-2.63,2.16-5.02,4.61-7.17,7.37
		c-8.17,10.63-16.3,20.96-24.09,31.13c-3.9,5.09-4.45,11.09-3.81,17.05c1.61,16.12,3.35,32.17,4.84,48.24
		c0.45,4.15-0.21,8.35,0.51,12.54c0.89,5.17,2.55,10.38,4.14,15.61c3.6,11.54,15.57,18.52,30.71,23.91
		c18.44,6.5,38.36,10.31,57.79,15.04c11.79,2.87,23.78,4.5,36.18,4.32c9.36-0.16,17.73-2.23,23.92-6.72
		c7.67-5.91,7.01-11.51,1.44-16.86c-3.53-3.4-7.51-6.52-10.96-9.98c-7.16-7.18-9.82-15.97-8.29-25.23
		c1.79-11.4,9.11-21.57,21.18-30.16c10.92-7.52,23.87-13.02,37.19-17.77c1.94-0.68,3.87-1.33,5.79-1.97
		c13.17-4.08,23.92-8.29,33.33-13.14c9.34-4.78,17.66-10.26,25.33-16.34c8.02-5.98,26.11,5.68,41.31,11.53
		c7.68,2.88,14.63,4.16,19.09,0.8c4.59-1.73-12.98-43.98-6.71-46.85c3.4-1.56,7.31-0.97,11.87,1.66
		c17.69,9.51,41.59,41.15,59.22,53.5c6.27,4.85,11.65,6.82,15.24,3.45c9.62-8.62,31.7-23.42,51.8-38.83
		c18.12-12.99,35.75-25.42,42.71-32.46c3.35-3.71-5.16-17.68-16.19-33.46c-17.71-25.33-41.98-55.19-35.07-54.88
		c3.31,0.44,6.61,0.93,9.88,1.46c14.95,2.41,29.61,5.51,44.39,8.09c8,1.4,16.34,2.78,24.47,2.53c11.16-0.9,22.57-8.39,28.07-19.35
		c1.07-2.14,1.89-4.36,2.35-6.67c1.57-7.46-1.57-14.25-8.64-19.8c-7.28-5.74-15.11-11.13-23.02-16.48c-0.7-0.47-1.4-0.94-2.09-1.42
		c-13.59-9.23-23.61-20.5-30.47-32.82c-8.22-15.64-22.34-25.8-43.89-29.52c-19.85-3.43-33.4-12.75-45.59-24.05
		c-8.5-7.91-17.45-15.58-26.62-23.08c-7.61-6.21-17.52-10.98-28.21-14.42c-6.91-2.23-14.16-3.88-21.33-4.99
		c-24.14-3.49-12.03-9.53-35.63-14.55c-8.21-1.81-26.84-1.83-35.43-2.63c-0.22-0.06-8.63-0.11-8.85-0.17
		c-7.86,1.15-36.75,1.79-44.36,3.59c-23.47,5.54-30.59,18.65-37.46,34.6c-1.43,3.32-2.95,6.6-4.59,9.84
		c-6.01,11.8-13.62,23.04-24.48,33.51C664.64,266.47,663.46,278.79,671.08,290.85z"/>
	<path class="st0" d="M666.77,290.59c-0.02,2.24-3.77,3.84-9.45,5.32c-4.08,0.97-8.71,1.34-13.46,1.37
		c-9.75-0.33-20,1.17-29.67,3.57c-16.58,4.04-28.02,4.29-26.52,12.58c4.62,6.87,79.64,24.95,81.62,33.39
		c2.46,9.87-99.8,19.79-102.52,29.3c-3.24,11.18-47.9,25.99-79.03,39.05c-15.74,6.21-28.07,13.41-29.95,18.31
		c-1.6,7.11,24.7,12.82,57.29,16.14c17.91,2.2,37.67,2.77,55.88,3.86c34.94,1.75,62.97,2.79,56.92,4.37
		c-8.68,1.64-17.42,3.25-26.21,4.2c-12.96,1.36-23.93,5.24-32.5,12.23c-2.78,2.25-5.32,4.79-7.61,7.65
		c-8.69,11.05-17.35,21.82-25.62,32.47c-4.13,5.32-4.78,11.6-4.17,17.84c1.5,16.87,3.16,33.68,4.55,50.5
		c0.42,4.35-0.32,8.74,0.38,13.13c0.86,5.41,2.53,10.86,4.12,16.32c3.59,12.06,15.9,19.34,31.5,24.95
		c18.99,6.76,39.52,10.69,59.55,15.57c12.15,2.96,24.51,4.63,37.3,4.41c9.65-0.18,18.29-2.37,24.64-7.06
		c7.91-6.17,7.13-12.03,1.25-17.61c-3.73-3.55-7.93-6.81-11.59-10.42c-7.57-7.5-10.47-16.66-9-26.31
		c1.73-11.88,9.21-22.48,21.64-31.44c11.22-7.84,24.56-13.58,38.28-18.55c1.99-0.71,3.98-1.39,5.96-2.06
		c13.53-4.3,24.67-8.8,34.45-13.99c9.72-5.11,18.38-10.96,26.36-17.42c8.35-6.41,27.18,5.56,42.96,11.48
		c7.98,2.92,15.18,4.18,19.77,0.62c4.66-1.96-13.86-46.11-7.56-49.1c3.49-1.65,7.52-1.02,12.22,1.71
		c18.12,9.88,42.7,42.86,60.77,55.78c6.47,5.06,12,7.13,15.68,3.64c9.8-8.87,32.79-24.22,53.85-40.07
		c18.95-13.41,37.4-26.25,44.75-33.47c3.55-3.79-5.26-18.27-16.69-34.62c-18.35-26.25-43.53-57.23-36.19-56.79
		c3.47,0.48,6.93,1.01,10.36,1.57c15.67,2.59,31.06,5.89,46.58,8.63c8.39,1.49,17.15,2.95,25.69,2.71
		c11.9-0.85,23.96-8.51,29.78-19.73c1.14-2.19,2-4.47,2.51-6.84c1.69-7.67-1.5-14.65-8.77-20.34c-7.48-5.88-15.51-11.41-23.63-16.89
		c-0.72-0.48-1.43-0.97-2.15-1.45c-13.95-9.47-24.21-21.06-31.2-33.73c-8.47-16.18-23.06-26.68-45.39-30.47
		c-20.56-3.5-34.56-13.12-47.14-24.83c-8.78-8.19-18.01-16.14-27.48-23.91c-7.86-6.43-18.1-11.37-29.16-14.9
		c-7.15-2.29-14.64-3.99-22.06-5.12c-25.05-3.59-12.34-9.85-36.82-15.05c-8.46-1.86-27.77-1.85-36.63-2.66
		c-0.21-0.05-8.94-0.11-9.16-0.16c-8.07,1.22-38.04,1.93-45.86,3.81c-24.3,5.84-31.58,19.48-38.58,36.12
		c-1.46,3.46-3.01,6.89-4.69,10.27c-6.14,12.31-13.96,24.04-25.16,34.96C659.84,265.2,658.72,278.03,666.77,290.59z"/>
	<path class="st0" d="M662.47,290.33c0.14,2.32-3.59,3.98-9.34,5.49c-4.06,0.98-8.7,1.38-13.49,1.47
		c-9.74-0.21-20.05,1.28-29.75,3.62c-16.66,3.95-28.28,4.38-26.57,12.53c4.83,7.07,82.87,25.76,84.96,34.39
		c2.58,10.14-103.75,20.31-106.57,30.06c-3.35,11.49-49.8,26.77-82.18,40.27c-16.37,6.46-29.19,13.81-31.15,18.91
		c-1.71,7.22,25.53,12.92,59.25,16.25c18.47,2.18,38.83,2.79,57.56,3.88c36.14,1.78,65.09,2.82,58.6,4.42
		c-9.14,1.68-18.33,3.33-27.59,4.3c-13.62,1.38-25.17,5.38-34.23,12.63c-2.94,2.33-5.62,4.97-8.04,7.94
		c-9.22,11.47-18.39,22.69-27.14,33.82c-4.37,5.55-5.1,12.11-4.54,18.64c1.4,17.62,2.96,35.19,4.26,52.77
		c0.39,4.55-0.43,9.14,0.25,13.72c0.84,5.65,2.51,11.34,4.1,17.03c3.59,12.58,16.23,20.17,32.3,25.99
		c19.54,7.02,40.68,11.07,61.3,16.1c12.51,3.05,25.24,4.76,38.41,4.51c9.95-0.21,18.84-2.5,25.36-7.41
		c8.14-6.44,7.26-12.55,1.06-18.37c-3.93-3.71-8.35-7.11-12.21-10.87c-7.99-7.82-11.12-17.36-9.71-27.4
		c1.66-12.37,9.31-23.39,22.1-32.71c11.52-8.16,25.24-14.15,39.36-19.33c2.05-0.74,4.1-1.46,6.13-2.16
		c13.88-4.51,25.41-9.32,35.56-14.83c10.09-5.44,19.1-11.65,27.39-18.5c8.67-6.83,28.25,5.45,44.6,11.43
		c8.27,2.96,15.73,4.21,20.46,0.45c4.72-2.19-14.74-48.25-8.4-51.34c3.57-1.74,7.74-1.07,12.58,1.76
		c18.54,10.24,43.82,44.57,62.32,58.05c6.67,5.27,12.35,7.44,16.13,3.83c9.97-9.13,33.87-25.02,55.91-41.3
		c19.79-13.83,39.06-27.08,46.79-34.47c3.75-3.87-5.35-18.85-17.19-35.79c-18.99-27.17-45.08-59.26-37.32-58.69
		c3.63,0.52,7.25,1.08,10.84,1.69c16.4,2.77,32.5,6.27,48.77,9.17c8.79,1.57,17.96,3.12,26.91,2.89
		c12.64-0.8,25.35-8.64,31.48-20.11c1.2-2.24,2.11-4.58,2.66-7.02c1.82-7.87-1.43-15.04-8.9-20.89
		c-7.68-6.02-15.92-11.69-24.24-17.31c-0.73-0.5-1.47-0.99-2.2-1.49c-14.32-9.72-24.81-21.62-31.93-34.64
		c-8.71-16.73-23.78-27.56-46.89-31.42c-21.28-3.56-35.72-13.5-48.69-25.61c-9.05-8.48-18.58-16.7-28.35-24.74
		c-8.1-6.65-18.68-11.75-30.11-15.39c-7.39-2.36-15.13-4.1-22.79-5.26c-25.96-3.7-12.65-10.17-38.01-15.55
		c-8.71-1.9-28.71-1.87-37.84-2.7c-0.2-0.05-9.26-0.1-9.46-0.15c-8.28,1.3-39.34,2.08-47.36,4.04
		c-25.13,6.14-32.56,20.31-39.71,37.64c-1.49,3.61-3.07,7.17-4.79,10.69c-6.28,12.82-14.31,25.04-25.84,36.41
		C655.03,263.92,653.98,277.28,662.47,290.33z"/>
	<path class="st0" d="M658.16,290.07c0.31,2.4-3.42,4.12-9.23,5.66c-4.04,0.99-8.69,1.43-13.52,1.57
		c-9.73-0.09-20.11,1.38-29.83,3.67c-16.74,3.86-28.53,4.47-26.62,12.48c5.04,7.27,86.11,26.56,88.29,35.4
		c2.69,10.4-107.7,20.82-110.62,30.83c-3.47,11.8-51.7,27.55-85.34,41.5c-17,6.71-30.31,14.21-32.34,19.5
		c-1.82,7.33,26.37,13.01,61.21,16.36c19.02,2.16,39.98,2.82,59.24,3.91c37.34,1.81,67.21,2.84,60.28,4.46
		c-9.59,1.73-19.25,3.42-28.97,4.4c-14.29,1.4-26.41,5.53-35.96,13.02c-3.09,2.41-5.92,5.14-8.47,8.22
		c-9.74,11.9-19.43,23.56-28.67,35.16c-4.6,5.78-5.43,12.63-4.9,19.43c1.3,18.38,2.77,36.7,3.96,55.03
		c0.36,4.75-0.53,9.54,0.13,14.32c0.81,5.89,2.48,11.81,4.08,17.75c3.58,13.1,16.56,20.99,33.1,27.03
		c20.09,7.28,41.84,11.45,63.06,16.63c12.87,3.14,25.97,4.89,39.53,4.6c10.25-0.24,19.4-2.64,26.08-7.75
		c8.38-6.7,7.38-13.07,0.87-19.13c-4.14-3.86-8.78-7.4-12.83-11.32c-8.4-8.14-11.77-18.05-10.41-28.49
		c1.59-12.85,9.4-24.3,22.56-33.99c11.82-8.49,25.92-14.71,40.44-20.11c2.11-0.77,4.21-1.52,6.3-2.25
		c14.24-4.73,26.15-9.83,36.68-15.68c10.46-5.77,19.81-12.35,28.42-19.58c9-7.26,29.31,5.33,46.25,11.39
		c8.57,3,16.27,4.23,21.15,0.28c4.79-2.42-15.62-50.38-9.25-53.58c3.66-1.84,7.95-1.13,12.93,1.81
		c18.96,10.61,44.94,46.28,63.86,60.32c6.87,5.48,12.71,7.74,16.58,4.03c10.15-9.38,34.95-25.81,57.96-42.54
		c20.62-14.26,40.72-27.91,48.83-35.48c3.95-3.95-5.45-19.44-17.69-36.96c-19.63-28.09-46.63-61.3-38.45-60.6
		c3.79,0.55,7.56,1.16,11.32,1.8c17.13,2.95,33.95,6.65,50.95,9.72c9.19,1.66,18.77,3.29,28.13,3.08
		c13.38-0.75,26.74-8.76,33.18-20.49c1.26-2.29,2.22-4.69,2.81-7.19c1.94-8.08-1.36-15.44-9.03-21.43
		c-7.88-6.17-16.33-11.96-24.84-17.72c-0.75-0.51-1.5-1.02-2.25-1.53c-14.68-9.97-25.42-22.18-32.66-35.55
		c-8.95-17.28-24.5-28.43-48.39-32.36c-22-3.62-36.89-13.88-50.24-26.39c-9.33-8.76-19.15-17.26-29.21-25.57
		c-8.34-6.87-19.26-12.13-31.06-15.88c-7.62-2.43-15.61-4.22-23.52-5.39c-26.87-3.8-12.96-10.49-39.21-16.05
		c-8.97-1.95-29.65-1.89-39.05-2.73c-0.18-0.05-9.57-0.09-9.76-0.14c-8.5,1.37-40.64,2.22-48.87,4.26
		c-25.95,6.45-33.55,21.14-40.84,39.16c-1.52,3.75-3.14,7.46-4.89,11.12c-6.42,13.33-14.65,26.04-26.52,37.85
		C650.23,262.65,649.24,276.52,658.16,290.07z"/>
	<path class="st0" d="M653.85,289.81c0.47,2.48-3.24,4.26-9.13,5.84c-4.02,1-8.68,1.48-13.55,1.67c-9.72,0.03-20.16,1.49-29.91,3.71
		c-16.82,3.76-28.79,4.55-26.67,12.43c5.25,7.47,89.34,27.36,91.62,36.4c2.81,10.66-111.66,21.34-114.67,31.59
		c-3.59,12.11-53.6,28.33-88.49,42.73c-17.63,6.96-31.43,14.61-33.54,20.1c-1.94,7.45,27.2,13.1,63.17,16.46
		c19.58,2.14,41.14,2.85,60.92,3.93c38.54,1.83,69.33,2.86,61.96,4.5c-10.05,1.77-20.16,3.5-30.34,4.5
		c-14.95,1.43-27.66,5.68-37.69,13.42c-3.25,2.49-6.22,5.32-8.91,8.51c-10.26,12.32-20.48,24.42-30.2,36.51
		c-4.84,6.02-5.75,13.14-5.27,20.22c1.2,19.13,2.58,38.21,3.67,57.3c0.33,4.95-0.64,9.93,0,14.91c0.78,6.13,2.46,12.29,4.06,18.46
		c3.58,13.62,16.9,21.81,33.89,28.07c20.63,7.54,43,11.82,64.81,17.16c13.23,3.24,26.7,5.02,40.64,4.69
		c10.55-0.27,19.95-2.78,26.8-8.1c8.62-6.97,7.51-13.58,0.68-19.88c-4.34-4.01-9.2-7.69-13.45-11.76
		c-8.82-8.45-12.42-18.75-11.12-29.57c1.53-13.33,9.5-25.21,23.02-35.27c12.11-8.81,26.6-15.27,41.53-20.89
		c2.16-0.8,4.32-1.59,6.47-2.35c14.6-4.95,26.9-10.35,37.8-16.53c10.84-6.11,20.53-13.04,29.45-20.67
		c9.33-7.68,30.38,5.21,47.9,11.34c8.86,3.04,16.82,4.26,21.83,0.1c4.85-2.65-16.51-52.51-10.1-55.82
		c3.75-1.94,8.16-1.18,13.29,1.86c19.38,10.97,46.05,47.99,65.41,62.59c7.06,5.7,13.06,8.05,17.03,4.22
		c10.33-9.63,36.03-26.61,60.01-43.77c21.46-14.68,42.38-28.73,50.87-36.49c4.15-4.03-5.55-20.03-18.19-38.12
		c-20.27-29.01-48.18-63.33-39.58-62.5c3.95,0.59,7.88,1.24,11.8,1.92c17.85,3.13,35.4,7.02,53.14,10.26
		c9.59,1.75,19.59,3.46,29.35,3.26c14.11-0.71,28.13-8.88,34.88-20.86c1.32-2.35,2.34-4.8,2.96-7.36
		c2.07-8.29-1.28-15.84-9.16-21.98c-8.08-6.31-16.73-12.24-25.45-18.14c-0.77-0.52-1.54-1.04-2.31-1.56
		c-15.05-10.22-26.02-22.74-33.39-36.46c-9.19-17.83-25.22-29.31-49.89-33.31c-22.71-3.69-38.05-14.26-51.79-27.17
		c-9.6-9.05-19.71-17.82-30.08-26.4c-8.58-7.09-19.84-12.51-32.01-16.37c-7.86-2.49-16.1-4.33-24.25-5.53
		c-27.78-3.91-13.27-10.81-40.4-16.55c-9.22-2-30.59-1.92-40.25-2.76c-0.17-0.04-9.89-0.09-10.06-0.13
		c-8.71,1.45-41.94,2.36-50.37,4.49c-26.78,6.75-34.54,21.97-41.97,40.68c-1.55,3.89-3.2,7.74-4.99,11.55
		c-6.55,13.84-14.99,27.04-27.2,39.3C645.42,261.38,644.5,275.76,653.85,289.81z"/>
	<path class="st0" d="M649.54,289.55c0.63,2.56-3.06,4.39-9.02,6.01c-4,1.01-8.68,1.52-13.58,1.77c-9.71,0.15-20.21,1.59-29.99,3.76
		c-16.9,3.67-29.05,4.64-26.72,12.38c5.46,7.68,92.57,28.16,94.96,37.4c2.93,10.93-115.61,21.85-118.72,32.36
		c-3.71,12.42-55.5,29.11-91.65,43.95c-18.26,7.2-32.56,15.01-34.74,20.7c-2.05,7.56,28.03,13.2,65.13,16.57
		c20.13,2.11,42.3,2.88,62.61,3.96c39.73,1.86,71.45,2.89,63.64,4.55c-10.5,1.81-21.08,3.58-31.72,4.59
		c-15.61,1.45-28.9,5.83-39.42,13.82c-3.4,2.57-6.52,5.49-9.34,8.79c-10.79,12.74-21.52,25.29-31.73,37.86
		c-5.07,6.25-6.08,13.65-5.63,21.01c1.1,19.88,2.39,39.72,3.38,59.57c0.3,5.15-0.75,10.33-0.13,15.5
		c0.76,6.38,2.44,12.77,4.03,19.17c3.57,14.13,17.23,22.64,34.69,29.11c21.18,7.81,44.16,12.2,66.57,17.69
		c13.59,3.33,27.43,5.15,41.76,4.78c10.85-0.3,20.51-2.91,27.53-8.44c8.86-7.23,7.64-14.1,0.49-20.64
		c-4.54-4.16-9.62-7.99-14.08-12.21c-9.24-8.77-13.07-19.44-11.83-30.66c1.46-13.81,9.6-26.12,23.48-36.54
		c12.41-9.14,27.28-15.83,42.61-21.67c2.22-0.84,4.44-1.65,6.64-2.44c14.95-5.17,27.64-10.87,38.92-17.38
		c11.21-6.44,21.25-13.74,30.48-21.75c9.65-8.11,31.45,5.1,49.54,11.29c9.16,3.08,17.37,4.28,22.52-0.07
		c4.92-2.88-17.39-54.65-10.94-58.07c3.83-2.03,8.37-1.24,13.64,1.91c19.81,11.34,47.17,49.7,66.96,64.87
		c7.26,5.91,13.42,8.36,17.48,4.41c10.51-9.89,37.11-27.4,62.07-45.01c22.29-15.1,44.04-29.56,52.9-37.49
		c4.34-4.11-5.64-20.61-18.69-39.29c-20.91-29.94-49.73-65.37-40.71-64.41c4.11,0.63,8.2,1.31,12.27,2.03
		c18.58,3.3,36.85,7.4,55.32,10.8c9.98,1.84,20.4,3.64,30.57,3.44c14.85-0.66,29.52-9,36.58-21.24c1.38-2.4,2.45-4.91,3.11-7.53
		c2.19-8.5-1.21-16.24-9.29-22.52c-8.28-6.45-17.14-12.52-26.06-18.55c-0.79-0.53-1.57-1.07-2.36-1.6
		c-15.41-10.46-26.62-23.3-34.12-37.36c-9.44-18.38-25.94-30.19-51.38-34.26c-23.43-3.75-39.21-14.64-53.34-27.95
		c-9.88-9.33-20.28-18.38-30.94-27.23c-8.83-7.31-20.42-12.89-32.96-16.85c-8.09-2.56-16.58-4.44-24.98-5.67
		c-28.69-4.01-13.57-11.13-41.6-17.04c-9.47-2.04-31.53-1.94-41.46-2.79c-0.16-0.04-10.2-0.08-10.36-0.12
		c-8.92,1.52-43.24,2.5-51.87,4.71c-27.6,7.06-35.52,22.8-43.1,42.2c-1.58,4.04-3.26,8.03-5.09,11.97
		c-6.69,14.36-15.33,28.03-27.88,40.74C640.62,260.1,639.75,275.01,649.54,289.55z"/>
	<path class="st0" d="M645.23,289.29c0.79,2.64-2.89,4.53-8.91,6.18c-3.99,1.02-8.67,1.57-13.6,1.87
		c-9.69,0.26-20.26,1.7-30.07,3.81c-16.98,3.58-29.3,4.73-26.77,12.34c5.66,7.88,95.81,28.97,98.29,38.41
		c3.05,11.19-119.56,22.37-122.77,33.12c-3.83,12.73-57.4,29.88-94.8,45.18c-18.88,7.45-33.68,15.41-35.94,21.3
		c-2.17,7.67,28.87,13.29,67.09,16.68c20.69,2.09,43.45,2.91,64.29,3.99c40.93,1.88,73.57,2.91,65.31,4.59
		c-10.96,1.85-21.99,3.66-33.1,4.69c-16.27,1.47-30.14,5.98-41.15,14.22c-3.56,2.65-6.82,5.67-9.77,9.08
		c-11.31,13.16-22.56,26.16-33.26,39.2c-5.31,6.48-6.4,14.16-6,21.81c1,20.64,2.2,41.23,3.09,61.83c0.27,5.35-0.85,10.73-0.26,16.09
		c0.73,6.62,2.42,13.25,4.01,19.88c3.57,14.65,17.56,23.46,35.48,30.14c21.73,8.07,45.32,12.58,68.32,18.22
		c13.95,3.42,28.16,5.28,42.87,4.87c11.15-0.33,21.07-3.05,28.25-8.79c9.09-7.5,7.76-14.62,0.3-21.4
		c-4.74-4.32-10.05-8.28-14.7-12.66c-9.65-9.09-13.72-20.13-12.53-31.74c1.4-14.29,9.69-27.03,23.94-37.82
		c12.71-9.46,27.96-16.39,43.69-22.46c2.27-0.87,4.55-1.71,6.82-2.54c15.31-5.39,28.38-11.38,40.04-18.23
		c11.58-6.77,21.96-14.43,31.51-22.83c9.98-8.53,32.52,4.98,51.19,11.25c9.45,3.12,17.92,4.31,23.2-0.25
		c4.98-3.11-18.28-56.78-11.79-60.31c3.92-2.13,8.59-1.29,14,1.96c20.23,11.71,48.28,51.41,68.5,67.14
		c7.46,6.12,13.77,8.67,17.93,4.61c10.69-10.14,38.19-28.2,64.12-46.24c23.12-15.53,45.7-30.39,54.94-38.5
		c4.54-4.19-5.74-21.2-19.18-40.45c-21.55-30.86-51.28-67.4-41.84-66.31c4.27,0.67,8.52,1.39,12.75,2.15
		c19.3,3.48,38.3,7.78,57.51,11.34c10.38,1.93,21.21,3.81,31.8,3.63c15.59-0.61,30.91-9.12,38.28-21.62
		c1.44-2.45,2.56-5.02,3.26-7.71c2.32-8.71-1.14-16.64-9.42-23.07c-8.48-6.59-17.54-12.8-26.66-18.97c-0.8-0.54-1.61-1.09-2.41-1.64
		c-15.78-10.71-27.22-23.86-34.85-38.27c-9.68-18.92-26.66-31.07-52.88-35.21c-24.15-3.81-40.38-15.02-54.89-28.73
		c-10.15-9.61-20.84-18.94-31.81-28.06c-9.07-7.53-21-13.27-33.91-17.34c-8.33-2.63-17.07-4.55-25.71-5.8
		c-29.6-4.12-13.88-11.46-42.79-17.54c-9.73-2.09-32.47-1.96-42.66-2.82c-0.14-0.04-10.52-0.07-10.66-0.11
		c-9.14,1.6-44.54,2.65-53.37,4.94c-28.42,7.36-36.51,23.63-44.23,43.72c-1.61,4.18-3.32,8.32-5.19,12.4
		c-6.83,14.87-15.67,29.03-28.55,42.19C635.81,258.83,635.01,274.25,645.23,289.29z"/>
	<path class="st0" d="M640.92,289.03c0.95,2.72-2.71,4.67-8.8,6.36c-3.97,1.03-8.66,1.62-13.63,1.97
		c-9.68,0.38-20.32,1.8-30.15,3.85c-17.05,3.49-29.56,4.82-26.81,12.29c5.87,8.08,99.04,29.77,101.63,39.41
		c3.17,11.46-123.52,22.88-126.82,33.88c-3.94,13.03-59.3,30.66-97.95,46.4c-19.51,7.7-34.8,15.82-37.14,21.89
		c-2.28,7.79,29.7,13.38,69.05,16.79c21.24,2.07,44.61,2.93,65.97,4.01c42.13,1.91,75.69,2.93,66.99,4.63
		c-11.42,1.89-22.91,3.75-34.47,4.79c-16.93,1.5-31.39,6.12-42.88,14.61c-3.71,2.73-7.12,5.84-10.21,9.36
		c-11.84,13.59-23.61,27.02-34.79,40.55c-5.55,6.71-6.73,14.67-6.36,22.6c0.9,21.39,2.01,42.74,2.79,64.1
		c0.24,5.55-0.96,11.12-0.39,16.68c0.71,6.86,2.4,13.72,3.99,20.59c3.57,15.17,17.89,24.28,36.28,31.18
		c22.28,8.33,46.48,12.96,70.08,18.75c14.31,3.51,28.89,5.41,43.99,4.96c11.44-0.35,21.62-3.19,28.97-9.13
		c9.33-7.76,7.89-15.13,0.11-22.15c-4.94-4.47-10.47-8.57-15.32-13.1c-10.07-9.41-14.36-20.83-13.24-32.83
		c1.33-14.78,9.79-27.93,24.39-39.09c13.01-9.78,28.65-16.95,44.78-23.24c2.33-0.9,4.66-1.78,6.99-2.64
		c15.67-5.61,29.13-11.9,41.16-19.07c11.95-7.1,22.68-15.13,32.54-23.92c10.31-8.96,33.59,4.87,52.84,11.2
		c9.75,3.16,18.46,4.33,23.89-0.42c5.05-3.34-19.16-58.91-12.63-62.55c4-2.23,8.8-1.35,14.35,2.02
		c20.65,12.07,49.4,53.12,70.05,69.41c7.65,6.33,14.12,8.98,18.38,4.8c10.86-10.4,39.28-28.99,66.18-47.48
		c23.96-15.95,47.36-31.21,56.98-39.5c4.74-4.27-5.83-21.78-19.68-41.62c-22.19-31.78-52.83-69.44-42.97-68.22
		c4.43,0.7,8.84,1.46,13.23,2.26c20.03,3.66,39.75,8.16,59.7,11.88c10.78,2.01,22.02,3.98,33.02,3.81
		c16.33-0.56,32.31-9.24,39.98-22c1.51-2.5,2.67-5.13,3.41-7.88c2.45-8.92-1.07-17.04-9.55-23.61
		c-8.68-6.73-17.95-13.08-27.27-19.39c-0.82-0.56-1.64-1.11-2.47-1.67c-16.14-10.96-27.82-24.42-35.58-39.18
		c-9.92-19.47-27.38-31.95-54.38-36.15c-24.86-3.88-41.54-15.39-56.44-29.51c-10.43-9.9-21.41-19.5-32.67-28.89
		c-9.31-7.75-21.58-13.66-34.86-17.83c-8.57-2.69-17.55-4.66-26.44-5.94c-30.51-4.22-14.19-11.78-43.98-18.04
		c-9.98-2.14-33.41-1.98-43.87-2.85c-0.13-0.03-10.83-0.07-10.96-0.1c-9.35,1.67-45.83,2.79-54.88,5.16
		c-29.25,7.67-37.5,24.46-45.36,45.24c-1.64,4.32-3.39,8.6-5.29,12.82c-6.97,15.38-16.01,30.03-29.23,43.63
		C631.01,257.55,630.27,273.5,640.92,289.03z"/>
	<path class="st0" d="M636.61,288.77c1.11,2.8-2.53,4.81-8.69,6.53c-3.95,1.04-8.65,1.66-13.66,2.07c-9.67,0.5-20.37,1.91-30.23,3.9
		c-17.13,3.4-29.82,4.9-26.86,12.24c6.08,8.28,102.27,30.57,104.96,40.41c3.29,11.72-127.47,23.4-130.88,34.65
		c-4.06,13.34-61.2,31.44-101.11,47.63c-20.14,7.95-35.92,16.22-38.33,22.49c-2.4,7.9,30.54,13.48,71.01,16.89
		c21.8,2.05,45.77,2.96,67.65,4.04c43.33,1.93,77.81,2.96,68.67,4.68c-11.87,1.94-23.82,3.83-35.85,4.89
		c-17.6,1.52-32.63,6.27-44.61,15.01c-3.87,2.81-7.42,6.02-10.64,9.65c-12.36,14.01-24.68,27.87-36.31,41.9
		c-5.8,6.93-7.05,15.18-6.73,23.39c0.8,22.14,1.82,44.25,2.5,66.37c0.21,5.75-1.07,11.52-0.52,17.27c0.68,7.1,2.38,14.2,3.97,21.3
		c3.56,15.69,18.22,25.11,37.08,32.22c22.83,8.59,47.64,13.33,71.83,19.28c14.67,3.61,29.61,5.54,45.1,5.05
		c11.74-0.38,22.18-3.33,29.69-9.48c9.57-8.03,8.01-15.65-0.08-22.91c-5.15-4.62-10.89-8.87-15.94-13.55
		c-10.49-9.73-15.01-21.52-13.95-33.92c1.26-15.26,9.88-28.84,24.85-40.37c13.31-10.11,29.33-17.51,45.86-24.02
		c2.39-0.93,4.78-1.84,7.16-2.73c16.02-5.83,29.87-12.41,42.28-19.92c12.33-7.44,23.4-15.83,33.57-25
		c10.63-9.39,34.66,4.75,54.48,11.15c10.04,3.2,19.01,4.36,24.57-0.6c5.11-3.57-20.05-61.05-13.48-64.8
		c4.09-2.33,9.01-1.4,14.71,2.07c21.07,12.44,50.51,54.83,71.6,71.69c7.85,6.55,14.48,9.29,18.83,4.99
		c11.04-10.65,40.36-29.79,68.23-48.71c24.79-16.37,49.02-32.04,59.02-40.51c4.94-4.35-5.93-22.37-20.18-42.78
		c-22.83-32.7-54.38-71.47-44.09-70.13c4.59,0.74,9.16,1.54,13.71,2.38c20.75,3.84,41.19,8.53,61.88,12.42
		c11.18,2.1,22.83,4.15,34.24,3.99c17.07-0.52,33.7-9.36,41.69-22.37c1.57-2.56,2.79-5.25,3.57-8.05
		c2.57-9.13-0.99-17.44-9.68-24.16c-8.88-6.88-18.36-13.35-27.88-19.8c-0.84-0.57-1.68-1.14-2.52-1.71
		c-16.51-11.21-28.42-24.98-36.31-40.09c-10.17-20.02-28.1-32.82-55.88-37.1c-25.58-3.94-42.71-15.77-57.99-30.29
		c-10.7-10.18-21.97-20.06-33.54-29.72c-9.56-7.97-22.16-14.04-35.81-18.31c-8.8-2.76-18.04-4.78-27.17-6.07
		c-31.42-4.33-14.5-12.1-45.18-18.54c-10.23-2.18-34.34-2-45.07-2.89c-0.12-0.03-11.15-0.06-11.27-0.09
		c-9.56,1.75-47.13,2.93-56.38,5.39c-30.07,7.98-38.49,25.29-46.49,46.76c-1.67,4.47-3.45,8.89-5.39,13.25
		c-7.1,15.89-16.35,31.03-29.91,45.08C626.2,256.28,625.53,272.74,636.61,288.77z"/>
	<path class="st0" d="M632.29,288.51c1.28,2.88-2.36,4.95-8.59,6.7c-3.93,1.05-8.64,1.71-13.69,2.17
		c-9.66,0.62-20.42,2.02-30.32,3.95c-17.21,3.31-30.07,4.99-26.91,12.19c6.29,8.48,105.5,31.38,108.29,41.41
		c3.41,11.98-131.42,23.91-134.93,35.41c-4.18,13.65-63.1,32.22-104.26,48.85c-20.77,8.2-37.05,16.62-39.53,23.09
		c-2.51,8.01,31.37,13.57,72.97,17c22.36,2.03,46.92,2.99,69.34,4.07c44.53,1.96,79.93,2.98,70.35,4.72
		c-12.33,1.98-24.74,3.91-37.23,4.98c-18.26,1.54-33.88,6.42-46.34,15.41c-4.02,2.89-7.72,6.19-11.08,9.93
		c-12.88,14.43-25.72,28.74-37.84,43.24c-6.03,7.16-7.38,15.69-7.09,24.18c0.7,22.89,1.62,45.76,2.21,68.63
		c0.18,5.94-1.18,11.92-0.65,17.86c0.65,7.34,2.36,14.68,3.95,22.01c3.56,16.21,18.56,25.93,37.87,33.26
		c23.38,8.85,48.8,13.71,73.59,19.81c15.03,3.7,30.34,5.67,46.22,5.14c12.04-0.41,22.73-3.46,30.41-9.82
		c9.8-8.29,8.14-16.17-0.27-23.67c-5.35-4.77-11.31-9.16-16.57-14c-10.9-10.05-15.66-22.22-14.65-35
		c1.2-15.74,9.98-29.75,25.31-41.65c13.61-10.43,30.01-18.08,46.94-24.8c2.44-0.96,4.89-1.9,7.33-2.83
		c16.38-6.05,30.61-12.93,43.4-20.77c12.7-7.77,24.11-16.52,34.6-26.08c10.96-9.81,35.73,4.63,56.13,11.11
		c10.34,3.24,19.56,4.39,25.26-0.77c5.18-3.8-20.94-63.18-14.33-67.04c4.17-2.43,9.22-1.45,15.06,2.12
		c21.5,12.8,51.63,56.54,73.14,73.96c8.05,6.76,14.83,9.6,19.28,5.19c11.22-10.91,41.44-30.58,70.28-49.95
		c25.62-16.8,50.68-32.87,61.06-41.52c5.14-4.42-6.02-22.95-20.68-43.95c-23.47-33.62-55.93-73.51-45.22-72.03
		c4.75,0.78,9.48,1.61,14.19,2.49c21.48,4.02,42.64,8.91,64.07,12.96c11.57,2.19,23.65,4.32,35.46,4.17
		c17.8-0.47,35.09-9.48,43.39-22.75c1.63-2.61,2.9-5.36,3.72-8.23c2.7-9.33-0.92-17.84-9.81-24.7
		c-9.08-7.02-18.76-13.63-28.48-20.22c-0.86-0.58-1.72-1.16-2.57-1.74c-16.87-11.45-29.03-25.54-37.04-40.99
		c-10.41-20.57-28.82-33.7-57.38-38.05c-26.3-4-43.87-16.15-59.53-31.07c-10.98-10.47-22.54-20.62-34.4-30.55
		c-9.8-8.19-22.74-14.42-36.76-18.8c-9.04-2.83-18.52-4.89-27.9-6.21c-32.33-4.43-14.81-12.42-46.37-19.04
		c-10.48-2.23-35.28-2.03-46.28-2.92c-0.1-0.03-11.46-0.05-11.57-0.08c-9.78,1.83-48.43,3.08-57.88,5.61
		c-30.89,8.29-39.47,26.12-47.61,48.28c-1.69,4.61-3.51,9.17-5.49,13.67c-7.24,16.4-16.69,32.03-30.59,46.53
		C621.39,255.01,620.78,271.98,632.29,288.51z"/>
	<path class="st0" d="M627.98,288.25c1.44,2.96-2.18,5.09-8.48,6.87c-3.91,1.06-8.64,1.76-13.71,2.27c-9.65,0.74-20.47,2.12-30.4,4
		c-17.29,3.22-30.33,5.08-26.96,12.14c6.5,8.68,108.74,32.18,111.63,42.42c3.53,12.25-135.38,24.43-138.98,36.18
		c-4.3,13.96-65,33-107.41,50.08c-21.4,8.45-38.17,17.02-40.73,23.69c-2.63,8.13,32.2,13.67,74.93,17.11
		c22.91,2.01,48.08,3.02,71.02,4.09c45.72,1.98,82.05,3,72.02,4.76c-12.79,2.02-25.65,4-38.6,5.08
		c-18.92,1.57-35.12,6.57-48.07,15.8c-4.18,2.97-8.02,6.37-11.51,10.22c-13.41,14.85-26.76,29.61-39.37,44.59
		c-6.26,7.4-7.7,16.21-7.46,24.97c0.59,23.65,1.43,47.27,1.92,70.9c0.15,6.14-1.28,12.31-0.77,18.46
		c0.63,7.58,2.34,15.16,3.93,22.73c3.55,16.73,18.89,26.75,38.67,34.3c23.92,9.11,49.95,14.09,75.34,20.34
		c15.39,3.79,31.07,5.8,47.33,5.23c12.34-0.44,23.29-3.6,31.14-10.17c10.04-8.56,8.27-16.69-0.46-24.42
		c-5.55-4.93-11.74-9.45-17.19-14.44c-11.32-10.37-16.31-22.91-15.36-36.09c1.13-16.22,10.08-30.66,25.77-42.92
		c13.91-10.75,30.69-18.64,48.03-25.58c2.5-0.99,5-1.97,7.5-2.92c16.74-6.26,31.36-13.44,44.52-21.62
		c13.07-8.1,24.83-17.22,35.63-27.16c11.29-10.24,36.79,4.52,57.78,11.06c10.63,3.28,20.11,4.41,25.95-0.94
		c5.24-4.03-21.83-65.31-15.17-69.28c4.25-2.53,9.44-1.51,15.42,2.17c21.92,13.17,52.75,58.25,74.69,76.23
		c8.25,6.97,15.18,9.9,19.72,5.38c11.4-11.16,42.52-31.38,72.34-51.18c26.46-17.22,52.34-33.69,63.1-42.52
		c5.34-4.5-6.12-23.54-21.18-45.11c-24.11-34.54-57.48-75.54-46.35-73.94c4.91,0.81,9.8,1.69,14.67,2.61
		c22.2,4.2,44.09,9.29,66.25,13.5c11.97,2.28,24.46,4.49,36.68,4.36c18.54-0.42,36.48-9.6,45.09-23.13c1.69-2.66,3.01-5.47,3.87-8.4
		c2.82-9.54-0.85-18.24-9.94-25.25c-9.28-7.16-19.17-13.91-29.09-20.63c-0.88-0.59-1.75-1.19-2.63-1.78
		c-17.24-11.7-29.63-26.1-37.77-41.9c-10.65-21.11-29.54-34.58-58.88-38.99c-27.01-4.07-45.03-16.53-61.08-31.85
		c-11.25-10.75-23.11-21.18-35.27-31.38c-10.04-8.41-23.32-14.8-37.71-19.29c-9.27-2.9-19.01-5-28.63-6.34
		c-33.24-4.54-15.12-12.74-47.56-19.54c-10.74-2.28-36.22-2.05-47.48-2.95c-0.09-0.02-11.78-0.05-11.87-0.07
		c-9.99,1.9-49.73,3.22-59.38,5.83c-31.72,8.6-40.46,26.95-48.74,49.8c-1.72,4.76-3.57,9.46-5.59,14.1
		c-7.38,16.91-17.03,33.02-31.27,47.97C616.58,253.73,616.04,271.23,627.98,288.25z"/>
	<path class="st0" d="M623.67,287.99c1.6,3.04-2,5.23-8.37,7.05c-3.89,1.07-8.63,1.81-13.74,2.37c-9.64,0.86-20.52,2.23-30.48,4.04
		c-17.37,3.13-30.59,5.17-27.01,12.09c6.7,8.88,111.97,32.98,114.96,43.42c3.64,12.51-139.33,24.94-143.03,36.94
		c-4.42,14.27-66.9,33.78-110.57,51.3c-22.03,8.7-39.29,17.42-41.93,24.29c-2.74,8.24,33.04,13.76,76.89,17.21
		c23.47,1.99,49.24,3.05,72.7,4.12c46.92,2.01,84.17,3.03,73.7,4.81c-13.24,2.06-26.57,4.08-39.98,5.18
		c-19.58,1.59-36.36,6.72-49.8,16.2c-4.33,3.05-8.32,6.54-11.94,10.5c-13.93,15.27-27.8,30.48-40.9,45.94
		c-6.5,7.63-8.02,16.72-7.82,25.77c0.49,24.4,1.24,48.78,1.62,73.16c0.12,6.34-1.39,12.71-0.9,19.05c0.6,7.82,2.31,15.63,3.91,23.44
		c3.55,17.24,19.22,27.57,39.46,35.34c24.47,9.37,51.11,14.47,77.09,20.87c15.75,3.88,31.8,5.93,48.45,5.32
		c12.64-0.47,23.85-3.74,31.86-10.51c10.28-8.82,8.39-17.2-0.65-25.18c-5.75-5.08-12.16-9.75-17.81-14.89
		c-11.73-10.69-16.96-23.61-16.07-37.18c1.06-16.71,10.17-31.57,26.23-44.2c14.21-11.08,31.37-19.2,49.11-26.36
		c2.55-1.03,5.12-2.03,7.68-3.02c17.09-6.48,32.1-13.96,45.64-22.47c13.45-8.43,25.55-17.91,36.67-28.25
		c11.61-10.66,37.86,4.4,59.42,11.01c10.93,3.32,20.65,4.44,26.63-1.12c5.31-4.26-22.72-67.45-16.02-71.52
		c4.33-2.63,9.65-1.56,15.77,2.22c22.34,13.54,53.86,59.96,76.24,78.51c8.44,7.18,15.54,10.21,20.17,5.57
		c11.58-11.42,43.6-32.18,74.39-52.42c27.29-17.64,53.99-34.52,65.14-43.53c5.54-4.58-6.22-24.12-21.68-46.28
		c-24.75-35.46-59.03-77.58-47.48-75.84c5.07,0.85,10.12,1.77,15.15,2.72c22.93,4.38,45.54,9.66,68.44,14.04
		c12.37,2.37,25.27,4.67,37.9,4.54c19.28-0.37,37.9-9.71,46.79-23.51c1.76-2.71,3.12-5.58,4.02-8.57
		c2.95-9.75-0.78-18.64-10.07-25.79c-9.48-7.3-19.58-14.19-29.7-21.05c-0.89-0.61-1.79-1.21-2.68-1.82
		c-17.6-11.95-30.23-26.66-38.5-42.81c-10.89-21.66-30.26-35.46-60.38-39.94c-27.73-4.13-46.2-16.91-62.63-32.63
		c-11.52-11.03-23.67-21.74-36.13-32.21c-10.28-8.63-23.9-15.18-38.66-19.78c-9.51-2.96-19.49-5.11-29.36-6.48
		c-34.15-4.64-15.43-13.06-48.76-20.04c-10.99-2.32-37.16-2.07-48.69-2.98c-0.08-0.02-12.09-0.04-12.17-0.06
		c-10.2,1.98-51.03,3.36-60.88,6.06c-32.54,8.91-41.45,27.78-49.87,51.32c-1.75,4.9-3.64,9.74-5.69,14.53
		c-7.51,17.42-17.37,34.02-31.95,49.42C611.78,252.46,611.3,270.47,623.67,287.99z"/>
	<path class="st0" d="M619.36,287.72c1.76,3.12-1.83,5.37-8.26,7.22c-3.88,1.08-8.62,1.85-13.77,2.46
		c-9.63,0.98-20.58,2.33-30.56,4.09c-17.45,3.04-30.84,5.25-27.06,12.05c6.91,9.08,115.2,33.78,118.3,44.42
		c3.76,12.78-143.29,25.46-147.08,37.7c-4.53,14.58-68.8,34.56-113.72,52.53c-22.66,8.94-40.41,17.82-43.13,24.88
		c-2.85,8.35,33.87,13.85,78.85,17.32c24.02,1.97,50.39,3.07,74.39,4.15c48.12,2.04,86.29,3.05,75.38,4.85
		c-13.7,2.1-27.48,4.16-41.36,5.28c-20.24,1.61-37.61,6.86-51.53,16.6c-4.49,3.13-8.62,6.72-12.38,10.79
		c-14.45,15.7-28.84,31.35-42.43,47.28c-6.73,7.86-8.35,17.23-8.19,26.56c0.39,25.15,1.05,50.29,1.33,75.43
		c0.09,6.54-1.5,13.11-1.03,19.64c0.58,8.06,2.29,16.11,3.88,24.15c3.54,17.76,19.55,28.4,40.26,36.38
		c25.02,9.63,52.27,14.84,78.85,21.4c16.11,3.97,32.53,6.06,49.56,5.41c12.94-0.5,24.4-3.87,32.58-10.86
		c10.51-9.09,8.52-17.72-0.84-25.94c-5.95-5.23-12.58-10.04-18.43-15.34c-12.15-11.01-17.61-24.3-16.77-38.26
		c1-17.19,10.27-32.48,26.69-45.48c14.51-11.4,32.05-19.76,50.19-27.14c2.61-1.06,5.23-2.09,7.85-3.11
		c17.45-6.7,32.84-14.48,46.75-23.31c13.82-8.77,26.26-18.61,37.7-29.33c11.94-11.09,38.93,4.28,61.07,10.97
		c11.22,3.36,21.2,4.46,27.32-1.29c5.37-4.49-23.61-69.58-16.86-73.77c4.41-2.74,9.86-1.62,16.13,2.27
		c22.76,13.9,54.98,61.67,77.79,80.78c8.64,7.39,15.89,10.52,20.62,5.77c11.76-11.67,44.69-32.97,76.45-53.65
		c28.13-18.06,55.65-35.35,67.18-44.54c5.74-4.66-6.31-24.71-22.18-47.45c-25.39-36.38-60.59-79.61-48.61-77.75
		c5.23,0.89,10.44,1.84,15.63,2.84c23.66,4.55,46.99,10.04,70.63,14.58c12.77,2.45,26.08,4.84,39.12,4.72
		c20.02-0.33,39.28-9.83,48.49-23.89c1.82-2.76,3.24-5.69,4.17-8.75c3.07-9.96-0.7-19.04-10.2-26.34
		c-9.68-7.45-19.98-14.47-30.31-21.46c-0.91-0.62-1.82-1.24-2.73-1.85c-17.97-12.2-30.83-27.21-39.23-43.72
		c-11.14-22.21-30.98-36.34-61.88-40.89c-28.45-4.19-47.36-17.29-64.18-33.41c-11.8-11.32-24.24-22.3-37-33.04
		c-10.53-8.85-24.48-15.56-39.61-20.26c-9.75-3.03-19.98-5.22-30.09-6.62c-35.06-4.75-15.74-13.38-49.95-20.54
		c-11.24-2.37-38.1-2.09-49.89-3.01c-0.07-0.02-12.41-0.03-12.47-0.05c-10.42,2.05-52.32,3.5-62.39,6.28
		c-33.36,9.21-42.44,28.61-51,52.84c-1.78,5.04-3.7,10.03-5.79,14.95c-7.65,17.93-17.71,35.02-32.63,50.86
		C606.97,251.18,606.55,269.71,619.36,287.72z"/>
	<path class="st0" d="M615.05,287.46c1.92,3.2-1.65,5.51-8.15,7.39c-3.86,1.09-8.61,1.9-13.8,2.56c-9.61,1.1-20.63,2.44-30.64,4.14
		c-17.52,2.94-31.1,5.34-27.11,12c7.12,9.29,118.44,34.59,121.63,45.43c3.88,13.04-147.24,25.97-151.13,38.47
		c-4.65,14.89-70.7,35.34-116.87,53.75c-23.29,9.19-41.54,18.23-44.32,25.48c-2.97,8.47,34.71,13.95,80.81,17.43
		c24.58,1.95,51.55,3.1,76.07,4.17c49.32,2.06,88.41,3.07,77.06,4.89c-14.16,2.15-28.4,4.24-42.73,5.37
		c-20.9,1.64-38.85,7.01-53.26,16.99c-4.64,3.21-8.92,6.89-12.81,11.07c-14.98,16.12-29.88,32.22-43.96,48.63
		c-6.96,8.09-8.67,17.74-8.55,27.35c0.29,25.91,0.86,51.8,1.04,77.7c0.06,6.74-1.61,13.5-1.16,20.23c0.55,8.3,2.27,16.59,3.86,24.86
		c3.54,18.28,19.88,29.22,41.06,37.42c25.57,9.89,53.43,15.22,80.6,21.93c16.47,4.07,33.26,6.19,50.68,5.51
		c13.23-0.52,24.96-4.01,33.3-11.2c10.75-9.35,8.64-18.24-1.03-26.69c-6.16-5.38-13.01-10.33-19.06-15.78
		c-12.57-11.33-18.26-25-17.48-39.35c0.93-17.67,10.37-33.39,27.15-46.75c14.81-11.73,32.74-20.32,51.28-27.92
		c2.67-1.09,5.34-2.16,8.02-3.21c17.81-6.92,33.59-14.99,47.87-24.16c14.19-9.1,26.98-19.3,38.73-30.41
		c12.27-11.51,40,4.17,62.72,10.92c11.52,3.4,21.75,4.49,28-1.47c5.44-4.72-24.51-71.71-17.71-76.01
		c4.49-2.84,10.08-1.67,16.48,2.32c23.19,14.27,56.09,63.38,79.33,83.05c8.84,7.61,16.25,10.83,21.07,5.96
		c11.93-11.93,45.77-33.77,78.5-54.89c28.96-18.49,57.31-36.18,69.22-45.54c5.94-4.74-6.41-25.3-22.68-48.61
		c-26.03-37.3-62.14-81.65-49.74-79.65c5.39,0.93,10.76,1.92,16.11,2.95c24.38,4.73,48.44,10.42,72.81,15.13
		c13.16,2.54,26.89,5.01,40.34,4.91c20.75-0.28,40.67-9.95,50.19-24.26c1.88-2.81,3.35-5.8,4.32-8.92
		c3.2-10.17-0.63-19.44-10.33-26.88c-9.88-7.59-20.39-14.74-30.91-21.88c-0.93-0.63-1.86-1.26-2.79-1.89
		c-18.33-12.44-31.43-27.77-39.96-44.63c-11.38-22.76-31.7-37.21-63.37-41.84c-29.16-4.26-48.52-17.66-65.73-34.19
		c-12.07-11.6-24.8-22.86-37.86-33.87c-10.77-9.07-25.06-15.95-40.56-20.75c-9.98-3.1-20.46-5.34-30.82-6.75
		c-35.97-4.85-16.05-13.71-51.14-21.04c-11.5-2.42-39.04-2.11-51.1-3.05c-0.05-0.01-12.72-0.03-12.77-0.04
		c-10.63,2.13-53.62,3.65-63.89,6.51c-34.18,9.52-43.42,29.44-52.13,54.36c-1.81,5.19-3.76,10.31-5.9,15.38
		c-7.79,18.45-18.05,36.02-33.31,52.31C602.16,249.91,601.81,268.95,615.05,287.46z"/>
	<path class="st0" d="M610.73,287.2c2.09,3.28-1.47,5.65-8.05,7.56c-3.84,1.1-8.61,1.95-13.83,2.66c-9.6,1.21-20.68,2.55-30.72,4.19
		c-17.6,2.85-31.36,5.43-27.16,11.95c7.33,9.49,121.67,35.39,124.97,46.43c4,13.3-151.19,26.49-155.19,39.23
		c-4.77,15.2-72.6,36.12-120.03,54.98c-23.92,9.44-42.66,18.63-45.52,26.08c-3.08,8.58,35.54,14.04,82.77,17.53
		c25.14,1.93,52.7,3.13,77.75,4.2c50.52,2.09,90.53,3.1,78.74,4.94c-14.61,2.19-29.31,4.33-44.11,5.47
		c-21.57,1.66-40.09,7.16-54.99,17.39c-4.8,3.29-9.22,7.07-13.25,11.36c-15.5,16.54-30.92,33.09-45.48,49.98
		c-7.2,8.33-9,18.25-8.92,28.14c0.19,26.66,0.67,53.31,0.75,79.96c0.03,6.94-1.71,13.9-1.29,20.82c0.52,8.54,2.25,17.07,3.84,25.57
		c3.53,18.8,20.21,30.04,41.85,38.46c26.12,10.15,54.59,15.6,82.36,22.46c16.83,4.16,33.99,6.32,51.79,5.6
		c13.53-0.55,25.51-4.15,34.02-11.55c10.99-9.62,8.77-18.76-1.22-27.45c-6.36-5.54-13.43-10.63-19.68-16.23
		c-12.98-11.65-18.9-25.69-18.19-40.44c0.86-18.15,10.46-34.3,27.6-48.03c15.11-12.05,33.42-20.88,52.36-28.7
		c2.72-1.12,5.46-2.22,8.19-3.3c18.16-7.14,34.33-15.51,48.99-25.01c14.56-9.43,27.7-20,39.76-31.5
		c12.59-11.94,41.07,4.05,64.37,10.87c11.81,3.44,22.3,4.51,28.69-1.64c5.5-4.95-25.4-73.85-18.56-78.25
		c4.57-2.94,10.29-1.73,16.84,2.37c23.61,14.63,57.21,65.09,80.88,85.33c9.04,7.82,16.6,11.14,21.52,6.15
		c12.11-12.18,46.85-34.56,80.55-56.12c29.79-18.91,58.97-37,71.26-46.55c6.14-4.82-6.5-25.88-23.18-49.78
		c-26.67-38.22-63.69-83.68-50.87-81.56c5.55,0.96,11.08,1.99,16.58,3.07c25.11,4.91,49.88,10.8,75,15.67
		c13.56,2.63,27.71,5.18,41.56,5.09c21.49-0.23,42.06-10.07,51.89-24.64c1.94-2.87,3.46-5.91,4.48-9.09
		c3.32-10.38-0.56-19.84-10.46-27.43c-10.08-7.73-20.79-15.02-31.52-22.29c-0.95-0.64-1.89-1.28-2.84-1.93
		c-18.7-12.69-32.04-28.33-40.69-45.53c-11.62-23.31-32.42-38.09-64.87-42.78c-29.88-4.32-49.69-18.04-67.28-34.97
		c-12.35-11.89-25.37-23.42-38.73-34.7c-11.01-9.3-25.64-16.33-41.51-21.24c-10.22-3.16-20.95-5.45-31.55-6.89
		c-36.89-4.96-16.36-14.03-52.34-21.54c-11.75-2.46-39.98-2.13-52.3-3.08c-0.04-0.01-13.04-0.02-13.08-0.03
		c-10.85,2.2-54.92,3.79-65.39,6.73c-35,9.84-44.41,30.28-53.26,55.88c-1.84,5.33-3.82,10.6-6,15.8
		c-7.92,18.96-18.39,37.02-33.98,53.75C597.35,248.63,597.06,268.2,610.73,287.2z"/>
	<path class="st0" d="M606.42,286.94c2.25,3.36-1.3,5.79-7.94,7.74c-3.82,1.11-8.6,1.99-13.85,2.76c-9.59,1.33-20.73,2.65-30.8,4.23
		c-17.68,2.76-31.61,5.52-27.21,11.9c7.54,9.69,124.9,36.19,128.3,47.43c4.12,13.57-155.15,27-159.24,40
		c-4.89,15.51-74.5,36.9-123.18,56.2c-24.55,9.69-43.78,19.03-46.72,26.68c-3.2,8.69,36.37,14.14,84.73,17.64
		c25.69,1.91,53.86,3.16,79.43,4.23c51.72,2.11,92.65,3.12,80.41,4.98c-15.07,2.23-30.23,4.41-45.49,5.57
		c-22.23,1.68-41.34,7.31-56.72,17.79c-4.95,3.37-9.52,7.24-13.68,11.64c-16.02,16.96-31.96,33.96-47.01,51.32
		c-7.43,8.56-9.32,18.76-9.28,28.94c0.09,27.41,0.48,54.82,0.46,82.23c0,7.14-1.82,14.3-1.42,21.41c0.5,8.78,2.23,17.54,3.82,26.28
		c3.53,19.32,20.55,30.87,42.65,39.5c26.67,10.41,55.75,15.98,84.11,22.99c17.19,4.25,34.72,6.45,52.91,5.69
		c13.83-0.58,26.07-4.28,34.75-11.89c11.22-9.89,8.89-19.27-1.41-28.21c-6.56-5.69-13.85-10.92-20.3-16.68
		c-13.4-11.96-19.55-26.39-18.89-41.52c0.8-18.63,10.56-35.2,28.06-49.3c15.4-12.37,34.1-21.45,53.44-29.48
		c2.78-1.15,5.57-2.28,8.36-3.4c18.52-7.36,35.08-16.02,50.11-25.86c14.94-9.77,28.41-20.69,40.79-32.58
		c12.92-12.37,42.14,3.94,66.01,10.83c12.11,3.48,22.84,4.54,29.38-1.81c5.56-5.18-26.29-75.98-19.4-80.5
		c4.65-3.05,10.5-1.78,17.19,2.42c24.03,15,58.33,66.8,82.43,87.6c9.23,8.03,16.95,11.45,21.97,6.35
		c12.29-12.44,47.93-35.36,82.61-57.36c30.63-19.33,60.63-37.83,73.3-47.55c6.34-4.9-6.6-26.47-23.68-50.94
		c-27.32-39.15-65.24-85.72-51.99-83.47c5.71,1,11.39,2.07,17.06,3.18c25.83,5.09,51.33,11.17,77.18,16.21
		c13.96,2.72,28.52,5.35,42.78,5.27c22.23-0.18,43.44-10.2,53.59-25.02c2-2.92,3.57-6.02,4.63-9.27
		c3.45-10.59-0.48-20.23-10.59-27.97c-10.28-7.87-21.2-15.3-32.13-22.71c-0.96-0.65-1.93-1.31-2.89-1.96
		c-19.06-12.94-32.64-28.89-41.42-46.44c-11.87-23.85-33.14-38.97-66.37-43.73c-30.6-4.38-50.85-18.42-68.83-35.75
		c-12.62-12.17-25.93-23.98-39.59-35.53c-11.26-9.52-26.22-16.71-42.46-21.73c-10.45-3.23-21.43-5.56-32.29-7.02
		c-37.8-5.06-16.67-14.35-53.53-22.03c-12-2.51-40.92-2.16-53.51-3.11c-0.03-0.01-13.35-0.01-13.38-0.02
		c-11.06,2.28-56.21,3.95-66.89,6.96c-35.81,10.21-45.4,31.11-54.39,57.4c-1.87,5.47-3.89,10.89-6.1,16.23
		c-8.06,19.47-18.74,38.01-34.66,55.2C592.55,247.35,592.32,267.44,606.42,286.94z"/>
	<path class="st0" d="M602.11,286.68c2.41,3.44-1.12,5.93-7.83,7.91c-3.8,1.12-8.59,2.04-13.88,2.86
		c-9.58,1.45-20.79,2.76-30.88,4.28c-17.76,2.67-31.87,5.6-27.26,11.85c7.74,9.89,128.14,37,131.63,48.43
		c4.24,13.83-159.1,27.52-163.29,40.76c-5.01,15.82-76.4,37.67-126.34,57.43c-25.18,9.94-44.9,19.43-47.92,27.27
		c-3.31,8.81,37.21,14.23,86.69,17.75c26.25,1.89,55.02,3.19,81.12,4.25c52.91,2.14,94.77,3.14,82.09,5.02
		c-15.53,2.27-31.14,4.49-46.86,5.67c-22.89,1.71-42.58,7.46-58.45,18.18c-5.11,3.45-9.82,7.42-14.11,11.93
		c-16.55,17.39-33,34.82-48.54,52.67c-7.67,8.79-9.65,19.27-9.65,29.73c-0.01,28.17,0.29,56.33,0.16,84.49
		c-0.03,7.34-1.93,14.69-1.54,22.01c0.47,9.02,2.21,18.02,3.8,26.99c3.52,19.84,20.88,31.69,43.45,40.54
		c27.22,10.67,56.91,16.35,85.87,23.52c17.55,4.34,35.45,6.58,54.02,5.78c14.13-0.61,26.62-4.42,35.47-12.24
		c11.46-10.15,9.02-19.79-1.59-28.96c-6.76-5.84-14.28-11.21-20.92-17.12c-13.81-12.28-20.2-27.08-19.6-42.61
		c0.73-19.12,10.66-36.11,28.52-50.58c15.7-12.7,34.78-22.01,54.53-30.27c2.83-1.18,5.68-2.35,8.53-3.5
		c18.88-7.58,35.82-16.54,51.23-26.71c15.31-10.1,29.13-21.39,41.82-33.66c13.25-12.79,43.2,3.82,67.66,10.78
		c12.4,3.53,23.39,4.56,30.06-1.99c5.63-5.42-27.19-78.11-20.25-82.74c4.73-3.15,10.71-1.83,17.55,2.47
		c24.45,15.37,59.44,68.52,83.97,89.87c9.43,8.24,17.31,11.75,22.42,6.54c12.47-12.69,49.01-36.15,84.66-58.59
		c31.46-19.76,62.29-38.66,75.34-48.56c6.54-4.98-6.69-27.05-24.18-52.11c-27.96-40.07-66.79-87.75-53.12-85.37
		c5.87,1.04,11.71,2.14,17.54,3.3c26.56,5.27,52.78,11.55,79.37,16.75c14.36,2.81,29.33,5.52,44,5.46
		c22.97-0.14,44.83-10.32,55.3-25.4c2.07-2.97,3.68-6.13,4.78-9.44c3.57-10.79-0.41-20.63-10.72-28.52
		c-10.48-8.01-21.61-15.58-32.73-23.12c-0.98-0.67-1.97-1.33-2.95-2c-19.43-13.19-33.24-29.45-42.15-47.35
		c-12.11-24.4-33.86-39.85-67.87-44.68c-31.31-4.45-52.01-18.8-70.38-36.53c-12.9-12.46-26.5-24.54-40.46-36.36
		c-11.5-9.74-26.8-17.09-43.41-22.21c-10.69-3.3-21.92-5.67-33.02-7.16c-38.71-5.17-16.98-14.67-54.73-22.53
		c-12.25-2.56-41.85-2.18-54.71-3.14c-0.01,0-13.67-0.01-13.68-0.01c-11.27,2.35-57.51,4.09-68.4,7.18
		c-36.64,10.49-46.38,31.94-55.52,58.92c-1.9,5.62-3.95,11.17-6.2,16.66c-8.2,19.98-19.08,39.01-35.34,56.65
		C587.74,246.08,587.57,266.68,602.11,286.68z"/>
	<path class="st0" d="M769.64,82.35c-11.49,2.43-58.81,4.22-69.9,7.41c-37.47,10.77-47.37,32.77-56.64,60.44
		c-8.96,26.75-21.16,52.13-42.32,75.17c-17.85,19.44-17.95,40.56-2.98,61.05c11.13,15.23-91.7,12.2-79.9,27.17
		c7.95,10.09,131.37,37.8,134.97,49.44c4.36,14.1-163.05,28.03-167.34,41.52c-7.71,24.26-169.39,62.54-178.6,86.53
		c-8.93,23.25,286.99,22.6,255.22,27.2c-15.98,2.31-32.06,4.58-48.24,5.76c-31.13,2.29-56.53,11.81-74.73,30.79
		c-17.07,17.81-34.04,35.69-50.07,54.02c-7.9,9.03-9.97,19.78-10.02,30.52c-0.11,28.92,0.09,57.84-0.13,86.76
		c-0.06,7.54-2.03,15.09-1.67,22.6c0.45,9.26,2.19,18.5,3.78,27.71c3.52,20.35,21.21,32.51,44.24,41.58
		c27.76,10.93,58.07,16.73,87.62,24.05c17.91,4.44,36.17,6.71,55.14,5.87c14.43-0.64,27.18-4.56,36.19-12.58
		c11.7-10.42,9.15-20.31-1.78-29.72c-6.96-6-14.7-11.5-21.55-17.57c-14.23-12.6-20.85-27.78-20.31-43.7
		c0.67-19.6,10.75-37.02,28.98-51.86c18.3-14.89,41.12-25.24,64.32-34.64c38.34-15.54,69.11-36.9,95.2-62.3
		c20.46-19.92,79.82,28.62,100.05,8.57c5.69-5.65-28.08-80.25-21.09-84.98c28.54-19.34,103.8,124.42,126.29,101.4
		c23.8-24.37,135.44-87.88,164.09-109.4c17.5-13.14-101.83-144.63-78.93-140.55c33.49,5.96,66.25,14.17,99.58,20.7
		c14.76,2.89,30.14,5.69,45.22,5.64c28.38-0.1,55.05-14.93,61.93-35.39c3.7-11-0.34-21.03-10.85-29.06
		c-11.62-8.88-24.02-17.21-36.34-25.58c-19.79-13.43-33.84-30.01-42.88-48.26c-12.35-24.95-34.58-40.73-69.37-45.62
		c-32.03-4.51-53.18-19.18-71.93-37.31c-13.17-12.74-27.07-25.1-41.32-37.19c-19.3-16.37-49.14-26.14-78.1-29.99
		c-39.62-5.27-17.28-14.99-55.92-23.03c-12.51-2.6-42.79-2.2-55.92-3.17L769.64,82.35z"/>
</g>
</svg>
