<svg width="58" height="15" viewBox="0 0 58 15" fill="none" xmlns="http://www.w3.org/2000/svg">
<path d="M57.5 7.5C57.5 8.25792 56.8965 9.11454 55.4602 9.99276C54.0528 10.8533 51.9829 11.6463 49.3809 12.3192C44.1845 13.6631 36.9785 14.5 29 14.5C21.0215 14.5 13.8155 13.6631 8.61909 12.3192C6.01713 11.6463 3.94724 10.8533 2.53979 9.99276C1.10349 9.11454 0.5 8.25792 0.5 7.5C0.5 6.74208 1.10349 5.88546 2.53979 5.00724C3.94724 4.14666 6.01713 3.3537 8.61909 2.68077C13.8155 1.33687 21.0215 0.5 29 0.5C36.9785 0.5 44.1845 1.33687 49.3809 2.68077C51.9829 3.3537 54.0528 4.14666 55.4602 5.00724C56.8965 5.88546 57.5 6.74208 57.5 7.5Z" stroke="black"/>
</svg>
