<?xml version="1.0" encoding="utf-8"?>
<!-- Generator: Adobe Illustrator 24.3.0, SVG Export Plug-In . SVG Version: 6.00 Build 0)  -->
<svg version="1.1" id="Layer_1" xmlns="http://www.w3.org/2000/svg" xmlns:xlink="http://www.w3.org/1999/xlink" x="0px" y="0px"
	 viewBox="0 0 1600 900" style="enable-background:new 0 0 1600 900;" xml:space="preserve">
<style type="text/css">
	.st0{fill:none;stroke:#000000;stroke-width:2;stroke-linecap:round;stroke-linejoin:round;stroke-miterlimit:10;}
	.st1{fill:none;stroke:#757575;stroke-width:2;stroke-linecap:round;stroke-linejoin:round;stroke-miterlimit:10;}
</style>
<path class="st0" d="M1094.79,351.85c-11.55,3.6-21.81,9.28-29.12,19.2c-4.6,6.24-6.99,13.42-7.11,21.22
	c-0.1,6.94-0.44,13.92,0.1,20.82c0.55,7.08,0.9,14.25,4.37,20.89c3.13,6,8.03,8.07,14.26,8.74c13.93,1.5,21.63-6.4,27.55-17.52
	c3.92-7.35,8.48-14.37,12.41-21.72c6.84-12.77,7.97-26.05,1.18-39.09c-4.72-9.06-12.44-14-23.22-12.56"/>
<path class="st0" d="M393.09,359.35c-4.15,1.37-8.23,2.82-11.26,6.24c-3.12,3.52-3.34,8.53-0.4,12.1c2.84,3.45,7.79,4.47,11.64,2.05
	c5.16-3.25,8.69-7.53,8.85-14.13c0.12-4.55-1.73-6.8-6.33-6.26c-0.69,0.08-1.39,0.01-2.08,0.01"/>
<path class="st0" d="M907.28,359.35c-15.7,4.17-31.25,8.98-47.13,12.3c-13.52,2.82-27.15,1.28-40.39-3.1
	c-11-3.65-22.25-4.62-33.75-2.57c-7.4,1.32-13.84,4.72-19.52,9.28c-14.36,11.54-24.98,26.16-33.37,42.44
	c-5.19,10.08-3.97,19.43,3.7,27.93c2.51,2.78,5,5.64,7.06,8.76c5.25,7.96,5.36,16.22,0,24.1c-7.98,11.74-18.67,20.44-31.16,27.2
	c-8.98,4.86-17.86,10.03-26.16,15.94c-4.11,2.93-7.44,7.5-10.01,11.97c-5.69,9.9-10.92,20.09-15.9,30.38
	c-5.22,10.79-7.08,22.28-4.58,34.12c1.71,8.1,7.14,12.41,15.79,9.67c6.41-2.03,13.09-3.23,19.55-5.12
	c7.58-2.22,14.79,0.07,21.62,2.31c13.5,4.44,23.79,13.57,31.69,25.26c5.74,8.49,12.19,16.28,21.35,21.12
	c4.83,2.55,9.93,5,15.78,4.73c3.88-0.18,6.75-1.59,8.78-5.02c4.97-8.43,8.54-17.73,15.38-25.03c4.5-4.81,9.09-9.55,13.28-14.63
	c3.23-3.91,5.97-8.24,8.8-12.46c5.23-7.8,3.02-15.39-0.81-22.91c-2.96-5.81-6.64-11.41-8.59-17.55
	c-4.28-13.49-2.14-26.14,6.88-37.48c5.92-7.44,13.63-12.62,21.31-17.85c9.36-6.38,18.57-13.06,28.42-18.59
	c6.08-3.41,13.24-4.89,19.89-7.29c2.4-0.87,4.8-1.78,7.08-2.93c9.2-4.66,13.43-14.15,11.46-26.67c-1.43-9.1,0.27-18.34,3.6-27.04
	c3.18-8.3,8.58-15.26,14.1-22.12c3.33-4.14,6.22-8.52,6.27-14.15c0.09-9.58-9.42-22.35-18.78-24.47c-3.6-0.82-7.48-0.39-11.23-0.53"
	/>
<path class="st0" d="M258.08,361.01c-4.58,0.56-9.16,1.15-13.75,1.66c-5.41,0.6-10.88,0.85-16.24,1.74
	c-7.06,1.18-11.53,3.35-11.27,13.27c0.44,16.29,6.1,30.54,17.13,42.46c10.54,11.39,26.64,12.47,40.4,6.75
	c10.18-4.23,14.35-12.07,14.1-22.54c-0.28-11.73-1.63-23.33-6.63-34.16c-2.92-6.33-8.32-8.88-14.98-9.16
	c-2.77-0.12-5.56-0.02-8.33-0.02"/>
<path class="st0" d="M1093.13,367.68c-5.99,1.83-11.11,4.86-15.48,9.53c-8.47,9.06-7.13,26.19-0.32,34.61
	c3.08,3.8,8.04,4.76,12.01,2.05c8.87-6.07,16.05-13.88,19.48-24.16c2.76-8.28,0.68-16.74-5.77-20.22c-2.71-1.46-6.31-1.26-9.5-1.82"
	/>
<path class="st0" d="M170.58,271.84c-12.64,2.78-25.27,5.59-37.92,8.32c-16,3.45-30.96,8.7-39.96,23.79
	c-3.56,5.97-4.43,12.57-4.31,19.56c0.26,15.58,9,25.72,21.01,33.65c5.37,3.55,11.8,4.83,18.26,5.55
	c11.72,1.31,23.63,1.22,35.01,4.97c11.92,3.93,19.69,12.05,23.71,23.77c2.98,8.68,5.5,17.52,8.4,26.23
	c2.82,8.47,6.75,16.53,12.59,23.24c5.5,6.32,12.9,10.42,20.73,13.39c6.44,2.45,13,4.6,19.58,6.69c10.97,3.48,21.03,8.53,30.03,15.82
	c10.9,8.83,20.46,18.63,26.25,31.69c5.51,12.43,8.49,25.54,11.26,38.76c1.99,9.5,3.95,18.99,9.06,27.55
	c3.7,6.2,13.05,10.05,20.95,8.05c9.59-2.42,17.17-7.1,23.34-14.72c5.92-7.31,10.65-15.3,14.5-23.81
	c5.12-11.31,3.12-22.48-3.04-32.39c-10.83-17.43-22.44-34.39-34.08-51.3c-7.24-10.53-11.21-22.36-15.4-34.2
	c-3.08-8.7-6.04-17.52-10.08-25.79c-6.11-12.5-8.68-25.52-7.7-39.23c0.53-7.39,2.08-14.71,2.77-22.1c0.64-6.81-1.83-12.9-5.83-18.28
	c-1.56-2.09-3.71-3.81-5.79-5.44c-9.29-7.27-16.28-5.89-26.62,2.93c-4.48,3.82-8.62,8.04-12.95,12.04c-4.23,3.9-9.51,5.88-15,6.09
	c-5.86,0.23-11.37-2.24-15.31-6.59c-4.18-4.61-8.02-9.65-11.27-14.96c-9.85-16.11-23.14-28.84-38.54-39.36
	c-3.61-2.47-8.77-2.68-13.21-3.93"/>
<path class="st0" d="M886.45,377.68c-4.86,0.83-9.73,1.64-14.58,2.51c-7.64,1.37-15.25,2.96-22.93,4.12
	c-13.01,1.96-25.74,0.52-38.35-3.22c-9.76-2.9-19.58-4.09-29.61-0.18c-6.54,2.55-11.82,6.75-16.5,11.49
	c-6.32,6.4-11.81,13.59-15.58,21.95c-3.65,8.09-2.79,15.56,2.56,22.5c3.19,4.14,6.96,7.85,9.91,12.15
	c8.93,12.99,6.15,26.28-4.17,38.66c-10.33,12.39-24.52,19.39-38.69,26.31c-10.75,5.25-20.73,11.42-27.1,22.08
	c-5.6,9.38-8.61,19.53-8.68,30.42c-0.06,8.64,5.69,13.66,12.48,17.44c8.46,4.71,17.17,8.99,25.8,13.39
	c9.88,5.03,18.74,11.49,27.12,18.71c5.32,4.58,10.71,9.27,16.71,12.82c7.73,4.58,16.12,4.29,23.16-1.62
	c7.06-5.93,13.59-12.51,20.05-19.1c9.94-10.15,9.46-21.77,3.75-33.69c-4.88-10.2-7.68-20.75-6.6-32.1
	c0.8-8.36,4.53-15.49,9.53-22.11c5.52-7.29,12.98-12.32,19.97-17.97c9.27-7.48,18.44-15.15,27.03-23.38
	c5.9-5.66,11.92-11.06,19.33-14.36c10.91-4.86,15.13-13.86,17.54-24.67c2.4-10.78,5.59-21.38,8.2-32.12
	c1.16-4.78,2.19-9.68,2.45-14.58c0.4-7.76-4-13.09-11.57-14.51c-3.54-0.66-7.21-0.62-10.82-0.9"/>
<path class="st0" d="M1330.64,389.35c-6.21,2.2-7.31,4.86-5.47,11.26c2.91,10.12,8.78,18.37,15.91,25.8
	c10.08,10.5,20.98,20.21,29.59,32.09c9.09,12.54,14.74,26.36,17.12,41.68c2.05,13.24,4.56,26.42,7.07,39.59
	c1.12,5.88,2.45,11.76,4.21,17.48c1.43,4.65,4.44,8.7,9.51,9.48c6.36,0.99,9-0.77,11.63-9.05c2.02-6.36,3.54-12.92,5.97-19.11
	c1.73-4.41,4.27-8.62,7.03-12.5c6.62-9.33,9.96-19.9,11.93-30.9c2.05-11.43,5.66-22.34,9.15-33.35c2.03-6.41,3.14-12.94,1.97-20
	c-1.47-8.94-11.47-20.03-23.11-21.71c-6.26-0.9-12.11,0.5-17.91,2.21c-8.61,2.54-16.48,1.32-23.76-3.81
	c-6.83-4.82-13.6-9.74-20.43-14.57c-7.88-5.57-15.92-10.99-25.44-13.22c-4.7-1.1-9.69-0.95-14.56-1.37"/>
<path class="st0" d="M869.78,394.35c-5.42,1.11-10.87,2.07-16.24,3.37c-6.84,1.65-13.72,3.26-20.4,5.46
	c-7.89,2.6-15.57,2.48-23.37-0.06c-4.14-1.35-8.33-2.51-12.49-3.77c-12.94-3.91-27.46,9.52-25.27,22.9c0.57,3.49,2.58,6.9,4.51,9.98
	c3.73,5.95,6.59,12.25,6.87,19.22c0.2,4.83-0.34,9.9-1.66,14.54c-2.27,7.92-5.09,15.73-8.27,23.34
	c-5.28,12.64-15.72,19.8-27.83,25.06c-8.95,3.88-17.91,7.79-26.65,12.11c-12.64,6.24-19.18,16.79-19.51,30.78
	c-0.2,8.26,3.5,15.56,10.01,20.26c10.98,7.93,22.64,14.91,34.07,22.23c6.2,3.97,12.52,7.74,18.74,11.69
	c12.91,8.2,24.8,1.52,32.56-7.46c6.39-7.39,6.41-15.57,4.08-24.21c-2.07-7.68-5.21-15.16-6.47-22.95
	c-2.74-16.97,1.16-32.23,14.88-43.67c9.49-7.92,19.32-15.44,29.15-22.94c9.19-7.02,14.28-16.68,18.29-27.12
	c0.94-2.46,1.21-5.31,2.63-7.42c2.23-3.33,4.88-6.52,7.88-9.16c4.16-3.66,9.37-6.23,13.15-10.19c7.75-8.13,10.79-18.49,9.91-29.46
	c-0.55-6.83-3.54-10.37-11.05-11.66c-2.34-0.4-4.72-0.58-7.08-0.85"/>
<path class="st0" d="M98.91,396.01c-3.33,1.11-6.97,1.7-9.95,3.43c-11.28,6.57-11.93,23.12,0.7,30.46
	c7.81,4.54,15.86,6.74,24.65,5.98c2.72-0.24,5.87-1.47,7.82-3.31c6.16-5.82,10.97-12.69,13.02-21.14c1.13-4.64-0.08-7.22-4.14-10.03
	c-4.55-3.15-9.87-3.73-15.04-4.45c-5.49-0.76-11.1-0.66-16.65-0.94"/>
<path class="st0" d="M1004.79,257.67c-0.69,0.28-1.46,0.45-2.07,0.85c-3.24,2.16-4.41,4.73-2.88,7.03c1.74,2.6,4.3,3.63,7.45,2.55
	c0.25-0.09,0.58,0.06,0.83-0.02c3.78-1.26,5.75-3.55,5.42-6.24c-0.37-2.99-2.37-4.17-7.08-4.17c-0.42,0-0.83,0-1.25,0"/>
<path class="st0" d="M586.43,438.52c-5.34,1.34-10.48,3.02-13.33,8.33c-3.88,7.23-1.68,18.49,5.91,21.02
	c3.58,1.2,8.14,0.6,11.97-0.33c6.88-1.66,12.94-5.03,16.72-11.52c3.82-6.57,2.14-11.63-4.55-15.5c-5.29-3.05-10.85-1.55-16.3-2.01"
	/>
<path class="st0" d="M1187.3,438.52c-4.68,0.84-9.29,2.55-11.51,6.75c-2.75,5.21-4.59,10.95-6.3,16.62
	c-0.85,2.83,1.3,5.12,4.47,4.89c9.75-0.7,19.24-2.97,25.27-11.28c4.67-6.44,1.55-13.78-7.35-16.13c-1.37-0.36-2.77-0.57-4.16-0.84"
	/>
<path class="st0" d="M1420.64,441.85c-5,0.83-10,1.69-15,2.49c-3.74,0.6-7.64,0.67-11.22,1.78c-5.5,1.71-7.8,4.72-6.23,11.13
	c2.46,10.05,5.02,20.07,7.93,29.99c2.31,7.87,4.73,15.79,7.99,23.29c3.24,7.46,8.9,8.28,15.3,3.42c6.84-5.19,9.35-12.86,11.54-20.48
	c3.07-10.71,5.51-21.61,7.95-32.49c0.66-2.94,1.02-6.25,0.36-9.12c-1.58-6.92-5.97-9.86-12.37-10.02c-1.94-0.05-3.89-0.01-5.83-0.01
	"/>
<path class="st0" d="M478.51,231.42c-2.7,0.57-5.37,1.22-5.82,4.59c-0.42,3.13,0.13,6.16,2.97,7.8c1.42,0.82,3.79,1.01,5.3,0.41
	c3.09-1.22,4.29-4.19,4.15-7.37c-0.11-2.46-1.26-4.54-4.1-5.01c-0.7-0.12-1.39-0.27-2.08-0.41"/>
<path class="st0" d="M678.11,207.67c-4.44,1.39-9.06,2.39-13.3,4.25c-7.07,3.12-11,15.41-9.22,22.83
	c1.29,5.38,2.62,10.59,7.48,14.21c6.5,4.84,13.48,4.79,20.42,1.95c10.19-4.17,18.29-11.01,23.8-20.74
	c6.76-11.93-0.3-19.72-11.29-21.56c-5.72-0.96-11.65-0.68-17.48-0.95"/>
<path class="st0" d="M813.11,451.85c-10.23,2.45-14.6,10.65-18.24,19.21c-2.51,5.89-4.1,12.11-3.9,18.71
	c0.24,7.93,4.25,11.82,11.68,9.45c12.3-3.92,23.33-9.93,30.52-21.5c7.6-12.23-1.38-24.59-13.81-25.84
	c-1.92-0.19-3.89-0.03-5.83-0.03"/>
<path class="st0" d="M497.26,201c-6.11,1.39-12.4,2.28-18.29,4.3c-6.86,2.35-13.84,4.97-19.93,8.8
	c-8.48,5.33-11.89,12.94-8.64,24.35c5.19,18.26,16.95,31.52,34.8,38.78c9.06,3.69,15.17-0.11,17.88-7.48
	c4.87-13.27,13.11-24.21,22.42-34.68c6.59-7.41,7.45-17.89-1.55-24.91c-4.62-3.61-9.75-6.16-15.44-7.44
	c-3.56-0.8-7.21-1.16-10.82-1.71"/>
<path class="st0" d="M1438.15,199.34c-3.75,0.56-7.54,0.93-11.24,1.7c-10.07,2.08-16.48,9.7-15.84,17.88
	c0.59,7.62,5.48,13.59,13.77,16.2c8.5,2.67,17.19,1.09,25.82,0.47c1.39-0.1,2.78-0.3,4.17-0.41c7.64-0.57,15.31-0.87,22.91-1.77
	c3.94-0.47,7.78-1.98,10.42-5.32c3.03-3.84,3.3-9.65-1.22-15.01c-5.81-6.88-13.79-9.69-22.13-11.1c-8.65-1.46-17.48-1.81-26.23-2.64
	"/>
<path class="st0" d="M1036.46,196c-10.09,2.45-18.44,8.24-25.71,15.13c-10.18,9.64-21.28,17.99-32.6,26.15
	c-9.71,7-12.79,16.82-9.14,28.29c3.03,9.53,9.88,15.5,19.13,18.74c11.21,3.92,22.48,4.2,33.75,0.04
	c7.33-2.71,12.71-7.55,14.89-15.04c2.14-7.36,3.66-14.93,5.04-22.48c1.21-6.67,3.26-12.92,6.72-18.75
	c3.19-5.38,5.25-11.04,5.08-17.49c-0.24-9.06-5.58-14.58-14.64-14.58c-0.69,0-1.39,0-2.08,0"/>
<path class="st0" d="M449.76,461.85c-3.61,0.97-7.26,1.82-10.83,2.94c-9.56,3.02-17.04,9.02-23.34,16.65
	c-5.44,6.59-5.18,14.31-4.14,22.08c1.25,9.35,4.68,18.28,4.66,27.92c-0.02,8.55-2.82,15.99-6.71,23.37
	c-4.31,8.18-8.7,16.41-12.01,25.02c-4.77,12.39-2.97,24.25,5.26,34.96c3.87,5.05,7.72,10.13,11.23,15.43
	c6.66,10.03,7.37,21.24,4.49,32.44c-3.36,13.11-2.67,25.89,0.53,38.79c1.23,4.97,1.97,10.08,3.47,14.96
	c0.7,2.29,2.39,4.47,4.11,6.22c2.5,2.53,6.41,2.44,9.08,0.04c2.48-2.23,4.94-4.53,7.07-7.09c6.13-7.37,14.55-9.01,23.37-9.51
	c8.32-0.47,16.73-0.03,24.98-1.02c10.07-1.2,20.06-3.29,30.01-5.33c7.29-1.5,14.46-3.52,21.68-5.36c9.55-2.44,17.18-8.05,23.22-15.5
	c4.21-5.21,7.68-11.11,10.87-17.03c5.62-10.43,2.34-19.62-5.4-27.4c-7.85-7.89-17.18-13.66-27.85-17.16
	c-13.42-4.4-26.88-8.49-39.69-14.79c-13.5-6.64-19.58-17.4-21.09-31.46c-1.39-12.89-2.3-25.83-3.39-38.75
	c-0.86-10.28-1.21-20.62-2.64-30.81c-1.29-9.12-3.28-18.21-5.83-27.06c-2.37-8.21-8.94-12.29-17.78-12.54c-0.97-0.03-1.94,0-2.92,0"
	/>
<path class="st0" d="M672.27,191.84c-3.47,0.83-7.1,1.27-10.39,2.57c-11.06,4.37-15.74,14.11-18.15,24.56
	c-2.37,10.33-3.12,21.05-4.32,31.63c-0.42,3.7,0.03,7.5-0.09,11.24c-0.25,8.08,4.53,13.95,8.81,19.98
	c5.08,7.17,7.97,14.92,8.83,23.77c1.48,15.25-2.97,29.14-8.44,42.93c-4.02,10.13-8.04,20.34-9.05,31.26
	c-0.75,8.08,0.06,16.14,3.59,23.76c3.81,8.21,10.66,11.14,19.57,5.72c5.05-3.07,9.44-7.21,14.24-10.72
	c7.87-5.76,16.25-10.9,23.65-17.21c14.59-12.46,24.44-28.16,28.79-46.99c2.01-8.71,0.59-17.52-0.41-26.23
	c-0.75-6.55-1.79-13.08-2.91-19.58c-0.95-5.58-1.9-11.2-3.36-16.66c-2.94-10.93-1.91-21.38,2.52-31.7
	c3.15-7.35,4.76-14.85,2.19-22.92c-3.01-9.48-9.68-15.18-18.43-18.66c-8.78-3.5-17.99-5.42-27.47-5.92
	c-2.92-0.15-5.83-0.54-8.75-0.81"/>
<path class="st0" d="M1028.12,466.02c-3.05,0.91-5.62,2.38-6.24,5.84c-0.62,3.5,1.54,6.97,4.57,7.5c3.11,0.54,7.25-2.72,7.92-6.25
	c0.81-4.26-0.81-6.22-5.83-7.08"/>
<path class="st0" d="M1290.64,469.35c-12.8,2.99-19.46,12.27-23.21,23.79c-3.24,9.94-5.57,20.2-8,30.39
	c-2.57,10.79-4.9,21.63-7.08,32.5c-1.49,7.45-2.91,14.95-3.72,22.5c-1.45,13.55-9,22.66-20.06,29.61c-4.56,2.87-9.05,5.9-13.33,9.17
	c-8.75,6.69-14.77,15.39-18.39,25.79c-1.08,3.11-2.26,6.23-3.78,9.15c-1.85,3.57-4.36,3.92-7.43,1.26
	c-5.41-4.68-10.06-10.17-12.83-16.7c-6.99-16.53-19.69-27.05-35.11-34.94c-8.29-4.24-16.59-8.5-25.02-12.47
	c-6.59-3.1-13.74-4.21-20.78-2.44c-9.48,2.39-15.04,9.79-15.82,19.89c-0.83,10.75,2.94,20.6,6.63,30.41
	c4.13,10.98,8.73,21.84,18.01,29.47c6.16,5.06,12.92,9.62,19.98,13.3c10,5.2,20.77,3.59,31.15,0.88c8.06-2.11,16.01-4.81,23.72-7.96
	c4.09-1.67,7.77-4.59,11.25-7.42c4.05-3.29,5.47-4,10.01-1.11c8.35,5.32,16.59,10.83,24.58,16.67c6.36,4.66,12.45,9.73,18.34,14.99
	c5.99,5.35,8.51,12.72,9.53,20.38c1.26,9.39,1.55,18.9,2.66,28.31c1.05,8.88,1.26,17.93,5.3,26.28c4.1,8.49,10.6,14.15,19.23,17.44
	c7.02,2.67,14.11,5.17,21.25,7.5c7.1,2.32,10.98,6.61,6.34,16.34c-3.88,8.14-9.14,14.69-16.72,19.61
	c-4.29,2.78-8.38,6.03-12.07,9.57c-6.94,6.64-8.74,23.06-3.88,31.65c3.62,6.39,9.22,6.44,13.77,3.64c3.96-2.43,7.76-5.24,11.25-8.31
	c7.7-6.76,16.61-10.31,26.7-11.7c8.52-1.17,16.52-3.53,21.75-11.54c6.17-9.43,5.11-25.61-2.6-34.19c-2.88-3.21-5.84-6.45-9.19-9.13
	c-6.46-5.15-7.06-11.35-5.05-18.85c2.36-8.82,3.56-17.85,4-27.05c0.49-10.45,1.58-20.93,3.32-31.24
	c1.98-11.67,8.1-21.56,15.25-30.89c7.42-9.68,15.62-18.51,25.43-25.84c6.48-4.84,13.85-7.83,21.69-7.69
	c12.23,0.21,21.89,5.55,28.01,16.85c4.95,9.15,7.32,19.15,10.68,28.82c3.01,8.67,7.38,16.48,13.9,22.81
	c5.01,4.86,10.8,8.91,16.15,13.44c4.66,3.94,9.05,8.21,13.79,12.03c15.44,12.45,32.78,9.51,44.58-6.21
	c7.82-10.42,11.71-22.39,13.67-35.02c2.07-13.31,5.67-26.06,11.21-38.37c2.69-5.98,4.97-12.32,6.17-18.74
	c1.36-7.31-1.63-12.39-11.49-13.25c-3.58-0.31-7.22-0.16-10.83-0.03c-13.3,0.49-26.24-1.99-39.17-4.61
	c-10.14-2.06-20.21-4.7-30.44-6.08c-8.22-1.11-16.64-0.91-24.98-0.95c-9.9-0.05-19.53-1.71-29.19-3.71
	c-8.11-1.68-16.38-2.56-24.57-3.85c-10.82-1.71-21.4-4.06-27.89-14.18c-3.55-5.53-3.97-12-4.57-18.32c-0.3-3.17,0-6.39-0.06-9.58
	c-0.25-12.36-0.31-24.74-0.9-37.08c-0.42-8.63-1.04-17.32-2.55-25.82c-2.14-12.06-9.17-21.34-19.07-28.32
	c-8.19-5.77-16.41-11.55-25.07-16.54c-4.15-2.39-9.35-2.95-14.07-4.34"/>
<path class="st0" d="M1428.98,190.17c-5.28,1.11-10.71,1.76-15.8,3.43c-9.06,2.97-14.07,9.67-15.44,19.07
	c-2.42,16.59,8.88,29.2,23.79,32.29c6.26,1.29,13.01,0.31,19.54,0.18c3.89-0.08,7.78-0.71,11.67-0.76
	c9.86-0.11,19.73,0.25,29.58-0.12c8.89-0.34,16.9-3.11,22.52-10.73c4.54-6.15,5.12-13.64,0.77-19.98
	c-6.32-9.21-14.96-15.29-25.77-18.41c-10.24-2.96-20.68-3.93-31.26-4.15c-6.39-0.13-12.78-0.53-19.17-0.81"/>
<path class="st0" d="M1189.38,188.09c-7.22,1.98-10.17,7.8-11.52,14.2c-1.47,6.95-1.94,14.12-2.61,21.22
	c-0.96,10.13-1.85,20.27-2.46,30.42c-0.25,4.13,0.3,8.24,3.24,11.68c5.26,6.17,12.45,3.72,16.3-0.83c4.42-5.22,4.96-11.7,6.2-17.95
	c1.89-9.57,3.66-19.16,5.43-28.75c1.04-5.66,2.14-11.27,0.48-17.1c-2.23-7.85-6.54-11.85-14.64-12.9"/>
<path class="st0" d="M1414.81,182.67c-4.31,1.39-8.85,2.29-12.87,4.26c-10.21,5.01-14.76,13.75-15.96,24.9
	c-2.38,22.24,14.43,36.58,31.78,41.56c7.33,2.1,14.95,0.75,22.48-0.23c9.52-1.25,18.96-2.38,28.77-1.63
	c11.07,0.85,22.61,2.11,33.31-3.03c11.63-5.6,19.22-14.41,20.74-27.51c0.58-4.99-1.51-9.56-4.92-13.31
	c-10.34-11.39-23.36-18.22-38.35-20.7c-11.13-1.84-22.46-2.65-33.73-3.39c-10.25-0.68-20.55-0.64-30.83-0.92"/>
<path class="st0" d="M443.09,478.52c-4.31,1.81-9.2,2.84-12.8,5.58c-7.83,5.97-9.58,14.59-8.03,24.01
	c1.21,7.37,2.91,14.68,3.63,22.1c0.77,7.85-2.21,15.02-6.18,21.63c-4.93,8.22-10.61,15.96-14.2,25c-4.67,11.77-2.87,22.53,4.3,32.49
	c4.67,6.49,9.79,12.67,14.97,18.76c7.12,8.37,11.31,18.24,14.92,28.38c5.01,14.08,13.45,25.46,25.91,33.69
	c5.98,3.95,12.82,5.45,19.97,5.91c18.58,1.2,36.08-3.36,52.87-10.57c12.87-5.53,21.78-15.26,24.05-29.49
	c1.06-6.67-2.03-12.74-6.49-17.9c-5.85-6.77-13.63-10.48-21.68-13.73c-11.5-4.65-23.05-9.18-34.58-13.77
	c-14.63-5.82-22.47-16.93-25.47-32.08c-2.1-10.61-4.8-21.1-6.99-31.69c-1.65-7.99-1.2-16.01-0.67-24.17
	c0.9-13.76-0.25-27.44-9.8-38.73c-3.46-4.09-8.13-5.45-13.32-5.43"/>
<path class="st0" d="M223.92,481.02c-11.39,2.5-22.79,4.94-34.16,7.53c-5.45,1.24-10.87,2.63-16.25,4.17
	c-8.91,2.55-14.32,8.82-17.95,17.05c-4.76,10.79-7.12,22.21-8.63,33.77c-1.36,10.44,1.42,20.5,6.3,29.5
	c9.81,18.1,16.37,37.26,21.15,57.15c0.82,3.4,1.95,6.78,3.34,9.99c4.23,9.8,10.61,13.3,21.61,11.2
	c13.44-2.57,21.81-11.89,28.78-22.84c4.53-7.12,8.69-14.54,13.85-21.17c7.03-9.03,17.36-13.32,27.8-17.2
	c4.5-1.67,9.07-3.26,13.31-5.46c11.03-5.73,16.11-15.07,17.3-27.42c0.93-9.63-0.41-18.71-2.6-27.96
	c-2.79-11.81-9.16-21.35-18.08-29.06c-10.11-8.74-21.8-15.12-34.96-17.84c-6.61-1.37-13.58-1-20.38-1.42"/>
<path class="st0" d="M1293.14,486.85c-11.87,2.4-16.77,11.43-19.46,21.7c-4.34,16.55-8.2,33.24-11.67,49.99
	c-2.02,9.73-2.94,19.69-4.27,29.56c-1.5,11.15-6.44,20.15-15.81,26.72c-5.34,3.74-10.89,7.46-15.33,12.15
	c-8.71,9.18-10.3,18.96-2.01,29.74c5.82,7.57,12.98,14.28,20.33,20.44c10.98,9.2,16.93,20.08,17.17,34.71
	c0.23,14.04,1.12,28.21,3.4,42.05c2.35,14.26,11.38,23.35,28.08,23.89c9.75,0.31,17.97-2.24,22.76-11.02
	c2.45-4.5,3.68-9.83,4.61-14.94c0.89-4.89,0.62-9.98,0.98-14.98c0.89-12.55-2.15-24.08-8.28-35.04c-5.13-9.16-3.27-14.7,6.21-19.49
	c5.82-2.94,11.97-5.21,17.88-8c9.96-4.71,19.3-10.45,25.78-19.6c6.03-8.51,4.03-11.57-2.44-17.86
	c-6.61-6.42-14.24-11.88-16.76-21.65c-2.19-8.48-1.69-16.93-1.12-25.44c0.26-3.9,1.05-7.77,1.18-11.67
	c0.4-11.94,0.94-23.89,0.75-35.83c-0.11-6.96-1.08-13.98-2.47-20.82c-2.5-12.35-10.83-20.37-21.62-25.74
	c-6.79-3.38-14.07-5.79-21.22-8.36c-1.89-0.68-4.14-0.36-6.22-0.5"/>
<path class="st0" d="M228.08,489.35c-9.58,2.22-19.21,4.29-28.74,6.72c-5.91,1.51-11.76,3.34-17.5,5.41
	c-12.11,4.35-17.92,14.02-20.78,25.81c-1.23,5.04-2.21,10.24-2.46,15.41c-0.46,9.56,2.87,18.17,7.79,26.26
	c4.51,7.42,9.5,14.41,16.27,19.99c6.66,5.49,14.04,8.76,22.92,8.85c7.35,0.07,14.36-1.18,21.25-3.46
	c12.8-4.24,25.61-8.46,38.32-12.95c6.57-2.32,12.86-5.27,17.97-10.33c5.63-5.57,8.36-12.29,9.63-20.02
	c2.33-14.16-1.17-26.74-9.73-37.88c-7.36-9.58-17.33-15.58-28.66-19.72c-8.43-3.08-16.96-4.49-25.87-4.08"/>
<path class="st0" d="M226.42,496.85c-8.47,2.36-17.04,4.44-25.39,7.17c-6.5,2.13-12.91,4.54-18.42,9.01
	c-7.01,5.69-10.07,13.09-10.77,21.74c-1.38,17.08,6.25,29.85,19.62,39.51c6.58,4.75,14.33,6.55,22.45,6.75
	c17.86,0.45,35.07-2.76,51.66-9.22c14.27-5.55,23.2-21.44,20.64-36.67c-2.99-17.75-14.46-27.18-29.38-34.13
	c-9.57-4.45-19.77-4.44-30-4.17"/>
<path class="st0" d="M333.92,501.85c-5.23,1.74-7.07,5.51-7.14,10.83c-0.16,11.56,1.07,22.69,7.08,32.95
	c2.91,4.97,6.52,8.14,12.56,7.9c4.09-0.16,6.93-2.42,9.13-5.46c8.13-11.22,8.36-20.94,0.36-32c-4.38-6.06-9.8-11.29-17.42-13.38
	c-1.36-0.37-2.77-0.57-4.16-0.85"/>
<path class="st0" d="M1090.63,503.52c-1.53,0.69-3.36,1.06-4.53,2.14c-5.62,5.19-5.82,9.95,0.03,14.84
	c4.52,3.78,10.35,4.57,16.16,3.8c4.6-0.61,7.36-6.56,4.93-11.16c-3.35-6.37-8.42-10.4-16.18-9.62"/>
<path class="st0" d="M227.25,504.35c-8.37,2.05-16.55,4.55-24.19,8.71c-7.45,4.05-13.88,8.91-16.21,17.55
	c-4.45,16.47,7.76,32,19.58,36.22c9.47,3.39,19.12,3.93,29.18,2.72c7.84-0.94,15.48-2.12,22.89-4.78
	c9.91-3.56,17.04-10.06,19.47-20.44c1.94-8.29,0.62-16.43-4.91-23.28c-9.17-11.36-21.39-16.45-35.8-16.68
	c-3.19-0.05-6.39-0.01-9.58-0.01"/>
<path class="st0" d="M1301.47,504.35c-10.09,1.86-15.17,8.71-17.92,17.92c-3.6,12.09-7.33,24.14-10.8,36.26
	c-4.34,15.13-4.77,30.69-4.09,46.24c0.47,10.82,6.51,17.88,16.99,20.81c7.04,1.97,14.07,4.42,21.27,5.24
	c8.26,0.95,15.8-2.61,18.22-10.66c2.6-8.64,4.92-17.4,6.66-26.24c2.87-14.56,4.66-29.25,5.28-44.14c0.38-9.01,0.18-17.72-2.71-26.25
	c-3.78-11.14-12.46-16.2-23.33-18.29c-3-0.58-6.1-0.6-9.16-0.88"/>
<path class="st0" d="M233.08,511.85c-5,1.39-10.11,2.48-14.97,4.24c-6.39,2.32-11.41,6.69-14.99,12.45
	c-6.11,9.81-1.05,22.51,8.71,27.07c8.79,4.11,17.81,5.36,27.53,3.92c6.23-0.92,12.2-1.88,17.92-4.7
	c9.17-4.52,13.35-11.73,11.96-21.72c-1.04-7.45-6.02-12.31-12.4-15.85c-7.27-4.04-15.11-5.55-23.34-5.41"/>
<path class="st0" d="M968.95,515.19c-11.8,1.99-16.77,10.61-19.5,20.86c-2.63,9.89-4.48,19.99-6.77,29.97
	c-1.92,8.37-0.86,16.38,2.52,24.17c4.78,11.02,8.59,22.37,10.77,34.18c1.69,9.11,2.53,18.38,4.3,27.48
	c2.34,12.02,12.1,18.7,24.09,19.17c2.91,0.11,5.83,0.07,8.75,0.01c6.91-0.15,11.67-5.13,12.15-12.07c0.39-5.58,1.3-11.12,2.03-16.67
	c1.39-10.52,6.98-19.02,13.36-27.06c3.73-4.71,7.73-9.2,11.64-13.77c6.83-7.99,10.66-17.32,12.97-27.49
	c2.4-10.6,4.95-21.14,4.95-32.1c-0.01-8.09-3.39-11.49-11.66-12.55c-11.42-1.47-22.87-2.86-34.14-5.11
	c-6.7-1.34-13.1-4.24-19.61-6.52c-5-1.76-10.09-2.83-15.42-2.49"/>
<path class="st0" d="M870.62,518.52c-5.42,1.81-10.98,3.26-16.21,5.51c-5.36,2.31-9.14,6.37-10.49,12.4
	c-1.29,5.77,2.83,10.91,8.78,11.31c13.24,0.9,23.1-9.02,26.49-20.11c2.05-6.7-0.4-8.28-6.49-9.1c-0.55-0.07-1.11-0.01-1.67-0.01"/>
<path class="st0" d="M234.75,522.69c-3.61,1.53-7.51,2.61-10.78,4.68c-7.11,4.5-7.59,13.02,0.77,17.83
	c6.66,3.84,21.11,4.01,27.88-2.14c5.69-5.17,4-12.82-2-16.67c-4.8-3.08-9.93-4.01-15.45-3.7"/>
<path class="st0" d="M1309.81,523.52c-8.53,2.8-12.68,9.72-16.74,17.04c-6.32,11.42-11.06,23.41-12.7,36.31
	c-1.16,9.12,0.06,18.32,6.18,25.76c6.71,8.16,22.4,9.39,29.23-3.62c4.13-7.86,5.8-16.31,7.64-24.69
	c2.46-11.19,4.45-22.59,3.34-34.12c-0.38-3.97-1.75-8.15-3.76-11.59c-2.7-4.6-7.68-5.45-12.77-5.09"/>
<path class="st0" d="M920.62,527.69c-4.71,2.02-8,5.23-9.19,10.41c-1.04,4.5,0.04,7.06,4.19,9.17c3.3,1.68,6.43,0.64,9.21-2.46
	c3.46-3.86,3.27-8.49,2.73-12.94c-0.39-3.19-3.24-4.49-6.52-4.19"/>
<path class="st0" d="M753.11,528.52c-5.97,1.67-11.99,3.19-17.91,5.04c-6.13,1.91-11.45,5.09-15.46,10.36
	c-8.62,11.34-4.66,22.83,4.74,30.7c10.72,8.97,23.56,14.65,36.99,18.36c10.3,2.85,16.71-2.4,16.13-12.36
	c-0.42-7.39-1.57-14.73-2.42-22.09c-0.81-6.95-1.34-13.95-2.59-20.82c-1.18-6.5-5.02-9.18-11.57-9.18c-2.5,0-5,0-7.5,0"/>
<path class="st0" d="M977.29,532.69c-11.72,2.01-14.69,11.14-17.1,20.83c-3.58,14.37-0.5,28.2,2.87,42.11
	c2.41,9.92,4.22,19.99,6.32,29.99c1.29,6.13,1.67,12.49,5.38,17.94c3.87,5.69,10.72,6.72,14.98,0.36c2.93-4.39,4.99-9.38,8.04-13.66
	c6.86-9.61,13.72-19.25,21.29-28.3c7.48-8.95,13.59-18.49,15.15-30.11c0.85-6.31,0.94-12.97-1.54-19.13
	c-3.13-7.79-9.96-10.74-17.47-12.5c-10.4-2.43-20.82-4.79-31.26-7.06c-2.02-0.44-4.16-0.32-6.24-0.46"/>
<path class="st0" d="M441.43,548.52c-4.86,3.19-10.27,5.81-14.44,9.74c-4.41,4.16-8.22,9.23-11.29,14.49
	c-8.44,14.49-5.27,25.88,5.01,37.33c6.01,6.7,13.08,12.49,19.92,18.4c7.7,6.65,12.35,15.25,16.67,24.19
	c4.65,9.64,9.27,19.35,17.47,26.68c5.32,4.76,11.61,7.17,18.74,7.52c14.6,0.72,28.07-2.89,39.91-11.38
	c4.16-2.98,8.05-6.91,10.77-11.23c5.59-8.87,2.14-17.91-5.29-24.45c-8.24-7.26-18.44-11.11-28.33-15.39
	c-8.07-3.49-16.32-6.57-24.57-9.61c-10.75-3.97-14.96-12.71-17.54-22.94c-1.98-7.84-3.89-15.76-6.77-23.29
	c-2.65-6.93-6.48-13.51-12.84-17.88c-1.93-1.32-4.66-1.49-7.02-2.18"/>
<path class="st0" d="M988.96,551.86c-12.8,1.69-14.79,14.48-13.21,23.73c1.16,6.78,3.27,13.43,5.39,19.99
	c0.92,2.84,2.69,5.51,4.55,7.9c2.16,2.78,7.36,3.49,10.72,1.24c10.3-6.9,18.98-15.02,22.24-27.83c2.92-11.49-3.78-19-11.01-21.51
	c-5.8-2.02-12.16-2.41-18.27-3.52"/>
<path class="st0" d="M1527.32,560.19c-2.64,2.22-5.52,4.23-7.79,6.78c-0.89,1-1.1,3.69-0.38,4.79c1.24,1.89,3.13,0.66,4.87-0.26
	c3.35-1.75,5.25-4.33,6.3-7.95c0.8-2.76-0.18-3.42-2.58-3.36"/>
<path class="st0" d="M438.09,567.69c-7.79,1.78-13.35,6.27-16.23,13.76c-3.73,9.7,0.3,18.16,7.56,24.91
	c4.06,3.78,8.74,6.72,14.47,8.14c7.57,1.88,13.55-1.26,14.48-9.74c1.1-10.08-0.65-19.89-6.11-28.74c-3.16-5.12-7.74-7.91-13.75-8.33
	"/>
<path class="st0" d="M666.44,181c-7.5,1.64-13.95,5.01-19.22,10.79c-4.76,5.22-7.51,11.41-9.5,17.97
	c-4.43,14.68-8.67,29.43-12.95,44.16c-2.84,9.75-0.84,18.76,4.61,27.06c3.44,5.25,7.14,10.33,10.81,15.43
	c5.57,7.74,7.92,16.58,7.31,25.83c-0.45,6.87-2.21,13.73-4.07,20.41c-3.16,11.34-7.49,22.38-10.11,33.83
	c-1.82,7.94-1.56,16.34-2.32,24.53c-0.45,4.87-0.79,9.78-1.72,14.57c-1.49,7.72-7.15,10.02-13.25,10.58
	c-13.05,1.2-26.25,0.08-39.2,3.1c-13.97,3.27-20.19,13.08-21.8,25.47c-1.28,9.83-0.16,19.28,1.85,28.76c0.43,2,1.02,4.1,2.1,5.81
	c4.39,6.95,7.61,7.48,16.14,3.26c8.3-4.1,16.08-9.22,24.25-13.6c6.58-3.53,12.94-7.21,18.37-12.49c5.05-4.9,9.21-10.48,11.87-16.79
	c3.59-8.52,9.5-13.84,18.07-16.6c11.35-3.66,19.81-11.06,27.66-19.85c5.98-6.71,13.01-12.71,20.35-17.93
	c13.44-9.57,22.71-22.46,31.66-35.91c10.5-15.79,14.48-33.75,18.69-51.72c1.64-7.01,3.03-14.02,2.45-21.25
	c-0.43-5.29-0.63-10.66-1.76-15.81c-1.3-5.91-0.28-11.58,1.95-16.62c5.8-13.06,2.6-24.33-4.2-35.99
	c-11.1-19.04-28.34-28.13-48.87-32.91c-9.5-2.21-18.87-4.86-28.77-4.09"/>
<path class="st0" d="M1038.96,171.84c-8.61,1.67-17.2,3.46-25.84,4.95c-4.81,0.83-9.74,1.77-14.57,1.55
	c-5.03-0.23-9.97-2.08-15.02-2.65c-3.55-0.4-7.33-0.37-10.8,0.43c-6.69,1.54-8.66,6.69-7.12,12.81c1.05,4.15,2.3,8.28,2.86,12.51
	c1.11,8.47-3.17,15.41-7.5,22.03c-7.13,10.89-9.56,22.87-8.14,35.45c1.85,16.36,10.39,28.21,26.14,34.16
	c12.78,4.83,26.23,5.62,39.56,4.42c13.46-1.21,24-7.98,30.02-20.65c2.37-4.99,4.77-9.98,7.07-15.01
	c3.05-6.66,6.96-12.64,12.93-17.08c7.49-5.57,14.84-11.36,22.57-16.56c3.61-2.43,7.98-3.73,12.01-5.52c4.18-1.85,8.16-4,9.55-8.77
	c1.58-5.4-1.31-10.8-7.49-14.12c-1.96-1.06-4.15-1.69-6.23-2.54c-6.74-2.73-13.22-6.08-18.27-11.31
	c-10.72-11.09-24.01-14.56-38.81-14.11c-0.83,0.03-1.67,0-2.5,0"/>
<path class="st0" d="M848.95,602.69c-6.41,1.51-11.5,5.52-16.14,9.7c-6.26,5.63-12.42,11.62-17.44,18.34
	c-6.18,8.27-7.78,16.51-1.3,24.36c2.33,2.82,5.7,5.32,9.11,6.62c10.47,4,21.36,4.17,32.46,2.76c7.59-0.97,14.65-2.78,21.26-6.74
	c11.33-6.78,14.82-21.99,9.06-33.34c-7.51-14.82-20.04-21.81-36.59-21.71"/>
<path class="st0" d="M665.6,171c-11.97,2.65-22.28,8.14-28.19,19.25c-3.46,6.51-6.01,13.65-7.93,20.79
	c-2.95,10.96-6.5,21.58-11.76,31.65c-2.93,5.61-5.53,11.37-5.9,17.9c-0.57,10.08,3.73,18.52,8.82,26.64
	c4.25,6.79,9.29,13.11,13.18,20.09c5.14,9.21,6.09,19.29,3.41,29.51c-3.18,12.12-6.77,24.14-9.91,36.27
	c-1.82,7.01-3.32,14.12-4.59,21.25c-2.55,14.36-11.81,21.17-25.46,23.34c-10.15,1.61-20.35,3-30.4,5.1
	c-6.62,1.39-12.05,5.15-16.33,10.68c-8.15,10.55-12.96,22.58-15.19,35.49c-1.27,7.33-1.06,14.98-0.93,22.47
	c0.17,9.95-1.56,19.55-3.74,29.19c-1.7,7.54-3.52,15.24-3.65,22.9c-0.28,16.22,5.16,25.89,22.77,32.38c5.13,1.89,10.75,3,16.21,3.31
	c9.27,0.52,13.88-6.04,12.17-15.29c-1.42-7.69-2.57-15.52-2.89-23.32c-0.55-13.16,4.87-24.33,12.74-34.63
	c6.61-8.65,15.19-14.9,24.31-20.24c12.28-7.18,22.47-16.45,31.69-27.13c3.82-4.43,8.66-8.03,13.26-11.72
	c8.64-6.94,16.78-14.38,23.27-23.4c6.51-9.05,14.5-16.67,23.03-23.63c9.29-7.59,15.89-17.26,22.88-26.73
	c11.61-15.72,21.27-32.61,30.88-49.57c1.67-2.95,4.15-5.55,6.63-7.92c5.98-5.69,13.2-6.33,20.78-4.18
	c8.37,2.37,16.64,5.08,25.02,7.44c9.83,2.77,19.66,5.54,29.61,7.82c3.43,0.79,7.4,0.88,10.77-0.02c9.64-2.58,12.39-8.76,7.85-17.72
	c-2.14-4.21-5.47-7.82-8.22-11.73c-6.26-8.88-12.78-17.6-18.68-26.71c-6.54-10.09-15.4-16.34-27.15-18.75
	c-4.08-0.84-8.14-1.96-12.08-3.33c-8.78-3.07-13.62-10.49-17.81-17.94c-8.88-15.79-21.1-28.33-36.05-38.12
	c-6.23-4.08-13.33-7.05-20.37-9.61c-10.1-3.67-20.53-6.46-30.79-9.72c-6.82-2.16-13.81-2.25-20.84-2.07"/>
<path class="st0" d="M1185.63,168.5c-10.05,3.31-13.2,11.84-15.36,20.85c-2.29,9.56-2.44,19.34-2.68,29.15
	c-0.33,13.76-2.99,27.18-6.83,40.46c-3.47,12,0.11,19.38,11.95,24.54c9.11,3.97,21.88,0.98,27.18-7.43c3.78-6,5.71-12.21,6.23-19.23
	c1.06-14.3,3.43-28.4,7.86-42.09c2.63-8.14,2.96-16.16-0.42-24.18c-3.74-8.88-9.99-15.72-18.03-20.66
	c-2.51-1.54-6.28-1.01-9.48-1.42"/>
<path class="st0" d="M1112.29,616.86c-6.26,2.22-7.74,4.58-7.95,11.25c-0.43,13.35,3.57,24.84,13.81,33.73
	c7.54,6.54,16.27,8.76,25.79,5.37c9.06-3.22,12.62-9.55,10.37-18.66c-4.5-18.23-14.35-27.46-32.87-31.6
	c-2.78-0.62-5.81-0.09-8.73-0.09"/>
<path class="st0" d="M288.92,618.53c-11.18,3.96-16.57,10.87-16.15,22.08c0.31,8.24,2.66,16.13,8.27,22.47
	c10.56,11.93,21.34,23.66,32.05,35.45c6.22,6.85,12.67,13.68,14.88,22.95c1.58,6.66,1.92,13.61,3.09,20.38
	c0.66,3.8,1.44,7.7,2.96,11.22c2.94,6.85,10.82,8.42,16.58,3.8c7.73-6.19,9.2-15.62,5.26-24.95c-2.71-6.43-6.43-12.53-10.35-18.34
	c-7.59-11.26-12.54-23.59-15.18-36.75c-1.22-6.06-0.61-12.48-1.02-18.72c-0.68-10.32-2.95-20.11-10.4-27.91
	c-8.05-8.43-17.73-12.83-29.58-11.68"/>
<path class="st0" d="M704.77,618.53c-4.49,1.17-8.59,2.98-11.68,6.66c-5.31,6.31-6.1,11.84-2.35,18.27
	c5.81,9.98,14.42,14.49,26.12,13.39c4.98-0.47,11.11-7.11,11.66-12.48c1.38-13.43-4.49-21.27-16.27-25.33
	c-2.15-0.74-4.69-0.36-7.05-0.5"/>
<path class="st0" d="M847.28,622.69c-5.98,1.05-10.72,4.25-14.56,8.77c-5.61,6.6-4.67,14.53,4.58,17.41c6.74,2.1,13.5,1.83,20-1.56
	c5.18-2.7,7.79-6.72,7.02-12.53c-0.72-5.44-4.32-8.84-9.16-10.75c-2.3-0.91-4.97-0.92-7.47-1.34"/>
<path class="st0" d="M482.26,629.36c-8.45,3.19-10.34,7.21-8.65,17.9c1.2,7.57,4.39,14.56,9.5,20.41
	c8.13,9.32,19.24,9.64,30.75,5.27c3.86-1.47,7.37-4.47,10.4-7.41c6.34-6.15,5.86-15.18-1.16-21.6c-8.25-7.54-18.12-11.94-28.8-14.43
	c-3.69-0.86-7.75-0.14-11.64-0.14"/>
<path class="st0" d="M1461.9,641.44c-4.72,0.42-9.5,0.51-14.15,1.34c-4.79,0.85-9.58,2.09-14.15,3.75
	c-4.51,1.64-5.41,5.54-3.38,11.16c3.1,8.6,6.13,17.21,9.17,25.83c2.1,5.97,3.99,12.01,6.29,17.9c4.52,11.55,13.32,19.71,22.48,27.5
	c5.19,4.41,10.35,8.89,15.87,12.86c4.8,3.45,9.83,6.41,16.19,6.87c8.52,0.62,14.66-3.36,19.49-9.37
	c6.08-7.55,9.12-16.54,10.58-26.16c1.83-12.12,4.25-24.16,6.11-36.27c0.63-4.09,1.22-8.53,0.29-12.44
	c-1.31-5.49-5.53-9.09-11.04-10.89c-13.76-4.49-27.73-8.08-42.09-9.96c-7.05-0.92-14.16-1.43-21.25-2.12"/>
<path class="st0" d="M653.1,645.19c-7.43,1.74-10.59,7.73-13.75,13.75c-5.65,10.76-6.86,22.4-5.68,34.15
	c0.95,9.41,3.62,18.74,12.85,23.61c4.38,2.31,9.56,3.4,14.52,4.22c8.83,1.47,17.8,2.09,26.64,3.5c9.78,1.56,21.48-8.17,22.61-18.39
	c1.56-14.14-4.17-24.72-14.69-33.34c-9.7-7.94-19.36-15.95-29.21-23.7c-3.66-2.88-8.04-4.38-12.87-3.81"/>
<path class="st0" d="M1473.15,651.86c-4.31,1.11-8.75,1.85-12.89,3.42c-7.31,2.78-10.89,8.44-10.86,16.17
	c0.07,15.84,5.63,29.46,16.66,40.84c7.68,7.92,15.49,15.7,25.45,20.77c2.27,1.15,4.93,1.74,7.47,2.1
	c10.37,1.47,17.28-6.34,19.87-14.57c1.9-6.05,2.81-12.43,3.82-18.72c0.84-5.23,1.49-10.54,1.67-15.83
	c0.69-20.31-5.64-23.78-21.68-29.82c-9.19-3.46-19.14-4.61-29.1-4.35"/>
<path class="st0" d="M70.16,662.28c-15.89,1.88-21.98,13.65-26.6,26.69c-1.42,4.01-2.02,8.31-2.98,12.48
	c-1.07,4.63-0.83,5.57,3.35,6.6c10.01,2.47,19.93,5.43,30.4,5.51c11.73,0.09,16.91-6.99,17.4-17.12c0.44-9.1-2.09-17.64-6.98-25.42
	c-3.3-5.26-7.88-8.38-14.18-8.75"/>
<path class="st0" d="M1483.15,665.2c-0.69,0.28-1.38,0.77-2.08,0.8c-13.19,0.63-17.99,13.7-13.35,25.04
	c4.5,11,11.94,19.57,22.16,25.3c10.28,5.77,16.81,1.41,20.18-8.7c2.66-7.98,3.07-16.68,0.88-24.91
	c-2.51-9.42-8.18-14.24-19.05-16.65c-2.71-0.6-5.55-0.6-8.32-0.88"/>
<path class="st0" d="M663.1,673.53c-11.21,3.98-14.94,14.81-8.39,23.79c2.39,3.28,5.72,5.12,9.25,5.61
	c4.48,0.62,9.52,0.98,13.64-0.46c8.09-2.83,9.7-8.34,5.45-15.99c-4.21-7.59-10.51-12.42-19.53-12.95"/>
<path class="st0" d="M228.08,164.34c-6.04,1.98-7.7,7.24-8.67,12.51c-2.84,15.45,1.73,29.02,11.16,41.25
	c9.67,12.55,25.61,13.28,37.9,4.11c4.43-3.31,5.74-11.92,2.92-18.27c-6.98-15.69-16.93-28.85-32.46-37.11
	c-3.28-1.74-6.64-2.93-10.42-2.49"/>
<path class="st0" d="M668.11,161.84c-4.86,1.39-9.86,2.41-14.56,4.23c-15.86,6.15-24.34,18.73-28.27,34.54
	c-3.79,15.29-8.96,29.79-17.91,42.96c-7.56,11.11-7.6,23.18-1.26,34.89c4.71,8.71,10.3,16.93,15.3,25.49
	c3.37,5.77,6.49,11.65,8.01,18.3c1.84,8.06,0.79,16.02-1.03,23.73c-3.26,13.87-7.25,27.57-11.15,41.28
	c-3.78,13.29-12.78,21.09-26.23,23.72c-6.76,1.32-13.57,2.62-20.42,3.29c-13.18,1.31-23.93,6.75-31.63,17.6
	c-7.23,10.18-14.41,20.4-21.19,30.87c-3.34,5.16-4.22,11.31-4.24,17.44c-0.05,16.53,0.04,33.06-0.05,49.59
	c-0.02,4.31-0.86,8.62-0.71,12.91c0.19,5.29,0.93,10.57,1.6,15.83c1.49,11.63,8.98,18.58,18.73,23.76
	c11.75,6.25,24.58,9.56,37.09,13.75c7.58,2.54,15.31,3.83,23.34,3.35c6.11-0.36,11.5-2.61,15.32-7.19
	c4.95-5.95,3.87-11.61-0.76-16.99c-2.95-3.43-6.22-6.58-9.12-10.04c-6.02-7.2-8.83-15.87-8.6-24.97
	c0.28-11.2,4.55-21.16,12.27-29.64c7.75-8.51,17.4-14.42,27.22-19.8c16.23-8.88,29.25-21.09,40.29-35.6
	c8.66-11.39,16.93-23.07,25.49-34.53c2.41-3.23,4.97-6.43,7.93-9.14c12.08-11.05,21.34-24.35,30.85-37.51
	c10.07-13.93,20.28-27.78,32.41-40.07c7.41-7.51,16.54-9.65,26.24-7.32c14.18,3.41,28.04,8.1,42.15,11.83
	c6.25,1.65,12.76,3.25,19.14,3.22c12.01-0.06,23.3-8.53,26.21-20.23c1.57-6.29-0.14-12.02-4.59-16.61
	c-4.92-5.07-10.17-9.84-15.38-14.62c-8.38-7.68-14.32-17.15-18.15-27.58c-5.23-14.26-14.64-23.28-29.36-26.08
	c-13.56-2.58-22.51-10.96-30.45-21.33c-5.58-7.28-11.46-14.35-17.49-21.25c-8.17-9.35-18.53-14.94-30.79-17.14
	c-16.77-3.01-32.86-8.57-49.21-13.16c-5.29-1.49-11.07-1.26-16.63-1.81"/>
<path class="st0" d="M1393.98,686.86c-13.8,4.69-21.1,14.67-23.33,28.75c-0.91,5.7,3.17,11.61,9.17,11.96
	c7.67,0.44,15.35,0.69,22.56-3.51c6.67-3.89,10.16-9.42,10.24-16.78c0.08-7.53-2.12-14.59-9.14-18.61
	c-2.54-1.45-6.03-1.26-9.08-1.81"/>
<path class="st0" d="M974.79,158.5c-5.69,1.25-11.5,2.14-17.06,3.83c-10.24,3.12-15.77,10.49-15.89,22
	c-0.09,9.03-0.56,18.06-0.79,27.09c-0.32,13.06-1.19,26.14-0.65,39.16c0.43,10.36,2.04,20.69,6.38,30.47
	c5.28,11.87,14.89,17.86,26.78,20.71c10.88,2.61,21.85,5.13,32.92,6.61c15.61,2.09,30.55-0.49,42.79-11.24
	c4.46-3.92,8.46-8.87,11.19-14.13c6.43-12.36,15.56-21.74,27.21-29.15c9.52-6.05,18.76-12.57,27.93-19.14
	c7.77-5.56,13.21-12.91,12.84-22.87c-0.43-11.28-4.59-21.06-14.49-27.48c-10.21-6.63-20.55-13.07-30.82-19.61
	c-5.85-3.73-12.39-4.98-19.17-5.42c-3.61-0.23-7.23-0.82-10.83-0.77c-9.17,0.12-18.34,0.77-27.5,0.72
	c-16.81-0.08-33.61-0.5-50.42-0.78"/>
<path class="st0" d="M868.95,692.7c-4.86,1.25-9.84,2.16-14.56,3.82c-8.68,3.07-12.84,9.95-14.16,18.68
	c-1.53,10.09-0.73,20.15,1.71,29.98c3.32,13.39,11.63,22.41,24.92,26.7c9.61,3.1,19.21,6.26,28.75,9.6
	c7.87,2.75,14.31,8.01,19.88,13.84c8.05,8.42,15.51,17.44,25.58,23.58c7.98,4.86,8.39,12.06,7.06,20.05
	c-1.27,7.64-2.68,15.26-3.66,22.93c-0.33,2.56,0.44,5.27,0.74,7.9c0.65,5.7,4.31,6.85,9.5,4.79c4.03-1.59,7.28-5.11,10.92-7.7
	c3.99-2.83,7.77-6.16,12.15-8.19c5-2.32,10.32-0.8,15.35,1.09c3.33,1.26,6.6,2.76,10.02,3.7c6.61,1.81,11,0.59,13.28-3.72
	c2.56-4.84,1.77-9.02-2.47-14.55c-4.41-5.76-11.17-7.59-17.5-9.97c-8.7-3.27-16.44-7.87-22.94-14.59c-2.69-2.78-3.33-6.02-1.93-9.15
	c2.07-4.64,4.69-9.07,7.43-13.36c5.29-8.29,10.38-16.59,12.91-26.27c4.66-17.84,0.46-36.17-14.64-45.81
	c-5.66-3.62-12.16-5.16-18.73-5.81c-17.53-1.72-34.31-5.49-48.74-16.32c-7.14-5.36-14.68-9.91-23.77-10.75
	c-5.52-0.51-11.11-0.35-16.66-0.49"/>
<path class="st0" d="M1560.65,155.17c-9.52,3.26-14.24,11.32-19.17,19.17c-1.39,2.22-2.62,4.57-4.2,6.64
	c-4.91,6.45-11.58,7.94-19.13,6.25c-9.47-2.12-18.84-4.73-28.36-6.54c-7.69-1.46-15.54-2.06-23.32-3.01
	c-7.08-0.86-14.16-1.72-21.25-2.49c-3.6-0.39-7.22-0.69-10.83-0.83c-8.61-0.35-17.29-1.36-25.82-0.67
	c-13.24,1.07-22.99,8.29-29.62,19.81c-4.1,7.12-5.93,14.93-6.12,22.93c-0.28,12.13,3.96,22.44,13.58,30.48
	c8.54,7.15,17.32,14.04,28.43,15.94c6.3,1.08,13.25,0.68,19.49-0.8c12.98-3.07,26-3.99,39.22-3.53c6.11,0.21,12.22,0.58,18.34,0.81
	c10.17,0.39,19.24-2.99,26.56-9.7c7.58-6.96,14.13-15.03,21.42-22.32c3.82-3.82,7.93-7.57,12.51-10.37
	c12.05-7.35,17.76-18.37,19.43-31.79c0.77-6.19,0.84-12.49,0.87-18.74c0.03-7.4-4.13-11.25-11.62-11.25"/>
<path class="st0" d="M668.94,153.5c-5.56,1.53-11.32,2.53-16.63,4.68c-16.57,6.71-27.57,18.39-32.27,36.12
	c-2.93,11.05-4.81,22.6-11.12,32.53c-3.49,5.49-7.35,10.75-10.77,16.29c-3.6,5.84-7.16,12-6.14,19.12
	c0.77,5.39,2.16,10.96,4.6,15.77c4.58,9.04,9.91,17.72,15.32,26.29c5.08,8.06,9.61,16.45,10.54,25.9c0.64,6.41-0.16,13.2-1.6,19.52
	c-2.47,10.83-5.75,21.49-9.05,32.11c-4.8,15.42-16.71,21.81-31.62,24.19c-9.18,1.47-18.45,2.56-27.47,4.71
	c-8.39,2-14.65,7.86-20.45,14.03c-5.58,5.95-11.21,11.86-16.65,17.93c-6.45,7.19-13.15,14.32-15.39,24.16
	c-1.12,4.93-2.19,9.96-2.46,14.99c-0.64,12.01,1.03,23.9,2.24,35.85c1.29,12.7,1.15,25.55,1.88,38.32c0.48,8.42,1.42,16.74,7,23.79
	c4.53,5.73,10.84,8.67,17.16,11.57c4.7,2.16,9.69,3.68,14.55,5.49c13.47,5,26.85,10.27,40.44,14.93
	c16.73,5.74,31.79,1.15,42.31-12.15c9.38-11.85,10.28-30.92-5.19-41.62c-3.43-2.37-6.73-5.36-9.11-8.75
	c-4.87-6.95-3.78-14.5-0.03-21.54c2.87-5.38,7.32-9.66,12.45-12.91c11.17-7.07,22.59-13.82,35.41-17.46
	c6.37-1.81,13.03-2.57,19.56-3.85c9.35-1.85,18.62-3.62,25.9-10.76c5.52-5.42,5.63-11,2.41-17.97c-0.49-1.07-1.32-1.99-2.06-2.92
	c-6.47-8.07-5.81-16.8-2.51-25.85c3.12-8.54,8.24-15.81,13.73-22.94c9.32-12.11,18.18-24.57,27.6-36.59
	c8.33-10.63,17.38-20.6,28.24-28.85c10.11-7.67,21.5-8.59,33.36-6.98c13.26,1.79,25.54,7.3,38.37,10.68
	c15.1,3.98,28.93,0.48,41.22-9.08c7.9-6.14,13.59-13.78,15.86-23.74c2.91-12.75-1.55-20.17-10.83-25.46
	c-5.69-3.24-11.51-6.43-16.61-10.48c-8.52-6.78-13.14-15.88-13.44-26.98c-0.18-6.67-0.28-13.36-0.91-19.99
	c-0.39-4.12-2.68-7.44-6.12-10.05c-6.59-5-14.51-6.43-22.13-8.68c-8.54-2.52-17.48-4.33-24.48-10.14
	c-4.65-3.86-8.91-8.42-12.48-13.31c-5.39-7.38-9.61-15.54-17.98-20.42c-6.3-3.68-12.97-6.06-20.06-6.9
	c-8.28-0.97-16.7-0.87-24.98-1.87c-7.56-0.91-15.09-2.37-22.49-4.16c-6.91-1.67-13.53-4.62-20.47-5.98
	c-5.24-1.03-10.8-0.45-16.22-0.59"/>
<path class="st0" d="M1188.97,150.17c-14.22,3.9-22.56,13.45-25.74,27.52c-1.26,5.57-1.83,11.35-2.1,17.07
	c-0.53,11.1-0.23,22.25-1.03,33.32c-0.64,8.88-3.53,17.32-7.32,25.45c-3.15,6.75-6.72,13.44-6.73,21.23
	c-0.01,4.41,1.42,8.38,4.22,11.63c7.66,8.9,17.63,14.24,28.73,17.47c4.99,1.45,10.1,0.88,14.54-2.05
	c10.94-7.21,17.59-17.32,19.12-30.39c0.92-7.87,0.88-15.86,1.83-23.73c0.8-6.58,2.14-13.13,3.73-19.58
	c1.77-7.16,4.17-14.16,6.16-21.27c2.32-8.29,0.19-16.18-2.97-23.71c-4.21-10.01-9.88-19.18-17.4-27.14
	c-4.01-4.25-8.78-6.27-14.61-5.81"/>
<path class="st0" d="M1072.29,146c-3.33,0.56-6.65,1.33-10,1.62c-7.77,0.69-15.55,1.25-23.33,1.68c-7.22,0.4-14.45,0.84-21.67,0.8
	c-12.78-0.07-25.56-0.9-38.33-0.66c-12.15,0.22-24.18,1.85-35.85,5.68c-10.53,3.45-16.93,10.5-18.64,21.31
	c-1.31,8.26-1.51,16.69-2.66,24.98c-1.52,10.95,1.69,21.2,3.72,31.7c1.46,7.55,2.16,15.25,2.98,22.9
	c1.41,13.18,2.58,26.34,7.87,38.78c4.17,9.8,11.8,13.88,21.73,15.45c12.4,1.96,24.75,4.27,37.09,6.65
	c5.75,1.11,11.39,2.77,17.1,4.11c10.05,2.36,19.78,0.54,29.14-2.98c13.72-5.16,24.83-13.78,31.65-27.03
	c6.32-12.27,16.21-21.12,26.68-29.6c8.5-6.88,16.91-13.9,24.98-21.27c8.21-7.49,12.63-17.14,12.01-28.26
	c-0.71-12.57-3.1-24.9-11.59-34.96c-2.26-2.68-5.15-4.86-7.87-7.11c-6.76-5.61-13.71-10.99-20.37-16.73
	c-5.58-4.81-11.91-7.13-19.2-7.05c-1.67,0.02-3.33,0-5,0"/>
<path class="st0" d="M870.62,702.7c-3.06,0.69-6.29,0.97-9.13,2.16c-8.93,3.73-12.96,11.29-13.66,20.35
	c-0.86,11.08,0.5,21.91,8.23,30.81c4.88,5.61,11.35,8.72,18.32,10.84c6.64,2.02,13.36,3.8,19.99,5.87
	c10.28,3.21,19.85,7.82,28.36,14.53c2.35,1.86,4.93,3.44,7.49,5.01c6.64,4.07,13.87,4.09,20.79,1.57
	c13.13-4.77,23.57-12.72,27.52-26.98c3.12-11.28-1.69-22.41-11.16-28.03c-6.19-3.67-12.99-4.9-19.68-5.95
	c-13.32-2.1-24.61-8.41-35.8-15.19c-4.48-2.72-8.84-5.63-13.35-8.3c-8.47-5.02-17.63-7.32-27.49-6.69"/>
<path class="st0" d="M118.91,117.67c-4.58,1.53-9.36,2.65-13.71,4.67c-8.15,3.79-12.59,10.81-13.21,19.51
	c-0.55,7.71,2.64,14.54,9.47,18.66c9.26,5.59,18.98,6.7,29.16,1.82c5.43-2.6,8.48-6.67,10.43-12.15c2.56-7.2,3.54-14.29,0.82-21.7
	c-2.75-7.51-7.12-10.82-15.04-10.82c-2.5,0-5,0-7.5,0"/>
<path class="st0" d="M232.25,114.33c-5.66,2.09-9.2,6.5-12.52,11.24c-6.92,9.89-12.36,20.54-15.77,32.11
	c-3.82,12.94-2.44,25.85,0.75,38.75c3.6,14.55,11.36,26.65,22.24,36.53c6.71,6.09,15.06,8.05,24.49,6.56
	c9.1-1.43,17.83-3.37,25.81-8.09c1.5-0.89,3.28-1.42,4.54-2.55c9.1-8.18,9.85-13.59,2.83-25.3c-8.66-14.47-17.89-28.63-27.5-42.49
	c-5.91-8.51-9.45-17.74-12.01-27.57c-1.14-4.37-2.56-8.69-4.18-12.91c-1.41-3.67-3.61-6.71-8.28-6.27"/>
<path class="st0" d="M259.75,712.7c-17.77,7.8-30.83,20.14-36.15,39.2c-3.6,12.9-6.33,26.06-9.2,39.16
	c-0.77,3.5-0.78,7.2-0.87,10.82c-0.14,5.41,0.04,10.83-0.06,16.25c-0.08,4.26,1.27,7.97,5.08,9.9c3.5,1.77,6.91-0.22,9.93-2.02
	c8.15-4.85,13.1-12.73,17.8-20.47c5.98-9.86,12.87-18.93,20.6-27.38c8.4-9.19,15.79-19,20.78-30.46
	c5.52-12.69,2.32-24.28-10.32-31.39c-5.57-3.13-11.15-3.83-17.17-3.61"/>
<path class="st0" d="M520.6,111c-7.16,1.47-12.98,5.27-17.45,10.87c-6.69,8.37-7.38,15.78,0.75,23.34
	c8.92,8.29,17.52,16.92,26.3,25.37c5.45,5.24,11.66,9.35,19.18,10.76c5.14,0.96,10.38,1.28,15.42-1.14
	c5.15-2.47,7.73-6.32,7.96-12.11c0.34-8.61-2.23-16.72-3.84-25c-0.95-4.89-2.15-9.74-3.32-14.59c-0.65-2.69-2.17-4.53-4.97-5.46
	c-11.42-3.8-22.77-7.79-34.2-11.57c-1.67-0.55-3.59-0.34-5.4-0.47"/>
<path class="st0" d="M457.26,88.5c-7.7,2.06-15.37,4.32-22.05,8.8c-8.74,5.85-13.88,14.57-17.45,24.15
	c-2.64,7.07-4.57,14.4-6.73,21.64c-1.39,4.63-3.64,8.53-7.45,11.74c-4.11,3.46-7.5,7.78-6.6,13.65c0.27,1.79,1.84,3.69,3.34,4.84
	c0.54,0.41,3.13-0.86,3.93-1.98c1.6-2.25,3-4.81,3.78-7.45c2.33-7.89,6.95-13.31,14.61-16.76c9.01-4.06,18.11-8.15,25.88-14.48
	c10.51-8.57,18.34-18.95,21.23-32.5c0.4-1.89,0.55-3.9,0.4-5.82c-0.28-3.65-2.86-5.79-6.62-5.83c-1.94-0.02-3.89,0-5.83,0"/>
<path class="st0" d="M873.12,714.36c-2.92,1.25-6.18,2.02-8.69,3.84c-9.72,7.04-8.11,23.02-1.32,31.17
	c5.8,6.96,13.83,10.21,22.12,12.37c13.19,3.43,26.66,5.49,40.39,5.11c1.39-0.04,2.85-0.04,4.15-0.45c4.19-1.32,5.71-3.99,3.66-7.82
	c-2.79-5.22-5.73-10.55-9.6-14.95c-8.89-10.11-18.95-18.99-31.14-25.1c-6.03-3.02-12.36-4.72-19.16-4.17"/>
<path class="st0" d="M1286.47,715.2c-6.33,1.54-8.06,6.7-9.12,12.09c-1.72,8.8-1.53,17.69,2.57,25.76
	c3.89,7.66,7.76,9.42,15.71,8.81c5.23-0.4,10.81-5.17,12.46-11.26c3.91-14.43-0.78-27.44-13.74-33.67
	c-2.25-1.08-4.96-1.19-7.46-1.74"/>
<path class="st0" d="M1447.31,81.83c-4.58,0.83-9.21,1.49-13.74,2.55c-4.82,1.12-9.35,3.03-12.92,6.63
	c-3.87,3.92-4.45,7.09-2.09,12.49c2.77,6.37,8.18,10.07,14.21,12.39c11.11,4.26,22.75,5.58,34.53,3.38
	c6.18-1.15,11.06-5.19,12.12-12.85c2.01-14.53-7.18-22.76-19.19-23.74c-4.16-0.34-8.33-0.57-12.5-0.84"/>
<path class="st0" d="M879.78,730.2c-7.85,3.2-7.65,8.48-2.92,13.76c5.07,5.67,11.68,6.88,18.75,6.18c4.32-0.43,6.17-5.06,3.72-9.08
	c-4.33-7.12-10.72-10.83-19.13-10.85"/>
<path class="st0" d="M63.91,731.03c-3.33,1.39-7.2,2.12-9.9,4.3c-6.41,5.17-8.93,14.45-4.14,23.13
	c4.83,8.77,12.23,15.15,22.39,17.08c9.89,1.87,16.13,0.27,21.52-9.58c3.24-5.91,4.67-12.39,3.22-19.55
	c-1.3-6.46-5.15-9.83-10.61-12.01c-7.06-2.82-14.47-3.85-22.07-3.37"/>
<path class="st0" d="M259.75,736.03c-12.96,3.98-21.02,13.14-25.27,25.47c-2.73,7.92-4.06,16.33-5.95,24.54
	c-0.21,0.92-0.31,2.05,0.02,2.89c0.96,2.42,1.63,5.56,3.49,6.79c1.1,0.73,4.79-1.09,6.37-2.7c9.54-9.7,19.2-19.32,26.75-30.75
	c3.09-4.68,5.03-9.85,5.36-15.42c0.4-6.83-2.83-11.07-10.35-10.83"/>
<path class="st0" d="M526.43,740.2c-6.49,1.42-11.84,4.85-15.78,10.04c-6.11,8.06-5.58,15.43,4.95,19.11
	c8.43,2.94,17.05,3.29,25.84,1.72c6.04-1.07,10.62-4.22,11.91-10.08c1.45-6.6-1.3-12.03-6.86-16.29c-5.99-4.59-12.71-4.7-19.64-4.51
	"/>
<path class="st0" d="M623.1,752.7c-6.97,1.86-10.86,6.57-12.97,13.32c-2.72,8.7-2.89,17.36-1.26,26.28
	c1.78,9.77,7.59,16.24,15.92,20.8c10.75,5.89,21.6,11.64,33.75,14.15c8.51,1.76,16.48-0.06,18.39-12.03
	c1.85-11.53-1.66-21.58-8.98-29.87c-7.19-8.14-15.64-15.17-23.61-22.62c-2.23-2.08-4.71-3.9-7.06-5.86c-4-3.32-8.59-4.69-13.75-4.17
	"/>
<path class="st0" d="M1346.47,73.5c-10.59,1.96-15.85,10.07-20.78,18.37c-2.53,4.26-4.82,8.73-6.65,13.33
	c-3.78,9.48-0.09,13.3,9.5,12.31c14.43-1.49,24.62-9.28,28.63-23.62c1.05-3.77,0.81-8.05,0.45-12.04
	c-0.44-4.86-4.85-8.99-10.73-8.34"/>
<path class="st0" d="M156.41,72.66c-5.26,1.93-9.04,4.73-8.83,11.25c0.31,9.6,7.84,14.74,16.73,10.78c4.38-1.95,8.04-5.01,9.14-9.96
	c1.31-5.94-4.83-11.43-11.2-12.05c-1.79-0.17-3.61-0.03-5.41-0.03"/>
<path class="st0" d="M630.6,777.7c-5.35,2.49-7.06,7.55-4.12,13.73c4.86,10.23,13.4,16.06,24.14,18.68c3.3,0.81,6.94,0.22,9.08-2.87
	c2.32-3.36,1.6-7.05-0.38-10.35c-3.82-6.39-9.51-10.85-15.8-14.61c-3.88-2.32-7.62-5.01-12.5-4.58"/>
<path class="st0" d="M152.24,58.5c-2.5,0.56-4.99,1.15-7.5,1.66c-9.44,1.91-15.46,7.54-18.34,16.67
	c-2.32,7.34-4.67,14.94-11.34,19.45c-4.94,3.34-10.69,5.53-16.17,8.03c-6.4,2.91-12.76,5.81-17.49,11.28
	c-6.59,7.61-9.05,16.26-7.13,26.26c1.9,9.88,4.89,19.1,12.97,25.82c4.48,3.73,9.82,5.6,15.42,6.62c4.4,0.8,8.88,1.6,13.33,1.61
	c6.79,0.02,13.71-0.39,19.97-3.31c7.55-3.52,12.54-9.65,15.44-17.43c2.54-6.79,5.21-13.54,7.46-20.43
	c3.6-11,10.38-19.85,17.88-28.39c3.92-4.47,7.06-9.63,10.49-14.52c3.09-4.41,3.22-9.48,2.91-14.58c-0.33-5.4-4-8.61-7.89-11.68
	c-5.03-3.98-10.9-5.57-17.1-6.21c-4.15-0.43-8.33-0.58-12.5-0.86"/>
<path class="st0" d="M495.18,56.41c-8.87,0.84-16.55,4.75-23.72,9.63c-10.49,7.14-21.48,13.35-32.97,18.67
	c-12.01,5.56-20.06,14.86-26.3,26.25c-4.82,8.79-10.01,17.39-15.44,25.82c-2.71,4.2-6.24,7.89-9.51,11.71
	c-9.66,11.26-10.53,23.87-6.32,37.54c1.82,5.9,3.99,11.54,8.04,16.19c5.89,6.76,14.07,8.45,22.46,8.7
	c9.68,0.29,16.78,3.76,20.02,13.42c1.13,3.37,2.4,6.71,3.74,10c5.03,12.37,10.64,24.43,19.58,34.58
	c10.7,12.15,22.88,22.26,38.31,27.96c5.06,1.87,10.28,2.02,15.42,1.52c5.63-0.55,8.78-3.9,9.14-12.39
	c0.57-13.71,3.46-26.5,12.93-37.11c3.09-3.46,6.06-7.06,8.73-10.84c3.32-4.7,6.58-9.38,7.66-15.36c0.96-5.31-0.43-9.82-3.96-13.25
	c-4.3-4.18-9.07-8.04-14.13-11.25c-6.81-4.32-14.1-7.88-21.18-11.77c-9.75-5.36-19.41-4.05-28.72,0.9
	c-8.31,4.42-16.82,8.24-25.89,10.7c-3.21,0.87-6.64,0.97-9.98,1.31c-9.94,1.01-11.97-6.1-12.9-12.91
	c-2.13-15.68,4.89-27.59,16.74-36.54c14.19-10.72,24.43-24.42,32.77-39.74c6.65-12.22,12.85-24.68,19.2-37.07
	c1.1-2.15,2.12-4.38,2.91-6.67c2.28-6.6,0.69-9.09-6.22-9.99"/>
<path class="st0" d="M424.76,796.87c-10.46,2.09-16.34,8.92-19.11,18.77c-0.77,2.72-0.1,5.15,2.84,6.69
	c8.64,4.5,26.02,2.31,32.08-7.97c4.51-7.66,2.45-13.67-5.83-16.16c-3.04-0.91-6.37-0.91-9.56-1.33"/>
<path class="st0" d="M306.42,802.7c-6.3,1.3-12.19,3.17-16.72,8.28c-5.29,5.96-7.21,12.58-6.25,20.47
	c2.24,18.46,12.26,31.2,28.4,39.56c9.15,4.74,18.65,8.53,28.73,10.89c13.83,3.24,21.05-2.56,24.58-15.05
	c4.41-15.61,0.02-29.3-9.6-41.64c-9.93-12.74-23.7-18.81-39.15-21.65c-3.14-0.58-6.38-0.6-9.58-0.88"/>
<path class="st0" d="M149.74,50.16c-3.33,0.56-6.65,1.28-10,1.64c-13.05,1.38-22.71,8-28.19,19.68
	c-4.82,10.24-12.81,15.76-23.04,19.14c-9.24,3.05-18.63,5.69-26.72,11.58c-9.97,7.27-11.65,15.23-9.34,25
	c2.25,9.53,6.17,18.67,9.39,27.96c1.49,4.32,2.85,8.7,4.62,12.9c4.7,11.19,13.68,16.04,25.38,16.23c11.66,0.19,23.33,0.11,35,0.02
	c15.16-0.12,25.9-7.95,32.05-23.75c7.87-20.23,17.46-39.44,30.82-56.7c5.44-7.02,9.39-14.77,11.47-23.67
	c2.46-10.54-2.52-18.04-9.72-22.17c-7.93-4.55-16.42-6.64-25.45-7.04c-5.28-0.23-10.56-0.55-15.83-0.83"/>
<path class="st0" d="M1364.81,46c-11.37,2.95-22.03,7.6-32.57,12.79c-6.55,3.22-11.93,7.8-15.58,13.58
	c-6.68,10.58-14.92,19.75-23.09,29.07c-7.92,9.04-12.49,19.62-13.32,31.65c-0.46,6.65-1.16,13.37-0.72,19.99
	c0.54,8.28,0.5,16.77,4.03,24.59c5.83,12.9,15.36,10.52,22.03,4.12c5.86-5.62,9.42-12.78,12.14-20.36c1.2-3.35,2.18-6.83,3.81-9.97
	c3.46-6.71,7.62-12.8,14.47-16.78c5.52-3.2,10.73-6.97,15.86-10.79c11.84-8.83,18.92-21.17,24.06-34.6
	c2.22-5.79,3.8-12.13,4.06-18.29c0.26-6.28-0.48-12.89-3.54-18.72c-2.31-4.41-6.09-6.65-11.21-6.27"/>
<path class="st0" d="M852.28,823.54c-6.15,1.09-10.7,4.23-12.47,10.43c-2.43,8.49,3.3,27.11,15.39,28.26
	c2.04,0.19,4.23-0.24,6.23-0.81c7.76-2.23,12.12-8.06,13.58-15.41c1.35-6.81,0.04-13.64-6.09-18.26c-4.76-3.59-10.34-4.65-16.22-4.2
	"/>
<path class="st0" d="M318.92,826.04c-0.97,0.28-1.93,0.7-2.92,0.81c-10.55,1.15-12.3,9.07-10.33,16.67
	c3.52,13.61,18.01,21.05,30.75,19.16c4.46-0.66,7.8-4.89,7.92-9.55c0.35-13.33-9.47-24.56-22.91-26.28
	c-0.72-0.09-1.39-0.53-2.09-0.81"/>
<path class="st0" d="M143.91,43.5c-3.75,0.56-7.48,1.37-11.25,1.62c-14.11,0.95-25.23,7.63-33.63,18.47
	c-6.59,8.5-15.4,12.78-25.14,15.68C62.17,82.77,50.4,85.96,39.71,92.2c-5.24,3.06-10.28,6.2-13.31,11.71
	c-3.88,7.05-1.48,13.59,1.69,19.99c4.5,9.07,9.22,18.03,13.71,27.11c5.09,10.3,5.52,21.25,4.72,32.5
	c-0.42,5.99-0.33,12.53,4.56,16.97c4.57,4.14,10.17,5.72,16.59,3.92c8.95-2.5,18.09-4.33,27.05-6.78
	c11.49-3.14,23.18-3.96,35.01-4.22c5.29-0.11,10.79-0.57,15.79-2.14c9.62-3.02,14.47-10.98,17.96-19.85
	c5.27-13.38,10.05-26.98,17.12-39.57c3.02-5.38,6.39-10.56,9.55-15.85c6.13-10.27,12.79-20.27,18.13-30.94
	c3.34-6.67,5.47-14.21,6.62-21.6c0.97-6.23-2.2-10.57-8.48-12.93c-7.57-2.85-15.39-4.25-23.34-5.45
	c-12.89-1.95-25.83-1.5-38.76-1.58"/>
<path class="st0" d="M509.76,36c-13.5,2.83-25.83,8.34-37.07,16.28c-4.29,3.03-8.18,6.62-12.56,9.5
	c-8.91,5.88-17.66,12.15-27.14,16.96c-12.17,6.17-20.45,15.61-26.52,27.29c-6.7,12.88-15.19,24.36-24.99,35.03
	c-7.9,8.6-12.59,18.56-12.27,30.78c0.32,12.29,1.34,24.39,4.69,36.25c2.59,9.21,8.93,14.72,17.54,17.86
	c5.32,1.94,10.75,3.64,16.25,4.99c8.37,2.07,13.98,7.61,18.71,14.25c7.06,9.91,13.45,20.35,20.97,29.9
	c12.65,16.04,28.45,28.53,47.02,37.07c15.28,7.02,24.9,18.63,31.34,33.79c3.61,8.49,8.12,16.68,15.28,22.98
	c8.65,7.63,19.11,10.1,29.98,8.52c11.18-1.63,18.11-9.34,20.78-20.22c2.76-11.24,0.69-22.09-4.97-32.03
	c-8.93-15.68-21.21-28.01-37.41-36.35c-5.51-2.84-11.28-5.77-13.36-12.43c-2.4-7.69-0.25-14.69,4.24-20.77
	c7.05-9.54,14.68-18.64,21.98-28c2.63-3.37,5.33-6.75,7.46-10.44c4.4-7.61,1.31-11.77-4.95-14.52c-5.64-2.48-11.39-4.73-17.07-7.11
	c-11.67-4.9-21.92-12.06-31.66-20.01c-6.49-5.3-12.98-10.64-21.27-12.86c-5.86-1.57-11.77-2.54-17.94-1
	c-2.45,0.61-5.25-0.15-7.89-0.29c0.56-2.5,0.87-5.08,1.71-7.49c5.17-14.9,11.57-29.27,20.89-42.03
	c8.16-11.16,16.95-21.89,25.8-32.52c6.42-7.71,10.87-16.05,10.29-26.3c-0.33-5.8-1.47-11.8-7.1-14.84
	c-2.98-1.61-6.86-1.55-10.33-2.25"/>
<path class="st0" d="M980.62,32.66c-8.97,2.24-12.44,11.74-11.11,20.81c2.27,15.45,10.65,27.22,24.49,34.51
	c8.35,4.4,18.14,0.29,19.38-7.84c0.6-3.89,0.12-8.15-0.78-12.04c-2.89-12.58-8.6-23.7-19.15-31.59c-3.48-2.6-7.71-4.42-12.43-3.85"
	/>
<path class="st0" d="M1183.97,856.04c-2.56,0.8-2.71,2.7-1.59,4.54c0.89,1.47,2.43,2.54,3.68,3.79c0.69-0.97,2.19-2.3,1.94-2.85
	c-0.88-1.97-2.36-3.68-3.61-5.48"/>
<path class="st0" d="M827.28,30.16c-11.72,2.93-17.42,14.31-17.1,22.92c0.22,5.82,4.82,8.88,9.54,5.75
	c7.61-5.06,13.05-11.65,13.06-21.58c0-3.91-1.37-6.17-5.09-7.08"/>
<path class="st0" d="M282.25,23.5c-10.49,1.62-13.13,9.89-15.38,18.34c-2.24,8.43-4.07,16.97-6.32,25.4
	c-2.18,8.14-7.01,13.93-14.91,17.62c-11.5,5.38-20.3,14.25-27.49,24.52c-10.65,15.22-19.81,31.33-25.41,49.15
	c-3.36,10.7-3.32,21.85-2.1,32.89c1.68,15.15,9.82,27.31,19.16,38.71c3.98,4.85,8.36,9.42,12.91,13.75
	c7.31,6.96,16.76,7.42,25.76,6.08c13-1.93,25.75-5.5,37.94-10.65c6.36-2.69,12.8-5.36,17.53-10.79c4.19-4.81,5.1-9.33,1.99-14.96
	c-2.51-4.53-5.37-8.98-8.74-12.9c-9.31-10.84-15.7-23.53-23.29-35.46c-5.74-9.01-11.19-18.2-14.46-28.38
	c-2.76-8.6-4.84-17.55-4.12-26.63c0.63-7.98,0.89-16.83,8.33-21.9c4.57-3.12,10.41-4.39,15.71-6.43c7.63-2.95,15.43-5.5,22.87-8.85
	c7.44-3.36,12.71-9.14,15.46-16.99c3.67-10.45,1.63-18.03-7.56-24.07c-8.21-5.4-17.4-8.54-27.44-8.43"/>
<path class="st0" d="M522.26,19.33c-21.29,6.73-41.11,16.41-59.16,29.6c-8.25,6.03-16.24,12.44-24.66,18.23
	c-4.94,3.4-10.54,5.85-15.76,8.86c-9.2,5.3-15.6,13.31-20.35,22.52c-7.21,14-16.46,26.35-27.53,37.51
	c-7.94,8.01-13.38,17.54-13.75,29.12c-0.5,15.83-1.35,31.7-0.63,47.49c0.48,10.58,7.44,18.11,16.36,23.84
	c7.26,4.67,15.28,7.29,23.42,9.38c10.04,2.58,17.8,8.11,24.12,15.97c9.34,11.62,17.34,24.27,28.28,34.65
	c8.62,8.18,17.82,15.7,28.09,21.42c16.5,9.19,29.09,21.47,36.65,38.9c2.14,4.94,5.21,9.48,7.84,14.2
	c4.58,8.21,12.11,12.29,20.86,14.05c5.85,1.17,11.93,1.78,17.89,1.69c20.79-0.32,31.72-9.45,36.23-30.74
	c3.19-15.08-1.37-28.59-9.17-41.23c-8.36-13.54-18.78-25.42-29.89-36.76c-2.76-2.81-5.17-6.34-6.6-9.98
	c-2.2-5.63,0.42-10.9,3.22-15.76c5.9-10.24,14.65-18.04,22.9-26.26c4.88-4.86,8.55-10.47,10.34-17.11
	c0.94-3.51,1.83-7.24,1.62-10.81c-0.75-12.79,2.86-24.03,10.5-34.2c3.54-4.71,6.8-9.63,10.01-14.57
	c4.92-7.57,12.29-11.64,20.45-14.55c11.5-4.11,23.12-7.88,34.53-12.22c3.48-1.33,6.68-3.76,9.57-6.2c4.01-3.39,3.32-7.17-1.22-9.88
	c-9.37-5.58-19.59-7.2-30.39-5.92c-11.63,1.39-20.34,8.38-29.12,15.09c-8.67,6.62-18.05,9.27-28.8,7.06
	c-3.84-0.79-7.76-1.22-11.66-1.68c-4.35-0.52-6.78-3.03-7.93-7.1c-1.06-3.76-2.19-7.51-3.33-11.25c-2.22-7.3-7.29-12.75-12.11-18.31
	c-6.04-6.98-8.68-15.22-9.55-24.19c-0.86-8.89-0.89-17.94-2.72-26.62c-1.89-8.95-4.63-15.51-18.12-14.21"/>
<path class="st0" d="M1369.81,16.83c-4.99,1.53-9.83,3.54-13.29,7.54c-11.82,13.65-27.16,21.55-43.8,27.46
	c-5.55,1.97-11,4.36-16.69,5.73c-8.42,2.03-15.57-0.97-21.66-6.96c-5.19-5.09-10.35-10.24-15.89-14.93
	c-2.9-2.46-6.48-4.22-9.95-5.87c-5.99-2.85-11.58-0.75-16.6,2.52c-6.16,4.02-11.53,9.07-15.42,15.37
	c-4.87,7.9-5.26,15.41-0.09,22.09c3.46,4.46,8.25,6.34,13.39,6.93c6.61,0.76,13.33,0.54,19.98,1c4.19,0.29,8.39,0.82,12.49,1.67
	c7.88,1.62,11.09,6.64,9.56,14.94c-1.79,9.75-4.33,19.39-5.62,29.2c-0.8,6.13-0.37,12.53,0.35,18.72
	c1.12,9.63,2.96,19.18,4.47,28.76c1.18,7.49,2.54,14.9,6.24,21.68c2.38,4.35,5.43,7.8,10.43,9.18c7.01,1.93,12.7-1.14,17.87-5.08
	c7.32-5.59,12.42-13.07,16.78-21.15c3.9-7.23,8.03-14.36,12.51-21.24c5.37-8.27,13.94-13.28,21.19-19.63
	c6.81-5.97,13.57-12,20.44-17.89c2.78-2.38,5.68-4.67,8.76-6.65c4.7-3.03,9.68-2.32,14.1,0.44c8.58,5.35,17,10.91,26.71,14.11
	c10.17,3.35,20.65,5.1,31.26,6.22c6.24,0.66,12.49,1.51,18.75,1.61c14.3,0.23,19.75-9.13,21-20.32c0.75-6.71,0.56-13.17-1.04-19.59
	c-3.16-12.66-11.92-19.59-24.14-22.46c-11.76-2.76-23.58-1.78-35.42-0.1c-6.2,0.88-12.49,1.6-18.74,1.63
	c-12.32,0.05-17.98-5.96-18.26-18.24c-0.15-6.38,0.59-12.77,0.73-19.17c0.24-11.08-5.7-14.88-14.17-16.53
	c-5.14-1-10.53-0.69-15.81-0.97"/>
<path class="st0" d="M968.95,12.66c-8.94,2.07-13.91,8.92-17.31,16.34c-4.85,10.59-7.7,21.81-3.99,33.68
	c2.1,6.73,6.21,12.16,10.97,16.98c4.56,4.6,9.86,8.48,14.92,12.58c6.58,5.33,13.82,9.56,22.08,11.64
	c7.43,1.87,14.95,1.72,22.05-1.27c9.39-3.96,13.53-12.83,11.49-22.39c-4.76-22.26-14.83-41.99-31.93-57.49
	c-7.78-7.04-16.87-11.44-27.86-10.06"/>
<path class="st0" d="M1523.98,351.01c-4.46,3.27-3.55,7.78,2.08,10.42c2.67,1.25,5.31,1.41,7.02-1.3c1.36-2.16,0.28-4.36-1.19-6.2
	c-1.92-2.4-4.46-3.31-7.49-2.93"/>
<path class="st0" d="M976.45,343.51c-5.93,2.76-6.86,4.74-4.99,10.83c0.35,1.13,0.67,2.31,1.26,3.32
	c5.68,9.71,8.46,20.36,10.91,31.24c2.88,12.85,9.62,17.28,21.19,19.44c6.53,1.22,12.81-1.08,16.56-6.97
	c5.86-9.22,7.9-19.45,6.78-30.37c-0.96-9.39-6.87-14.18-15.04-17.08c-9.44-3.35-18.84-6.81-28.37-9.91
	c-2.43-0.79-5.25-0.38-7.89-0.51"/>
<path class="st0" d="M1095.63,335.18c-15.73,4.14-27.2,14.53-37.39,26.35c-6.4,7.43-8.63,16.9-9.72,26.57
	c-1.29,11.4-2.34,22.85-4.25,34.15c-2.37,14.05-10.24,17.44-22.4,19.61c-6.81,1.22-13.71,2.11-20.39,3.85
	c-6.57,1.72-8.09,4.13-7.92,10.72c0.33,12.7,3.09,24.8,10.43,35.39c8.4,12.12,25,13.44,36.65,4.23c6.39-5.05,11.5-11.3,15.66-18.04
	c7.16-11.61,17.63-16.48,30.56-17.9c4.63-0.51,9.3-1.48,13.73-2.93c7.3-2.39,10.74-8.82,12.79-15.38
	c3.65-11.71,8.96-22.54,14.62-33.35c4.65-8.87,6.34-18.37,4.96-28.72c-1.02-7.63-2.17-15.14-5.38-21.99
	c-5.04-10.78-12.31-19.6-24.89-22.1c-2.16-0.43-4.44-0.32-6.66-0.46"/>
<path class="st0" d="M1194.8,328.51c-8.3,2.46-10.56,9.69-12.35,16.71c-1.66,6.49-2.38,13.27-3,19.97
	c-0.96,10.44,4.17,17.99,12.9,22.82c10.9,6.02,22.16,7.12,33.29,0.1c7.69-4.85,8.86-11.79,6.51-19.12
	c-3.47-10.84-8.17-21.28-15.73-30.01c-5.52-6.37-12.02-11.26-21.2-10.46"/>
<path class="st0" d="M1514.82,327.68c-6.98,1.32-13.5,3.67-18.29,9.21c-2.08,2.4-3.85,5.13-5.42,7.9
	c-3.46,6.11-1.87,12.37,2.21,16.92c8.71,9.72,19.07,17.45,31.48,22.3c11.88,4.65,21.09-0.52,27.03-7.65
	c4.63-5.56,7.61-12.04,8.53-19.5c0.77-6.23-1.29-11-5.98-14.54c-9.46-7.14-19.82-12.54-31.64-14.58c-2.43-0.42-4.99-0.06-7.49-0.06"
	/>
<path class="st0" d="M1383.56,323.93c-5.52,0.99-9.77,4.38-14.17,7.5c-5.38,3.82-10.86,7.19-17.46,8.9
	c-6.28,1.64-12.23,0.44-17.91-1.15c-13.88-3.89-25.63,0.04-36.73,8.06c-5.87,4.24-11.37,8.78-15.86,14.57
	c-9.02,11.66-5.94,20.27,2.6,27.88c4.65,4.14,9.82,7.75,14.96,11.28c10.04,6.89,17.24,16.66,25.81,25.04
	c6.25,6.11,12.45,12.28,18.76,18.32c14.05,13.47,27.33,27.61,33.16,46.73c2.41,7.88,3.05,16.32,4.31,24.54
	c1.25,8.17,2.2,16.39,3.38,24.58c1.04,7.23,1.99,14.49,3.36,21.66c2.58,13.49,12.02,19.98,24.57,22.36
	c4.96,0.94,10.42,0.98,15.35-0.01c10.98-2.22,16.16-10.16,14.12-21.07c-1.4-7.48-0.01-14.46,2.65-21.24
	c3.9-9.95,9.11-19.42,11.16-30.03c3.16-16.34,8.23-32.11,13.15-47.98c5.68-18.31,0.84-34.6-15.6-48.29
	c-8.9-7.41-18.53-13.6-29.64-16.94c-5.2-1.56-10.77-2.17-16.22-2.55c-13.02-0.89-28.85-10.72-31.43-25.04
	c-1.21-6.7,0.58-12.25,3.12-17.94c2.99-6.7,6.32-13.25,9.07-20.04c1.91-4.7,0.28-7.7-4.09-9.14"/>
<path class="st0" d="M964.79,323.51c-4.86,1.81-10.1,2.97-14.5,5.56c-7.65,4.51-9.3,11.39-6.64,20.24c1.31,4.36,3.56,8.49,5.78,12.5
	c3.13,5.67,7.03,10.94,9.86,16.74c5.39,11.06,2.85,25.96-9.41,32.21c-7.4,3.77-14.56,8.39-18.08,16.88
	c-3.65,8.79-0.13,19.61,5.52,24.6c7.78,6.86,17.22,4.57,22.45-4.58c2.15-3.77,4.01-7.72,5.85-11.66
	c4.16-8.88,10.45-14.61,24.62-11.74c6.57,1.33,13.31,2.33,19.99,2.47c14.45,0.29,21.57-5.01,25.7-21.16
	c2.37-9.26,3.38-18.87,5.15-28.3c1.7-9.05,3.5-18.08,5.42-27.08c1.43-6.71-0.42-9.74-7.11-10.83c-8.74-1.42-17.6-2.37-26.22-4.32
	c-5.73-1.3-11.19-3.91-16.69-6.13c-10.05-4.05-20.39-6.18-31.26-5.39"/>
<path class="st0" d="M689.77,323.51c-4.95,1.07-7.58,4.77-10.01,8.74c-4.47,7.3-7.85,15.07-9.94,23.35
	c-0.5,1.99-0.56,4.17-0.42,6.23c0.22,3.27,3.11,5.64,6.19,4.97c11.6-2.52,21.02-8.37,25.73-19.6c4.02-9.6-0.22-20.22-6.98-22.84
	c-1.3-0.5-2.77-0.59-4.15-0.87"/>
<path class="st0" d="M542.27,310.18c-5.67,1.45-7.58,5.13-7.15,10.84c1.09,14.49,4.46,28,15.06,38.75
	c5.32,5.39,11.87,7.02,19.17,6.23c5.32-0.57,10.79-6.04,12.52-12.06c2.33-8.13,0.31-15.74-3.9-22.42
	c-6.44-10.2-15.26-17.92-27.38-20.85c-2.52-0.61-5.26-0.35-7.9-0.49"/>
<path class="st0" d="M151.41,304.34c-4.03,0.83-8.09,1.52-12.07,2.54c-4.36,1.11-8.05,3.36-10.86,7.03
	c-4.95,6.47-1.89,14.85,2.87,18.43c5.17,3.9,11.09,5.66,17.16,5.99c7.74,0.43,15.59,0.03,23.31-0.77
	c8.02-0.83,13.24-5.41,14.18-11.14c1.09-6.67-3-13.64-9.55-17.56c-7.73-4.63-16.14-4.54-24.62-4.52"/>
<path class="st0" d="M795.61,268.51c-3.06,1.11-6.37,1.78-9.11,3.42c-5.89,3.52-7.5,10.83-3.27,16.07c2.87,3.55,6.42,6.97,10.39,9.1
	c8.06,4.32,16.72,7.22,26.17,6.42c4.36-0.37,6.71-3.65,5.85-7.92c-1.84-9.2-6.8-16.59-13.85-22.4c-4.4-3.62-10-4.8-15.75-4.68"/>
<path class="st0" d="M161.41,293.51c-2.22,0.28-4.44,0.63-6.67,0.82c-10.13,0.84-20.39,1.38-29.55,6.33
	c-8.43,4.56-13.92,11.29-13.38,21.6c0.45,8.5,4.8,14.61,11.68,19.16c6.69,4.43,14.28,5.65,22.08,6.28c9.18,0.74,18.32,2,27.51,2.36
	c7.2,0.29,14.53,0.14,21.64-0.91c5.6-0.82,7.36-4.13,7.86-9.41c1.13-12-1.69-23.07-9.52-32.47c-6.26-7.52-14.01-12.49-24.14-12.96
	c-2.37-0.11-4.72-0.53-7.08-0.81"/>
<path class="st1" d="M688.11,289.34c-10.08,1.98-13.73,10.19-16.07,18.39c-5.08,17.83-11.66,35.02-18.78,52.1
	c-3.02,7.24-5.14,15-3.17,23.29c1.62,6.84,6.92,11.02,13.38,8.58c5.95-2.24,11.66-5.33,17.08-8.69c7.03-4.36,14.46-8.55,20.3-14.26
	c10.27-10.04,17.65-22.07,16.78-37.32c-0.49-8.54-3.64-16.42-7.93-23.71c-3.41-5.8-6.74-11.91-12.89-15.39
	c-2.52-1.43-5.51-2.02-8.29-2.99"/>
<path class="st0" d="M161.41,284.34c-5,0.83-9.99,1.73-15,2.49c-10.03,1.52-20.1,2.66-29.2,7.88
	c-10.59,6.08-17.25,14.65-16.85,27.13c0.15,4.76,1.72,9.96,4.13,14.08c6.4,10.91,16.31,16.93,29,18.47
	c12.24,1.49,24.55,2.76,36.65,5.1c14.58,2.82,24.7,10.99,28.94,26.07c2.61,9.27,6.03,18.48,10.41,27.05
	c9.77,19.13,24.89,31.52,46.93,34.31c6.72,0.85,13.54,1.84,19.94,3.9c4.38,1.41,8.73,4.17,12.04,7.41
	c10.96,10.69,17.81,23.91,21.77,38.64c4.63,17.21,9.08,34.47,13.82,51.65c1.49,5.38,4,10.35,7.83,14.63
	c7,7.82,16.44,8.02,24.57,1.99c10.46-7.75,16.59-18.5,18.66-31.21c1.27-7.74-2.14-14.83-6.2-21.18
	c-7.43-11.64-17.21-21.28-27.43-30.46c-9.91-8.89-20.63-17.35-25.63-30.09c-3.88-9.9-6.27-20.42-8.87-30.78
	c-2.42-9.64-4.44-19.39-6.25-29.16c-1.09-5.9-1.64-11.92-2.12-17.91c-0.71-8.88-0.97-17.79-1.82-26.65
	c-0.26-2.71-1.49-5.49-2.89-7.88c-2.06-3.54-6.57-4.54-10.73-2.5c-3.46,1.69-6.73,3.78-10.02,5.79c-9.89,6.06-20.76,8.3-32.08,6.94
	c-10.07-1.21-17.63-6.64-22.14-16.1c-3.96-8.29-7.59-16.88-12.62-24.49c-7.22-10.92-16.07-20.69-29.46-24.13
	c-4.76-1.22-9.96-0.71-14.96-0.98"/>
<path class="st0" d="M251.42,377.68c-8.05,2.85-11.39,6.94-11.25,13.75c0.15,7.35,6.04,16.45,12.52,18.71
	c8.16,2.85,17.19-0.29,19.07-11.64c0.85-5.12-0.33-10.13-3.25-14.57c-4.03-6.12-10.12-6.79-16.67-6.25"/>
</svg>
