<?xml version="1.0" encoding="utf-8"?>
<!-- Generator: Adobe Illustrator 24.3.0, SVG Export Plug-In . SVG Version: 6.00 Build 0)  -->
<svg version="1.1" id="Layer_1" xmlns="http://www.w3.org/2000/svg" xmlns:xlink="http://www.w3.org/1999/xlink" x="0px" y="0px"
	 viewBox="0 0 1600 900" style="enable-background:new 0 0 1600 900;" xml:space="preserve">
<style type="text/css">
	.st0{fill:none;stroke:#000000;stroke-miterlimit:10;}
</style>
<path class="st0" d="M1099.4,355.7c-11.6,3.6-21.9,9.3-29.3,19.3c-4.6,6.3-7,13.5-7.1,21.4c-0.1,7-0.4,14,0.1,21
	c0.6,7.1,0.9,14.3,4.4,21c3.2,6,8.1,8.1,14.3,8.8c14,1.5,21.7-6.4,27.7-17.6c3.9-7.4,8.5-14.5,12.5-21.9c6.9-12.9,8-26.2,1.2-39.3
	c-4.7-9.1-12.5-14.1-23.4-12.6"/>
<path class="st0" d="M393.7,363.2c-4.2,1.4-8.3,2.8-11.3,6.3c-3.1,3.5-3.4,8.6-0.4,12.2c2.9,3.5,7.8,4.5,11.7,2.1
	c5.2-3.3,8.7-7.6,8.9-14.2c0.1-4.6-1.7-6.8-6.4-6.3c-0.7,0.1-1.4,0-2.1,0"/>
<path class="st0" d="M910.8,363.2c-15.8,4.2-31.4,9-47.4,12.4c-13.6,2.8-27.3,1.3-40.6-3.1c-11.1-3.7-22.4-4.6-33.9-2.6
	c-7.4,1.3-13.9,4.7-19.6,9.3c-14.4,11.6-25.1,26.3-33.6,42.7c-5.2,10.1-4,19.6,3.7,28.1c2.5,2.8,5,5.7,7.1,8.8
	c5.3,8,5.4,16.3,0,24.3c-8,11.8-18.8,20.6-31.3,27.4c-9,4.9-18,10.1-26.3,16c-4.1,3-7.5,7.5-10.1,12c-5.7,10-11,20.2-16,30.6
	c-5.3,10.9-7.1,22.4-4.6,34.3c1.7,8.1,7.2,12.5,15.9,9.7c6.5-2,13.2-3.2,19.7-5.1c7.6-2.2,14.9,0.1,21.7,2.3
	c13.6,4.5,23.9,13.7,31.9,25.4c5.8,8.5,12.3,16.4,21.5,21.3c4.9,2.6,10,5,15.9,4.8c3.9-0.2,6.8-1.6,8.8-5.1
	c5-8.5,8.6-17.8,15.5-25.2c4.5-4.8,9.1-9.6,13.4-14.7c3.2-3.9,6-8.3,8.9-12.5c5.3-7.8,3-15.5-0.8-23.1c-3-5.9-6.7-11.5-8.6-17.7
	c-4.3-13.6-2.2-26.3,6.9-37.7c6-7.5,13.7-12.7,21.4-18c9.4-6.4,18.7-13.1,28.6-18.7c6.1-3.4,13.3-4.9,20-7.3
	c2.4-0.9,4.8-1.8,7.1-2.9c9.3-4.7,13.5-14.2,11.5-26.8c-1.4-9.2,0.3-18.5,3.6-27.2c3.2-8.4,8.6-15.4,14.2-22.3
	c3.3-4.2,6.3-8.6,6.3-14.2c0.1-9.6-9.5-22.5-18.9-24.6c-3.6-0.8-7.5-0.4-11.3-0.5"/>
<path class="st0" d="M257.9,364.9c-4.6,0.6-9.2,1.2-13.8,1.7c-5.4,0.6-10.9,0.9-16.3,1.8c-7.1,1.2-11.6,3.4-11.3,13.4
	c0.4,16.4,6.1,30.7,17.2,42.7c10.6,11.5,26.8,12.6,40.6,6.8c10.2-4.3,14.4-12.2,14.2-22.7c-0.3-11.8-1.6-23.5-6.7-34.4
	c-2.9-6.4-8.4-8.9-15.1-9.2c-2.8-0.1-5.6,0-8.4,0"/>
<path class="st0" d="M1097.7,371.6c-6,1.8-11.2,4.9-15.6,9.6c-8.5,9.1-7.2,26.4-0.3,34.8c3.1,3.8,8.1,4.8,12.1,2.1
	c8.9-6.1,16.1-14,19.6-24.3c2.8-8.3,0.7-16.8-5.8-20.3c-2.7-1.5-6.3-1.3-9.6-1.8"/>
<path class="st0" d="M169.9,275.2c-12.7,2.8-25.4,5.6-38.1,8.4c-16.1,3.5-31.1,8.8-40.2,23.9c-3.6,6-4.5,12.7-4.3,19.7
	c0.3,15.7,9.1,25.9,21.1,33.9c5.4,3.6,11.9,4.9,18.4,5.6c11.8,1.3,23.8,1.2,35.2,5c12,3.9,19.8,12.1,23.8,23.9
	c3,8.7,5.5,17.6,8.4,26.4c2.8,8.5,6.8,16.6,12.7,23.4c5.5,6.4,13,10.5,20.9,13.5c6.5,2.5,13.1,4.6,19.7,6.7
	c11,3.5,21.2,8.6,30.2,15.9c11,8.9,20.6,18.7,26.4,31.9c5.5,12.5,8.5,25.7,11.3,39c2,9.6,4,19.1,9.1,27.7
	c3.7,6.2,13.1,10.1,21.1,8.1c9.6-2.4,17.3-7.1,23.5-14.8c6-7.4,10.7-15.4,14.6-24c5.1-11.4,3.1-22.6-3.1-32.6
	c-10.9-17.5-22.6-34.6-34.3-51.6c-7.3-10.6-11.3-22.5-15.5-34.4c-3.1-8.8-6.1-17.6-10.1-25.9c-6.2-12.6-8.7-25.7-7.7-39.5
	c0.5-7.4,2.1-14.8,2.8-22.2c0.6-6.9-1.8-13-5.9-18.4c-1.6-2.1-3.7-3.8-5.8-5.5c-9.3-7.3-16.4-5.9-26.8,2.9c-4.5,3.8-8.7,8.1-13,12.1
	c-4.2,3.9-9.6,5.9-15.1,6.1c-5.9,0.2-11.4-2.3-15.4-6.6c-4.2-4.6-8.1-9.7-11.3-15.1c-9.9-16.2-23.3-29-38.8-39.6
	c-3.6-2.5-8.8-2.7-13.3-4"/>
<path class="st0" d="M889.8,381.7c-4.9,0.8-9.8,1.7-14.7,2.5c-7.7,1.4-15.3,3-23.1,4.1c-13.1,2-25.9,0.5-38.6-3.2
	c-9.8-2.9-19.7-4.1-29.8-0.2c-6.6,2.6-11.9,6.8-16.6,11.6c-6.4,6.4-11.9,13.7-15.7,22.1c-3.7,8.1-2.8,15.7,2.6,22.6
	c3.2,4.2,7,7.9,10,12.2c9,13.1,6.2,26.4-4.2,38.9c-10.4,12.5-24.7,19.5-38.9,26.5c-10.8,5.3-20.9,11.5-27.2,22.2
	c-5.6,9.4-8.7,19.7-8.7,30.6c-0.1,8.7,5.7,13.7,12.5,17.5c8.5,4.7,17.3,9,25.9,13.5c9.9,5.1,18.8,11.6,27.3,18.8
	c5.3,4.6,10.8,9.3,16.8,12.9c7.8,4.6,16.2,4.3,23.3-1.6c7.1-6,13.7-12.6,20.2-19.2c10-10.2,9.5-21.9,3.8-33.9
	c-4.9-10.3-7.7-20.9-6.6-32.3c0.8-8.4,4.6-15.6,9.6-22.2c5.5-7.3,13-12.4,20.1-18.1c9.3-7.5,18.5-15.2,27.2-23.5
	c5.9-5.7,12-11.1,19.4-14.4c11-4.9,15.2-13.9,17.6-24.8c2.4-10.8,5.6-21.5,8.2-32.3c1.2-4.8,2.2-9.7,2.5-14.7
	c0.4-7.8-4-13.2-11.6-14.6c-3.6-0.7-7.2-0.6-10.9-0.9"/>
<path class="st0" d="M1336.6,393.4c-6.2,2.2-7.4,4.9-5.5,11.3c2.9,10.2,8.8,18.5,16,26c10.1,10.6,21.1,20.3,29.8,32.3
	c9.1,12.6,14.8,26.5,17.2,41.9c2.1,13.3,4.6,26.6,7.1,39.8c1.1,5.9,2.5,11.8,4.2,17.6c1.4,4.7,4.5,8.7,9.6,9.5
	c6.4,1,9.1-0.8,11.7-9.1c2-6.4,3.6-13,6-19.2c1.7-4.4,4.3-8.7,7.1-12.6c6.7-9.4,10-20,12-31.1c2.1-11.5,5.7-22.5,9.2-33.6
	c2-6.4,3.2-13,2-20.1c-1.5-9-11.5-20.2-23.2-21.8c-6.3-0.9-12.2,0.5-18,2.2c-8.7,2.6-16.6,1.3-23.9-3.8c-6.9-4.8-13.7-9.8-20.5-14.7
	c-7.9-5.6-16-11.1-25.6-13.3c-4.7-1.1-9.7-1-14.6-1.4"/>
<path class="st0" d="M873.1,398.5c-5.4,1.1-10.9,2.1-16.3,3.4c-6.9,1.7-13.8,3.3-20.5,5.5c-7.9,2.6-15.7,2.5-23.5-0.1
	c-4.2-1.4-8.4-2.5-12.6-3.8c-13-3.9-27.6,9.6-25.4,23c0.6,3.5,2.6,6.9,4.5,10c3.7,6,6.6,12.3,6.9,19.3c0.2,4.9-0.3,10-1.7,14.6
	c-2.3,8-5.1,15.8-8.3,23.5c-5.3,12.7-15.8,19.9-28,25.2c-9,3.9-18,7.8-26.8,12.2c-12.7,6.3-19.3,16.9-19.6,31
	c-0.2,8.3,3.5,15.7,10.1,20.4c11,8,22.8,15,34.3,22.4c6.2,4,12.6,7.8,18.8,11.8c13,8.3,24.9,1.5,32.8-7.5c6.4-7.4,6.4-15.7,4.1-24.4
	c-2.1-7.7-5.2-15.3-6.5-23.1c-2.8-17.1,1.2-32.4,15-43.9c9.5-8,19.4-15.5,29.3-23.1c9.2-7.1,14.4-16.8,18.4-27.3
	c0.9-2.5,1.2-5.3,2.6-7.5c2.2-3.3,4.9-6.6,7.9-9.2c4.2-3.7,9.4-6.3,13.2-10.3c7.8-8.2,10.9-18.6,10-29.6
	c-0.6-6.9-3.6-10.4-11.1-11.7c-2.4-0.4-4.7-0.6-7.1-0.9"/>
<path class="st0" d="M97.8,400.1c-3.4,1.1-7,1.7-10,3.4c-11.3,6.6-12,23.3,0.7,30.7c7.9,4.6,15.9,6.8,24.8,6
	c2.7-0.2,5.9-1.5,7.9-3.3c6.2-5.9,11-12.8,13.1-21.3c1.1-4.7-0.1-7.3-4.2-10.1c-4.6-3.2-9.9-3.7-15.1-4.5
	c-5.5-0.8-11.2-0.7-16.7-0.9"/>
<path class="st0" d="M1008.9,260.9c-0.7,0.3-1.5,0.4-2.1,0.9c-3.3,2.2-4.4,4.8-2.9,7.1c1.8,2.6,4.3,3.7,7.5,2.6
	c0.3-0.1,0.6,0.1,0.8,0c3.8-1.3,5.8-3.6,5.4-6.3c-0.4-3-2.4-4.2-7.1-4.2c-0.4,0-0.8,0-1.3,0"/>
<path class="st0" d="M588.1,442.9c-5.4,1.4-10.5,3-13.4,8.4c-3.9,7.3-1.7,18.6,5.9,21.2c3.6,1.2,8.2,0.6,12-0.3
	c6.9-1.7,13-5.1,16.8-11.6c3.8-6.6,2.2-11.7-4.6-15.6c-5.3-3.1-10.9-1.6-16.4-2"/>
<path class="st0" d="M1192.4,442.9c-4.7,0.8-9.3,2.6-11.6,6.8c-2.8,5.2-4.6,11-6.3,16.7c-0.9,2.8,1.3,5.1,4.5,4.9
	c9.8-0.7,19.3-3,25.4-11.4c4.7-6.5,1.6-13.9-7.4-16.2c-1.4-0.4-2.8-0.6-4.2-0.8"/>
<path class="st0" d="M1427.1,446.3c-5,0.8-10.1,1.7-15.1,2.5c-3.8,0.6-7.7,0.7-11.3,1.8c-5.5,1.7-7.8,4.7-6.3,11.2
	c2.5,10.1,5.1,20.2,8,30.2c2.3,7.9,4.8,15.9,8,23.4c3.3,7.5,8.9,8.3,15.4,3.4c6.9-5.2,9.4-12.9,11.6-20.6c3.1-10.8,5.5-21.7,8-32.7
	c0.7-3,1-6.3,0.4-9.2c-1.6-7-6-9.9-12.4-10.1c-2-0.1-3.9,0-5.9,0"/>
<path class="st0" d="M479.6,234.5c-2.7,0.6-5.4,1.2-5.9,4.6c-0.4,3.1,0.1,6.2,3,7.8c1.4,0.8,3.8,1,5.3,0.4c3.1-1.2,4.3-4.2,4.2-7.4
	c-0.1-2.5-1.3-4.6-4.1-5c-0.7-0.1-1.4-0.3-2.1-0.4"/>
<path class="st0" d="M680.3,210.6c-4.5,1.4-9.1,2.4-13.4,4.3c-7.1,3.1-11.1,15.5-9.3,23c1.3,5.4,2.6,10.7,7.5,14.3
	c6.5,4.9,13.6,4.8,20.5,2c10.3-4.2,18.4-11.1,23.9-20.9c6.8-12-0.3-19.8-11.3-21.7c-5.7-1-11.7-0.7-17.6-1"/>
<path class="st0" d="M816.1,456.3c-10.3,2.5-14.7,10.7-18.3,19.3c-2.5,5.9-4.1,12.2-3.9,18.8c0.2,8,4.3,11.9,11.8,9.5
	c12.4-3.9,23.5-10,30.7-21.6c7.6-12.3-1.4-24.7-13.9-26c-1.9-0.2-3.9,0-5.9,0"/>
<path class="st0" d="M498.4,203.9c-6.1,1.4-12.5,2.3-18.4,4.3c-6.9,2.4-13.9,5-20,8.9c-8.5,5.4-12,13-8.7,24.5
	c5.2,18.4,17,31.7,35,39c9.1,3.7,15.3-0.1,18-7.5c4.9-13.4,13.2-24.4,22.5-34.9c6.6-7.5,7.5-18-1.6-25.1c-4.6-3.6-9.8-6.2-15.5-7.5
	c-3.6-0.8-7.2-1.2-10.9-1.7"/>
<path class="st0" d="M1444.7,202.2c-3.8,0.6-7.6,0.9-11.3,1.7c-10.1,2.1-16.6,9.8-15.9,18c0.6,7.7,5.5,13.7,13.8,16.3
	c8.5,2.7,17.3,1.1,26,0.5c1.4-0.1,2.8-0.3,4.2-0.4c7.7-0.6,15.4-0.9,23-1.8c4-0.5,7.8-2,10.5-5.4c3.1-3.9,3.3-9.7-1.2-15.1
	c-5.8-6.9-13.9-9.8-22.3-11.2c-8.7-1.5-17.6-1.8-26.4-2.7"/>
<path class="st0" d="M1040.7,198.9c-10.1,2.5-18.5,8.3-25.9,15.2c-10.2,9.7-21.4,18.1-32.8,26.3c-9.8,7-12.9,16.9-9.2,28.5
	c3.1,9.6,9.9,15.6,19.2,18.9c11.3,3.9,22.6,4.2,33.9,0c7.4-2.7,12.8-7.6,15-15.1c2.2-7.4,3.7-15,5.1-22.6c1.2-6.7,3.3-13,6.8-18.9
	c3.2-5.4,5.3-11.1,5.1-17.6c-0.2-9.1-5.6-14.7-14.7-14.7c-0.7,0-1.4,0-2.1,0"/>
<path class="st0" d="M450.7,466.4c-3.6,1-7.3,1.8-10.9,3c-9.6,3-17.1,9.1-23.5,16.7c-5.5,6.6-5.2,14.4-4.2,22.2
	c1.3,9.4,4.7,18.4,4.7,28.1c0,8.6-2.8,16.1-6.7,23.5c-4.3,8.2-8.8,16.5-12.1,25.2c-4.8,12.5-3,24.4,5.3,35.2
	c3.9,5.1,7.8,10.2,11.3,15.5c6.7,10.1,7.4,21.4,4.5,32.6c-3.4,13.2-2.7,26.1,0.5,39c1.2,5,2,10.1,3.5,15.1c0.7,2.3,2.4,4.5,4.1,6.3
	c2.5,2.5,6.4,2.5,9.1,0c2.5-2.2,5-4.6,7.1-7.1c6.2-7.4,14.6-9.1,23.5-9.6c8.4-0.5,16.8,0,25.1-1c10.1-1.2,20.2-3.3,30.2-5.4
	c7.3-1.5,14.5-3.5,21.8-5.4c9.6-2.5,17.3-8.1,23.4-15.6c4.2-5.2,7.7-11.2,10.9-17.1c5.6-10.5,2.3-19.7-5.4-27.6
	c-7.9-7.9-17.3-13.7-28-17.3c-13.5-4.4-27-8.5-39.9-14.9c-13.6-6.7-19.7-17.5-21.2-31.7c-1.4-13-2.3-26-3.4-39
	c-0.9-10.3-1.2-20.7-2.7-31c-1.3-9.2-3.3-18.3-5.9-27.2c-2.4-8.3-9-12.4-17.9-12.6c-1,0-2,0-2.9,0"/>
<path class="st0" d="M674.4,194.7c-3.5,0.8-7.1,1.3-10.5,2.6c-11.1,4.4-15.8,14.2-18.3,24.7c-2.4,10.4-3.1,21.2-4.3,31.8
	c-0.4,3.7,0,7.5-0.1,11.3c-0.3,8.1,4.6,14,8.9,20.1c5.1,7.2,8,15,8.9,23.9c1.5,15.3-3,29.3-8.5,43.2c-4,10.2-8.1,20.5-9.1,31.5
	c-0.8,8.1,0.1,16.2,3.6,23.9c3.8,8.3,10.7,11.2,19.7,5.8c5.1-3.1,9.5-7.3,14.3-10.8c7.9-5.8,16.3-11,23.8-17.3
	c14.7-12.5,24.6-28.3,29-47.3c2-8.8,0.6-17.6-0.4-26.4c-0.8-6.6-1.8-13.2-2.9-19.7c-1-5.6-1.9-11.3-3.4-16.8
	c-3-11-1.9-21.5,2.5-31.9c3.2-7.4,4.8-14.9,2.2-23.1c-3-9.5-9.7-15.3-18.5-18.8c-8.8-3.5-18.1-5.5-27.6-6c-2.9-0.2-5.9-0.5-8.8-0.8"
	/>
<path class="st0" d="M1032.3,470.6c-3.1,0.9-5.6,2.4-6.3,5.9c-0.6,3.5,1.6,7,4.6,7.5c3.1,0.5,7.3-2.7,8-6.3c0.8-4.3-0.8-6.3-5.9-7.1
	"/>
<path class="st0" d="M1296.3,473.9c-12.9,3-19.6,12.4-23.3,23.9c-3.3,10-5.6,20.3-8,30.6c-2.6,10.9-4.9,21.8-7.1,32.7
	c-1.5,7.5-2.9,15-3.7,22.6c-1.5,13.6-9.1,22.8-20.2,29.8c-4.6,2.9-9.1,5.9-13.4,9.2c-8.8,6.7-14.9,15.5-18.5,25.9
	c-1.1,3.1-2.3,6.3-3.8,9.2c-1.9,3.6-4.4,3.9-7.5,1.3c-5.4-4.7-10.1-10.2-12.9-16.8c-7-16.6-19.8-27.2-35.3-35.2
	c-8.3-4.3-16.7-8.6-25.2-12.5c-6.6-3.1-13.8-4.2-20.9-2.4c-9.5,2.4-15.1,9.9-15.9,20c-0.8,10.8,3,20.7,6.7,30.6
	c4.1,11,8.8,22,18.1,29.7c6.2,5.1,13,9.7,20.1,13.4c10.1,5.2,20.9,3.6,31.3,0.9c8.1-2.1,16.1-4.8,23.9-8c4.1-1.7,7.8-4.6,11.3-7.5
	c4.1-3.3,5.5-4,10.1-1.1c8.4,5.4,16.7,10.9,24.7,16.8c6.4,4.7,12.5,9.8,18.4,15.1c6,5.4,8.6,12.8,9.6,20.5c1.3,9.5,1.6,19,2.7,28.5
	c1.1,8.9,1.3,18,5.3,26.5c4.1,8.5,10.7,14.2,19.3,17.6c7.1,2.7,14.2,5.2,21.4,7.5c7.1,2.3,11,6.7,6.4,16.4
	c-3.9,8.2-9.2,14.8-16.8,19.7c-4.3,2.8-8.4,6.1-12.1,9.6c-7,6.7-8.8,23.2-3.9,31.8c3.6,6.4,9.3,6.5,13.9,3.7c4-2.4,7.8-5.3,11.3-8.4
	c7.7-6.8,16.7-10.4,26.9-11.8c8.6-1.2,16.6-3.6,21.9-11.6c6.2-9.5,5.1-25.8-2.6-34.4c-2.9-3.2-5.9-6.5-9.2-9.2
	c-6.5-5.2-7.1-11.4-5.1-19c2.4-8.9,3.6-18,4-27.2c0.5-10.5,1.6-21.1,3.3-31.4c2-11.7,8.2-21.7,15.3-31.1c7.5-9.7,15.7-18.6,25.6-26
	c6.5-4.9,13.9-7.9,21.8-7.7c12.3,0.2,22,5.6,28.2,16.9c5,9.2,7.4,19.3,10.7,29c3,8.7,7.4,16.6,14,23c5,4.9,10.9,9,16.2,13.5
	c4.7,4,9.1,8.3,13.9,12.1c15.5,12.5,33,9.6,44.8-6.2c7.9-10.5,11.8-22.5,13.8-35.2c2.1-13.4,5.7-26.2,11.3-38.6
	c2.7-6,5-12.4,6.2-18.9c1.4-7.4-1.6-12.5-11.5-13.3c-3.6-0.3-7.3-0.2-10.9,0c-13.4,0.5-26.4-2-39.4-4.6c-10.2-2.1-20.3-4.7-30.6-6.1
	c-8.3-1.1-16.7-0.9-25.1-1c-10-0.1-19.6-1.7-29.4-3.7c-8.2-1.7-16.5-2.6-24.7-3.9c-10.9-1.7-21.5-4.1-28-14.3
	c-3.6-5.6-4-12.1-4.6-18.4c-0.3-3.2,0-6.4-0.1-9.6c-0.3-12.4-0.3-24.9-0.9-37.3c-0.4-8.7-1-17.4-2.6-26
	c-2.2-12.1-9.2-21.5-19.2-28.5c-8.2-5.8-16.5-11.6-25.2-16.6c-4.2-2.4-9.4-3-14.1-4.4"/>
<path class="st0" d="M1435.5,193c-5.3,1.1-10.8,1.8-15.9,3.5c-9.1,3-14.2,9.7-15.5,19.2c-2.4,16.7,8.9,29.4,23.9,32.5
	c6.3,1.3,13.1,0.3,19.7,0.2c3.9-0.1,7.8-0.7,11.7-0.8c9.9-0.1,19.8,0.3,29.8-0.1c8.9-0.3,17-3.1,22.7-10.8
	c4.6-6.2,5.1-13.7,0.8-20.1c-6.4-9.3-15-15.4-25.9-18.5c-10.3-3-20.8-4-31.4-4.2c-6.4-0.1-12.8-0.5-19.3-0.8"/>
<path class="st0" d="M1194.5,190.9c-7.3,2-10.2,7.8-11.6,14.3c-1.5,7-2,14.2-2.6,21.4c-1,10.2-1.9,20.4-2.5,30.6
	c-0.3,4.2,0.3,8.3,3.3,11.8c5.3,6.2,12.5,3.7,16.4-0.8c4.5-5.2,5-11.8,6.2-18.1c1.9-9.6,3.7-19.3,5.5-28.9c1-5.7,2.2-11.3,0.5-17.2
	c-2.2-7.9-6.6-11.9-14.7-13"/>
<path class="st0" d="M1421.2,185.5c-4.3,1.4-8.9,2.3-12.9,4.3c-10.3,5-14.8,13.8-16.1,25.1c-2.4,22.4,14.5,36.8,32,41.8
	c7.4,2.1,15,0.8,22.6-0.2c9.6-1.3,19.1-2.4,28.9-1.6c11.1,0.9,22.7,2.1,33.5-3.1c11.7-5.6,19.3-14.5,20.9-27.7
	c0.6-5-1.5-9.6-4.9-13.4c-10.4-11.5-23.5-18.3-38.6-20.8c-11.2-1.9-22.6-2.7-33.9-3.4c-10.3-0.7-20.7-0.6-31-0.9"/>
<path class="st0" d="M444,483.2c-4.3,1.8-9.3,2.9-12.9,5.6c-7.9,6-9.6,14.7-8.1,24.2c1.2,7.4,2.9,14.8,3.7,22.2
	c0.8,7.9-2.2,15.1-6.2,21.8c-5,8.3-10.7,16.1-14.3,25.2c-4.7,11.8-2.9,22.7,4.3,32.7c4.7,6.5,9.8,12.7,15.1,18.9
	c7.2,8.4,11.4,18.3,15,28.6c5,14.2,13.5,25.6,26.1,33.9c6,4,12.9,5.5,20.1,5.9c18.7,1.2,36.3-3.4,53.2-10.6
	c12.9-5.6,21.9-15.4,24.2-29.7c1.1-6.7-2-12.8-6.5-18c-5.9-6.8-13.7-10.5-21.8-13.8c-11.6-4.7-23.2-9.2-34.8-13.9
	c-14.7-5.9-22.6-17-25.6-32.3c-2.1-10.7-4.8-21.2-7-31.9c-1.7-8-1.2-16.1-0.7-24.3c0.9-13.8-0.3-27.6-9.9-39
	c-3.5-4.1-8.2-5.5-13.4-5.5"/>
<path class="st0" d="M223.5,485.7c-11.5,2.5-22.9,5-34.4,7.6c-5.5,1.2-10.9,2.7-16.3,4.2c-9,2.6-14.4,8.9-18.1,17.2
	c-4.8,10.9-7.2,22.3-8.7,34c-1.4,10.5,1.4,20.6,6.3,29.7c9.9,18.2,16.5,37.5,21.3,57.5c0.8,3.4,2,6.8,3.4,10.1
	c4.3,9.9,10.7,13.4,21.7,11.3c13.5-2.6,21.9-12,28.9-23c4.6-7.2,8.7-14.6,13.9-21.3c7.1-9.1,17.5-13.4,28-17.3
	c4.5-1.7,9.1-3.3,13.4-5.5c11.1-5.8,16.2-15.2,17.4-27.6c0.9-9.7-0.4-18.8-2.6-28.1c-2.8-11.9-9.2-21.5-18.2-29.2
	c-10.2-8.8-21.9-15.2-35.2-18c-6.6-1.4-13.7-1-20.5-1.4"/>
<path class="st0" d="M1298.9,491.6c-11.9,2.4-16.9,11.5-19.6,21.8c-4.4,16.7-8.2,33.5-11.7,50.3c-2,9.8-3,19.8-4.3,29.7
	c-1.5,11.2-6.5,20.3-15.9,26.9c-5.4,3.8-10.9,7.5-15.4,12.2c-8.8,9.2-10.4,19.1-2,29.9c5.9,7.6,13.1,14.4,20.4,20.6
	c11,9.3,17,20.2,17.3,34.9c0.2,14.1,1.1,28.4,3.4,42.3c2.4,14.3,11.4,23.5,28.2,24c9.8,0.3,18.1-2.3,22.9-11.1
	c2.5-4.5,3.7-9.9,4.6-15c0.9-4.9,0.6-10,1-15.1c0.9-12.6-2.2-24.2-8.3-35.3c-5.2-9.2-3.3-14.8,6.2-19.6c5.9-3,12-5.2,18-8.1
	c10-4.7,19.4-10.5,25.9-19.7c6.1-8.6,4-11.6-2.5-18c-6.6-6.5-14.3-12-16.9-21.8c-2.2-8.5-1.7-17-1.1-25.6c0.3-3.9,1.1-7.8,1.2-11.7
	c0.4-12,0.9-24,0.8-36.1c-0.1-7-1.1-14.1-2.5-20.9c-2.5-12.4-10.9-20.5-21.7-25.9c-6.8-3.4-14.1-5.8-21.3-8.4
	c-1.9-0.7-4.2-0.4-6.3-0.5"/>
<path class="st0" d="M227.7,494.1c-9.6,2.2-19.3,4.3-28.9,6.8c-5.9,1.5-11.8,3.4-17.6,5.4c-12.2,4.4-18,14.1-20.9,26
	c-1.2,5.1-2.2,10.3-2.5,15.5c-0.5,9.6,2.9,18.3,7.8,26.4c4.5,7.5,9.6,14.5,16.4,20.1c6.7,5.5,14.1,8.8,23,8.9
	c7.4,0.1,14.4-1.2,21.4-3.5c12.9-4.3,25.8-8.5,38.5-13c6.6-2.3,12.9-5.3,18.1-10.4c5.7-5.6,8.4-12.4,9.7-20.1
	c2.3-14.2-1.2-26.9-9.8-38.1c-7.4-9.6-17.4-15.7-28.8-19.8c-8.5-3.1-17.1-4.5-26-4.1"/>
<path class="st0" d="M226,501.6c-8.5,2.4-17.1,4.5-25.5,7.2c-6.5,2.1-13,4.6-18.5,9.1c-7,5.7-10.1,13.2-10.8,21.9
	c-1.4,17.2,6.3,30,19.7,39.8c6.6,4.8,14.4,6.6,22.6,6.8c18,0.5,35.3-2.8,52-9.3c14.4-5.6,23.3-21.6,20.8-36.9
	c-3-17.9-14.5-27.4-29.5-34.3c-9.6-4.5-19.9-4.5-30.2-4.2"/>
<path class="st0" d="M334.2,506.6c-5.3,1.8-7.1,5.6-7.2,10.9c-0.2,11.6,1.1,22.8,7.1,33.2c2.9,5,6.6,8.2,12.6,8
	c4.1-0.2,7-2.4,9.2-5.5c8.2-11.3,8.4-21.1,0.4-32.2c-4.4-6.1-9.9-11.4-17.5-13.5c-1.4-0.4-2.8-0.6-4.2-0.9"/>
<path class="st0" d="M1095.2,508.3c-1.5,0.7-3.4,1.1-4.6,2.2c-5.6,5.2-5.9,10,0,14.9c4.5,3.8,10.4,4.6,16.3,3.8
	c4.6-0.6,7.4-6.6,5-11.2c-3.4-6.4-8.5-10.5-16.3-9.7"/>
<path class="st0" d="M226.9,509.2c-8.4,2.1-16.6,4.6-24.3,8.8c-7.5,4.1-14,9-16.3,17.7c-4.5,16.6,7.8,32.2,19.7,36.5
	c9.5,3.4,19.2,3.9,29.4,2.7c7.9-0.9,15.6-2.1,23-4.8c10-3.6,17.1-10.1,19.6-20.6c1.9-8.3,0.6-16.5-4.9-23.4
	c-9.2-11.4-21.5-16.6-36-16.8c-3.2-0.1-6.4,0-9.6,0"/>
<path class="st0" d="M1307.2,509.2c-10.1,1.9-15.3,8.8-18,18c-3.6,12.2-7.4,24.3-10.9,36.5c-4.4,15.2-4.8,30.9-4.1,46.5
	c0.5,10.9,6.5,18,17.1,20.9c7.1,2,14.1,4.4,21.4,5.3c8.3,1,15.9-2.6,18.3-10.7c2.6-8.7,5-17.5,6.7-26.4c2.9-14.7,4.7-29.4,5.3-44.4
	c0.4-9.1,0.2-17.8-2.7-26.4c-3.8-11.2-12.5-16.3-23.5-18.4c-3-0.6-6.1-0.6-9.2-0.9"/>
<path class="st0" d="M232.8,516.7c-5,1.4-10.2,2.5-15.1,4.3c-6.4,2.3-11.5,6.7-15.1,12.5c-6.1,9.9-1.1,22.7,8.8,27.2
	c8.8,4.1,17.9,5.4,27.7,3.9c6.3-0.9,12.3-1.9,18-4.7c9.2-4.6,13.4-11.8,12-21.9c-1-7.5-6.1-12.4-12.5-16c-7.3-4.1-15.2-5.6-23.5-5.4
	"/>
<path class="st0" d="M972.8,520.1c-11.9,2-16.9,10.7-19.6,21c-2.6,10-4.5,20.1-6.8,30.2c-1.9,8.4-0.9,16.5,2.5,24.3
	c4.8,11.1,8.6,22.5,10.8,34.4c1.7,9.2,2.5,18.5,4.3,27.6c2.4,12.1,12.2,18.8,24.2,19.3c2.9,0.1,5.9,0.1,8.8,0
	c7-0.2,11.7-5.2,12.2-12.1c0.4-5.6,1.3-11.2,2-16.8c1.4-10.6,7-19.1,13.4-27.2c3.8-4.7,7.8-9.3,11.7-13.9c6.9-8,10.7-17.4,13-27.7
	c2.4-10.7,5-21.3,5-32.3c0-8.1-3.4-11.6-11.7-12.6c-11.5-1.5-23-2.9-34.3-5.1c-6.7-1.4-13.2-4.3-19.7-6.6c-5-1.8-10.1-2.9-15.5-2.5"
	/>
<path class="st0" d="M873.9,523.4c-5.4,1.8-11,3.3-16.3,5.6c-5.4,2.3-9.2,6.4-10.6,12.5c-1.3,5.8,2.8,11,8.8,11.4
	c13.3,0.9,23.2-9.1,26.6-20.2c2.1-6.7-0.4-8.3-6.5-9.2c-0.5-0.1-1.1,0-1.7,0"/>
<path class="st0" d="M234.4,527.6c-3.6,1.5-7.6,2.6-10.8,4.7c-7.1,4.5-7.6,13.1,0.8,17.9c6.7,3.9,21.2,4,28-2.2
	c5.7-5.2,4-12.9-2-16.8c-4.8-3.1-10-4-15.5-3.7"/>
<path class="st0" d="M1315.6,528.5c-8.6,2.8-12.8,9.8-16.8,17.2c-6.4,11.5-11.1,23.6-12.8,36.5c-1.2,9.2,0.1,18.4,6.2,25.9
	c6.7,8.2,22.5,9.5,29.4-3.6c4.1-7.9,5.8-16.4,7.7-24.8c2.5-11.3,4.5-22.7,3.4-34.3c-0.4-4-1.8-8.2-3.8-11.7
	c-2.7-4.6-7.7-5.5-12.8-5.1"/>
<path class="st0" d="M924.2,532.6c-4.7,2-8,5.3-9.2,10.5c-1,4.5,0,7.1,4.2,9.2c3.3,1.7,6.5,0.6,9.3-2.5c3.5-3.9,3.3-8.5,2.7-13
	c-0.4-3.2-3.3-4.5-6.6-4.2"/>
<path class="st0" d="M755.7,533.5c-6,1.7-12.1,3.2-18,5.1c-6.2,1.9-11.5,5.1-15.5,10.4c-8.7,11.4-4.7,23,4.8,30.9
	c10.8,9,23.7,14.7,37.2,18.5c10.4,2.9,16.8-2.4,16.2-12.4c-0.4-7.4-1.6-14.8-2.4-22.2c-0.8-7-1.3-14-2.6-20.9
	c-1.2-6.5-5-9.2-11.6-9.2c-2.5,0-5,0-7.5,0"/>
<path class="st0" d="M981.2,537.7c-11.8,2-14.8,11.2-17.2,21c-3.6,14.5-0.5,28.4,2.9,42.4c2.4,10,4.2,20.1,6.4,30.2
	c1.3,6.2,1.7,12.6,5.4,18.1c3.9,5.7,10.8,6.8,15.1,0.4c3-4.4,5-9.4,8.1-13.7c6.9-9.7,13.8-19.4,21.4-28.5c7.5-9,13.7-18.6,15.2-30.3
	c0.9-6.3,0.9-13-1.6-19.3c-3.2-7.8-10-10.8-17.6-12.6c-10.5-2.4-20.9-4.8-31.4-7.1c-2-0.4-4.2-0.3-6.3-0.5"/>
<path class="st0" d="M442.3,553.6c-4.9,3.2-10.3,5.8-14.5,9.8c-4.4,4.2-8.3,9.3-11.4,14.6c-8.5,14.6-5.3,26,5,37.6
	c6,6.7,13.2,12.6,20,18.5c7.7,6.7,12.4,15.3,16.8,24.3c4.7,9.7,9.3,19.5,17.6,26.8c5.4,4.8,11.7,7.2,18.8,7.6
	c14.7,0.7,28.2-2.9,40.1-11.5c4.2-3,8.1-7,10.8-11.3c5.6-8.9,2.2-18-5.3-24.6c-8.3-7.3-18.5-11.2-28.5-15.5
	c-8.1-3.5-16.4-6.6-24.7-9.7c-10.8-4-15-12.8-17.6-23.1c-2-7.9-3.9-15.9-6.8-23.4c-2.7-7-6.5-13.6-12.9-18c-1.9-1.3-4.7-1.5-7.1-2.2
	"/>
<path class="st0" d="M992.9,557c-12.9,1.7-14.9,14.6-13.3,23.9c1.2,6.8,3.3,13.5,5.4,20.1c0.9,2.9,2.7,5.6,4.6,8
	c2.2,2.8,7.4,3.5,10.8,1.2c10.4-6.9,19.1-15.1,22.4-28c2.9-11.6-3.8-19.1-11.1-21.6c-5.8-2-12.2-2.4-18.4-3.5"/>
<path class="st0" d="M1534.4,565.4c-2.7,2.2-5.6,4.3-7.8,6.8c-0.9,1-1.1,3.7-0.4,4.8c1.2,1.9,3.1,0.7,4.9-0.3c3.4-1.8,5.3-4.4,6.3-8
	c0.8-2.8-0.2-3.4-2.6-3.4"/>
<path class="st0" d="M438.9,572.9c-7.8,1.8-13.4,6.3-16.3,13.8c-3.7,9.8,0.3,18.3,7.6,25.1c4.1,3.8,8.8,6.8,14.5,8.2
	c7.6,1.9,13.6-1.3,14.6-9.8c1.1-10.1-0.7-20-6.1-28.9c-3.2-5.2-7.8-8-13.8-8.4"/>
<path class="st0" d="M668.6,183.8c-7.5,1.7-14,5-19.3,10.9c-4.8,5.3-7.6,11.5-9.6,18.1c-4.5,14.8-8.7,29.6-13,44.4
	c-2.8,9.8-0.8,18.9,4.6,27.2c3.5,5.3,7.2,10.4,10.9,15.5c5.6,7.8,8,16.7,7.4,26c-0.5,6.9-2.2,13.8-4.1,20.5
	c-3.2,11.4-7.5,22.5-10.2,34c-1.8,8-1.6,16.4-2.3,24.7c-0.5,4.9-0.8,9.8-1.7,14.7c-1.5,7.8-7.2,10.1-13.3,10.7
	c-13.1,1.2-26.4,0.1-39.4,3.1c-14,3.3-20.3,13.2-21.9,25.6c-1.3,9.9-0.2,19.4,1.9,28.9c0.4,2,1,4.1,2.1,5.8c4.4,7,7.7,7.5,16.2,3.3
	c8.3-4.1,16.2-9.3,24.4-13.7c6.6-3.5,13-7.3,18.5-12.6c5.1-4.9,9.3-10.6,11.9-16.9c3.6-8.6,9.6-13.9,18.2-16.7
	c11.4-3.7,19.9-11.1,27.8-20c6-6.8,13.1-12.8,20.5-18c13.5-9.6,22.8-22.6,31.8-36.1c10.6-15.9,14.6-34,18.8-52
	c1.7-7.1,3.1-14.1,2.5-21.4c-0.4-5.3-0.6-10.7-1.8-15.9c-1.3-5.9-0.3-11.7,2-16.7c5.8-13.1,2.6-24.5-4.2-36.2
	c-11.2-19.2-28.5-28.3-49.1-33.1c-9.6-2.2-19-4.9-28.9-4.1"/>
<path class="st0" d="M1043.2,174.5c-8.7,1.7-17.3,3.5-26,5c-4.8,0.8-9.8,1.8-14.7,1.6c-5.1-0.2-10-2.1-15.1-2.7
	c-3.6-0.4-7.4-0.4-10.9,0.4c-6.7,1.5-8.7,6.7-7.2,12.9c1,4.2,2.3,8.3,2.9,12.6c1.1,8.5-3.2,15.5-7.5,22.2c-7.2,11-9.6,23-8.2,35.7
	c1.9,16.5,10.5,28.4,26.3,34.4c12.9,4.9,26.4,5.7,39.8,4.4c13.5-1.2,24.1-8,30.2-20.8c2.4-5,4.8-10,7.1-15.1c3.1-6.7,7-12.7,13-17.2
	c7.5-5.6,14.9-11.4,22.7-16.7c3.6-2.4,8-3.8,12.1-5.6c4.2-1.9,8.2-4,9.6-8.8c1.6-5.4-1.3-10.9-7.5-14.2c-2-1.1-4.2-1.7-6.3-2.5
	c-6.8-2.7-13.3-6.1-18.4-11.4c-10.8-11.2-24.1-14.7-39-14.2c-0.8,0-1.7,0-2.5,0"/>
<path class="st0" d="M852.1,608.1c-6.4,1.5-11.6,5.6-16.2,9.8c-6.3,5.7-12.5,11.7-17.5,18.5c-6.2,8.3-7.8,16.6-1.3,24.5
	c2.3,2.8,5.7,5.4,9.2,6.7c10.5,4,21.5,4.2,32.6,2.8c7.6-1,14.7-2.8,21.4-6.8c11.4-6.8,14.9-22.1,9.1-33.6
	c-7.6-14.9-20.2-21.9-36.8-21.8"/>
<path class="st0" d="M667.7,173.7c-12,2.7-22.4,8.2-28.3,19.4c-3.5,6.5-6,13.7-8,20.9c-3,11-6.5,21.7-11.8,31.9
	c-3,5.6-5.6,11.4-5.9,18c-0.6,10.1,3.7,18.6,8.9,26.8c4.3,6.8,9.3,13.2,13.3,20.2c5.2,9.3,6.1,19.4,3.4,29.7
	c-3.2,12.2-6.8,24.3-10,36.5c-1.8,7.1-3.3,14.2-4.6,21.4c-2.6,14.5-11.9,21.3-25.6,23.5c-10.2,1.6-20.5,3-30.6,5.1
	c-6.7,1.4-12.1,5.2-16.4,10.8c-8.2,10.6-13,22.7-15.3,35.7c-1.3,7.4-1.1,15.1-0.9,22.6c0.2,10-1.6,19.7-3.8,29.4
	c-1.7,7.6-3.5,15.3-3.7,23c-0.3,16.3,5.2,26,22.9,32.6c5.2,1.9,10.8,3,16.3,3.3c9.3,0.5,14-6.1,12.2-15.4
	c-1.4-7.7-2.6-15.6-2.9-23.5c-0.6-13.2,4.9-24.5,12.8-34.8c6.6-8.7,15.3-15,24.4-20.4c12.3-7.2,22.6-16.6,31.9-27.3
	c3.8-4.5,8.7-8.1,13.3-11.8c8.7-7,16.9-14.5,23.4-23.5c6.6-9.1,14.6-16.8,23.2-23.8c9.3-7.6,16-17.4,23-26.9
	c11.7-15.8,21.4-32.8,31.1-49.9c1.7-3,4.2-5.6,6.7-8c6-5.7,13.3-6.4,20.9-4.2c8.4,2.4,16.7,5.1,25.2,7.5c9.9,2.8,19.8,5.6,29.8,7.9
	c3.5,0.8,7.4,0.9,10.8,0c9.7-2.6,12.5-8.8,7.9-17.8c-2.2-4.2-5.5-7.9-8.3-11.8c-6.3-8.9-12.8-17.7-18.8-26.9
	c-6.6-10.2-15.5-16.4-27.3-18.9c-4.1-0.8-8.2-2-12.1-3.4c-8.8-3.1-13.7-10.6-17.9-18.1c-8.9-15.9-21.2-28.5-36.3-38.4
	c-6.3-4.1-13.4-7.1-20.5-9.7c-10.2-3.7-20.6-6.5-31-9.8c-6.9-2.2-13.9-2.3-21-2.1"/>
<path class="st0" d="M1190.7,171.2c-10.1,3.3-13.3,11.9-15.4,21c-2.3,9.6-2.5,19.5-2.7,29.3c-0.3,13.8-3,27.3-6.9,40.7
	c-3.5,12.1,0.1,19.5,12,24.7c9.2,4,22,1,27.3-7.5c3.8-6,5.7-12.3,6.3-19.3c1.1-14.4,3.5-28.6,7.9-42.4c2.6-8.2,3-16.3-0.4-24.3
	c-3.8-8.9-10-15.8-18.1-20.8c-2.5-1.6-6.3-1-9.5-1.4"/>
<path class="st0" d="M1117,622.4c-6.3,2.2-7.8,4.6-8,11.3c-0.4,13.4,3.6,25,13.9,33.9c7.6,6.6,16.4,8.8,25.9,5.4
	c9.1-3.2,12.7-9.6,10.4-18.8c-4.5-18.3-14.4-27.6-33.1-31.8c-2.8-0.6-5.9-0.1-8.8-0.1"/>
<path class="st0" d="M288.9,624.1c-11.2,4-16.7,10.9-16.2,22.2c0.3,8.3,2.7,16.2,8.3,22.6c10.6,12,21.5,23.8,32.2,35.7
	c6.3,6.9,12.7,13.8,15,23.1c1.6,6.7,1.9,13.7,3.1,20.5c0.7,3.8,1.4,7.7,3,11.3c3,6.9,10.9,8.5,16.7,3.8c7.8-6.2,9.3-15.7,5.3-25.1
	c-2.7-6.5-6.5-12.6-10.4-18.5c-7.6-11.3-12.6-23.7-15.3-37c-1.2-6.1-0.6-12.6-1-18.8c-0.7-10.4-3-20.2-10.5-28.1
	c-8.1-8.5-17.8-12.9-29.7-11.7"/>
<path class="st0" d="M707.1,624.1c-4.5,1.2-8.6,3-11.7,6.7c-5.3,6.3-6.1,11.9-2.4,18.4c5.9,10,14.5,14.6,26.3,13.5
	c5-0.5,11.2-7.2,11.7-12.6c1.4-13.5-4.5-21.4-16.4-25.5c-2.2-0.7-4.7-0.4-7.1-0.5"/>
<path class="st0" d="M850.5,628.3c-6,1.1-10.8,4.3-14.6,8.8c-5.6,6.6-4.7,14.6,4.6,17.5c6.8,2.1,13.6,1.8,20.1-1.6
	c5.2-2.7,7.8-6.8,7.1-12.6c-0.7-5.5-4.3-8.9-9.2-10.8c-2.3-0.9-5-0.9-7.5-1.3"/>
<path class="st0" d="M483.4,635c-8.5,3.2-10.4,7.3-8.7,18c1.2,7.6,4.4,14.7,9.6,20.5c8.2,9.4,19.4,9.7,30.9,5.3
	c3.9-1.5,7.4-4.5,10.5-7.5c6.4-6.2,5.9-15.3-1.2-21.7c-8.3-7.6-18.2-12-29-14.5c-3.7-0.9-7.8-0.1-11.7-0.1"/>
<path class="st0" d="M1468.6,647.1c-4.8,0.4-9.6,0.5-14.2,1.4c-4.8,0.9-9.6,2.1-14.2,3.8c-4.5,1.7-5.4,5.6-3.4,11.2
	c3.1,8.6,6.2,17.3,9.2,26c2.1,6,4,12.1,6.3,18c4.5,11.6,13.4,19.8,22.6,27.7c5.2,4.4,10.4,8.9,16,12.9c4.8,3.5,9.9,6.4,16.3,6.9
	c8.6,0.6,14.7-3.4,19.6-9.4c6.1-7.6,9.2-16.6,10.6-26.3c1.8-12.2,4.3-24.3,6.1-36.5c0.6-4.1,1.2-8.6,0.3-12.5
	c-1.3-5.5-5.6-9.1-11.1-11c-13.8-4.5-27.9-8.1-42.3-10c-7.1-0.9-14.2-1.4-21.4-2.1"/>
<path class="st0" d="M655.2,650.9c-7.5,1.8-10.7,7.8-13.8,13.8c-5.7,10.8-6.9,22.5-5.7,34.4c1,9.5,3.6,18.9,12.9,23.8
	c4.4,2.3,9.6,3.4,14.6,4.3c8.9,1.5,17.9,2.1,26.8,3.5c9.8,1.6,21.6-8.2,22.7-18.5c1.6-14.2-4.2-24.9-14.8-33.6
	c-9.8-8-19.5-16.1-29.4-23.9c-3.7-2.9-8.1-4.4-12.9-3.8"/>
<path class="st0" d="M1479.9,657.6c-4.3,1.1-8.8,1.9-13,3.4c-7.4,2.8-11,8.5-10.9,16.3c0.1,15.9,5.7,29.6,16.8,41.1
	c7.7,8,15.6,15.8,25.6,20.9c2.3,1.2,5,1.8,7.5,2.1c10.4,1.5,17.4-6.4,20-14.7c1.9-6.1,2.8-12.5,3.8-18.8c0.8-5.3,1.5-10.6,1.7-15.9
	c0.7-20.4-5.7-23.9-21.8-30c-9.2-3.5-19.3-4.6-29.3-4.4"/>
<path class="st0" d="M68.9,668.1c-16,1.9-22.1,13.7-26.8,26.9c-1.4,4-2,8.4-3,12.6c-1.1,4.7-0.8,5.6,3.4,6.6
	c10.1,2.5,20,5.5,30.6,5.5c11.8,0.1,17-7,17.5-17.2c0.4-9.2-2.1-17.8-7-25.6c-3.3-5.3-7.9-8.4-14.3-8.8"/>
<path class="st0" d="M1490,671c-0.7,0.3-1.4,0.8-2.1,0.8c-13.3,0.6-18.1,13.8-13.4,25.2c4.5,11.1,12,19.7,22.3,25.5
	c10.3,5.8,16.9,1.4,20.3-8.8c2.7-8,3.1-16.8,0.9-25.1c-2.5-9.5-8.2-14.3-19.2-16.8c-2.7-0.6-5.6-0.6-8.4-0.9"/>
<path class="st0" d="M665.2,679.4c-11.3,4-15,14.9-8.4,23.9c2.4,3.3,5.8,5.1,9.3,5.6c4.5,0.6,9.6,1,13.7-0.5
	c8.1-2.9,9.8-8.4,5.5-16.1c-4.2-7.6-10.6-12.5-19.6-13"/>
<path class="st0" d="M227.7,167c-6.1,2-7.7,7.3-8.7,12.6c-2.8,15.5,1.7,29.2,11.2,41.5c9.7,12.6,25.8,13.4,38.1,4.1
	c4.5-3.3,5.8-12,2.9-18.4c-7-15.8-17-29-32.6-37.3c-3.3-1.8-6.7-3-10.5-2.5"/>
<path class="st0" d="M670.3,164.5c-4.9,1.4-9.9,2.4-14.6,4.3c-15.9,6.2-24.5,18.8-28.4,34.8c-3.8,15.4-9,30-18,43.2
	c-7.6,11.2-7.6,23.3-1.3,35.1c4.7,8.8,10.4,17,15.4,25.6c3.4,5.8,6.5,11.7,8.1,18.4c1.9,8.1,0.8,16.1-1,23.9
	c-3.3,14-7.3,27.7-11.2,41.5c-3.8,13.4-12.8,21.2-26.4,23.9c-6.8,1.3-13.6,2.6-20.5,3.3c-13.3,1.3-24.1,6.8-31.8,17.7
	c-7.3,10.2-14.5,20.5-21.3,31.1c-3.4,5.2-4.2,11.4-4.3,17.6c-0.1,16.6,0,33.3-0.1,49.9c0,4.3-0.9,8.7-0.7,13
	c0.2,5.3,0.9,10.6,1.6,15.9c1.5,11.7,9,18.7,18.8,23.9c11.8,6.3,24.7,9.6,37.3,13.8c7.6,2.5,15.4,3.9,23.5,3.4
	c6.1-0.4,11.6-2.6,15.4-7.2c5-6,3.9-11.7-0.8-17.1c-3-3.4-6.3-6.6-9.2-10.1c-6.1-7.2-8.9-16-8.6-25.1c0.3-11.3,4.6-21.3,12.3-29.8
	c7.8-8.6,17.5-14.5,27.4-19.9c16.3-8.9,29.4-21.2,40.5-35.8c8.7-11.5,17-23.2,25.6-34.7c2.4-3.2,5-6.5,8-9.2
	c12.2-11.1,21.5-24.5,31-37.7c10.1-14,20.4-28,32.6-40.3c7.5-7.6,16.6-9.7,26.4-7.4c14.3,3.4,28.2,8.2,42.4,11.9
	c6.3,1.7,12.8,3.3,19.3,3.2c12.1-0.1,23.4-8.6,26.4-20.4c1.6-6.3-0.1-12.1-4.6-16.7c-4.9-5.1-10.2-9.9-15.5-14.7
	c-8.4-7.7-14.4-17.3-18.3-27.8c-5.3-14.3-14.7-23.4-29.5-26.2c-13.6-2.6-22.6-11-30.6-21.5c-5.6-7.3-11.5-14.4-17.6-21.4
	c-8.2-9.4-18.6-15-31-17.3c-16.9-3-33-8.6-49.5-13.3c-5.3-1.5-11.1-1.3-16.7-1.8"/>
<path class="st0" d="M1400.3,692.8c-13.9,4.7-21.2,14.8-23.5,28.9c-0.9,5.7,3.2,11.7,9.2,12c7.7,0.4,15.4,0.7,22.7-3.5
	c6.7-3.9,10.2-9.5,10.3-16.9c0.1-7.6-2.1-14.7-9.2-18.7c-2.6-1.5-6.1-1.3-9.1-1.8"/>
<path class="st0" d="M978.7,161.1c-5.7,1.3-11.6,2.1-17.2,3.9c-10.3,3.1-15.9,10.6-16,22.1c-0.1,9.1-0.6,18.2-0.8,27.3
	c-0.3,13.1-1.2,26.3-0.7,39.4c0.4,10.4,2,20.8,6.4,30.7c5.3,12,15,18,26.9,20.8c10.9,2.6,22,5.2,33.1,6.7c15.7,2.1,30.7-0.5,43-11.3
	c4.5-3.9,8.5-8.9,11.3-14.2c6.5-12.4,15.6-21.9,27.4-29.3c9.6-6.1,18.9-12.6,28.1-19.3c7.8-5.6,13.3-13,12.9-23
	c-0.4-11.3-4.6-21.2-14.6-27.7c-10.3-6.7-20.7-13.1-31-19.7c-5.9-3.7-12.5-5-19.3-5.5c-3.6-0.2-7.3-0.8-10.9-0.8
	c-9.2,0.1-18.4,0.8-27.7,0.7c-16.9-0.1-33.8-0.5-50.7-0.8"/>
<path class="st0" d="M872.2,698.7c-4.9,1.3-9.9,2.2-14.6,3.8c-8.7,3.1-12.9,10-14.2,18.8c-1.5,10.2-0.7,20.3,1.7,30.2
	c3.3,13.5,11.7,22.6,25.1,26.9c9.7,3.1,19.3,6.3,28.9,9.7c7.9,2.8,14.4,8.1,20,13.9c8.1,8.5,15.6,17.6,25.7,23.7
	c8,4.9,8.4,12.1,7.1,20.2c-1.3,7.7-2.7,15.4-3.7,23.1c-0.3,2.6,0.4,5.3,0.7,8c0.7,5.7,4.3,6.9,9.6,4.8c4-1.6,7.3-5.1,11-7.7
	c4-2.8,7.8-6.2,12.2-8.2c5-2.3,10.4-0.8,15.4,1.1c3.4,1.3,6.6,2.8,10.1,3.7c6.6,1.8,11.1,0.6,13.4-3.7c2.6-4.9,1.8-9.1-2.5-14.6
	c-4.4-5.8-11.2-7.6-17.6-10c-8.7-3.3-16.5-7.9-23.1-14.7c-2.7-2.8-3.4-6.1-1.9-9.2c2.1-4.7,4.7-9.1,7.5-13.4
	c5.3-8.3,10.4-16.7,13-26.4c4.7-17.9,0.5-36.4-14.7-46.1c-5.7-3.6-12.2-5.2-18.8-5.8c-17.6-1.7-34.5-5.5-49-16.4
	c-7.2-5.4-14.8-10-23.9-10.8c-5.5-0.5-11.2-0.4-16.8-0.5"/>
<path class="st0" d="M1567.9,157.8c-9.6,3.3-14.3,11.4-19.3,19.3c-1.4,2.2-2.6,4.6-4.2,6.7c-4.9,6.5-11.7,8-19.2,6.3
	c-9.5-2.1-18.9-4.8-28.5-6.6c-7.7-1.5-15.6-2.1-23.5-3c-7.1-0.9-14.2-1.7-21.4-2.5c-3.6-0.4-7.3-0.7-10.9-0.8
	c-8.7-0.4-17.4-1.4-26-0.7c-13.3,1.1-23.1,8.3-29.8,19.9c-4.1,7.2-6,15-6.2,23.1c-0.3,12.2,4,22.6,13.7,30.7
	c8.6,7.2,17.4,14.1,28.6,16c6.3,1.1,13.3,0.7,19.6-0.8c13-3.1,26.1-4,39.4-3.6c6.2,0.2,12.3,0.6,18.4,0.8c10.2,0.4,19.4-3,26.7-9.8
	c7.6-7,14.2-15.1,21.5-22.5c3.8-3.8,8-7.6,12.6-10.4c12.1-7.4,17.9-18.5,19.5-32c0.8-6.2,0.8-12.6,0.9-18.9
	c0-7.4-4.2-11.3-11.7-11.3"/>
<path class="st0" d="M671.1,156.1c-5.6,1.5-11.4,2.5-16.7,4.7c-16.7,6.8-27.7,18.5-32.5,36.3c-3,11.1-4.8,22.7-11.2,32.7
	c-3.5,5.5-7.4,10.8-10.8,16.4c-3.6,5.9-7.2,12.1-6.2,19.2c0.8,5.4,2.2,11,4.6,15.9c4.6,9.1,10,17.8,15.4,26.5
	c5.1,8.1,9.7,16.5,10.6,26.1c0.6,6.4-0.2,13.3-1.6,19.6c-2.5,10.9-5.8,21.6-9.1,32.3c-4.8,15.5-16.8,21.9-31.8,24.3
	c-9.2,1.5-18.6,2.6-27.6,4.7c-8.4,2-14.7,7.9-20.6,14.1c-5.6,6-11.3,11.9-16.7,18c-6.5,7.2-13.2,14.4-15.5,24.3
	c-1.1,5-2.2,10-2.5,15.1c-0.6,12.1,1,24.1,2.3,36.1c1.3,12.8,1.2,25.7,1.9,38.6c0.5,8.5,1.4,16.8,7,23.9c4.6,5.8,10.9,8.7,17.3,11.6
	c4.7,2.2,9.7,3.7,14.6,5.5c13.6,5,27,10.3,40.7,15c16.8,5.8,32,1.2,42.6-12.2c9.4-11.9,10.3-31.1-5.2-41.9c-3.5-2.4-6.8-5.4-9.2-8.8
	c-4.9-7-3.8-14.6,0-21.7c2.9-5.4,7.4-9.7,12.5-13c11.2-7.1,22.7-13.9,35.6-17.6c6.4-1.8,13.1-2.6,19.7-3.9c9.4-1.9,18.7-3.6,26-10.8
	c5.5-5.5,5.7-11.1,2.4-18.1c-0.5-1.1-1.3-2-2.1-2.9c-6.5-8.1-5.9-16.9-2.5-26c3.1-8.6,8.3-15.9,13.8-23.1
	c9.4-12.2,18.3-24.7,27.8-36.8c8.4-10.7,17.5-20.7,28.4-29c10.2-7.7,21.6-8.6,33.6-7c13.3,1.8,25.7,7.3,38.6,10.8
	c15.2,4,29.1,0.5,41.5-9.1c7.9-6.2,13.7-13.9,15.9-23.9c2.9-12.8-1.6-20.3-10.9-25.6c-5.7-3.3-11.6-6.5-16.7-10.6
	c-8.6-6.8-13.2-16-13.5-27.1c-0.2-6.7-0.3-13.4-0.9-20.1c-0.4-4.2-2.7-7.5-6.2-10.1c-6.6-5-14.6-6.5-22.3-8.7
	c-8.6-2.5-17.6-4.4-24.6-10.2c-4.7-3.9-9-8.5-12.5-13.4c-5.4-7.4-9.7-15.6-18.1-20.6c-6.3-3.7-13-6.1-20.2-6.9
	c-8.3-1-16.8-0.9-25.1-1.9c-7.6-0.9-15.2-2.4-22.6-4.2c-6.9-1.7-13.6-4.6-20.6-6c-5.3-1-10.9-0.5-16.3-0.6"/>
<path class="st0" d="M1194.1,152.7c-14.3,3.9-22.7,13.5-25.9,27.7c-1.3,5.6-1.8,11.4-2.1,17.2c-0.5,11.2-0.2,22.4-1,33.5
	c-0.6,8.9-3.5,17.4-7.4,25.6c-3.2,6.8-6.8,13.5-6.8,21.4c0,4.4,1.4,8.4,4.2,11.7c7.7,9,17.7,14.3,28.9,17.6c5,1.5,10.2,0.9,14.6-2.1
	c11-7.3,17.7-17.4,19.2-30.6c0.9-7.9,0.9-16,1.8-23.9c0.8-6.6,2.1-13.2,3.7-19.7c1.8-7.2,4.2-14.3,6.2-21.4c2.3-8.3,0.2-16.3-3-23.9
	c-4.2-10.1-9.9-19.3-17.5-27.3c-4-4.3-8.8-6.3-14.7-5.9"/>
<path class="st0" d="M1076.8,148.6c-3.4,0.6-6.7,1.3-10.1,1.6c-7.8,0.7-15.6,1.3-23.5,1.7c-7.3,0.4-14.5,0.8-21.8,0.8
	c-12.8-0.1-25.7-0.9-38.6-0.7c-12.2,0.2-24.3,1.9-36.1,5.7c-10.6,3.5-17,10.6-18.7,21.4c-1.3,8.3-1.5,16.8-2.7,25.1
	c-1.5,11,1.7,21.3,3.7,31.9c1.5,7.6,2.2,15.3,3,23c1.4,13.3,2.6,26.5,7.9,39c4.2,9.9,11.9,14,21.9,15.5c12.5,2,24.9,4.3,37.3,6.7
	c5.8,1.1,11.5,2.8,17.2,4.1c10.1,2.4,19.9,0.5,29.3-3c13.8-5.2,25-13.9,31.8-27.2c6.4-12.3,16.3-21.3,26.8-29.8
	c8.5-6.9,17-14,25.1-21.4c8.3-7.5,12.7-17.3,12.1-28.4c-0.7-12.6-3.1-25.1-11.7-35.2c-2.3-2.7-5.2-4.9-7.9-7.2
	c-6.8-5.6-13.8-11.1-20.5-16.8c-5.6-4.8-12-7.2-19.3-7.1c-1.7,0-3.4,0-5,0"/>
<path class="st0" d="M873.9,708.8c-3.1,0.7-6.3,1-9.2,2.2c-9,3.7-13,11.4-13.7,20.5c-0.9,11.2,0.5,22,8.3,31
	c4.9,5.6,11.4,8.8,18.4,10.9c6.7,2,13.4,3.8,20.1,5.9c10.3,3.2,20,7.9,28.5,14.6c2.4,1.9,5,3.5,7.5,5c6.7,4.1,13.9,4.1,20.9,1.6
	c13.2-4.8,23.7-12.8,27.7-27.2c3.1-11.4-1.7-22.6-11.2-28.2c-6.2-3.7-13.1-4.9-19.8-6c-13.4-2.1-24.8-8.5-36-15.3
	c-4.5-2.7-8.9-5.7-13.4-8.4c-8.5-5-17.7-7.4-27.6-6.7"/>
<path class="st0" d="M117.9,120c-4.6,1.5-9.4,2.7-13.8,4.7c-8.2,3.8-12.7,10.9-13.3,19.6c-0.6,7.8,2.7,14.6,9.5,18.8
	c9.3,5.6,19.1,6.7,29.3,1.8c5.5-2.6,8.5-6.7,10.5-12.2c2.6-7.2,3.6-14.4,0.8-21.8c-2.8-7.6-7.2-10.9-15.1-10.9c-2.5,0-5,0-7.5,0"/>
<path class="st0" d="M231.9,116.7c-5.7,2.1-9.3,6.5-12.6,11.3c-7,10-12.4,20.7-15.9,32.3c-3.8,13-2.4,26,0.8,39
	c3.6,14.6,11.4,26.8,22.4,36.8c6.7,6.1,15.1,8.1,24.6,6.6c9.2-1.4,17.9-3.4,26-8.1c1.5-0.9,3.3-1.4,4.6-2.6
	c9.2-8.2,9.9-13.7,2.8-25.5c-8.7-14.6-18-28.8-27.7-42.8c-5.9-8.6-9.5-17.8-12.1-27.8c-1.1-4.4-2.6-8.7-4.2-13
	c-1.4-3.7-3.6-6.8-8.3-6.3"/>
<path class="st0" d="M259.6,718.8c-17.9,7.8-31,20.3-36.4,39.4c-3.6,13-6.4,26.2-9.3,39.4c-0.8,3.5-0.8,7.2-0.9,10.9
	c-0.1,5.5,0,10.9-0.1,16.4c-0.1,4.3,1.3,8,5.1,10c3.5,1.8,6.9-0.2,10-2c8.2-4.9,13.2-12.8,17.9-20.6c6-9.9,12.9-19,20.7-27.5
	c8.4-9.2,15.9-19.1,20.9-30.7c5.5-12.8,2.3-24.4-10.4-31.6c-5.6-3.2-11.2-3.9-17.3-3.6"/>
<path class="st0" d="M521.9,113.3c-7.2,1.5-13.1,5.3-17.6,10.9c-6.7,8.4-7.4,15.9,0.8,23.5c9,8.3,17.6,17,26.4,25.5
	c5.5,5.3,11.7,9.4,19.3,10.8c5.2,1,10.4,1.3,15.5-1.1c5.2-2.5,7.8-6.4,8-12.2c0.3-8.7-2.2-16.8-3.9-25.2c-1-4.9-2.2-9.8-3.3-14.7
	c-0.7-2.7-2.2-4.6-5-5.5c-11.5-3.8-22.9-7.8-34.4-11.6c-1.7-0.6-3.6-0.3-5.4-0.5"/>
<path class="st0" d="M458.2,90.7c-7.7,2.1-15.5,4.4-22.2,8.9c-8.8,5.9-14,14.7-17.6,24.3c-2.6,7.1-4.6,14.5-6.8,21.8
	c-1.4,4.7-3.7,8.6-7.5,11.8c-4.1,3.5-7.5,7.8-6.6,13.7c0.3,1.8,1.8,3.7,3.4,4.9c0.5,0.4,3.2-0.9,3.9-2c1.6-2.3,3-4.8,3.8-7.5
	c2.3-7.9,7-13.4,14.7-16.9c9.1-4.1,18.2-8.2,26-14.6c10.6-8.6,18.4-19.1,21.3-32.7c0.4-1.9,0.6-3.9,0.4-5.9
	c-0.3-3.7-2.9-5.8-6.7-5.9c-2,0-3.9,0-5.9,0"/>
<path class="st0" d="M876.4,720.5c-2.9,1.3-6.2,2-8.7,3.9c-9.8,7.1-8.2,23.2-1.3,31.4c5.8,7,13.9,10.3,22.3,12.5
	c13.3,3.5,26.8,5.5,40.6,5.1c1.4,0,2.9,0,4.2-0.4c4.2-1.3,5.7-4,3.7-7.9c-2.8-5.2-5.8-10.6-9.7-15c-8.9-10.2-19.1-19.1-31.3-25.3
	c-6.1-3-12.4-4.7-19.3-4.2"/>
<path class="st0" d="M1292.2,721.3c-6.4,1.6-8.1,6.7-9.2,12.2c-1.7,8.9-1.5,17.8,2.6,25.9c3.9,7.7,7.8,9.5,15.8,8.9
	c5.3-0.4,10.9-5.2,12.5-11.3c3.9-14.5-0.8-27.6-13.8-33.9c-2.3-1.1-5-1.2-7.5-1.8"/>
<path class="st0" d="M1453.9,84c-4.6,0.8-9.3,1.5-13.8,2.6c-4.8,1.1-9.4,3-13,6.7c-3.9,3.9-4.5,7.1-2.1,12.6
	c2.8,6.4,8.2,10.1,14.3,12.5c11.2,4.3,22.9,5.6,34.7,3.4c6.2-1.2,11.1-5.2,12.2-12.9c2-14.6-7.2-22.9-19.3-23.9
	c-4.2-0.3-8.4-0.6-12.6-0.8"/>
<path class="st0" d="M883.1,736.4c-7.9,3.2-7.7,8.5-2.9,13.8c5.1,5.7,11.8,6.9,18.9,6.2c4.3-0.4,6.2-5.1,3.7-9.1
	c-4.3-7.2-10.8-10.9-19.2-10.9"/>
<path class="st0" d="M62.6,737.3c-3.4,1.4-7.2,2.1-9.9,4.3c-6.4,5.2-9,14.5-4.2,23.3c4.9,8.8,12.3,15.2,22.5,17.2
	c9.9,1.9,16.2,0.3,21.6-9.6c3.3-5.9,4.7-12.5,3.2-19.7c-1.3-6.5-5.2-9.9-10.7-12.1c-7.1-2.8-14.5-3.9-22.2-3.4"/>
<path class="st0" d="M259.6,742.3c-13,4-21.1,13.2-25.4,25.6c-2.7,8-4.1,16.4-6,24.7c-0.2,0.9-0.3,2.1,0,2.9c1,2.4,1.6,5.6,3.5,6.8
	c1.1,0.7,4.8-1.1,6.4-2.7c9.6-9.8,19.3-19.4,26.9-30.9c3.1-4.7,5.1-9.9,5.4-15.5c0.4-6.9-2.8-11.1-10.4-10.9"/>
<path class="st0" d="M527.8,746.5c-6.5,1.4-11.9,4.9-15.9,10.1c-6.1,8.1-5.6,15.5,5,19.2c8.5,3,17.1,3.3,26,1.7
	c6.1-1.1,10.7-4.3,12-10.1c1.5-6.6-1.3-12.1-6.9-16.4c-6-4.6-12.8-4.7-19.8-4.5"/>
<path class="st0" d="M625,759.1c-7,1.9-10.9,6.6-13,13.4c-2.7,8.8-2.9,17.5-1.3,26.5c1.8,9.8,7.6,16.3,16,20.9
	c10.8,5.9,21.7,11.7,33.9,14.2c8.6,1.8,16.6-0.1,18.5-12.1c1.9-11.6-1.7-21.7-9-30.1c-7.2-8.2-15.7-15.3-23.7-22.8
	c-2.2-2.1-4.7-3.9-7.1-5.9c-4-3.3-8.6-4.7-13.8-4.2"/>
<path class="st0" d="M1352.5,75.6c-10.7,2-15.9,10.1-20.9,18.5c-2.5,4.3-4.8,8.8-6.7,13.4c-3.8,9.5-0.1,13.4,9.6,12.4
	c14.5-1.5,24.8-9.3,28.8-23.8c1.1-3.8,0.8-8.1,0.5-12.1c-0.4-4.9-4.9-9-10.8-8.4"/>
<path class="st0" d="M155.6,74.8c-5.3,1.9-9.1,4.8-8.9,11.3c0.3,9.7,7.9,14.8,16.8,10.9c4.4-2,8.1-5,9.2-10
	c1.3-6-4.9-11.5-11.3-12.1c-1.8-0.2-3.6,0-5.4,0"/>
<path class="st0" d="M632.5,784.2c-5.4,2.5-7.1,7.6-4.1,13.8c4.9,10.3,13.5,16.2,24.3,18.8c3.3,0.8,7,0.2,9.1-2.9
	c2.3-3.4,1.6-7.1-0.4-10.4c-3.8-6.4-9.6-10.9-15.9-14.7c-3.9-2.3-7.7-5-12.6-4.6"/>
<path class="st0" d="M151.5,60.5c-2.5,0.6-5,1.2-7.5,1.7c-9.5,1.9-15.5,7.6-18.4,16.8c-2.3,7.4-4.7,15-11.4,19.6
	c-5,3.4-10.8,5.6-16.3,8.1c-6.4,2.9-12.8,5.8-17.6,11.3c-6.6,7.7-9.1,16.4-7.2,26.4c1.9,9.9,4.9,19.2,13,26
	c4.5,3.7,9.9,5.6,15.5,6.7c4.4,0.8,8.9,1.6,13.4,1.6c6.8,0,13.8-0.4,20.1-3.3c7.6-3.5,12.6-9.7,15.5-17.5c2.6-6.8,5.2-13.6,7.5-20.6
	c3.6-11.1,10.4-20,18-28.6c3.9-4.5,7.1-9.7,10.5-14.6c3.1-4.4,3.2-9.5,2.9-14.7c-0.3-5.4-4-8.7-7.9-11.8c-5.1-4-11-5.6-17.2-6.2
	c-4.2-0.4-8.4-0.6-12.6-0.9"/>
<path class="st0" d="M496.3,58.4c-8.9,0.8-16.6,4.8-23.9,9.7c-10.5,7.2-21.6,13.4-33.2,18.8c-12.1,5.6-20.2,15-26.5,26.4
	c-4.8,8.8-10.1,17.5-15.5,26c-2.7,4.2-6.3,7.9-9.6,11.8c-9.7,11.3-10.6,24-6.4,37.8c1.8,5.9,4,11.6,8.1,16.3
	c5.9,6.8,14.2,8.5,22.6,8.8c9.7,0.3,16.9,3.8,20.1,13.5c1.1,3.4,2.4,6.8,3.8,10.1c5.1,12.4,10.7,24.6,19.7,34.8
	c10.8,12.2,23,22.4,38.5,28.1c5.1,1.9,10.3,2,15.5,1.5c5.7-0.6,8.8-3.9,9.2-12.5c0.6-13.8,3.5-26.7,13-37.3
	c3.1-3.5,6.1-7.1,8.8-10.9c3.3-4.7,6.6-9.4,7.7-15.5c1-5.3-0.4-9.9-4-13.3c-4.3-4.2-9.1-8.1-14.2-11.3c-6.8-4.3-14.2-7.9-21.3-11.8
	c-9.8-5.4-19.5-4.1-28.9,0.9c-8.4,4.5-16.9,8.3-26,10.8c-3.2,0.9-6.7,1-10,1.3c-10,1-12-6.1-13-13c-2.1-15.8,4.9-27.8,16.8-36.8
	c14.3-10.8,24.6-24.6,33-40c6.7-12.3,12.9-24.8,19.3-37.3c1.1-2.2,2.1-4.4,2.9-6.7c2.3-6.7,0.7-9.1-6.3-10.1"/>
<path class="st0" d="M425.5,803.5c-10.5,2.1-16.4,9-19.2,18.9c-0.8,2.7-0.1,5.2,2.9,6.7c8.7,4.5,26.2,2.3,32.3-8
	c4.5-7.7,2.5-13.8-5.9-16.3c-3.1-0.9-6.4-0.9-9.6-1.3"/>
<path class="st0" d="M306.5,809.4c-6.3,1.3-12.3,3.2-16.8,8.3c-5.3,6-7.3,12.7-6.3,20.6c2.3,18.6,12.3,31.4,28.6,39.8
	c9.2,4.8,18.7,8.6,28.9,11c13.9,3.3,21.2-2.6,24.7-15.1c4.4-15.7,0-29.5-9.7-41.9c-10-12.8-23.8-18.9-39.4-21.8
	c-3.2-0.6-6.4-0.6-9.6-0.9"/>
<path class="st0" d="M148.9,52.1c-3.4,0.6-6.7,1.3-10.1,1.6c-13.1,1.4-22.8,8.1-28.4,19.8c-4.8,10.3-12.9,15.9-23.2,19.3
	c-9.3,3.1-18.7,5.7-26.9,11.7c-10,7.3-11.7,15.3-9.4,25.2c2.3,9.6,6.2,18.8,9.4,28.1c1.5,4.3,2.9,8.8,4.6,13
	c4.7,11.3,13.8,16.1,25.5,16.3c11.7,0.2,23.5,0.1,35.2,0c15.2-0.1,26-8,32.2-23.9c7.9-20.4,17.6-39.7,31-57.1
	c5.5-7.1,9.4-14.9,11.5-23.8c2.5-10.6-2.5-18.2-9.8-22.3c-8-4.6-16.5-6.7-25.6-7.1c-5.3-0.2-10.6-0.6-15.9-0.8"/>
<path class="st0" d="M1370.9,47.9c-11.4,3-22.2,7.6-32.8,12.9c-6.6,3.2-12,7.8-15.7,13.7c-6.7,10.7-15,19.9-23.2,29.3
	c-8,9.1-12.6,19.7-13.4,31.9c-0.5,6.7-1.2,13.5-0.7,20.1c0.5,8.3,0.5,16.9,4.1,24.7c5.9,13,15.4,10.6,22.2,4.1
	c5.9-5.7,9.5-12.9,12.2-20.5c1.2-3.4,2.2-6.9,3.8-10c3.5-6.8,7.7-12.9,14.6-16.9c5.5-3.2,10.8-7,15.9-10.9
	c11.9-8.9,19-21.3,24.2-34.8c2.2-5.8,3.8-12.2,4.1-18.4c0.3-6.3-0.5-13-3.6-18.8c-2.3-4.4-6.1-6.7-11.3-6.3"/>
<path class="st0" d="M855.5,830.4c-6.2,1.1-10.8,4.3-12.5,10.5c-2.4,8.5,3.3,27.3,15.5,28.4c2.1,0.2,4.3-0.2,6.3-0.8
	c7.8-2.2,12.2-8.1,13.7-15.5c1.4-6.9,0-13.7-6.1-18.4c-4.8-3.6-10.4-4.7-16.3-4.2"/>
<path class="st0" d="M319.1,832.9c-1,0.3-1.9,0.7-2.9,0.8c-10.6,1.2-12.4,9.1-10.4,16.8c3.5,13.7,18.1,21.2,30.9,19.3
	c4.5-0.7,7.8-4.9,8-9.6c0.3-13.4-9.5-24.7-23-26.4c-0.7-0.1-1.4-0.5-2.1-0.8"/>
<path class="st0" d="M143.1,45.4c-3.8,0.6-7.5,1.4-11.3,1.6c-14.2,1-25.4,7.7-33.8,18.6c-6.6,8.6-15.5,12.9-25.3,15.8
	c-11.8,3.5-23.6,6.7-34.4,13c-5.3,3.1-10.3,6.2-13.4,11.8c-3.9,7.1-1.5,13.7,1.7,20.1c4.5,9.1,9.3,18.1,13.8,27.3
	c5.1,10.4,5.5,21.4,4.8,32.7c-0.4,6-0.3,12.6,4.6,17.1c4.6,4.2,10.2,5.8,16.7,3.9c9-2.5,18.2-4.4,27.2-6.8c11.5-3.2,23.3-4,35.2-4.2
	c5.3-0.1,10.8-0.6,15.9-2.2c9.7-3,14.6-11.1,18.1-20c5.3-13.5,10.1-27.1,17.2-39.8c3-5.4,6.4-10.6,9.6-16
	c6.2-10.3,12.9-20.4,18.2-31.1c3.4-6.7,5.5-14.3,6.7-21.7c1-6.3-2.2-10.6-8.5-13c-7.6-2.9-15.5-4.3-23.5-5.5c-13-2-26-1.5-39-1.6"/>
<path class="st0" d="M511,37.9c-13.6,2.9-26,8.4-37.3,16.4c-4.3,3-8.2,6.7-12.6,9.6c-9,5.9-17.8,12.2-27.3,17.1
	c-12.2,6.2-20.6,15.7-26.7,27.5c-6.7,13-15.3,24.5-25.1,35.2c-7.9,8.7-12.7,18.7-12.3,31c0.3,12.4,1.3,24.5,4.7,36.5
	c2.6,9.3,9,14.8,17.6,18c5.3,2,10.8,3.7,16.3,5c8.4,2.1,14.1,7.7,18.8,14.3c7.1,10,13.5,20.5,21.1,30.1
	c12.7,16.1,28.6,28.7,47.3,37.3c15.4,7.1,25,18.8,31.5,34c3.6,8.5,8.2,16.8,15.4,23.1c8.7,7.7,19.2,10.2,30.1,8.6
	c11.2-1.6,18.2-9.4,20.9-20.3c2.8-11.3,0.7-22.2-5-32.2c-9-15.8-21.3-28.2-37.6-36.6c-5.5-2.9-11.3-5.8-13.4-12.5
	c-2.4-7.7-0.3-14.8,4.3-20.9c7.1-9.6,14.8-18.8,22.1-28.2c2.6-3.4,5.4-6.8,7.5-10.5c4.4-7.7,1.3-11.8-5-14.6
	c-5.7-2.5-11.4-4.8-17.2-7.2c-11.7-4.9-22.1-12.1-31.8-20.1c-6.5-5.3-13.1-10.7-21.4-12.9c-5.9-1.6-11.8-2.5-18-1
	c-2.5,0.6-5.3-0.2-7.9-0.3c0.6-2.5,0.9-5.1,1.7-7.5c5.2-15,11.6-29.5,21-42.3c8.2-11.2,17-22,25.9-32.7c6.5-7.8,10.9-16.2,10.3-26.5
	c-0.3-5.8-1.5-11.9-7.1-14.9c-3-1.6-6.9-1.6-10.4-2.3"/>
<path class="st0" d="M984.6,34.5c-9,2.3-12.5,11.8-11.2,20.9c2.3,15.5,10.7,27.4,24.6,34.7c8.4,4.4,18.2,0.3,19.5-7.9
	c0.6-3.9,0.1-8.2-0.8-12.1c-2.9-12.7-8.6-23.9-19.3-31.8c-3.5-2.6-7.8-4.5-12.5-3.9"/>
<path class="st0" d="M1189.1,863.1c-2.6,0.8-2.7,2.7-1.6,4.6c0.9,1.5,2.4,2.6,3.7,3.8c0.7-1,2.2-2.3,2-2.9c-0.9-2-2.4-3.7-3.6-5.5"
	/>
<path class="st0" d="M830.3,32c-11.8,3-17.5,14.4-17.2,23.1c0.2,5.9,4.8,8.9,9.6,5.8c7.7-5.1,13.1-11.7,13.1-21.7
	c0-3.9-1.4-6.2-5.1-7.1"/>
<path class="st0" d="M282.2,25.3c-10.5,1.6-13.2,10-15.5,18.5c-2.3,8.5-4.1,17.1-6.4,25.6c-2.2,8.2-7.1,14-15,17.7
	c-11.6,5.4-20.4,14.3-27.7,24.7c-10.7,15.3-19.9,31.5-25.6,49.5c-3.4,10.8-3.3,22-2.1,33.1c1.7,15.2,9.9,27.5,19.3,39
	c4,4.9,8.4,9.5,13,13.8c7.4,7,16.9,7.5,25.9,6.1c13.1-1.9,25.9-5.5,38.2-10.7c6.4-2.7,12.9-5.4,17.6-10.9c4.2-4.8,5.1-9.4,2-15.1
	c-2.5-4.6-5.4-9-8.8-13c-9.4-10.9-15.8-23.7-23.4-35.7c-5.8-9.1-11.3-18.3-14.5-28.6c-2.8-8.7-4.9-17.7-4.1-26.8
	c0.6-8,0.9-16.9,8.4-22c4.6-3.1,10.5-4.4,15.8-6.5c7.7-3,15.5-5.5,23-8.9c7.5-3.4,12.8-9.2,15.5-17.1c3.7-10.5,1.6-18.1-7.6-24.2
	c-8.3-5.4-17.5-8.6-27.6-8.5"/>
<path class="st0" d="M523.6,21.1c-21.4,6.8-41.3,16.5-59.5,29.8c-8.3,6.1-16.3,12.5-24.8,18.3c-5,3.4-10.6,5.9-15.9,8.9
	c-9.3,5.3-15.7,13.4-20.5,22.7c-7.2,14.1-16.6,26.5-27.7,37.7c-8,8.1-13.5,17.6-13.8,29.3c-0.5,15.9-1.4,31.9-0.6,47.8
	c0.5,10.7,7.5,18.2,16.5,24c7.3,4.7,15.4,7.3,23.6,9.4c10.1,2.6,17.9,8.2,24.3,16.1c9.4,11.7,17.4,24.4,28.4,34.9
	c8.7,8.2,17.9,15.8,28.2,21.6c16.6,9.3,29.3,21.6,36.9,39.1c2.2,5,5.2,9.5,7.9,14.3c4.6,8.3,12.2,12.4,21,14.1
	c5.9,1.2,12,1.8,18,1.7c20.9-0.3,31.9-9.5,36.4-30.9c3.2-15.2-1.4-28.8-9.2-41.5c-8.4-13.6-18.9-25.6-30.1-37
	c-2.8-2.8-5.2-6.4-6.6-10c-2.2-5.7,0.4-11,3.2-15.9c5.9-10.3,14.7-18.2,23-26.4c4.9-4.9,8.6-10.5,10.4-17.2
	c0.9-3.5,1.8-7.3,1.6-10.9c-0.8-12.9,2.9-24.2,10.6-34.4c3.6-4.7,6.8-9.7,10.1-14.7c4.9-7.6,12.4-11.7,20.6-14.6
	c11.6-4.1,23.3-7.9,34.7-12.3c3.5-1.3,6.7-3.8,9.6-6.2c4-3.4,3.3-7.2-1.2-9.9c-9.4-5.6-19.7-7.2-30.6-6
	c-11.7,1.4-20.5,8.4-29.3,15.2c-8.7,6.7-18.1,9.3-29,7.1c-3.9-0.8-7.8-1.2-11.7-1.7c-4.4-0.5-6.8-3.1-8-7.1
	c-1.1-3.8-2.2-7.6-3.3-11.3c-2.2-7.3-7.3-12.8-12.2-18.4c-6.1-7-8.7-15.3-9.6-24.3c-0.9-8.9-0.9-18.1-2.7-26.8
	c-1.9-9-4.7-15.6-18.2-14.3"/>
<path class="st0" d="M1376,18.6c-5,1.5-9.9,3.6-13.4,7.6c-11.9,13.7-27.3,21.7-44,27.6c-5.6,2-11.1,4.4-16.8,5.8
	c-8.5,2-15.7-1-21.8-7c-5.2-5.1-10.4-10.3-16-15c-2.9-2.5-6.5-4.2-10-5.9c-6-2.9-11.7-0.8-16.7,2.5c-6.2,4-11.6,9.1-15.5,15.5
	c-4.9,7.9-5.3,15.5-0.1,22.2c3.5,4.5,8.3,6.4,13.5,7c6.6,0.8,13.4,0.5,20.1,1c4.2,0.3,8.4,0.8,12.6,1.7c7.9,1.6,11.1,6.7,9.6,15
	c-1.8,9.8-4.4,19.5-5.7,29.4c-0.8,6.2-0.4,12.6,0.4,18.8c1.1,9.7,3,19.3,4.5,28.9c1.2,7.5,2.6,15,6.3,21.8c2.4,4.4,5.5,7.8,10.5,9.2
	c7.1,1.9,12.8-1.1,18-5.1c7.4-5.6,12.5-13.1,16.9-21.3c3.9-7.3,8.1-14.4,12.6-21.4c5.4-8.3,14-13.4,21.3-19.7
	c6.8-6,13.6-12.1,20.6-18c2.8-2.4,5.7-4.7,8.8-6.7c4.7-3,9.7-2.3,14.2,0.4c8.6,5.4,17.1,11,26.9,14.2c10.2,3.4,20.8,5.1,31.4,6.3
	c6.3,0.7,12.6,1.5,18.9,1.6c14.4,0.2,19.9-9.2,21.1-20.5c0.8-6.8,0.6-13.3-1-19.7c-3.2-12.7-12-19.7-24.3-22.6
	c-11.8-2.8-23.7-1.8-35.6-0.1c-6.2,0.9-12.6,1.6-18.8,1.6c-12.4,0.1-18.1-6-18.4-18.4c-0.2-6.4,0.6-12.9,0.7-19.3
	c0.2-11.2-5.7-15-14.2-16.6c-5.2-1-10.6-0.7-15.9-1"/>
<path class="st0" d="M972.8,14.4c-9,2.1-14,9-17.4,16.4c-4.9,10.7-7.7,21.9-4,33.9c2.1,6.8,6.2,12.2,11,17.1
	c4.6,4.6,9.9,8.5,15,12.7c6.6,5.4,13.9,9.6,22.2,11.7c7.5,1.9,15,1.7,22.2-1.3c9.4-4,13.6-12.9,11.5-22.5
	c-4.8-22.4-14.9-42.3-32.1-57.8c-7.8-7.1-17-11.5-28-10.1"/>
<path class="st0" d="M1531,354.9c-4.5,3.3-3.6,7.8,2.1,10.5c2.7,1.3,5.3,1.4,7.1-1.3c1.4-2.2,0.3-4.4-1.2-6.2
	c-1.9-2.4-4.5-3.3-7.5-2.9"/>
<path class="st0" d="M980.4,347.3c-6,2.8-6.9,4.8-5,10.9c0.4,1.1,0.7,2.3,1.3,3.3c5.7,9.8,8.5,20.5,11,31.4
	c2.9,12.9,9.7,17.4,21.3,19.6c6.6,1.2,12.9-1.1,16.7-7c5.9-9.3,7.9-19.6,6.8-30.6c-1-9.4-6.9-14.3-15.1-17.2
	c-9.5-3.4-19-6.9-28.5-10c-2.4-0.8-5.3-0.4-7.9-0.5"/>
<path class="st0" d="M1100.2,338.9c-15.8,4.2-27.4,14.6-37.6,26.5c-6.4,7.5-8.7,17-9.8,26.7c-1.3,11.5-2.4,23-4.3,34.4
	c-2.4,14.1-10.3,17.5-22.5,19.7c-6.8,1.2-13.8,2.1-20.5,3.9c-6.6,1.7-8.1,4.2-8,10.8c0.3,12.8,3.1,25,10.5,35.6
	c8.4,12.2,25.1,13.5,36.9,4.3c6.4-5.1,11.6-11.4,15.7-18.2c7.2-11.7,17.7-16.6,30.7-18c4.7-0.5,9.4-1.5,13.8-3
	c7.4-2.4,10.8-8.9,12.9-15.5c3.7-11.8,9-22.7,14.7-33.6c4.7-8.9,6.4-18.5,5-28.9c-1-7.7-2.2-15.2-5.4-22.1
	c-5.1-10.9-12.4-19.7-25-22.2c-2.2-0.4-4.5-0.3-6.7-0.5"/>
<path class="st0" d="M1200,332.2c-8.3,2.5-10.6,9.8-12.4,16.8c-1.7,6.5-2.4,13.4-3,20.1c-1,10.5,4.2,18.1,13,23
	c11,6.1,22.3,7.2,33.5,0.1c7.7-4.9,8.9-11.9,6.6-19.2c-3.5-10.9-8.2-21.4-15.8-30.2c-5.6-6.4-12.1-11.3-21.3-10.5"/>
<path class="st0" d="M1521.8,331.4c-7,1.3-13.6,3.7-18.4,9.3c-2.1,2.4-3.9,5.2-5.5,8c-3.5,6.1-1.9,12.4,2.2,17
	c8.8,9.8,19.2,17.6,31.7,22.4c11.9,4.7,21.2-0.5,27.2-7.7c4.7-5.6,7.7-12.1,8.6-19.6c0.8-6.3-1.3-11.1-6-14.6
	c-9.5-7.2-19.9-12.6-31.8-14.7c-2.4-0.4-5-0.1-7.5-0.1"/>
<path class="st0" d="M1389.8,327.6c-5.6,1-9.8,4.4-14.2,7.5c-5.4,3.8-10.9,7.2-17.6,9c-6.3,1.6-12.3,0.4-18-1.2
	c-14-3.9-25.8,0-36.9,8.1c-5.9,4.3-11.4,8.8-15.9,14.7c-9.1,11.7-6,20.4,2.6,28.1c4.7,4.2,9.9,7.8,15.1,11.4
	c10.1,6.9,17.3,16.8,26,25.2c6.3,6.1,12.5,12.4,18.9,18.4c14.1,13.6,27.5,27.8,33.3,47c2.4,7.9,3.1,16.4,4.3,24.7
	c1.3,8.2,2.2,16.5,3.4,24.7c1,7.3,2,14.6,3.4,21.8c2.6,13.6,12.1,20.1,24.7,22.5c5,0.9,10.5,1,15.4,0c11-2.2,16.3-10.2,14.2-21.2
	c-1.4-7.5,0-14.6,2.7-21.4c3.9-10,9.2-19.5,11.2-30.2c3.2-16.4,8.3-32.3,13.2-48.3c5.7-18.4,0.8-34.8-15.7-48.6
	c-9-7.5-18.6-13.7-29.8-17c-5.2-1.6-10.8-2.2-16.3-2.6c-13.1-0.9-29-10.8-31.6-25.2c-1.2-6.7,0.6-12.3,3.1-18.1
	c3-6.7,6.4-13.3,9.1-20.2c1.9-4.7,0.3-7.7-4.1-9.2"/>
<path class="st0" d="M968.6,327.2c-4.9,1.8-10.2,3-14.6,5.6c-7.7,4.5-9.4,11.5-6.7,20.4c1.3,4.4,3.6,8.5,5.8,12.6
	c3.1,5.7,7.1,11,9.9,16.8c5.4,11.1,2.9,26.1-9.5,32.4c-7.4,3.8-14.6,8.4-18.2,17c-3.7,8.8-0.1,19.7,5.5,24.8
	c7.8,6.9,17.3,4.6,22.6-4.6c2.2-3.8,4-7.8,5.9-11.7c4.2-8.9,10.5-14.7,24.8-11.8c6.6,1.3,13.4,2.3,20.1,2.5
	c14.5,0.3,21.7-5,25.8-21.3c2.4-9.3,3.4-19,5.2-28.5c1.7-9.1,3.5-18.2,5.5-27.3c1.4-6.8-0.4-9.8-7.2-10.9
	c-8.8-1.4-17.7-2.4-26.4-4.4c-5.8-1.3-11.3-3.9-16.8-6.2c-10.1-4.1-20.5-6.2-31.4-5.4"/>
<path class="st0" d="M692,327.2c-5,1.1-7.6,4.8-10.1,8.8c-4.5,7.3-7.9,15.2-10,23.5c-0.5,2-0.6,4.2-0.4,6.3c0.2,3.3,3.1,5.7,6.2,5
	c11.7-2.5,21.1-8.4,25.9-19.7c4-9.7-0.2-20.3-7-23c-1.3-0.5-2.8-0.6-4.2-0.9"/>
<path class="st0" d="M543.7,313.8c-5.7,1.5-7.6,5.2-7.2,10.9c1.1,14.6,4.5,28.2,15.1,39c5.3,5.4,11.9,7.1,19.3,6.3
	c5.3-0.6,10.9-6.1,12.6-12.1c2.3-8.2,0.3-15.8-3.9-22.6c-6.5-10.3-15.3-18-27.5-21c-2.5-0.6-5.3-0.4-7.9-0.5"/>
<path class="st0" d="M150.6,307.9c-4,0.8-8.1,1.5-12.1,2.6c-4.4,1.1-8.1,3.4-10.9,7.1c-5,6.5-1.9,14.9,2.9,18.6
	c5.2,3.9,11.2,5.7,17.3,6c7.8,0.4,15.7,0,23.4-0.8c8.1-0.8,13.3-5.4,14.3-11.2c1.1-6.7-3-13.7-9.6-17.7c-7.8-4.7-16.2-4.6-24.8-4.6"
	/>
<path class="st0" d="M798.5,271.8c-3.1,1.1-6.4,1.8-9.2,3.4c-5.9,3.5-7.5,10.9-3.3,16.2c2.9,3.6,6.5,7,10.5,9.2
	c8.1,4.3,16.8,7.3,26.3,6.5c4.4-0.4,6.7-3.7,5.9-8c-1.9-9.3-6.8-16.7-13.9-22.5c-4.4-3.6-10.1-4.8-15.8-4.7"/>
<path class="st0" d="M160.7,297c-2.2,0.3-4.5,0.6-6.7,0.8c-10.2,0.8-20.5,1.4-29.7,6.4c-8.5,4.6-14,11.4-13.5,21.7
	c0.5,8.6,4.8,14.7,11.7,19.3c6.7,4.5,14.4,5.7,22.2,6.3c9.2,0.7,18.4,2,27.7,2.4c7.2,0.3,14.6,0.1,21.8-0.9c5.6-0.8,7.4-4.2,7.9-9.5
	c1.1-12.1-1.7-23.2-9.6-32.7c-6.3-7.6-14.1-12.6-24.3-13c-2.4-0.1-4.8-0.5-7.1-0.8"/>
<path class="st0" d="M690.4,292.8c-10.1,2-13.8,10.3-16.2,18.5c-5.1,17.9-11.7,35.2-18.9,52.4c-3,7.3-5.2,15.1-3.2,23.4
	c1.6,6.9,7,11.1,13.5,8.6c6-2.3,11.7-5.4,17.2-8.7c7.1-4.4,14.5-8.6,20.4-14.3c10.3-10.1,17.8-22.2,16.9-37.6
	c-0.5-8.6-3.7-16.5-8-23.9c-3.4-5.8-6.8-12-13-15.5c-2.5-1.4-5.5-2-8.3-3"/>
<path class="st0" d="M160.7,287.8c-5,0.8-10,1.7-15.1,2.5c-10.1,1.5-20.2,2.7-29.4,7.9c-10.6,6.1-17.3,14.7-16.9,27.3
	c0.2,4.8,1.7,10,4.2,14.2c6.4,11,16.4,17,29.2,18.6c12.3,1.5,24.7,2.8,36.9,5.1c14.7,2.8,24.8,11.1,29.1,26.2
	c2.6,9.3,6.1,18.6,10.5,27.2c9.8,19.2,25,31.7,47.2,34.5c6.8,0.9,13.6,1.8,20.1,3.9c4.4,1.4,8.8,4.2,12.1,7.5
	c11,10.8,17.9,24.1,21.9,38.9c4.7,17.3,9.1,34.7,13.9,52c1.5,5.4,4,10.4,7.9,14.7c7,7.9,16.5,8.1,24.7,2
	c10.5-7.8,16.7-18.6,18.8-31.4c1.3-7.8-2.2-14.9-6.2-21.3c-7.5-11.7-17.3-21.4-27.6-30.7c-10-8.9-20.8-17.5-25.8-30.3
	c-3.9-10-6.3-20.5-8.9-31c-2.4-9.7-4.5-19.5-6.3-29.3c-1.1-5.9-1.6-12-2.1-18c-0.7-8.9-1-17.9-1.8-26.8c-0.3-2.7-1.5-5.5-2.9-7.9
	c-2.1-3.6-6.6-4.6-10.8-2.5c-3.5,1.7-6.8,3.8-10.1,5.8c-9.9,6.1-20.9,8.4-32.3,7c-10.1-1.2-17.7-6.7-22.3-16.2
	c-4-8.3-7.6-17-12.7-24.6c-7.3-11-16.2-20.8-29.6-24.3c-4.8-1.2-10-0.7-15-1"/>
<path class="st0" d="M251.2,381.7c-8.1,2.9-11.5,7-11.3,13.8c0.2,7.4,6.1,16.6,12.6,18.8c8.2,2.9,17.3-0.3,19.2-11.7
	c0.9-5.1-0.3-10.2-3.3-14.7c-4.1-6.2-10.2-6.8-16.8-6.3"/>
</svg>
