<?xml version="1.0" encoding="utf-8"?>
<!-- Generator: Adobe Illustrator 24.3.0, SVG Export Plug-In . SVG Version: 6.00 Build 0)  -->
<svg version="1.1" id="Layer_1" xmlns="http://www.w3.org/2000/svg" xmlns:xlink="http://www.w3.org/1999/xlink" x="0px" y="0px"
	 viewBox="0 0 1600 900" style="enable-background:new 0 0 1600 900;" xml:space="preserve">
<style type="text/css">
	.st0{fill:none;stroke:#000000;stroke-width:2;stroke-linecap:round;stroke-linejoin:round;stroke-miterlimit:10;}
	.st1{fill:none;stroke:#757575;stroke-width:2;stroke-linecap:round;stroke-linejoin:round;stroke-miterlimit:10;}
</style>
<path class="st0" d="M1096.4,354.2c-11.6,3.6-21.8,9.3-29.1,19.2c-4.6,6.2-7,13.4-7.1,21.2c-0.1,6.9-0.4,13.9,0.1,20.8
	c0.6,7.1,0.9,14.3,4.4,20.9c3.1,6,8,8.1,14.3,8.7c13.9,1.5,21.6-6.4,27.6-17.5c3.9-7.4,8.5-14.4,12.4-21.7c6.8-12.8,8-26.1,1.2-39.1
	c-4.7-9.1-12.4-14-23.2-12.6"/>
<path class="st0" d="M394.4,361.7c-4.2,1.4-8.2,2.8-11.3,6.2c-3.1,3.5-3.3,8.5-0.4,12.1c2.8,3.5,7.8,4.5,11.6,2.1
	c5.2-3.3,8.7-7.5,8.9-14.1c0.1-4.6-1.7-6.8-6.3-6.3c-0.7,0.1-1.4,0-2.1,0"/>
<path class="st0" d="M908.8,361.7c-15.7,4.2-31.3,9-47.1,12.3c-13.5,2.8-27.2,1.3-40.4-3.1c-11-3.6-22.3-4.6-33.8-2.6
	c-7.4,1.3-13.8,4.7-19.5,9.3c-14.4,11.5-25,26.2-33.4,42.5c-5.2,10.1-4,19.4,3.7,27.9c2.5,2.8,5,5.6,7.1,8.8c5.2,8,5.4,16.2,0,24.1
	c-8,11.7-18.7,20.5-31.2,27.2c-9,4.9-17.9,10-26.2,15.9c-4.1,2.9-7.4,7.5-10,12c-5.7,9.9-10.9,20.1-15.9,30.4
	c-5.2,10.8-7.1,22.3-4.6,34.1c1.7,8.1,7.1,12.4,15.8,9.7c6.4-2,13.1-3.2,19.6-5.1c7.6-2.2,14.8,0.1,21.6,2.3
	c13.5,4.4,23.8,13.6,31.7,25.3c5.7,8.5,12.2,16.3,21.4,21.1c4.8,2.6,9.9,5,15.8,4.7c3.9-0.2,6.8-1.6,8.8-5c5-8.4,8.5-17.7,15.4-25
	c4.5-4.8,9.1-9.6,13.3-14.6c3.2-3.9,6-8.2,8.8-12.5c5.2-7.8,3-15.4-0.8-22.9c-3-5.8-6.6-11.4-8.6-17.6c-4.3-13.5-2.1-26.2,6.9-37.5
	c5.9-7.4,13.6-12.6,21.3-17.9c9.4-6.4,18.6-13.1,28.4-18.6c6.1-3.4,13.2-4.9,19.9-7.3c2.4-0.9,4.8-1.8,7.1-2.9
	c9.2-4.7,13.4-14.2,11.5-26.7c-1.4-9.1,0.3-18.4,3.6-27c3.2-8.3,8.6-15.3,14.1-22.1c3.3-4.1,6.2-8.5,6.3-14.2
	c0.1-9.6-9.4-22.4-18.8-24.5c-3.6-0.8-7.5-0.4-11.2-0.5"/>
<path class="st0" d="M259.3,363.4c-4.6,0.6-9.2,1.2-13.8,1.7c-5.4,0.6-10.9,0.9-16.2,1.7c-7.1,1.2-11.5,3.4-11.3,13.3
	c0.4,16.3,6.1,30.6,17.1,42.5c10.5,11.4,26.7,12.5,40.4,6.8c10.2-4.2,14.4-12.1,14.1-22.6c-0.3-11.7-1.6-23.3-6.6-34.2
	c-2.9-6.3-8.3-8.9-15-9.2c-2.8-0.1-5.6,0-8.3,0"/>
<path class="st0" d="M1094.7,370c-6,1.8-11.1,4.9-15.5,9.5c-8.5,9.1-7.1,26.2-0.3,34.6c3.1,3.8,8,4.8,12,2.1
	c8.9-6.1,16.1-13.9,19.5-24.2c2.8-8.3,0.7-16.8-5.8-20.2c-2.7-1.5-6.3-1.3-9.5-1.8"/>
<path class="st0" d="M171.8,274.2c-12.6,2.8-25.3,5.6-37.9,8.3c-16,3.5-31,8.7-40,23.8c-3.6,6-4.4,12.6-4.3,19.6
	c0.3,15.6,9,25.7,21,33.7c5.4,3.6,11.8,4.8,18.3,5.6c11.7,1.3,23.6,1.2,35,5c11.9,3.9,19.7,12.1,23.7,23.8c3,8.7,5.5,17.5,8.4,26.2
	c2.8,8.5,6.8,16.5,12.6,23.3c5.5,6.3,12.9,10.4,20.7,13.4c6.4,2.4,13,4.6,19.6,6.7c11,3.5,21,8.5,30,15.8
	c10.9,8.8,20.5,18.6,26.3,31.7c5.5,12.4,8.5,25.6,11.3,38.8c2,9.5,4,19,9.1,27.6c3.7,6.2,13,10.1,21,8.1c9.6-2.4,17.2-7.1,23.4-14.7
	c5.9-7.3,10.6-15.3,14.5-23.8c5.1-11.3,3.1-22.5-3-32.4c-10.8-17.4-22.5-34.4-34.1-51.3c-7.2-10.5-11.2-22.4-15.4-34.2
	c-3.1-8.7-6-17.5-10.1-25.8c-6.1-12.5-8.7-25.5-7.7-39.2c0.5-7.4,2.1-14.7,2.8-22.1c0.6-6.8-1.8-12.9-5.8-18.3
	c-1.6-2.1-3.7-3.8-5.8-5.4c-9.3-7.3-16.3-5.9-26.6,2.9c-4.5,3.8-8.6,8-13,12c-4.2,3.9-9.5,5.9-15,6.1c-5.9,0.2-11.4-2.2-15.3-6.6
	c-4.2-4.6-8-9.7-11.3-15c-9.9-16.1-23.2-28.8-38.6-39.4c-3.6-2.5-8.8-2.7-13.2-3.9"/>
<path class="st0" d="M887.9,380c-4.9,0.8-9.7,1.6-14.6,2.5c-7.6,1.4-15.3,3-22.9,4.1c-13,2-25.8,0.5-38.4-3.2
	c-9.8-2.9-19.6-4.1-29.6-0.2c-6.5,2.6-11.8,6.8-16.5,11.5c-6.3,6.4-11.8,13.6-15.6,22c-3.7,8.1-2.8,15.6,2.6,22.5
	c3.2,4.1,7,7.9,9.9,12.1c8.9,13,6.2,26.3-4.2,38.7c-10.3,12.4-24.5,19.4-38.7,26.3c-10.8,5.3-20.7,11.4-27.1,22.1
	c-5.6,9.4-8.6,19.5-8.7,30.4c-0.1,8.6,5.7,13.7,12.5,17.4c8.5,4.7,17.2,9,25.8,13.4c9.9,5,18.7,11.5,27.1,18.7
	c5.3,4.6,10.7,9.3,16.7,12.8c7.7,4.6,16.1,4.3,23.2-1.6c7.1-5.9,13.6-12.5,20.1-19.1c9.9-10.2,9.5-21.8,3.8-33.7
	c-4.9-10.2-7.7-20.8-6.6-32.1c0.8-8.4,4.5-15.5,9.5-22.1c5.5-7.3,13-12.3,20-18c9.3-7.5,18.4-15.2,27-23.4
	c5.9-5.7,11.9-11.1,19.3-14.4c10.9-4.9,15.1-13.9,17.5-24.7c2.4-10.8,5.6-21.4,8.2-32.1c1.2-4.8,2.2-9.7,2.5-14.6
	c0.4-7.8-4-13.1-11.6-14.5c-3.5-0.7-7.2-0.6-10.8-0.9"/>
<path class="st0" d="M1332.3,391.7c-6.2,2.2-7.3,4.9-5.5,11.3c2.9,10.1,8.8,18.4,15.9,25.8c10.1,10.5,21,20.2,29.6,32.1
	c9.1,12.5,14.7,26.4,17.1,41.7c2.1,13.2,4.6,26.4,7.1,39.6c1.1,5.9,2.5,11.8,4.2,17.5c1.4,4.7,4.4,8.7,9.5,9.5c6.4,1,9-0.8,11.6-9
	c2-6.4,3.5-12.9,6-19.1c1.7-4.4,4.3-8.6,7-12.5c6.6-9.3,10-19.9,11.9-30.9c2.1-11.4,5.7-22.4,9.2-33.4c2-6.4,3.1-12.9,2-20
	c-1.5-8.9-11.5-20-23.1-21.7c-6.3-0.9-12.1,0.5-17.9,2.2c-8.6,2.5-16.5,1.3-23.8-3.8c-6.8-4.8-13.6-9.7-20.4-14.6
	c-7.9-5.6-15.9-11-25.5-13.2c-4.7-1.1-9.7-1-14.6-1.4"/>
<path class="st0" d="M871.3,396.7c-5.4,1.1-10.9,2.1-16.2,3.4c-6.8,1.7-13.7,3.3-20.4,5.5c-7.9,2.6-15.6,2.5-23.4-0.1
	c-4.1-1.4-8.3-2.5-12.5-3.8c-12.9-3.9-27.5,9.5-25.3,22.9c0.6,3.5,2.6,6.9,4.5,10c3.7,6,6.6,12.3,6.9,19.2c0.2,4.8-0.3,9.9-1.7,14.5
	c-2.3,7.9-5.1,15.7-8.3,23.4c-5.3,12.6-15.7,19.8-27.8,25.1c-9,3.9-17.9,7.8-26.7,12.1c-12.6,6.2-19.2,16.8-19.5,30.8
	c-0.2,8.3,3.5,15.6,10,20.3c11,7.9,22.7,14.9,34.1,22.2c6.2,4,12.5,7.7,18.7,11.7c12.9,8.2,24.8,1.5,32.6-7.5
	c6.4-7.4,6.4-15.6,4.1-24.2c-2.1-7.7-5.2-15.2-6.5-23c-2.7-17,1.2-32.2,14.9-43.7c9.5-7.9,19.3-15.4,29.2-23
	c9.2-7,14.3-16.7,18.3-27.1c0.9-2.5,1.2-5.3,2.6-7.4c2.2-3.3,4.9-6.5,7.9-9.2c4.2-3.7,9.4-6.2,13.2-10.2c7.8-8.1,10.8-18.5,9.9-29.5
	c-0.6-6.8-3.5-10.4-11.1-11.7c-2.3-0.4-4.7-0.6-7.1-0.9"/>
<path class="st0" d="M100,398.4c-3.3,1.1-7,1.7-9.9,3.4c-11.3,6.6-11.9,23.1,0.7,30.5c7.8,4.5,15.9,6.7,24.7,6
	c2.7-0.2,5.9-1.5,7.8-3.3c6.2-5.8,11-12.7,13-21.1c1.1-4.6-0.1-7.2-4.1-10c-4.6-3.2-9.9-3.7-15-4.4c-5.5-0.8-11.1-0.7-16.7-0.9"/>
<path class="st0" d="M1006.3,260c-0.7,0.3-1.5,0.4-2.1,0.9c-3.2,2.2-4.4,4.7-2.9,7c1.7,2.6,4.3,3.6,7.5,2.5c0.3-0.1,0.6,0.1,0.8,0
	c3.8-1.3,5.8-3.6,5.4-6.2c-0.4-3-2.4-4.2-7.1-4.2c-0.4,0-0.8,0-1.3,0"/>
<path class="st0" d="M587.8,440.9c-5.3,1.3-10.5,3-13.3,8.3c-3.9,7.2-1.7,18.5,5.9,21c3.6,1.2,8.1,0.6,12-0.3
	c6.9-1.7,12.9-5,16.7-11.5c3.8-6.6,2.1-11.6-4.6-15.5c-5.3-3.1-10.9-1.6-16.3-2"/>
<path class="st0" d="M1188.9,440.9c-4.7,0.8-9.3,2.6-11.5,6.8c-2.8,5.2-4.6,11-6.3,16.6c-0.9,2.8,1.3,5.1,4.5,4.9
	c9.8-0.7,19.2-3,25.3-11.3c4.7-6.4,1.6-13.8-7.4-16.1c-1.4-0.4-2.8-0.6-4.2-0.8"/>
<path class="st0" d="M1422.4,444.2c-5,0.8-10,1.7-15,2.5c-3.7,0.6-7.6,0.7-11.2,1.8c-5.5,1.7-7.8,4.7-6.2,11.1c2.5,10,5,20.1,7.9,30
	c2.3,7.9,4.7,15.8,8,23.3c3.2,7.5,8.9,8.3,15.3,3.4c6.8-5.2,9.4-12.9,11.5-20.5c3.1-10.7,5.5-21.6,8-32.5c0.7-2.9,1-6.2,0.4-9.1
	c-1.6-6.9-6-9.9-12.4-10c-1.9-0.1-3.9,0-5.8,0"/>
<path class="st0" d="M479.8,233.7c-2.7,0.6-5.4,1.2-5.8,4.6c-0.4,3.1,0.1,6.2,3,7.8c1.4,0.8,3.8,1,5.3,0.4c3.1-1.2,4.3-4.2,4.2-7.4
	c-0.1-2.5-1.3-4.5-4.1-5c-0.7-0.1-1.4-0.3-2.1-0.4"/>
<path class="st0" d="M679.5,210c-4.4,1.4-9.1,2.4-13.3,4.3c-7.1,3.1-11,15.4-9.2,22.8c1.3,5.4,2.6,10.6,7.5,14.2
	c6.5,4.8,13.5,4.8,20.4,2c10.2-4.2,18.3-11,23.8-20.7c6.8-11.9-0.3-19.7-11.3-21.6c-5.7-1-11.7-0.7-17.5-1"/>
<path class="st0" d="M814.6,454.2c-10.2,2.5-14.6,10.7-18.3,19.2c-2.5,5.9-4.1,12.1-3.9,18.7c0.2,7.9,4.3,11.8,11.7,9.5
	c12.3-3.9,23.3-9.9,30.5-21.5c7.6-12.2-1.4-24.6-13.8-25.9c-1.9-0.2-3.9,0-5.8,0"/>
<path class="st0" d="M498.6,203.3c-6.1,1.4-12.4,2.3-18.3,4.3c-6.9,2.4-13.8,5-19.9,8.8c-8.5,5.3-11.9,12.9-8.6,24.4
	c5.2,18.3,17,31.5,34.8,38.8c9.1,3.7,15.2-0.1,17.9-7.5c4.9-13.3,13.1-24.2,22.4-34.7c6.6-7.4,7.5-17.9-1.5-24.9
	c-4.6-3.6-9.8-6.2-15.4-7.4c-3.6-0.8-7.2-1.2-10.8-1.7"/>
<path class="st0" d="M1439.9,201.6c-3.8,0.6-7.5,0.9-11.2,1.7c-10.1,2.1-16.5,9.7-15.8,17.9c0.6,7.6,5.5,13.6,13.8,16.2
	c8.5,2.7,17.2,1.1,25.8,0.5c1.4-0.1,2.8-0.3,4.2-0.4c7.6-0.6,15.3-0.9,22.9-1.8c3.9-0.5,7.8-2,10.4-5.3c3-3.8,3.3-9.7-1.2-15
	c-5.8-6.9-13.8-9.7-22.1-11.1c-8.6-1.5-17.5-1.8-26.2-2.6"/>
<path class="st0" d="M1038,198.3c-10.1,2.5-18.4,8.2-25.7,15.1c-10.2,9.6-21.3,18-32.6,26.2c-9.7,7-12.8,16.8-9.1,28.3
	c3,9.5,9.9,15.5,19.1,18.8c11.2,3.9,22.5,4.2,33.8,0c7.3-2.7,12.7-7.6,14.9-15c2.1-7.4,3.7-14.9,5-22.5c1.2-6.7,3.3-12.9,6.7-18.8
	c3.2-5.4,5.3-11,5.1-17.5c-0.2-9.1-5.6-14.6-14.6-14.6c-0.7,0-1.4,0-2.1,0"/>
<path class="st0" d="M451.1,464.2c-3.6,1-7.3,1.8-10.8,2.9c-9.6,3-17.1,9-23.4,16.6c-5.4,6.6-5.2,14.3-4.1,22.1
	c1.3,9.4,4.7,18.3,4.7,27.9c0,8.6-2.8,16-6.7,23.4c-4.3,8.2-8.7,16.4-12,25c-4.8,12.4-3,24.3,5.3,35c3.9,5,7.7,10.1,11.2,15.4
	c6.7,10,7.4,21.3,4.5,32.5c-3.4,13.1-2.7,25.9,0.5,38.8c1.2,5,2,10.1,3.5,15c0.7,2.3,2.4,4.5,4.1,6.2c2.5,2.5,6.4,2.4,9.1,0
	c2.5-2.2,4.9-4.5,7.1-7.1c6.1-7.4,14.6-9,23.4-9.5c8.3-0.5,16.7,0,25-1c10.1-1.2,20.1-3.3,30-5.3c7.3-1.5,14.5-3.5,21.7-5.4
	c9.6-2.4,17.2-8.1,23.2-15.5c4.2-5.2,7.7-11.1,10.9-17c5.6-10.4,2.3-19.6-5.4-27.4c-7.9-7.9-17.2-13.7-27.9-17.2
	c-13.4-4.4-26.9-8.5-39.7-14.8c-13.5-6.6-19.6-17.4-21.1-31.5c-1.4-12.9-2.3-25.8-3.4-38.8c-0.9-10.3-1.2-20.6-2.6-30.8
	c-1.3-9.1-3.3-18.2-5.8-27.1c-2.4-8.2-8.9-12.3-17.8-12.5c-1,0-1.9,0-2.9,0"/>
<path class="st0" d="M673.7,194.1c-3.5,0.8-7.1,1.3-10.4,2.6c-11.1,4.4-15.7,14.1-18.2,24.6c-2.4,10.3-3.1,21.1-4.3,31.6
	c-0.4,3.7,0,7.5-0.1,11.2c-0.3,8.1,4.5,14,8.8,20c5.1,7.2,8,14.9,8.8,23.8c1.5,15.3-3,29.2-8.4,43c-4,10.1-8,20.4-9.1,31.3
	c-0.8,8.1,0.1,16.1,3.6,23.8c3.8,8.2,10.7,11.1,19.6,5.7c5.1-3.1,9.4-7.2,14.2-10.7c7.9-5.8,16.3-10.9,23.7-17.2
	c14.6-12.5,24.5-28.2,28.8-47c2-8.7,0.6-17.5-0.4-26.2c-0.8-6.6-1.8-13.1-2.9-19.6c-1-5.6-1.9-11.2-3.4-16.7
	c-2.9-10.9-1.9-21.4,2.5-31.7c3.2-7.4,4.8-14.9,2.2-22.9c-3-9.5-9.7-15.2-18.4-18.7c-8.8-3.5-18-5.4-27.5-5.9
	c-2.9-0.2-5.8-0.5-8.8-0.8"/>
<path class="st0" d="M1029.7,468.4c-3.1,0.9-5.6,2.4-6.2,5.8c-0.6,3.5,1.5,7,4.6,7.5c3.1,0.5,7.3-2.7,7.9-6.3
	c0.8-4.3-0.8-6.2-5.8-7.1"/>
<path class="st0" d="M1292.3,471.8c-12.8,3-19.5,12.3-23.2,23.8c-3.2,9.9-5.6,20.2-8,30.4c-2.6,10.8-4.9,21.6-7.1,32.5
	c-1.5,7.5-2.9,15-3.7,22.5c-1.5,13.6-9,22.7-20.1,29.6c-4.6,2.9-9,5.9-13.3,9.2c-8.7,6.7-14.8,15.4-18.4,25.8
	c-1.1,3.1-2.3,6.2-3.8,9.2c-1.9,3.6-4.4,3.9-7.4,1.3c-5.4-4.7-10.1-10.2-12.8-16.7c-7-16.5-19.7-27.1-35.1-35
	c-8.3-4.2-16.6-8.5-25-12.5c-6.6-3.1-13.7-4.2-20.8-2.4c-9.5,2.4-15,9.8-15.8,19.9c-0.8,10.8,2.9,20.6,6.6,30.4
	c4.1,11,8.7,21.8,18,29.5c6.2,5.1,12.9,9.6,20,13.3c10,5.2,20.8,3.6,31.2,0.9c8.1-2.1,16-4.8,23.7-8c4.1-1.7,7.8-4.6,11.3-7.4
	c4.1-3.3,5.5-4,10-1.1c8.4,5.3,16.6,10.8,24.6,16.7c6.4,4.7,12.5,9.7,18.3,15c6,5.4,8.5,12.7,9.5,20.4c1.3,9.4,1.6,18.9,2.7,28.3
	c1.1,8.9,1.3,17.9,5.3,26.3c4.1,8.5,10.6,14.2,19.2,17.5c7,2.7,14.1,5.2,21.3,7.5c7.1,2.3,11,6.6,6.3,16.3
	c-3.9,8.1-9.1,14.7-16.7,19.6c-4.3,2.8-8.4,6-12.1,9.6c-6.9,6.6-8.7,23.1-3.9,31.7c3.6,6.4,9.2,6.4,13.8,3.6c4-2.4,7.8-5.2,11.3-8.3
	c7.7-6.8,16.6-10.3,26.7-11.7c8.5-1.2,16.5-3.5,21.8-11.5c6.2-9.4,5.1-25.6-2.6-34.2c-2.9-3.2-5.8-6.5-9.2-9.1
	c-6.5-5.2-7.1-11.4-5.1-18.9c2.4-8.8,3.6-17.9,4-27.1c0.5-10.4,1.6-20.9,3.3-31.2c2-11.7,8.1-21.6,15.3-30.9
	c7.4-9.7,15.6-18.5,25.4-25.9c6.5-4.8,13.8-7.8,21.7-7.7c12.2,0.2,21.9,5.5,28,16.9c5,9.2,7.3,19.2,10.7,28.8
	c3,8.7,7.4,16.5,13.9,22.8c5,4.9,10.8,8.9,16.2,13.4c4.7,3.9,9,8.2,13.8,12c15.4,12.5,32.8,9.5,44.6-6.2c7.8-10.4,11.7-22.4,13.7-35
	c2.1-13.3,5.7-26.1,11.2-38.4c2.7-6,5-12.3,6.2-18.7c1.4-7.3-1.6-12.4-11.5-13.3c-3.6-0.3-7.2-0.2-10.8,0c-13.3,0.5-26.3-2-39.2-4.6
	c-10.1-2.1-20.2-4.7-30.5-6.1c-8.2-1.1-16.6-0.9-25-1c-9.9-0.1-19.5-1.7-29.2-3.7c-8.1-1.7-16.4-2.6-24.6-3.9
	c-10.8-1.7-21.4-4.1-27.9-14.2c-3.6-5.5-4-12-4.6-18.3c-0.3-3.2,0-6.4-0.1-9.6c-0.3-12.4-0.3-24.7-0.9-37.1
	c-0.4-8.6-1-17.3-2.6-25.8c-2.1-12.1-9.2-21.4-19.1-28.3c-8.2-5.8-16.4-11.6-25.1-16.5c-4.2-2.4-9.3-3-14.1-4.3"/>
<path class="st0" d="M1430.7,192.4c-5.3,1.1-10.7,1.8-15.8,3.4c-9.1,3-14.1,9.7-15.4,19.1c-2.4,16.6,8.9,29.2,23.8,32.3
	c6.3,1.3,13,0.3,19.6,0.2c3.9-0.1,7.8-0.7,11.7-0.8c9.9-0.1,19.7,0.3,29.6-0.1c8.9-0.3,16.9-3.1,22.5-10.7c4.5-6.2,5.1-13.6,0.8-20
	c-6.3-9.2-15-15.3-25.8-18.4c-10.2-3-20.7-3.9-31.3-4.2c-6.4-0.1-12.8-0.5-19.2-0.8"/>
<path class="st0" d="M1191,190.4c-7.2,2-10.2,7.8-11.5,14.2c-1.5,7-1.9,14.1-2.6,21.2c-1,10.1-1.9,20.3-2.5,30.4
	c-0.3,4.1,0.3,8.2,3.2,11.7c5.3,6.2,12.5,3.7,16.3-0.8c4.4-5.2,5-11.7,6.2-18c1.9-9.6,3.7-19.2,5.4-28.8c1-5.7,2.1-11.3,0.5-17.1
	c-2.2-7.8-6.5-11.9-14.6-12.9"/>
<path class="st0" d="M1416.5,184.9c-4.3,1.4-8.9,2.3-12.9,4.3c-10.2,5-14.8,13.8-16,24.9c-2.4,22.2,14.4,36.6,31.8,41.6
	c7.3,2.1,15,0.8,22.5-0.2c9.5-1.3,19-2.4,28.8-1.6c11.1,0.9,22.6,2.1,33.3-3c11.6-5.6,19.2-14.4,20.8-27.5c0.6-5-1.5-9.6-4.9-13.3
	c-10.3-11.4-23.4-18.2-38.4-20.7c-11.1-1.8-22.5-2.7-33.8-3.4c-10.3-0.7-20.6-0.6-30.8-0.9"/>
<path class="st0" d="M444.4,480.9c-4.3,1.8-9.2,2.8-12.8,5.6c-7.8,6-9.6,14.6-8,24c1.2,7.4,2.9,14.7,3.6,22.1
	c0.8,7.9-2.2,15-6.2,21.6c-4.9,8.2-10.6,16-14.2,25c-4.7,11.8-2.9,22.5,4.3,32.5c4.7,6.5,9.8,12.7,15,18.8
	c7.1,8.4,11.3,18.2,14.9,28.4c5,14.1,13.5,25.5,25.9,33.7c6,4,12.8,5.5,20,5.9c18.6,1.2,36.1-3.4,52.9-10.6
	c12.9-5.5,21.8-15.3,24.1-29.5c1.1-6.7-2-12.7-6.5-17.9c-5.9-6.8-13.6-10.5-21.7-13.7c-11.5-4.6-23.1-9.2-34.6-13.8
	c-14.6-5.8-22.5-16.9-25.5-32.1c-2.1-10.6-4.8-21.1-7-31.7c-1.7-8-1.2-16-0.7-24.2c0.9-13.8-0.3-27.4-9.8-38.7
	c-3.5-4.1-8.1-5.5-13.3-5.4"/>
<path class="st0" d="M225.1,483.4c-11.4,2.5-22.8,4.9-34.2,7.5c-5.5,1.2-10.9,2.6-16.3,4.2c-8.9,2.6-14.3,8.8-18,17.1
	c-4.8,10.8-7.1,22.2-8.6,33.8c-1.4,10.4,1.4,20.5,6.3,29.5c9.8,18.1,16.4,37.3,21.2,57.2c0.8,3.4,2,6.8,3.3,10
	c4.2,9.8,10.6,13.3,21.6,11.2c13.4-2.6,21.8-11.9,28.8-22.8c4.5-7.1,8.7-14.5,13.9-21.2c7-9,17.4-13.3,27.8-17.2
	c4.5-1.7,9.1-3.3,13.3-5.5c11-5.7,16.1-15.1,17.3-27.4c0.9-9.6-0.4-18.7-2.6-28c-2.8-11.8-9.2-21.4-18.1-29.1
	c-10.1-8.7-21.8-15.1-35-17.9c-6.6-1.4-13.6-1-20.4-1.4"/>
<path class="st0" d="M1294.8,489.3c-11.9,2.4-16.8,11.4-19.5,21.7c-4.3,16.6-8.2,33.3-11.7,50c-2,9.7-2.9,19.7-4.3,29.6
	c-1.5,11.2-6.4,20.2-15.8,26.7c-5.3,3.7-10.9,7.5-15.3,12.2c-8.7,9.2-10.3,19-2,29.8c5.8,7.6,13,14.3,20.3,20.5
	c11,9.2,16.9,20.1,17.2,34.7c0.2,14,1.1,28.2,3.4,42.1c2.4,14.3,11.4,23.4,28.1,23.9c9.8,0.3,18-2.2,22.8-11
	c2.5-4.5,3.7-9.8,4.6-14.9c0.9-4.9,0.6-10,1-15c0.9-12.6-2.2-24.1-8.3-35.1c-5.1-9.2-3.3-14.7,6.2-19.5c5.8-2.9,12-5.2,17.9-8
	c10-4.7,19.3-10.5,25.8-19.6c6-8.5,4-11.6-2.4-17.9c-6.6-6.4-14.2-11.9-16.8-21.7c-2.2-8.5-1.7-16.9-1.1-25.5
	c0.3-3.9,1.1-7.8,1.2-11.7c0.4-11.9,0.9-23.9,0.8-35.9c-0.1-7-1.1-14-2.5-20.8c-2.5-12.4-10.8-20.4-21.6-25.8
	c-6.8-3.4-14.1-5.8-21.2-8.4c-1.9-0.7-4.1-0.4-6.2-0.5"/>
<path class="st0" d="M229.3,491.8c-9.6,2.2-19.2,4.3-28.7,6.7c-5.9,1.5-11.8,3.3-17.5,5.4c-12.1,4.4-17.9,14-20.8,25.8
	c-1.2,5-2.2,10.2-2.5,15.4c-0.5,9.6,2.9,18.2,7.8,26.3c4.5,7.4,9.5,14.4,16.3,20c6.7,5.5,14,8.8,22.9,8.9c7.4,0.1,14.4-1.2,21.3-3.5
	c12.8-4.2,25.6-8.5,38.3-13c6.6-2.3,12.9-5.3,18-10.3c5.6-5.6,8.4-12.3,9.6-20c2.3-14.2-1.2-26.8-9.7-37.9
	c-7.4-9.6-17.3-15.6-28.7-19.7c-8.4-3.1-17-4.5-25.9-4.1"/>
<path class="st0" d="M227.6,499.3c-8.5,2.4-17,4.4-25.4,7.2c-6.5,2.1-12.9,4.5-18.4,9c-7,5.7-10.1,13.1-10.8,21.7
	c-1.4,17.1,6.3,29.9,19.6,39.5c6.6,4.8,14.3,6.6,22.5,6.8c17.9,0.5,35.1-2.8,51.7-9.2c14.3-5.6,23.2-21.5,20.6-36.7
	c-3-17.8-14.5-27.2-29.4-34.1c-9.6-4.5-19.8-4.4-30-4.2"/>
<path class="st0" d="M335.2,504.3c-5.2,1.7-7.1,5.5-7.1,10.8c-0.2,11.6,1.1,22.7,7.1,33c2.9,5,6.5,8.1,12.6,7.9
	c4.1-0.2,6.9-2.4,9.1-5.5c8.1-11.2,8.4-21,0.4-32c-4.4-6.1-9.8-11.3-17.4-13.4c-1.4-0.4-2.8-0.6-4.2-0.9"/>
<path class="st0" d="M1092.2,505.9c-1.5,0.7-3.4,1.1-4.5,2.1c-5.6,5.2-5.8,10,0,14.8c4.5,3.8,10.4,4.6,16.2,3.8
	c4.6-0.6,7.4-6.6,4.9-11.2c-3.4-6.4-8.4-10.4-16.2-9.6"/>
<path class="st0" d="M228.4,506.8c-8.4,2-16.6,4.6-24.2,8.7c-7.4,4-13.9,8.9-16.2,17.6c-4.4,16.5,7.8,32,19.6,36.2
	c9.5,3.4,19.1,3.9,29.2,2.7c7.8-0.9,15.5-2.1,22.9-4.8c9.9-3.6,17.1-10.1,19.5-20.5c1.9-8.3,0.6-16.4-4.9-23.3
	c-9.2-11.4-21.4-16.5-35.8-16.7c-3.2-0.1-6.4,0-9.6,0"/>
<path class="st0" d="M1303.2,506.8c-10.1,1.9-15.2,8.7-17.9,17.9c-3.6,12.1-7.3,24.1-10.8,36.3c-4.3,15.1-4.8,30.7-4.1,46.3
	c0.5,10.8,6.5,17.9,17,20.8c7,2,14.1,4.4,21.3,5.2c8.3,1,15.8-2.6,18.2-10.7c2.6-8.6,4.9-17.4,6.7-26.3c2.9-14.6,4.7-29.3,5.3-44.2
	c0.4-9,0.2-17.7-2.7-26.3c-3.8-11.1-12.5-16.2-23.3-18.3c-3-0.6-6.1-0.6-9.2-0.9"/>
<path class="st0" d="M234.3,514.3c-5,1.4-10.1,2.5-15,4.2c-6.4,2.3-11.4,6.7-15,12.4c-6.1,9.8-1.1,22.5,8.7,27.1
	c8.8,4.1,17.8,5.4,27.5,3.9c6.2-0.9,12.2-1.9,17.9-4.7c9.2-4.5,13.4-11.7,12-21.7c-1-7.4-6-12.3-12.4-15.9c-7.3-4-15.1-5.6-23.3-5.4
	"/>
<path class="st0" d="M970.5,517.6c-11.8,2-16.8,10.6-19.5,20.9c-2.6,9.9-4.5,20-6.8,30c-1.9,8.4-0.9,16.4,2.5,24.2
	c4.8,11,8.6,22.4,10.8,34.2c1.7,9.1,2.5,18.4,4.3,27.5c2.3,12,12.1,18.7,24.1,19.2c2.9,0.1,5.8,0.1,8.8,0
	c6.9-0.2,11.7-5.1,12.2-12.1c0.4-5.6,1.3-11.1,2-16.7c1.4-10.5,7-19,13.4-27.1c3.7-4.7,7.7-9.2,11.6-13.8c6.8-8,10.7-17.3,13-27.5
	c2.4-10.6,5-21.2,5-32.1c0-8.1-3.4-11.5-11.7-12.6c-11.4-1.5-22.9-2.9-34.2-5.1c-6.7-1.3-13.1-4.2-19.6-6.5
	c-5-1.8-10.1-2.8-15.4-2.5"/>
<path class="st0" d="M872.1,520.9c-5.4,1.8-11,3.3-16.2,5.5c-5.4,2.3-9.1,6.4-10.5,12.4c-1.3,5.8,2.8,10.9,8.8,11.3
	c13.2,0.9,23.1-9,26.5-20.1c2.1-6.7-0.4-8.3-6.5-9.1c-0.5-0.1-1.1,0-1.7,0"/>
<path class="st0" d="M236,525.1c-3.6,1.5-7.5,2.6-10.8,4.7c-7.1,4.5-7.6,13,0.8,17.8c6.7,3.8,21.1,4,27.9-2.1c5.7-5.2,4-12.8-2-16.7
	c-4.8-3.1-9.9-4-15.5-3.7"/>
<path class="st0" d="M1311.5,525.9c-8.5,2.8-12.7,9.7-16.8,17.1c-6.3,11.4-11.1,23.4-12.7,36.3c-1.2,9.1,0.1,18.3,6.2,25.8
	c6.7,8.2,22.4,9.4,29.2-3.6c4.1-7.9,5.8-16.3,7.6-24.7c2.5-11.2,4.5-22.6,3.3-34.1c-0.4-4-1.8-8.2-3.8-11.6
	c-2.7-4.6-7.7-5.5-12.8-5.1"/>
<path class="st0" d="M922.1,530.1c-4.7,2-8,5.2-9.2,10.4c-1,4.5,0,7.1,4.2,9.2c3.3,1.7,6.4,0.6,9.2-2.5c3.5-3.9,3.3-8.5,2.7-12.9
	c-0.4-3.2-3.2-4.5-6.5-4.2"/>
<path class="st0" d="M754.5,530.9c-6,1.7-12,3.2-17.9,5c-6.1,1.9-11.5,5.1-15.5,10.4c-8.6,11.3-4.7,22.8,4.7,30.7
	c10.7,9,23.6,14.6,37,18.4c10.3,2.9,16.7-2.4,16.1-12.4c-0.4-7.4-1.6-14.7-2.4-22.1c-0.8-7-1.3-14-2.6-20.8c-1.2-6.5-5-9.2-11.6-9.2
	c-2.5,0-5,0-7.5,0"/>
<path class="st0" d="M978.8,535.1c-11.7,2-14.7,11.1-17.1,20.8c-3.6,14.4-0.5,28.2,2.9,42.1c2.4,9.9,4.2,20,6.3,30
	c1.3,6.1,1.7,12.5,5.4,18c3.9,5.7,10.7,6.7,15,0.4c2.9-4.4,5-9.4,8-13.7c6.9-9.6,13.7-19.3,21.3-28.3c7.5-9,13.6-18.5,15.2-30.1
	c0.9-6.3,0.9-13-1.5-19.1c-3.1-7.8-10-10.7-17.5-12.5c-10.4-2.4-20.8-4.8-31.3-7.1c-2-0.4-4.2-0.3-6.2-0.5"/>
<path class="st0" d="M442.7,551c-4.9,3.2-10.3,5.8-14.4,9.7c-4.4,4.2-8.2,9.2-11.3,14.5c-8.4,14.5-5.3,25.9,5,37.3
	c6,6.7,13.1,12.5,19.9,18.4c7.7,6.7,12.4,15.3,16.7,24.2c4.7,9.6,9.3,19.4,17.5,26.7c5.3,4.8,11.6,7.2,18.8,7.5
	c14.6,0.7,28.1-2.9,39.9-11.4c4.2-3,8.1-6.9,10.8-11.2c5.6-8.9,2.1-17.9-5.3-24.5c-8.2-7.3-18.5-11.1-28.3-15.4
	c-8.1-3.5-16.3-6.6-24.6-9.6c-10.8-4-15-12.7-17.5-22.9c-2-7.8-3.9-15.8-6.8-23.3c-2.6-6.9-6.5-13.5-12.8-17.9
	c-1.9-1.3-4.7-1.5-7-2.2"/>
<path class="st0" d="M990.5,554.3c-12.8,1.7-14.8,14.5-13.2,23.7c1.2,6.8,3.3,13.4,5.4,20c0.9,2.8,2.7,5.5,4.6,7.9
	c2.2,2.8,7.4,3.5,10.7,1.2c10.3-6.9,19-15,22.2-27.8c2.9-11.5-3.8-19-11-21.5c-5.8-2-12.2-2.4-18.3-3.5"/>
<path class="st0" d="M1529.1,562.6c-2.6,2.2-5.5,4.2-7.8,6.8c-0.9,1-1.1,3.7-0.4,4.8c1.2,1.9,3.1,0.7,4.9-0.3c3.4-1.8,5.3-4.3,6.3-8
	c0.8-2.8-0.2-3.4-2.6-3.4"/>
<path class="st0" d="M439.4,570.1c-7.8,1.8-13.4,6.3-16.2,13.8c-3.7,9.7,0.3,18.2,7.6,24.9c4.1,3.8,8.7,6.7,14.5,8.1
	c7.6,1.9,13.6-1.3,14.5-9.7c1.1-10.1-0.7-19.9-6.1-28.7c-3.2-5.1-7.7-7.9-13.8-8.3"/>
<path class="st0" d="M667.8,183.3c-7.5,1.6-14,5-19.2,10.8c-4.8,5.2-7.5,11.4-9.5,18c-4.4,14.7-8.7,29.4-13,44.2
	c-2.8,9.8-0.8,18.8,4.6,27.1c3.4,5.3,7.1,10.3,10.8,15.4c5.6,7.7,7.9,16.6,7.3,25.8c-0.5,6.9-2.2,13.7-4.1,20.4
	c-3.2,11.3-7.5,22.4-10.1,33.8c-1.8,7.9-1.6,16.3-2.3,24.5c-0.5,4.9-0.8,9.8-1.7,14.6c-1.5,7.7-7.1,10-13.3,10.6
	c-13.1,1.2-26.3,0.1-39.2,3.1c-14,3.3-20.2,13.1-21.8,25.5c-1.3,9.8-0.2,19.3,1.9,28.8c0.4,2,1,4.1,2.1,5.8c4.4,7,7.6,7.5,16.1,3.3
	c8.3-4.1,16.1-9.2,24.3-13.6c6.6-3.5,12.9-7.2,18.4-12.5c5-4.9,9.2-10.5,11.9-16.8c3.6-8.5,9.5-13.8,18.1-16.6
	c11.4-3.7,19.8-11.1,27.7-19.9c6-6.7,13-12.7,20.4-17.9c13.4-9.6,22.7-22.5,31.7-35.9c10.5-15.8,14.5-33.8,18.7-51.7
	c1.6-7,3-14,2.5-21.3c-0.4-5.3-0.6-10.7-1.8-15.8c-1.3-5.9-0.3-11.6,2-16.6c5.8-13.1,2.6-24.3-4.2-36c-11.1-19-28.3-28.1-48.9-32.9
	c-9.5-2.2-18.9-4.9-28.8-4.1"/>
<path class="st0" d="M1040.5,174.1c-8.6,1.7-17.2,3.5-25.9,5c-4.8,0.8-9.7,1.8-14.6,1.6c-5-0.2-10-2.1-15-2.7
	c-3.6-0.4-7.3-0.4-10.8,0.4c-6.7,1.5-8.7,6.7-7.1,12.8c1,4.2,2.3,8.3,2.9,12.5c1.1,8.5-3.2,15.4-7.5,22c-7.1,10.9-9.6,22.9-8.1,35.5
	c1.9,16.4,10.4,28.2,26.1,34.2c12.8,4.8,26.2,5.6,39.6,4.4c13.5-1.2,24-8,30-20.7c2.4-5,4.8-10,7.1-15c3.1-6.7,7-12.6,12.9-17.1
	c7.5-5.6,14.8-11.4,22.6-16.6c3.6-2.4,8-3.7,12-5.5c4.2-1.9,8.2-4,9.6-8.8c1.6-5.4-1.3-10.8-7.5-14.1c-2-1.1-4.2-1.7-6.2-2.5
	c-6.7-2.7-13.2-6.1-18.3-11.3c-10.7-11.1-24-14.6-38.8-14.1c-0.8,0-1.7,0-2.5,0"/>
<path class="st0" d="M850.4,605.2c-6.4,1.5-11.5,5.5-16.1,9.7c-6.3,5.6-12.4,11.6-17.5,18.4c-6.2,8.3-7.8,16.5-1.3,24.4
	c2.3,2.8,5.7,5.3,9.1,6.6c10.5,4,21.4,4.2,32.5,2.8c7.6-1,14.7-2.8,21.3-6.7c11.3-6.8,14.8-22,9.1-33.4
	c-7.5-14.8-20.1-21.8-36.6-21.7"/>
<path class="st0" d="M667,173.3c-12,2.7-22.3,8.1-28.2,19.3c-3.5,6.5-6,13.7-7.9,20.8c-2.9,11-6.5,21.6-11.8,31.7
	c-2.9,5.6-5.5,11.4-5.9,17.9c-0.6,10.1,3.7,18.5,8.8,26.7c4.3,6.8,9.3,13.1,13.2,20.1c5.1,9.2,6.1,19.3,3.4,29.5
	c-3.2,12.1-6.8,24.2-9.9,36.3c-1.8,7-3.3,14.1-4.6,21.3c-2.6,14.4-11.8,21.2-25.5,23.3c-10.2,1.6-20.4,3-30.4,5.1
	c-6.6,1.4-12.1,5.2-16.3,10.7c-8.2,10.6-13,22.6-15.2,35.5c-1.3,7.3-1.1,15-0.9,22.5c0.2,10-1.6,19.6-3.7,29.2
	c-1.7,7.5-3.5,15.2-3.7,22.9c-0.3,16.2,5.2,25.9,22.8,32.4c5.1,1.9,10.8,3,16.2,3.3c9.3,0.5,13.9-6,12.2-15.3
	c-1.4-7.7-2.6-15.5-2.9-23.3c-0.6-13.2,4.9-24.3,12.7-34.6c6.6-8.7,15.2-14.9,24.3-20.2c12.3-7.2,22.5-16.5,31.7-27.1
	c3.8-4.4,8.7-8,13.3-11.7c8.6-6.9,16.8-14.4,23.3-23.4c6.5-9.1,14.5-16.7,23-23.6c9.3-7.6,15.9-17.3,22.9-26.7
	c11.6-15.7,21.3-32.6,30.9-49.6c1.7-3,4.2-5.6,6.6-7.9c6-5.7,13.2-6.3,20.8-4.2c8.4,2.4,16.6,5.1,25,7.4c9.8,2.8,19.7,5.5,29.6,7.8
	c3.4,0.8,7.4,0.9,10.8,0c9.6-2.6,12.4-8.8,7.8-17.7c-2.1-4.2-5.5-7.8-8.2-11.7c-6.3-8.9-12.8-17.6-18.7-26.7
	c-6.5-10.1-15.4-16.3-27.2-18.8c-4.1-0.8-8.1-2-12.1-3.3c-8.8-3.1-13.6-10.5-17.8-18c-8.9-15.8-21.1-28.3-36.1-38.1
	c-6.2-4.1-13.3-7.1-20.4-9.6c-10.1-3.7-20.5-6.5-30.8-9.7c-6.8-2.2-13.8-2.3-20.9-2.1"/>
<path class="st0" d="M1187.3,170.8c-10.1,3.3-13.2,11.8-15.4,20.9c-2.3,9.6-2.4,19.4-2.7,29.2c-0.3,13.8-3,27.2-6.8,40.5
	c-3.5,12,0.1,19.4,11.9,24.5c9.1,4,21.9,1,27.2-7.4c3.8-6,5.7-12.2,6.2-19.2c1.1-14.3,3.4-28.4,7.9-42.1c2.6-8.1,3-16.2-0.4-24.2
	c-3.7-8.9-10-15.7-18-20.7c-2.5-1.5-6.3-1-9.5-1.4"/>
<path class="st0" d="M1113.9,619.3c-6.3,2.2-7.7,4.6-8,11.3c-0.4,13.4,3.6,24.9,13.8,33.7c7.5,6.5,16.3,8.8,25.8,5.4
	c9.1-3.2,12.6-9.6,10.4-18.7c-4.5-18.2-14.4-27.5-32.9-31.6c-2.8-0.6-5.8-0.1-8.7-0.1"/>
<path class="st0" d="M290.1,621c-11.2,4-16.6,10.9-16.1,22.1c0.3,8.2,2.7,16.1,8.3,22.5c10.6,11.9,21.3,23.7,32.1,35.5
	c6.2,6.9,12.7,13.7,14.9,23c1.6,6.7,1.9,13.6,3.1,20.4c0.7,3.8,1.4,7.7,3,11.2c2.9,6.8,10.8,8.4,16.6,3.8c7.7-6.2,9.2-15.6,5.3-25
	c-2.7-6.4-6.4-12.5-10.4-18.4c-7.6-11.3-12.5-23.6-15.2-36.8c-1.2-6.1-0.6-12.5-1-18.7c-0.7-10.3-3-20.1-10.4-27.9
	c-8.1-8.4-17.7-12.8-29.6-11.7"/>
<path class="st0" d="M706.2,621c-4.5,1.2-8.6,3-11.7,6.7c-5.3,6.3-6.1,11.8-2.4,18.3c5.8,10,14.4,14.5,26.1,13.4
	c5-0.5,11.1-7.1,11.7-12.5c1.4-13.4-4.5-21.3-16.3-25.3c-2.2-0.7-4.7-0.4-7.1-0.5"/>
<path class="st0" d="M848.8,625.2c-6,1.1-10.7,4.3-14.6,8.8c-5.6,6.6-4.7,14.5,4.6,17.4c6.7,2.1,13.5,1.8,20-1.6
	c5.2-2.7,7.8-6.7,7-12.5c-0.7-5.4-4.3-8.8-9.2-10.8c-2.3-0.9-5-0.9-7.5-1.3"/>
<path class="st0" d="M483.6,631.8c-8.5,3.2-10.3,7.2-8.6,17.9c1.2,7.6,4.4,14.6,9.5,20.4c8.1,9.3,19.3,9.6,30.8,5.3
	c3.9-1.5,7.4-4.5,10.4-7.4c6.3-6.2,5.9-15.2-1.2-21.6c-8.3-7.5-18.1-11.9-28.8-14.4c-3.7-0.9-7.7-0.1-11.6-0.1"/>
<path class="st0" d="M1463.6,643.9c-4.7,0.4-9.5,0.5-14.2,1.3c-4.8,0.9-9.6,2.1-14.2,3.8c-4.5,1.6-5.4,5.5-3.4,11.2
	c3.1,8.6,6.1,17.2,9.2,25.8c2.1,6,4,12,6.3,17.9c4.5,11.6,13.3,19.7,22.5,27.5c5.2,4.4,10.4,8.9,15.9,12.9c4.8,3.5,9.8,6.4,16.2,6.9
	c8.5,0.6,14.7-3.4,19.5-9.4c6.1-7.6,9.1-16.5,10.6-26.2c1.8-12.1,4.2-24.2,6.1-36.3c0.6-4.1,1.2-8.5,0.3-12.4
	c-1.3-5.5-5.5-9.1-11-10.9c-13.8-4.5-27.7-8.1-42.1-10c-7.1-0.9-14.2-1.4-21.3-2.1"/>
<path class="st0" d="M654.5,647.7c-7.4,1.7-10.6,7.7-13.8,13.8c-5.7,10.8-6.9,22.4-5.7,34.2c1,9.4,3.6,18.8,12.9,23.6
	c4.4,2.3,9.6,3.4,14.5,4.2c8.8,1.5,17.8,2.1,26.7,3.5c9.8,1.6,21.5-8.2,22.6-18.4c1.6-14.1-4.2-24.7-14.7-33.4
	c-9.7-7.9-19.4-16-29.2-23.7c-3.7-2.9-8-4.4-12.9-3.8"/>
<path class="st0" d="M1474.9,654.3c-4.3,1.1-8.8,1.9-12.9,3.4c-7.3,2.8-10.9,8.4-10.9,16.2c0.1,15.8,5.6,29.5,16.7,40.9
	c7.7,7.9,15.5,15.7,25.5,20.8c2.3,1.2,4.9,1.7,7.5,2.1c10.4,1.5,17.3-6.3,19.9-14.6c1.9-6.1,2.8-12.4,3.8-18.7
	c0.8-5.2,1.5-10.5,1.7-15.8c0.7-20.3-5.6-23.8-21.7-29.8c-9.2-3.5-19.2-4.6-29.1-4.4"/>
<path class="st0" d="M71.3,664.8c-15.9,1.9-22,13.7-26.6,26.7c-1.4,4-2,8.3-3,12.5c-1.1,4.6-0.8,5.6,3.4,6.6
	c10,2.5,19.9,5.4,30.4,5.5c11.7,0.1,16.9-7,17.4-17.1c0.4-9.1-2.1-17.7-7-25.4c-3.3-5.3-7.9-8.4-14.2-8.7"/>
<path class="st0" d="M1484.9,667.7c-0.7,0.3-1.4,0.8-2.1,0.8c-13.2,0.6-18,13.7-13.4,25.1c4.5,11,11.9,19.6,22.2,25.3
	c10.3,5.8,16.8,1.4,20.2-8.7c2.7-8,3.1-16.7,0.9-24.9c-2.5-9.4-8.2-14.2-19.1-16.7c-2.7-0.6-5.5-0.6-8.3-0.9"/>
<path class="st0" d="M664.5,676c-11.2,4-14.9,14.8-8.4,23.8c2.4,3.3,5.7,5.1,9.3,5.6c4.5,0.6,9.5,1,13.6-0.5c8.1-2.8,9.7-8.3,5.4-16
	c-4.2-7.6-10.5-12.4-19.5-12.9"/>
<path class="st0" d="M229.3,166.6c-6,2-7.7,7.2-8.7,12.5c-2.8,15.5,1.7,29,11.2,41.3c9.7,12.5,25.6,13.3,37.9,4.1
	c4.4-3.3,5.7-11.9,2.9-18.3c-7-15.7-16.9-28.9-32.5-37.1c-3.3-1.7-6.6-2.9-10.4-2.5"/>
<path class="st0" d="M669.5,164.1c-4.9,1.4-9.9,2.4-14.6,4.2c-15.9,6.2-24.4,18.7-28.3,34.6c-3.8,15.3-9,29.8-17.9,43
	c-7.6,11.1-7.6,23.2-1.3,34.9c4.7,8.7,10.3,16.9,15.3,25.5c3.4,5.8,6.5,11.7,8,18.3c1.8,8.1,0.8,16-1,23.7
	c-3.3,13.9-7.3,27.6-11.1,41.3c-3.8,13.3-12.8,21.1-26.2,23.7c-6.8,1.3-13.6,2.6-20.4,3.3c-13.2,1.3-23.9,6.8-31.6,17.6
	c-7.2,10.2-14.4,20.4-21.2,30.9c-3.3,5.2-4.2,11.3-4.2,17.5c0,16.5,0,33.1-0.1,49.6c0,4.3-0.9,8.6-0.7,12.9
	c0.2,5.3,0.9,10.6,1.6,15.8c1.5,11.6,9,18.6,18.7,23.8c11.8,6.2,24.6,9.6,37.1,13.7c7.6,2.5,15.3,3.8,23.3,3.4
	c6.1-0.4,11.5-2.6,15.3-7.2c5-6,3.9-11.6-0.8-17c-3-3.4-6.2-6.6-9.1-10c-6-7.2-8.8-15.9-8.6-25c0.3-11.2,4.6-21.2,12.3-29.6
	c7.7-8.5,17.4-14.4,27.2-19.8c16.2-8.9,29.3-21.1,40.3-35.6c8.7-11.4,16.9-23.1,25.5-34.5c2.4-3.2,5-6.4,7.9-9.1
	c12.1-11.1,21.3-24.4,30.9-37.5c10.1-13.9,20.3-27.8,32.4-40.1c7.4-7.5,16.5-9.7,26.2-7.3c14.2,3.4,28.1,8.1,42.2,11.8
	c6.2,1.7,12.8,3.3,19.2,3.2c12-0.1,23.3-8.5,26.2-20.2c1.6-6.3-0.1-12-4.6-16.6c-4.9-5.1-10.2-9.8-15.4-14.6
	c-8.4-7.7-14.3-17.2-18.2-27.6c-5.2-14.3-14.6-23.3-29.4-26.1c-13.6-2.6-22.5-11-30.5-21.3c-5.6-7.3-11.5-14.3-17.5-21.3
	c-8.2-9.4-18.5-14.9-30.8-17.2c-16.8-3-32.9-8.6-49.2-13.2c-5.3-1.5-11.1-1.3-16.6-1.8"/>
<path class="st0" d="M1395.7,689.4c-13.8,4.7-21.1,14.7-23.3,28.8c-0.9,5.7,3.2,11.6,9.2,12c7.7,0.4,15.3,0.7,22.6-3.5
	c6.7-3.9,10.2-9.4,10.2-16.8c0.1-7.5-2.1-14.6-9.1-18.6c-2.5-1.5-6-1.3-9.1-1.8"/>
<path class="st0" d="M976.3,160.8c-5.7,1.3-11.5,2.1-17.1,3.8c-10.2,3.1-15.8,10.5-15.9,22c-0.1,9-0.6,18.1-0.8,27.1
	c-0.3,13.1-1.2,26.1-0.7,39.2c0.4,10.4,2,20.7,6.4,30.5c5.3,11.9,14.9,17.9,26.8,20.7c10.9,2.6,21.9,5.1,32.9,6.6
	c15.6,2.1,30.6-0.5,42.8-11.2c4.5-3.9,8.5-8.9,11.2-14.1c6.4-12.4,15.6-21.8,27.2-29.2c9.5-6.1,18.8-12.6,27.9-19.2
	c7.8-5.6,13.2-12.9,12.8-22.9c-0.4-11.3-4.6-21.1-14.5-27.5c-10.2-6.6-20.6-13.1-30.8-19.6c-5.9-3.7-12.4-5-19.2-5.4
	c-3.6-0.2-7.2-0.8-10.8-0.8c-9.2,0.1-18.3,0.8-27.5,0.7c-16.8-0.1-33.6-0.5-50.4-0.8"/>
<path class="st0" d="M870.4,695.2c-4.9,1.3-9.8,2.2-14.6,3.8c-8.7,3.1-12.8,10-14.2,18.7c-1.5,10.1-0.7,20.2,1.7,30
	c3.3,13.4,11.6,22.4,24.9,26.7c9.6,3.1,19.2,6.3,28.8,9.6c7.9,2.8,14.3,8,19.9,13.8c8.1,8.4,15.5,17.5,25.6,23.6
	c8,4.9,8.4,12.1,7.1,20.1c-1.3,7.6-2.7,15.3-3.7,22.9c-0.3,2.6,0.4,5.3,0.7,7.9c0.7,5.7,4.3,6.9,9.5,4.8c4-1.6,7.3-5.1,10.9-7.7
	c4-2.8,7.8-6.2,12.2-8.2c5-2.3,10.3-0.8,15.3,1.1c3.3,1.3,6.6,2.8,10,3.7c6.6,1.8,11,0.6,13.3-3.7c2.6-4.8,1.8-9-2.5-14.6
	c-4.4-5.8-11.2-7.6-17.5-10c-8.7-3.3-16.4-7.9-23-14.6c-2.7-2.8-3.3-6-1.9-9.2c2.1-4.6,4.7-9.1,7.4-13.4
	c5.3-8.3,10.4-16.6,12.9-26.3c4.7-17.8,0.5-36.2-14.6-45.8c-5.7-3.6-12.2-5.2-18.7-5.8c-17.5-1.7-34.3-5.5-48.8-16.3
	c-7.1-5.4-14.7-9.9-23.8-10.8c-5.5-0.5-11.1-0.4-16.7-0.5"/>
<path class="st0" d="M1562.4,157.4c-9.5,3.3-14.2,11.3-19.2,19.2c-1.4,2.2-2.6,4.6-4.2,6.6c-4.9,6.4-11.6,7.9-19.1,6.3
	c-9.5-2.1-18.8-4.7-28.4-6.5c-7.7-1.5-15.5-2.1-23.3-3c-7.1-0.9-14.2-1.7-21.3-2.5c-3.6-0.4-7.2-0.7-10.8-0.8
	c-8.6-0.4-17.3-1.4-25.8-0.7c-13.2,1.1-23,8.3-29.6,19.8c-4.1,7.1-5.9,14.9-6.1,22.9c-0.3,12.1,4,22.4,13.6,30.5
	c8.5,7.1,17.3,14,28.4,15.9c6.3,1.1,13.3,0.7,19.5-0.8c13-3.1,26-4,39.2-3.5c6.1,0.2,12.2,0.6,18.3,0.8c10.2,0.4,19.3-3,26.6-9.7
	c7.6-7,14.1-15,21.4-22.3c3.8-3.8,7.9-7.6,12.5-10.4c12.1-7.4,17.8-18.4,19.4-31.8c0.8-6.2,0.8-12.5,0.9-18.8
	c0-7.4-4.1-11.3-11.6-11.3"/>
<path class="st0" d="M670.3,155.8c-5.6,1.5-11.3,2.5-16.6,4.7c-16.6,6.7-27.6,18.4-32.3,36.1c-2.9,11.1-4.8,22.6-11.1,32.5
	c-3.5,5.5-7.4,10.8-10.8,16.3c-3.6,5.8-7.2,12-6.1,19.1c0.8,5.4,2.2,11,4.6,15.8c4.6,9,9.9,17.7,15.3,26.3
	c5.1,8.1,9.6,16.4,10.5,25.9c0.6,6.4-0.2,13.2-1.6,19.5c-2.5,10.8-5.8,21.5-9.1,32.1c-4.8,15.4-16.7,21.8-31.6,24.2
	c-9.2,1.5-18.5,2.6-27.5,4.7c-8.4,2-14.7,7.9-20.5,14c-5.6,6-11.2,11.9-16.7,17.9c-6.5,7.2-13.2,14.3-15.4,24.2
	c-1.1,4.9-2.2,10-2.5,15c-0.6,12,1,23.9,2.2,35.9c1.3,12.7,1.2,25.6,1.9,38.3c0.5,8.4,1.4,16.8,7,23.8c4.5,5.7,10.8,8.7,17.2,11.6
	c4.7,2.2,9.7,3.7,14.6,5.5c13.5,5,26.9,10.3,40.5,14.9c16.7,5.7,31.8,1.2,42.3-12.2c9.4-11.9,10.3-30.9-5.2-41.6
	c-3.4-2.4-6.7-5.4-9.1-8.8c-4.9-7-3.8-14.5,0-21.6c2.9-5.4,7.3-9.7,12.5-12.9c11.2-7.1,22.6-13.8,35.4-17.5c6.4-1.8,13-2.6,19.6-3.9
	c9.3-1.8,18.6-3.6,25.9-10.8c5.5-5.4,5.6-11,2.4-18c-0.5-1.1-1.3-2-2.1-2.9c-6.5-8.1-5.8-16.8-2.5-25.9c3.1-8.5,8.2-15.8,13.7-23
	c9.3-12.1,18.2-24.6,27.6-36.6c8.3-10.6,17.4-20.6,28.3-28.9c10.1-7.7,21.5-8.6,33.4-7c13.3,1.8,25.5,7.3,38.4,10.7
	c15.1,4,28.9,0.5,41.2-9.1c7.9-6.1,13.6-13.8,15.9-23.7c2.9-12.8-1.5-20.2-10.8-25.5c-5.7-3.2-11.5-6.4-16.6-10.5
	c-8.5-6.8-13.1-15.9-13.4-27c-0.2-6.7-0.3-13.4-0.9-20c-0.4-4.1-2.7-7.4-6.1-10.1c-6.6-5-14.5-6.4-22.1-8.7
	c-8.5-2.5-17.5-4.3-24.5-10.1c-4.7-3.9-8.9-8.4-12.5-13.3c-5.4-7.4-9.6-15.5-18-20.4c-6.3-3.7-13-6.1-20.1-6.9
	c-8.3-1-16.7-0.9-25-1.9c-7.6-0.9-15.1-2.4-22.5-4.2c-6.9-1.7-13.5-4.6-20.5-6c-5.2-1-10.8-0.5-16.2-0.6"/>
<path class="st0" d="M1190.6,152.4c-14.2,3.9-22.6,13.5-25.8,27.5c-1.3,5.6-1.8,11.4-2.1,17.1c-0.5,11.1-0.2,22.3-1,33.3
	c-0.6,8.9-3.5,17.3-7.3,25.5c-3.2,6.8-6.7,13.4-6.7,21.2c0,4.4,1.4,8.4,4.2,11.6c7.7,8.9,17.6,14.2,28.7,17.5
	c5,1.5,10.1,0.9,14.5-2.1c10.9-7.2,17.6-17.3,19.1-30.4c0.9-7.9,0.9-15.9,1.8-23.7c0.8-6.6,2.1-13.1,3.7-19.6
	c1.8-7.2,4.2-14.2,6.2-21.3c2.3-8.3,0.2-16.2-3-23.7c-4.2-10-9.9-19.2-17.4-27.1c-4-4.3-8.8-6.3-14.6-5.8"/>
<path class="st0" d="M1073.9,148.3c-3.3,0.6-6.7,1.3-10,1.6c-7.8,0.7-15.6,1.3-23.3,1.7c-7.2,0.4-14.4,0.8-21.7,0.8
	c-12.8-0.1-25.6-0.9-38.4-0.7c-12.2,0.2-24.2,1.9-35.9,5.7c-10.5,3.5-16.9,10.5-18.7,21.3c-1.3,8.3-1.5,16.7-2.7,25
	c-1.5,11,1.7,21.2,3.7,31.7c1.5,7.5,2.2,15.3,3,22.9c1.4,13.2,2.6,26.3,7.9,38.8c4.2,9.8,11.8,13.9,21.7,15.5
	c12.4,2,24.8,4.3,37.1,6.7c5.8,1.1,11.4,2.8,17.1,4.1c10,2.4,19.8,0.5,29.1-3c13.7-5.2,24.8-13.8,31.7-27
	c6.3-12.3,16.2-21.1,26.7-29.6c8.5-6.9,16.9-13.9,25-21.3c8.2-7.5,12.6-17.2,12-28.3c-0.7-12.6-3.1-24.9-11.6-35
	c-2.3-2.7-5.2-4.9-7.9-7.1c-6.8-5.6-13.7-11-20.4-16.7c-5.6-4.8-11.9-7.1-19.2-7c-1.7,0-3.3,0-5,0"/>
<path class="st0" d="M872.1,705.2c-3.1,0.7-6.3,1-9.1,2.2c-8.9,3.7-13,11.3-13.7,20.4c-0.9,11.1,0.5,21.9,8.2,30.8
	c4.9,5.6,11.3,8.7,18.3,10.8c6.6,2,13.4,3.8,20,5.9c10.3,3.2,19.9,7.8,28.4,14.5c2.4,1.9,4.9,3.4,7.5,5c6.6,4.1,13.9,4.1,20.8,1.6
	c13.1-4.8,23.6-12.7,27.5-27c3.1-11.3-1.7-22.4-11.2-28c-6.2-3.7-13-4.9-19.7-6c-13.3-2.1-24.6-8.4-35.8-15.2
	c-4.5-2.7-8.8-5.6-13.4-8.3c-8.5-5-17.6-7.3-27.5-6.7"/>
<path class="st0" d="M120.1,119.9c-4.6,1.5-9.4,2.7-13.7,4.7c-8.2,3.8-12.6,10.8-13.2,19.5c-0.6,7.7,2.6,14.5,9.5,18.7
	c9.3,5.6,19,6.7,29.2,1.8c5.4-2.6,8.5-6.7,10.4-12.1c2.6-7.2,3.5-14.3,0.8-21.7c-2.8-7.5-7.1-10.8-15-10.8c-2.5,0-5,0-7.5,0"/>
<path class="st0" d="M233.4,116.6c-5.7,2.1-9.2,6.5-12.5,11.2c-6.9,9.9-12.4,20.6-15.8,32.1c-3.8,12.9-2.4,25.9,0.8,38.8
	c3.6,14.6,11.4,26.7,22.3,36.5c6.7,6.1,15.1,8,24.5,6.6c9.1-1.4,17.8-3.4,25.8-8.1c1.5-0.9,3.3-1.4,4.5-2.6
	c9.1-8.2,9.9-13.6,2.8-25.3c-8.7-14.5-17.9-28.6-27.5-42.5c-5.9-8.5-9.5-17.7-12-27.6c-1.1-4.4-2.6-8.7-4.2-12.9
	c-1.4-3.7-3.6-6.7-8.3-6.3"/>
<path class="st0" d="M261,715.2c-17.8,7.8-30.8,20.1-36.2,39.2c-3.6,12.9-6.3,26.1-9.2,39.2c-0.8,3.5-0.8,7.2-0.9,10.8
	c-0.1,5.4,0,10.8-0.1,16.3c-0.1,4.3,1.3,8,5.1,9.9c3.5,1.8,6.9-0.2,9.9-2c8.1-4.9,13.1-12.7,17.8-20.5c6-9.9,12.9-18.9,20.6-27.4
	c8.4-9.2,15.8-19,20.8-30.5c5.5-12.7,2.3-24.3-10.3-31.4c-5.6-3.1-11.2-3.8-17.2-3.6"/>
<path class="st0" d="M521.9,113.2c-7.2,1.5-13,5.3-17.5,10.9c-6.7,8.4-7.4,15.8,0.8,23.3c8.9,8.3,17.5,16.9,26.3,25.4
	c5.5,5.2,11.7,9.4,19.2,10.8c5.1,1,10.4,1.3,15.4-1.1c5.2-2.5,7.7-6.3,8-12.1c0.3-8.6-2.2-16.7-3.8-25c-1-4.9-2.2-9.7-3.3-14.6
	c-0.7-2.7-2.2-4.5-5-5.5c-11.4-3.8-22.8-7.8-34.2-11.6c-1.7-0.6-3.6-0.3-5.4-0.5"/>
<path class="st0" d="M458.6,90.7c-7.7,2.1-15.4,4.3-22.1,8.8c-8.7,5.9-13.9,14.6-17.5,24.2c-2.6,7.1-4.6,14.4-6.7,21.7
	c-1.4,4.6-3.6,8.5-7.5,11.7c-4.1,3.5-7.5,7.8-6.6,13.7c0.3,1.8,1.8,3.7,3.3,4.8c0.5,0.4,3.1-0.9,3.9-2c1.6-2.3,3-4.8,3.8-7.5
	c2.3-7.9,7-13.3,14.6-16.8c9-4.1,18.1-8.2,25.9-14.5c10.5-8.6,18.3-19,21.2-32.5c0.4-1.9,0.6-3.9,0.4-5.8c-0.3-3.7-2.9-5.8-6.6-5.8
	c-1.9,0-3.9,0-5.8,0"/>
<path class="st0" d="M874.6,716.9c-2.9,1.3-6.2,2-8.7,3.8c-9.7,7-8.1,23-1.3,31.2c5.8,7,13.8,10.2,22.1,12.4
	c13.2,3.4,26.7,5.5,40.4,5.1c1.4,0,2.9,0,4.2-0.4c4.2-1.3,5.7-4,3.7-7.8c-2.8-5.2-5.7-10.6-9.6-15c-8.9-10.1-19-19-31.2-25.1
	c-6-3-12.4-4.7-19.2-4.2"/>
<path class="st0" d="M1288.1,717.7c-6.3,1.5-8.1,6.7-9.1,12.1c-1.7,8.8-1.5,17.7,2.6,25.8c3.9,7.7,7.8,9.4,15.7,8.8
	c5.2-0.4,10.8-5.2,12.5-11.3c3.9-14.4-0.8-27.5-13.7-33.7c-2.3-1.1-5-1.2-7.5-1.7"/>
<path class="st0" d="M1449.1,84.1c-4.6,0.8-9.2,1.5-13.7,2.6c-4.8,1.1-9.4,3-12.9,6.6c-3.9,3.9-4.5,7.1-2.1,12.5
	c2.8,6.4,8.2,10.1,14.2,12.4c11.1,4.3,22.8,5.6,34.5,3.4c6.2-1.2,11.1-5.2,12.1-12.9c2-14.5-7.2-22.8-19.2-23.8
	c-4.2-0.3-8.3-0.6-12.5-0.8"/>
<path class="st0" d="M881.3,732.7c-7.9,3.2-7.7,8.5-2.9,13.8c5.1,5.7,11.7,6.9,18.8,6.2c4.3-0.4,6.2-5.1,3.7-9.1
	c-4.3-7.1-10.7-10.8-19.1-10.9"/>
<path class="st0" d="M65,733.6c-3.3,1.4-7.2,2.1-9.9,4.3c-6.4,5.2-8.9,14.5-4.1,23.1c4.8,8.8,12.2,15.2,22.4,17.1
	c9.9,1.9,16.1,0.3,21.5-9.6c3.2-5.9,4.7-12.4,3.2-19.6c-1.3-6.5-5.2-9.8-10.6-12c-7.1-2.8-14.5-3.9-22.1-3.4"/>
<path class="st0" d="M261,738.6c-13,4-21,13.1-25.3,25.5c-2.7,7.9-4.1,16.3-6,24.6c-0.2,0.9-0.3,2.1,0,2.9c1,2.4,1.6,5.6,3.5,6.8
	c1.1,0.7,4.8-1.1,6.4-2.7c9.5-9.7,19.2-19.3,26.8-30.8c3.1-4.7,5-9.9,5.4-15.4c0.4-6.8-2.8-11.1-10.4-10.8"/>
<path class="st0" d="M527.8,742.7c-6.5,1.4-11.8,4.8-15.8,10c-6.1,8.1-5.6,15.4,5,19.1c8.4,2.9,17.1,3.3,25.8,1.7
	c6-1.1,10.6-4.2,11.9-10.1c1.5-6.6-1.3-12-6.9-16.3c-6-4.6-12.7-4.7-19.7-4.5"/>
<path class="st0" d="M624.5,755.2c-7,1.9-10.9,6.6-13,13.3c-2.7,8.7-2.9,17.4-1.3,26.3c1.8,9.8,7.6,16.2,15.9,20.8
	c10.8,5.9,21.6,11.6,33.8,14.2c8.5,1.8,16.5-0.1,18.4-12c1.9-11.5-1.7-21.6-9-29.9c-7.2-8.1-15.6-15.2-23.6-22.6
	c-2.2-2.1-4.7-3.9-7.1-5.9c-4-3.3-8.6-4.7-13.8-4.2"/>
<path class="st0" d="M1348.2,75.7c-10.6,2-15.9,10.1-20.8,18.4c-2.5,4.3-4.8,8.7-6.7,13.3c-3.8,9.5-0.1,13.3,9.5,12.3
	c14.4-1.5,24.6-9.3,28.6-23.6c1.1-3.8,0.8-8.1,0.5-12c-0.4-4.9-4.9-9-10.7-8.3"/>
<path class="st0" d="M157.6,74.9c-5.3,1.9-9,4.7-8.8,11.3c0.3,9.6,7.8,14.7,16.7,10.8c4.4-2,8-5,9.1-10c1.3-5.9-4.8-11.4-11.2-12
	c-1.8-0.2-3.6,0-5.4,0"/>
<path class="st0" d="M632,780.2c-5.4,2.5-7.1,7.6-4.1,13.7c4.9,10.2,13.4,16.1,24.2,18.7c3.3,0.8,6.9,0.2,9.1-2.9
	c2.3-3.4,1.6-7.1-0.4-10.4c-3.8-6.4-9.5-10.8-15.8-14.6c-3.9-2.3-7.6-5-12.5-4.6"/>
<path class="st0" d="M153.4,60.7c-2.5,0.6-5,1.2-7.5,1.7c-9.4,1.9-15.5,7.5-18.4,16.7c-2.3,7.3-4.7,14.9-11.3,19.5
	c-4.9,3.3-10.7,5.5-16.2,8c-6.4,2.9-12.8,5.8-17.5,11.3c-6.6,7.6-9.1,16.3-7.1,26.3c1.9,9.9,4.9,19.1,13,25.8
	c4.5,3.7,9.8,5.6,15.4,6.6c4.4,0.8,8.9,1.6,13.3,1.6c6.8,0,13.7-0.4,20-3.3c7.6-3.5,12.5-9.7,15.4-17.4c2.5-6.8,5.2-13.5,7.5-20.4
	c3.6-11,10.4-19.9,17.9-28.4c3.9-4.5,7.1-9.6,10.5-14.5c3.1-4.4,3.2-9.5,2.9-14.6c-0.3-5.4-4-8.6-7.9-11.7c-5-4-10.9-5.6-17.1-6.2
	c-4.2-0.4-8.3-0.6-12.5-0.9"/>
<path class="st0" d="M496.5,58.6c-8.9,0.8-16.6,4.8-23.7,9.6c-10.5,7.1-21.5,13.4-33,18.7c-12,5.6-20.1,14.9-26.3,26.3
	c-4.8,8.8-10,17.4-15.4,25.8c-2.7,4.2-6.2,7.9-9.5,11.7c-9.7,11.3-10.5,23.9-6.3,37.6c1.8,5.9,4,11.5,8,16.2
	c5.9,6.8,14.1,8.5,22.5,8.7c9.7,0.3,16.8,3.8,20,13.4c1.1,3.4,2.4,6.7,3.7,10c5,12.4,10.6,24.4,19.6,34.6
	c10.7,12.2,22.9,22.3,38.3,28c5.1,1.9,10.3,2,15.4,1.5c5.6-0.6,8.8-3.9,9.1-12.4c0.6-13.7,3.5-26.5,12.9-37.1
	c3.1-3.5,6.1-7.1,8.7-10.8c3.3-4.7,6.6-9.4,7.7-15.4c1-5.3-0.4-9.8-4-13.3c-4.3-4.2-9.1-8-14.1-11.3c-6.8-4.3-14.1-7.9-21.2-11.8
	c-9.8-5.4-19.4-4.1-28.7,0.9c-8.3,4.4-16.8,8.2-25.9,10.7c-3.2,0.9-6.6,1-10,1.3c-9.9,1-12-6.1-12.9-12.9
	c-2.1-15.7,4.9-27.6,16.8-36.6c14.2-10.7,24.4-24.4,32.8-39.8c6.7-12.2,12.9-24.7,19.2-37.1c1.1-2.2,2.1-4.4,2.9-6.7
	c2.3-6.6,0.7-9.1-6.2-10"/>
<path class="st0" d="M426,799.4c-10.5,2.1-16.3,8.9-19.1,18.8c-0.8,2.7-0.1,5.2,2.8,6.7c8.6,4.5,26,2.3,32.1-8
	c4.5-7.7,2.5-13.7-5.8-16.2c-3-0.9-6.4-0.9-9.6-1.3"/>
<path class="st0" d="M307.7,805.3c-6.3,1.3-12.2,3.2-16.7,8.3c-5.3,6-7.2,12.6-6.3,20.5c2.2,18.5,12.3,31.2,28.4,39.6
	c9.2,4.7,18.7,8.5,28.7,10.9c13.8,3.2,21.1-2.6,24.6-15.1c4.4-15.6,0-29.3-9.6-41.7c-9.9-12.7-23.7-18.8-39.2-21.7
	c-3.1-0.6-6.4-0.6-9.6-0.9"/>
<path class="st0" d="M150.9,52.4c-3.3,0.6-6.7,1.3-10,1.6c-13,1.4-22.7,8-28.2,19.7c-4.8,10.2-12.8,15.8-23.1,19.1
	c-9.2,3.1-18.6,5.7-26.7,11.6c-10,7.3-11.7,15.2-9.3,25c2.3,9.5,6.2,18.7,9.4,28c1.5,4.3,2.9,8.7,4.6,12.9
	c4.7,11.2,13.7,16,25.4,16.2c11.7,0.2,23.3,0.1,35,0c15.2-0.1,25.9-8,32.1-23.8c7.9-20.2,17.5-39.5,30.8-56.7
	c5.4-7,9.4-14.8,11.5-23.7c2.5-10.5-2.5-18.1-9.7-22.2c-7.9-4.6-16.4-6.6-25.5-7c-5.3-0.2-10.6-0.6-15.8-0.8"/>
<path class="st0" d="M1366.5,48.2c-11.4,3-22,7.6-32.6,12.8c-6.6,3.2-11.9,7.8-15.6,13.6c-6.7,10.6-14.9,19.8-23.1,29.1
	c-7.9,9-12.5,19.6-13.3,31.7c-0.5,6.7-1.2,13.4-0.7,20c0.5,8.3,0.5,16.8,4,24.6c5.8,12.9,15.4,10.5,22,4.1
	c5.9-5.6,9.4-12.8,12.1-20.4c1.2-3.4,2.2-6.8,3.8-10c3.5-6.7,7.6-12.8,14.5-16.8c5.5-3.2,10.7-7,15.9-10.8
	c11.8-8.8,18.9-21.2,24.1-34.6c2.2-5.8,3.8-12.1,4.1-18.3c0.3-6.3-0.5-12.9-3.5-18.7c-2.3-4.4-6.1-6.7-11.2-6.3"/>
<path class="st0" d="M853.8,826.1c-6.2,1.1-10.7,4.2-12.5,10.4c-2.4,8.5,3.3,27.1,15.4,28.3c2,0.2,4.2-0.2,6.2-0.8
	c7.8-2.2,12.1-8.1,13.6-15.4c1.4-6.8,0-13.6-6.1-18.3c-4.8-3.6-10.3-4.7-16.2-4.2"/>
<path class="st0" d="M320.2,828.6c-1,0.3-1.9,0.7-2.9,0.8c-10.6,1.2-12.3,9.1-10.3,16.7c3.5,13.6,18,21.1,30.8,19.2
	c4.5-0.7,7.8-4.9,7.9-9.6c0.3-13.3-9.5-24.6-22.9-26.3c-0.7-0.1-1.4-0.5-2.1-0.8"/>
<path class="st0" d="M145.1,45.7c-3.8,0.6-7.5,1.4-11.3,1.6c-14.1,1-25.2,7.6-33.6,18.5C93.6,74.3,84.8,78.6,75,81.5
	C63.3,85,51.5,88.2,40.8,94.4c-5.2,3.1-10.3,6.2-13.3,11.7c-3.9,7.1-1.5,13.6,1.7,20c4.5,9.1,9.2,18,13.7,27.1
	c5.1,10.3,5.5,21.3,4.7,32.5c-0.4,6-0.3,12.5,4.6,17c4.6,4.1,10.2,5.7,16.6,3.9c9-2.5,18.1-4.3,27.1-6.8c11.5-3.1,23.2-4,35-4.2
	c5.3-0.1,10.8-0.6,15.8-2.1c9.6-3,14.5-11,18-19.9c5.3-13.4,10.1-27,17.1-39.6c3-5.4,6.4-10.6,9.6-15.9
	c6.1-10.3,12.8-20.3,18.1-30.9c3.3-6.7,5.5-14.2,6.6-21.6c1-6.2-2.2-10.6-8.5-12.9c-7.6-2.8-15.4-4.2-23.4-5.5
	c-12.9-2-25.8-1.5-38.8-1.6"/>
<path class="st0" d="M511.1,38.2c-13.5,2.8-25.8,8.3-37.1,16.3c-4.3,3-8.2,6.6-12.6,9.5c-8.9,5.9-17.7,12.2-27.2,17
	c-12.2,6.2-20.5,15.6-26.5,27.3c-6.7,12.9-15.2,24.4-25,35c-7.9,8.6-12.6,18.6-12.3,30.8c0.3,12.3,1.3,24.4,4.7,36.3
	c2.6,9.2,8.9,14.7,17.6,17.9c5.3,1.9,10.8,3.6,16.3,5c8.4,2.1,14,7.6,18.7,14.3c7.1,9.9,13.5,20.4,21,29.9
	c12.7,16,28.5,28.5,47,37.1c15.3,7,24.9,18.6,31.3,33.8c3.6,8.5,8.1,16.7,15.3,23c8.7,7.6,19.1,10.1,30,8.5
	c11.2-1.6,18.1-9.3,20.8-20.2c2.8-11.2,0.7-22.1-5-32c-8.9-15.7-21.2-28-37.4-36.4c-5.5-2.8-11.3-5.8-13.4-12.4
	c-2.4-7.7-0.3-14.7,4.2-20.8c7.1-9.5,14.7-18.7,22-28c2.6-3.4,5.3-6.8,7.5-10.4c4.4-7.6,1.3-11.8-5-14.5c-5.6-2.5-11.4-4.7-17.1-7.1
	c-11.7-4.9-21.9-12.1-31.7-20c-6.5-5.3-13-10.6-21.3-12.9c-5.9-1.6-11.8-2.5-17.9-1c-2.5,0.6-5.3-0.2-7.9-0.3
	c0.6-2.5,0.9-5.1,1.7-7.5c5.2-14.9,11.6-29.3,20.9-42c8.2-11.2,17-21.9,25.8-32.5c6.4-7.7,10.9-16.1,10.3-26.3
	c-0.3-5.8-1.5-11.8-7.1-14.8c-3-1.6-6.9-1.6-10.3-2.2"/>
<path class="st0" d="M982.2,34.9c-9,2.2-12.4,11.7-11.1,20.8c2.3,15.4,10.7,27.2,24.5,34.5c8.4,4.4,18.1,0.3,19.4-7.8
	c0.6-3.9,0.1-8.2-0.8-12c-2.9-12.6-8.6-23.7-19.2-31.6c-3.5-2.6-7.7-4.4-12.4-3.9"/>
<path class="st0" d="M1185.6,858.6c-2.6,0.8-2.7,2.7-1.6,4.5c0.9,1.5,2.4,2.5,3.7,3.8c0.7-1,2.2-2.3,1.9-2.9c-0.9-2-2.4-3.7-3.6-5.5
	"/>
<path class="st0" d="M828.7,32.4c-11.7,2.9-17.4,14.3-17.1,22.9c0.2,5.8,4.8,8.9,9.5,5.8c7.6-5.1,13.1-11.6,13.1-21.6
	c0-3.9-1.4-6.2-5.1-7.1"/>
<path class="st0" d="M283.5,25.7c-10.5,1.6-13.1,9.9-15.4,18.4c-2.2,8.4-4.1,17-6.3,25.4c-2.2,8.1-7,13.9-14.9,17.6
	c-11.5,5.4-20.3,14.3-27.5,24.5c-10.7,15.2-19.8,31.3-25.4,49.2c-3.4,10.7-3.3,21.9-2.1,32.9c1.7,15.2,9.8,27.3,19.2,38.7
	c4,4.9,8.4,9.4,12.9,13.8c7.3,7,16.8,7.4,25.8,6.1c13-1.9,25.8-5.5,38-10.7c6.4-2.7,12.8-5.4,17.5-10.8c4.2-4.8,5.1-9.3,2-15
	c-2.5-4.5-5.4-9-8.7-12.9c-9.3-10.8-15.7-23.5-23.3-35.5c-5.7-9-11.2-18.2-14.5-28.4c-2.8-8.6-4.8-17.6-4.1-26.6
	c0.6-8,0.9-16.8,8.3-21.9c4.6-3.1,10.4-4.4,15.7-6.4c7.6-3,15.4-5.5,22.9-8.9c7.4-3.4,12.7-9.1,15.5-17c3.7-10.5,1.6-18-7.6-24.1
	c-8.2-5.4-17.4-8.5-27.5-8.4"/>
<path class="st0" d="M523.6,21.5c-21.3,6.7-41.1,16.4-59.2,29.6c-8.3,6-16.2,12.4-24.7,18.2c-4.9,3.4-10.5,5.8-15.8,8.9
	c-9.2,5.3-15.6,13.3-20.4,22.5c-7.2,14-16.5,26.4-27.5,37.5c-7.9,8-13.4,17.5-13.7,29.1c-0.5,15.8-1.4,31.7-0.6,47.5
	c0.5,10.6,7.4,18.1,16.4,23.9c7.3,4.7,15.3,7.3,23.4,9.4c10,2.6,17.8,8.1,24.1,16c9.3,11.6,17.4,24.3,28.3,34.7
	c8.6,8.2,17.8,15.7,28.1,21.4c16.5,9.2,29.1,21.5,36.7,38.9c2.1,4.9,5.2,9.5,7.8,14.2c4.6,8.2,12.1,12.3,20.9,14.1
	c5.9,1.2,11.9,1.8,17.9,1.7c20.8-0.3,31.7-9.5,36.2-30.8c3.2-15.1-1.4-28.6-9.2-41.2c-8.4-13.5-18.8-25.4-29.9-36.8
	c-2.8-2.8-5.2-6.3-6.6-10c-2.2-5.6,0.4-10.9,3.2-15.8c5.9-10.2,14.7-18.1,22.9-26.3c4.9-4.9,8.6-10.5,10.3-17.1
	c0.9-3.5,1.8-7.2,1.6-10.8c-0.8-12.8,2.9-24,10.5-34.2c3.5-4.7,6.8-9.6,10-14.6c4.9-7.6,12.3-11.6,20.5-14.6
	c11.5-4.1,23.1-7.9,34.6-12.2c3.5-1.3,6.7-3.8,9.6-6.2c4-3.4,3.3-7.2-1.2-9.9c-9.4-5.6-19.6-7.2-30.4-5.9
	c-11.6,1.4-20.4,8.4-29.1,15.1c-8.7,6.6-18.1,9.3-28.8,7.1c-3.8-0.8-7.8-1.2-11.7-1.7c-4.4-0.5-6.8-3-7.9-7.1
	c-1.1-3.8-2.2-7.5-3.3-11.3c-2.2-7.3-7.3-12.8-12.1-18.3c-6-7-8.7-15.2-9.6-24.2c-0.9-8.9-0.9-18-2.7-26.6
	c-1.9-9-4.6-15.5-18.1-14.2"/>
<path class="st0" d="M1371.5,19c-5,1.5-9.8,3.5-13.3,7.5c-11.8,13.6-27.2,21.6-43.8,27.5c-5.6,2-11,4.4-16.7,5.7
	c-8.4,2-15.6-1-21.7-7c-5.2-5.1-10.4-10.2-15.9-14.9c-2.9-2.5-6.5-4.2-10-5.9c-6-2.9-11.6-0.8-16.6,2.5c-6.2,4-11.5,9.1-15.4,15.4
	c-4.9,7.9-5.3,15.4-0.1,22.1c3.5,4.5,8.3,6.3,13.4,6.9c6.6,0.8,13.3,0.5,20,1c4.2,0.3,8.4,0.8,12.5,1.7c7.9,1.6,11.1,6.6,9.6,14.9
	c-1.8,9.8-4.3,19.4-5.6,29.2c-0.8,6.1-0.4,12.5,0.4,18.7c1.1,9.6,3,19.2,4.5,28.8c1.2,7.5,2.5,14.9,6.2,21.7
	c2.4,4.4,5.4,7.8,10.4,9.2c7,1.9,12.7-1.1,17.9-5.1c7.3-5.6,12.4-13.1,16.8-21.2c3.9-7.2,8-14.4,12.5-21.3
	c5.4-8.3,13.9-13.3,21.2-19.6c6.8-6,13.6-12,20.5-17.9c2.8-2.4,5.7-4.7,8.8-6.7c4.7-3,9.7-2.3,14.1,0.4c8.6,5.4,17,10.9,26.7,14.1
	c10.2,3.3,20.7,5.1,31.3,6.2c6.2,0.7,12.5,1.5,18.8,1.6c14.3,0.2,19.8-9.1,21-20.3c0.8-6.7,0.6-13.2-1-19.6
	c-3.2-12.7-11.9-19.6-24.2-22.5c-11.8-2.8-23.6-1.8-35.4-0.1c-6.2,0.9-12.5,1.6-18.8,1.6c-12.3,0.1-18-6-18.3-18.3
	c-0.2-6.4,0.6-12.8,0.7-19.2c0.2-11.1-5.7-14.9-14.2-16.5c-5.1-1-10.5-0.7-15.8-1"/>
<path class="st0" d="M970.5,14.9c-8.9,2.1-13.9,8.9-17.3,16.3c-4.9,10.6-7.7,21.8-4,33.7c2.1,6.7,6.2,12.2,11,17
	c4.6,4.6,9.9,8.5,14.9,12.6c6.6,5.3,13.8,9.6,22.1,11.6c7.4,1.9,15,1.7,22.1-1.3c9.4-4,13.5-12.8,11.5-22.4
	c-4.8-22.3-14.8-42-31.9-57.5c-7.8-7-16.9-11.4-27.9-10.1"/>
<path class="st0" d="M1525.8,353.4c-4.5,3.3-3.6,7.8,2.1,10.4c2.7,1.3,5.3,1.4,7-1.3c1.4-2.2,0.3-4.4-1.2-6.2
	c-1.9-2.4-4.5-3.3-7.5-2.9"/>
<path class="st0" d="M978,345.9c-5.9,2.8-6.9,4.7-5,10.8c0.4,1.1,0.7,2.3,1.3,3.3c5.7,9.7,8.5,20.4,10.9,31.3
	c2.9,12.9,9.6,17.3,21.2,19.5c6.5,1.2,12.8-1.1,16.6-7c5.9-9.2,7.9-19.5,6.8-30.4c-1-9.4-6.9-14.2-15-17.1
	c-9.4-3.4-18.9-6.8-28.4-9.9c-2.4-0.8-5.3-0.4-7.9-0.5"/>
<path class="st0" d="M1097.2,337.5c-15.7,4.1-27.2,14.5-37.4,26.4c-6.4,7.4-8.6,16.9-9.7,26.6c-1.3,11.4-2.3,22.9-4.3,34.2
	c-2.4,14.1-10.2,17.4-22.4,19.6c-6.8,1.2-13.7,2.1-20.4,3.9c-6.6,1.7-8.1,4.1-7.9,10.7c0.3,12.7,3.1,24.8,10.4,35.4
	c8.4,12.1,25,13.4,36.7,4.2c6.4-5.1,11.5-11.3,15.7-18.1c7.2-11.6,17.6-16.5,30.6-17.9c4.6-0.5,9.3-1.5,13.7-2.9
	c7.3-2.4,10.7-8.8,12.8-15.4c3.7-11.7,9-22.6,14.6-33.4c4.7-8.9,6.3-18.4,5-28.7c-1-7.6-2.2-15.1-5.4-22
	c-5-10.8-12.3-19.6-24.9-22.1c-2.2-0.4-4.4-0.3-6.7-0.5"/>
<path class="st0" d="M1196.4,330.8c-8.3,2.5-10.6,9.7-12.4,16.7c-1.7,6.5-2.4,13.3-3,20c-1,10.4,4.2,18,12.9,22.8
	c10.9,6,22.2,7.1,33.3,0.1c7.7-4.9,8.9-11.8,6.5-19.1c-3.5-10.8-8.2-21.3-15.7-30c-5.5-6.4-12-11.3-21.2-10.5"/>
<path class="st0" d="M1516.6,330c-7,1.3-13.5,3.7-18.3,9.2c-2.1,2.4-3.9,5.1-5.4,7.9c-3.5,6.1-1.9,12.4,2.2,16.9
	c8.7,9.7,19.1,17.5,31.5,22.3c11.9,4.6,21.1-0.5,27-7.7c4.6-5.6,7.6-12,8.5-19.5c0.8-6.2-1.3-11-6-14.5
	c-9.5-7.1-19.8-12.5-31.6-14.6c-2.4-0.4-5-0.1-7.5-0.1"/>
<path class="st0" d="M1385.3,326.3c-5.5,1-9.8,4.4-14.2,7.5c-5.4,3.8-10.9,7.2-17.5,8.9c-6.3,1.6-12.2,0.4-17.9-1.2
	c-13.9-3.9-25.6,0-36.7,8.1c-5.9,4.2-11.4,8.8-15.9,14.6c-9,11.7-5.9,20.3,2.6,27.9c4.7,4.1,9.8,7.8,15,11.3
	c10,6.9,17.3,16.7,25.8,25.1c6.3,6.1,12.5,12.3,18.8,18.3c14.1,13.5,27.3,27.6,33.2,46.7c2.4,7.9,3.1,16.3,4.3,24.5
	c1.3,8.2,2.2,16.4,3.4,24.6c1,7.2,2,14.5,3.4,21.7c2.6,13.5,12,20,24.6,22.4c5,0.9,10.4,1,15.4,0c11-2.2,16.2-10.2,14.1-21.1
	c-1.4-7.5,0-14.5,2.6-21.3c3.9-10,9.1-19.4,11.2-30c3.2-16.3,8.2-32.1,13.2-48c5.7-18.3,0.8-34.6-15.6-48.3
	c-8.9-7.4-18.5-13.6-29.7-16.9c-5.2-1.6-10.8-2.2-16.2-2.6c-13-0.9-28.9-10.7-31.4-25.1c-1.2-6.7,0.6-12.3,3.1-18
	c3-6.7,6.3-13.3,9.1-20.1c1.9-4.7,0.3-7.7-4.1-9.1"/>
<path class="st0" d="M966.3,325.8c-4.9,1.8-10.1,3-14.5,5.6c-7.7,4.5-9.3,11.4-6.6,20.3c1.3,4.4,3.6,8.5,5.8,12.5
	c3.1,5.7,7,10.9,9.9,16.8c5.4,11.1,2.9,26-9.4,32.2c-7.4,3.8-14.6,8.4-18.1,16.9c-3.7,8.8-0.1,19.6,5.5,24.6
	c7.8,6.9,17.2,4.6,22.5-4.6c2.2-3.8,4-7.7,5.9-11.7c4.2-8.9,10.5-14.6,24.6-11.7c6.6,1.3,13.3,2.3,20,2.5c14.5,0.3,21.6-5,25.7-21.2
	c2.4-9.3,3.4-18.9,5.2-28.3c1.7-9.1,3.5-18.1,5.4-27.1c1.4-6.7-0.4-9.7-7.1-10.8c-8.7-1.4-17.6-2.4-26.2-4.3
	c-5.7-1.3-11.2-3.9-16.7-6.1c-10.1-4.1-20.4-6.2-31.3-5.4"/>
<path class="st0" d="M691.2,325.8c-5,1.1-7.6,4.8-10,8.7c-4.5,7.3-7.9,15.1-9.9,23.4c-0.5,2-0.6,4.2-0.4,6.2c0.2,3.3,3.1,5.6,6.2,5
	c11.6-2.5,21-8.4,25.7-19.6c4-9.6-0.2-20.2-7-22.8c-1.3-0.5-2.8-0.6-4.2-0.9"/>
<path class="st0" d="M543.6,312.5c-5.7,1.5-7.6,5.1-7.1,10.8c1.1,14.5,4.5,28,15.1,38.8c5.3,5.4,11.9,7,19.2,6.2
	c5.3-0.6,10.8-6,12.5-12.1c2.3-8.1,0.3-15.7-3.9-22.4c-6.4-10.2-15.3-17.9-27.4-20.9c-2.5-0.6-5.3-0.4-7.9-0.5"/>
<path class="st0" d="M152.6,306.7c-4,0.8-8.1,1.5-12.1,2.5c-4.4,1.1-8.1,3.4-10.9,7c-5,6.5-1.9,14.8,2.9,18.4
	c5.2,3.9,11.1,5.7,17.2,6c7.7,0.4,15.6,0,23.3-0.8c8-0.8,13.2-5.4,14.2-11.1c1.1-6.7-3-13.6-9.6-17.6c-7.7-4.6-16.1-4.5-24.6-4.5"/>
<path class="st0" d="M797.1,270.8c-3.1,1.1-6.4,1.8-9.1,3.4c-5.9,3.5-7.5,10.8-3.3,16.1c2.9,3.5,6.4,7,10.4,9.1
	c8.1,4.3,16.7,7.2,26.2,6.4c4.4-0.4,6.7-3.7,5.9-7.9c-1.8-9.2-6.8-16.6-13.9-22.4c-4.4-3.6-10-4.8-15.8-4.7"/>
<path class="st0" d="M162.6,295.8c-2.2,0.3-4.4,0.6-6.7,0.8c-10.1,0.8-20.4,1.4-29.6,6.3c-8.4,4.6-13.9,11.3-13.4,21.6
	c0.5,8.5,4.8,14.6,11.7,19.2c6.7,4.4,14.3,5.7,22.1,6.3c9.2,0.7,18.3,2,27.5,2.4c7.2,0.3,14.5,0.1,21.6-0.9c5.6-0.8,7.4-4.1,7.9-9.4
	c1.1-12-1.7-23.1-9.5-32.5c-6.3-7.5-14-12.5-24.2-13c-2.4-0.1-4.7-0.5-7.1-0.8"/>
<path class="st1" d="M689.5,291.7c-10.1,2-13.7,10.2-16.1,18.4c-5.1,17.8-11.7,35-18.8,52.1c-3,7.2-5.1,15-3.2,23.3
	c1.6,6.8,6.9,11,13.4,8.6c6-2.2,11.7-5.3,17.1-8.7c7-4.4,14.5-8.6,20.3-14.3c10.3-10,17.7-22.1,16.8-37.3
	c-0.5-8.5-3.6-16.4-7.9-23.7c-3.4-5.8-6.7-11.9-12.9-15.4c-2.5-1.4-5.5-2-8.3-3"/>
<path class="st0" d="M162.6,286.7c-5,0.8-10,1.7-15,2.5c-10,1.5-20.1,2.7-29.2,7.9c-10.6,6.1-17.3,14.7-16.9,27.1
	c0.2,4.8,1.7,10,4.1,14.1c6.4,10.9,16.3,16.9,29,18.5c12.2,1.5,24.6,2.8,36.7,5.1c14.6,2.8,24.7,11,28.9,26.1
	c2.6,9.3,6,18.5,10.4,27.1c9.8,19.1,24.9,31.5,46.9,34.3c6.7,0.9,13.5,1.8,20,3.9c4.4,1.4,8.7,4.2,12,7.4
	c11,10.7,17.8,23.9,21.8,38.7c4.6,17.2,9.1,34.5,13.8,51.7c1.5,5.4,4,10.4,7.8,14.6c7,7.8,16.4,8,24.6,2
	c10.5-7.8,16.6-18.5,18.7-31.2c1.3-7.7-2.1-14.8-6.2-21.2c-7.4-11.6-17.2-21.3-27.4-30.5c-9.9-8.9-20.6-17.4-25.6-30.1
	c-3.9-9.9-6.3-20.4-8.9-30.8c-2.4-9.6-4.4-19.4-6.3-29.2c-1.1-5.9-1.6-11.9-2.1-17.9c-0.7-8.9-1-17.8-1.8-26.7
	c-0.3-2.7-1.5-5.5-2.9-7.9c-2.1-3.5-6.6-4.5-10.7-2.5c-3.5,1.7-6.7,3.8-10,5.8c-9.9,6.1-20.8,8.3-32.1,6.9
	c-10.1-1.2-17.6-6.6-22.2-16.1c-4-8.3-7.6-16.9-12.6-24.5c-7.2-10.9-16.1-20.7-29.5-24.1c-4.8-1.2-10-0.7-15-1"/>
<path class="st0" d="M252.6,380c-8.1,2.9-11.4,6.9-11.3,13.8c0.2,7.4,6,16.5,12.5,18.7c8.2,2.8,17.2-0.3,19.1-11.6
	c0.9-5.1-0.3-10.1-3.3-14.6c-4-6.1-10.1-6.8-16.7-6.3"/>
</svg>
