<svg width="626" height="239" viewBox="0 0 626 239" fill="none" xmlns="http://www.w3.org/2000/svg">
<path d="M284.5 106L165.5 11L85.5002 1.5L13.0002 39C8.83356 60.6667 0.800231 106.5 2.00023 116.5C3.50023 129 15.5 186.5 27.5 194C39.5 201.5 93.5 219.5 117 222C140.5 224.5 177.5 231 205.5 212.5C233.5 194 258 170 267.5 161.5C277 153 290 136.5 300 126.5C310 116.5 330 78.5 340 68C350 57.5 372.5 50 388.5 39C404.5 28 431.5 24 455.5 17.5C479.5 11 495.5 9 522 17.5C548.5 26 583 55.5 596 68C609 80.5 619.5 102.5 624 135C628.5 167.5 617 210 584 222C551 234 529.5 244 507.5 233C485.5 222 472.5 222.5 455.5 212.5C438.5 202.5 423 191.5 398.5 184.5C374 177.5 350 163 345 158C341 154 328 141 322 135L284.5 106Z" stroke="black" stroke-width="2"/>
</svg>
