<?xml version="1.0" encoding="utf-8"?>
<!-- Generator: Adobe Illustrator 24.3.0, SVG Export Plug-In . SVG Version: 6.00 Build 0)  -->
<svg version="1.1" id="Layer_1" xmlns="http://www.w3.org/2000/svg" xmlns:xlink="http://www.w3.org/1999/xlink" x="0px" y="0px"
	 viewBox="0 0 292 288" style="enable-background:new 0 0 292 288;" xml:space="preserve">
<style type="text/css">
	.st0{fill:none;stroke:#000000;stroke-width:3;stroke-miterlimit:10;}
</style>
<path class="st0" d="M86.5,13.5c-43.58,22.62-75.28,76.94-65,128c3.48,17.29,11.03,30.48,17,39c-4.25,5.28-45.98,58.16-29,87
	c18.54,31.51,102.76,26.89,135-13c32.89-40.69-1.72-101.47,28-121c26.53-17.43,64.65,24.05,95,5c24.66-15.48,31.98-63.26,15-80
	c-22.19-21.88-77.33,17.62-103-8c-13.62-13.6-4.22-30.83-19-43C136.84-11.97,88.69,12.37,86.5,13.5z"/>
<ellipse class="st0" cx="194.5" cy="165.5" rx="81" ry="76"/>
</svg>
