<svg width="649" height="704" viewBox="0 0 649 704" fill="none" xmlns="http://www.w3.org/2000/svg">
<path d="M612.652 302.141L612.5 302.288V302.5C612.5 348.498 617.417 393.561 622.044 435.963L622.339 438.663C627.051 481.865 631.342 522.238 629.688 558.018C628.034 593.794 620.438 624.917 601.424 649.648C582.422 674.364 551.964 692.765 504.447 703C457.639 702.982 394.376 679.633 328.457 644.013C262.532 608.391 194.023 560.536 136.783 511.62C79.5319 462.693 33.6025 412.743 12.7869 372.94C2.373 353.027 -1.70011 335.756 2.11084 322.452C5.90482 309.207 17.5726 299.721 39.0963 295.491L39.2208 295.466L39.3186 295.385C105.186 240.889 195.758 207.219 270.532 179.422C282.795 174.863 294.632 170.463 305.866 166.154C325.792 158.512 343.821 151.158 358.942 143.725C374.058 136.295 386.302 128.77 394.635 120.775C402.973 112.775 407.443 104.257 406.883 94.8618C406.326 85.5134 400.796 75.4267 389.449 64.24C383.314 40.8591 384.712 24.7573 391.372 14.6889C398.026 4.62916 410.043 0.437125 425.524 1.14787C456.51 2.57046 500.909 23.6354 541.944 55.4576C582.965 87.2691 620.516 129.749 637.863 173.878C646.534 195.937 650.149 218.39 646.645 240.124C643.142 261.852 632.518 282.897 612.652 302.141Z" stroke="#56E7B7"/>
</svg>
