<?xml version="1.0" encoding="utf-8"?>
<!-- Generator: Adobe Illustrator 24.3.0, SVG Export Plug-In . SVG Version: 6.00 Build 0)  -->
<svg version="1.1" id="Layer_1" xmlns="http://www.w3.org/2000/svg" xmlns:xlink="http://www.w3.org/1999/xlink" x="0px" y="0px"
	 viewBox="0 0 1600 900" style="enable-background:new 0 0 1600 900;" xml:space="preserve">
<style type="text/css">
	.st0{fill:none;stroke:#000000;stroke-width:2;stroke-linecap:round;stroke-linejoin:round;stroke-miterlimit:10;}
</style>
<path class="st0" d="M763,471.5c-4.1,2.2-3.7,6.4-3.9,10c-1.3,18.6,5.8,33.8,21,44.4c14.6,10.1,29.6,19.7,45,28.4
	c7.5,4.3,16.3,5.5,25.4,3.8c13.6-2.5,27.3-4.4,41-6c7.8-0.9,15.7-1,23.5-1c8.8,0,17.7,0.8,26.5,0.9c13.8,0.2,25.2-5,32.4-17
	c6.7-11.2,15.4-20.5,25.1-28.9c9.5-8.3,10.4-18.8,4.8-29.9c-4.3-8.5-10.3-16.3-15.9-24.1c-4.1-5.8-8.4-11.6-13.5-16.4
	c-7.7-7.4-17.5-8.5-27.9-7.2c-20,2.5-36.4,13.3-53.5,22.6c-15.8,8.6-32.2,15.2-50,17.9c-10.9,1.7-22,2.8-33,4
	c-7.3,0.8-14.7,1.5-22,2c-8.4,0.6-16.5-1.5-24.5-4"/>
<path class="st0" d="M1072,466.5c-5,2.8-5.4,7.7-4.9,12.5c0.6,6,1.3,12.2,3,18c4.6,15.5,0.4,28.4-10,40.1c-3.8,4.2-7,8.8-8.4,14.9
	c-1,4.3,0.2,7.7,1.5,11c3.5,8.7,10.7,14.7,18,19.9c8.9,6.3,18.6,11.5,27.9,17.2c6.3,3.9,13.5,5,20.5,5.9c7.6,1,15.4,1.4,23,1
	c7.7-0.5,15.6-0.9,22.6-5.7c5.5-3.7,7.4-8.6,7.9-14.6c1.6-19.4-11.7-30.9-29.5-37.5c-8.5-3.2-17.5-5.2-25.1-10.9
	c-8-5.9-12.8-13.7-16.5-22.6c-6.8-16.4-13.4-33-25.5-46.5c-1.1-1.2-2.6-2-4-3"/>
<path class="st0" d="M392,619.5c3.6-0.2,3.9-2.9,4-5.5c0.2-4.2,0.3-8.3,0-12.5c-0.9-14.7,4-27.8,11.6-40c4.7-7.6,10-14.8,14.3-22.6
	c2.4-4.3,4.4-9.2,4.9-13.9c1.3-10.7-3.5-18-13.8-21.9c-14.1-5.3-28.7-6.4-42.9-0.9c-11.5,4.5-20.4,14.8-21.1,29.8
	c-0.5,11.3,3.3,21.5,7.9,31.5c5.3,11.4,10,23,15.1,34.5c3.7,8.4,9.3,15.3,16.5,21c0.8,0.6,2,0.7,3,1"/>
<path class="st0" d="M568.5,402.5c-2.1-15.5-11.1-24.7-28.5-28.5c-5.9-1.3-12-3-18-2.8c-8.2,0.3-16.5,1.7-23.5,6.8
	c-6.4,4.6-10.4,11-11.3,18.5c-0.7,6.6,1.3,13.3,5.3,19c8.1,11.4,19.7,16.7,33,19.6c16.9,3.6,29.3-3.3,38.3-16.7
	c2.9-4.2,3.2-10.2,4.7-15.4"/>
<path class="st0" d="M275.5,772c5.7-6,11.7-11.9,14.5-20c4.1-12.1,2.4-24-2.5-35.5c-4.2-9.6-9.4-18.4-18.4-24.6
	c-8.4-5.8-24.4-5.1-32.6,1.5c-7.7,6.2-12.5,14-13.3,23.6c-0.9,10.2,3.3,19.1,10.3,26.5c11.6,12.2,26,20.7,40.5,29
	c0.3,0.2,0.3,0.6,0.5,1"/>
<path class="st0" d="M273.5,774c-12.2,8.3-24.5,16.5-36.4,25.1c-6.3,4.5-10,10.9-10,18.9c-0.1,6.4,3.8,12.2,10,13.9
	c8.1,2.2,16.3,3.6,25,2.4c8.2-1.1,16.3-2.1,23.9-5.4c7.4-3.1,14.5-6.9,17.6-15.4c3.2-8.5,0.3-15.2-5.1-21.5
	c-6.4-7.6-14.9-12.6-23-18"/>
<path class="st0" d="M1114.5,130.5c0.5,12,8.4,18.9,17.6,24.4c7.8,4.6,15.9,9.1,25.4,9.1c6.1,0,9.8-3,12.6-9
	c3.4-7.3,1.6-14.4-0.1-21.5c-2.4-10-5.3-19.8-10.9-28.5c-2.6-4-5-8.2-10.5-8.5c-2-0.1-4.2-0.2-6,0.5c-12.2,5.5-22.8,12.7-27,26.4
	c-0.6,2.1-0.7,4.3-1,6.5"/>
<path class="st0" d="M1406.5,480c4.9-1.3,7-5.5,8.4-9.5c3.6-10.3,5.9-20.9,5.1-32c-0.5-6.9-2.1-13.6-6.5-19c-7.7-9.2-21.7-10-28.4,3
	c-4.3,8.4-3.9,17.2-1.9,26c2.4,10.6,7.5,20,15.5,27.4c2,1.9,4.9,2.7,7.4,4.1"/>
<path class="st0" d="M1410.5,52c-7.5,0.8-14.9,2.6-21.4,6.2c-6.8,3.8-14.4,7.1-18.1,14.8c-1.6,3.4-1.6,6.8,1,9.5
	c8.9,9.1,19.7,15.3,32,18.4c6.2,1.6,14.9-3.4,17.4-9.9c3.9-9.9,4.4-20.1,1.2-30.5c-1.9-6.1-6.4-7.5-11.6-8.5"/>
<path class="st0" d="M551.5,402.5c-1.2-10.5-9-14.9-17.6-17.2c-6.5-1.8-13.5-2.3-20.5,0.6c-11.3,4.8-15.4,15.7-6.6,25.2
	c6,6.5,13.5,9,21.6,9.8c10.7,1.1,20.8-7.1,23-17.9"/>
<path class="st0" d="M1542.5,498c0.8-1.5,1.9-2.9,2.5-4.5c3.1-8.1,6-16.3,9.1-24.5c1.2-3.1,2.9-5.9,3.9-9c1.4-4.1-1.3-8.6-5.4-8.9
	c-8.6-0.6-16.7,0.6-23.6,6.9c-4.6,4.2-5.8,9.6-3.7,14.5c4,9.4,9.2,18.4,16.8,25.6"/>
<path class="st0" d="M964,817.5c2,1.3,3.9,3.5,6,3.9c12.8,2.1,24.4-0.5,34-9.9c2-2,3.7-4.1,2.6-7.5c-1.1-3.4-3.8-4.1-6.6-4.4
	c-9-1.2-17.3,1.5-25,6c-4.7,2.7-9.8,5.3-11,11.4"/>
<path class="st0" d="M1145.5,705c1,2.3,1.6,5,3.1,6.9c5.4,7.1,11.1,13.8,20.4,16.1c5.1,1.3,10.6,0.2,13.5-3.6
	c2.2-2.9,2.2-10.1-0.6-13.5c-5.7-6.8-12.9-10.7-21.9-11c-2.5-0.1-5,0.1-7.5,0c-3.6-0.3-6.1,1.2-7.5,4.5"/>
<path class="st0" d="M993,739.5c2.8-0.8,6.1-1.1,8.4-2.6c7-4.6,8.5-13.4-0.9-19.9c-6.2-4.3-13.2-5.8-20.5-4
	c-9.8,2.4-9.6,10.8-5,17.4c4.2,5.9,10.4,8.6,17.5,9.5"/>
<path class="st0" d="M363.5,263c1.9,8.3,9.8,12.6,18.5,10.6c7.4-1.7,11.6-10.9,9.5-18.1c-1.1-3.5-5-6.2-9.5-6.5
	c-7.7-0.5-16.8,6-19,13.5L363.5,263z"/>
<path class="st0" d="M1134.5,479c-9.6,3.8-13.3,8.7-12.5,16.5c0.9,8,4.4,15.1,10.1,20.4c8.1,7.5,18.3,10.9,29.4,11.1
	c10.5,0.1,12.3-5.8,11.4-13.4c-0.8-6.9-4.2-12.9-8-18.5c-5.1-7.5-11.5-13.5-20.9-15c-3-0.5-6-0.7-9-1"/>
<path class="st0" d="M239.5,483c-2.5,0.7-5,1.6-7.5,2c-17.8,2.9-28.6,13.4-33.5,30.5c-2.9,10.3-7.3,19.9-12,29.5
	c-3,6.2-1.4,11.8,2.9,17c9,11.2,21.4,16.6,34.6,19.7c15.2,3.6,30.6,6.8,46.5,6.3c8.9-0.3,14.3-6.1,16.5-13.1
	c4.4-14.2,3.8-29,2.7-43.5c-1.1-14.9-5.8-29-18.2-39c-5.7-4.6-12-7.9-19.5-8.5c-4-0.3-8-0.7-12-1H239.5z"/>
<path class="st0" d="M1278.5,489c-10.1,4-15,12.7-18.4,22c-4,11.2-6.8,22.8-6.1,34.9c0.4,6.7,2.3,12.8,7.5,17.5
	c7.2,6.5,13,5.6,18.9-1.1c3.5-4.1,6.4-9,8.5-13.9c5.5-13.1,9.5-26.5,9.1-40.9c-0.2-7.4-3.2-13.4-9.2-17.3c-2.5-1.6-6.5-0.9-9.9-1.2"
	/>
<path class="st0" d="M1170.5,369c-7.5,2.3-15.3,4-22.4,7.2c-8,3.6-15.9,7.8-22.9,13c-7.9,5.8-9,15.4-4.1,24.8
	c5.9,11.3,14,20.2,26.5,24.5c12.9,4.5,25.5,2.9,37.4-2.7c5.6-2.6,11-6.3,15.4-10.5c5-4.8,5.8-11.2,4.9-18.4
	c-0.8-7.4-2.9-14.2-5.4-20.9c-4.5-12.1-13.1-18.4-26.4-17c-0.8,0.1-1.7,0-2.5,0"/>
<path class="st0" d="M1360.5,363c-9.4,3.6-11.8,11.8-12.4,20.5c-0.7,11.5-1.1,23-1,34.5c0.1,14.6,3.3,28.5,8.8,42.1
	c3.7,9.2,7.3,18.8,8.8,28.5c1.4,9.1,1,18.7-1.1,28c-1.3,5.9-2,12-2.5,18c-0.6,7.5-1.1,15-1,22.5c0.1,5.3,0.5,10.9,2,16
	c3.8,12.5,13.2,17.7,27.4,13.6c9.5-2.8,15.3-9.9,21.4-16.7c9.5-10.6,17.9-22.1,27.7-32.3c12.1-12.7,15.5-27.2,12.5-44.1
	c-1.6-9.2-2.4-18.6-3-28c-0.7-8.8-0.4-17.7-1.1-26.5c-1.2-15.2-3.7-30.2-12-43.5c-7.7-12.5-19.6-19.6-33-24.4
	c-8.8-3.2-17.9-5.8-27-7.9c-4.4-1-9.3-0.2-14-0.2"/>
<path class="st0" d="M243.5,493c-3.2,0.7-6.4,1.2-9.5,2c-12,3.3-18.3,12-20.9,23.5c-2.1,9.6-1,19.2,2,28.5
	c3.4,10.6,11.3,17.4,21.5,20.9c6.5,2.2,13.6,3.3,20.5,4.1c11.7,1.2,19.1-6.5,21.5-15.4c3.9-14.9,3.5-29.4-3.4-43.5
	c-4.6-9.4-11.7-15.5-21.6-18.4c-3-0.9-6.3-1.1-9.5-1.6H243.5z"/>
<path class="st0" d="M887.5,494c-6.5,2.3-13.2,4.3-19.4,7.1c-4.1,1.8-8.1,4.5-11.5,7.5c-3,2.7-2.2,4.9,1.9,5.7
	c3.3,0.6,7.1,0.3,10.4-0.4c8.9-1.9,17.7-4.2,25.6-9.3c2.8-1.8,5.2-3.8,4.3-7.1c-0.9-3.3-4.2-3.7-7.3-3.6c-1.2,0.1-2.3,0-3.5,0"/>
<path class="st0" d="M511.5,362c-7,2.3-14,4.3-20,8.9c-11.8,9.2-16.4,20.6-13.6,35.6c2.8,15.4,11.3,26.3,24.7,33.4
	c11,5.8,22.3,10.9,34.4,14.3c6.1,1.7,11.2,0.4,15.5-2.8c12.3-9.3,22.9-20.4,27.1-35.9c3.4-12.4,2.5-24.4-5.5-34.9
	c-5.7-7.5-14.3-10.8-22.9-13.5c-12.7-4-25.7-5.8-39-5"/>
<path class="st0" d="M242.5,506c-6.9,1.6-12.3,5.2-13.9,12.5c-2.4,11.1,1.4,23.5,12.5,29c2.7,1.4,5.6,3,8.5,3.4
	c10.5,1.4,18.3-6.1,18.5-16.9c0.1-5.8-0.7-11.5-3.6-16.5c-4.7-8.1-11.9-12.2-21.4-11.5H242.5z"/>
<path class="st0" d="M383.5,509c-5.1,1.8-10.3,2.8-14.6,6.9c-8.6,8.3-9.5,17.9-6.4,28.6c2.1,7.2,6.4,13,12,18c4.4,4,10,4.4,14.5,0.5
	c9.5-8.4,17.2-18.4,19.8-31c2.1-10-2.7-18.2-15.3-21.9c-3-0.9-6.3-0.7-9.5-1.1H383.5z"/>
<path class="st0" d="M1180.5,354c-8.2,2.3-16.5,4.2-24.5,7.1c-13.6,5-27,10.7-40.6,15.9c-14,5.3-20.9,17-26.4,29.6
	c-2.6,6-4,12.6-5.6,19c-1.5,6.2,0.9,9.7,7.4,10.9c8.6,1.7,16.7,4.6,24.5,8.5c6.5,3.3,12.7,7.5,19.6,9.8c10.8,3.7,22,5.9,32.9,9.3
	c5.5,1.7,10.7,4.5,16,6.9c8,3.7,11,2.3,15.6-4.9c4.3-6.7,9.4-12.9,14.4-19c4.6-5.6,7.6-11.5,8.1-19c0.8-14.4-4.5-27.3-8.6-40.5
	c-1.8-5.7-3.9-11.4-6-17c-4.6-12.3-13.1-18.2-26.5-16.5"/>
<path class="st0" d="M543.5,538c-1.2,0.3-2.3,0.9-3.5,1c-7.2,0.1-12.5,3.6-17,9c-4.1,4.9-8.5,9.5-13,14c-6.3,6.3-14.7,7.1-23,8
	c-10.3,1.2-20.8,1.6-30.5,6c-8.1,3.7-15.6,9.4-15.7,23.5c-0.1,10.5,3.8,20,5.6,30c1.4,8.1,3.5,16.4,3.3,24.5
	c-0.2,9.2-3.6,18-7.1,26.6c-2.4,5.9-4.5,12.2-5.5,18.5c-1.8,11.3,3.4,20.8,11,28.4c14.4,14.4,29.1,28.7,44.5,41.9
	c9.7,8.3,21.8,12.4,34.8,13.9c8.2,1,16.1,0.9,24-0.7c15-2.9,23.7-12.8,28.4-26.5c1.4-4.2,2-9,2-13.5c0-10.5,0.3-21.1-1.1-31.5
	c-1.5-11.3-4.8-22.4-7.3-33.5c-2.4-10.5-4.4-21.2-3.4-32c1.2-12.8,4.6-25.1,9.4-37c3.5-8.7,6.4-17.6,6.4-27
	c0.1-17.7-10.7-34-27-40.4c-4.7-1.8-10-2.1-15-3.1L543.5,538z"/>
<path class="st0" d="M1267.5,349c-5.5,3.3-7.8,8.4-7.4,14.5c0.5,7.5,2.3,15.1,8.5,19.9c7.6,5.9,13.6,2.3,15.2-6.4
	c1.6-8.2-0.4-16.2-5.9-22.9c-2.5-3-5.7-5.2-10-5"/>
<path class="st0" d="M546.5,554c-6.8,2.1-12.2,6.3-17.1,11.4c-3.6,3.8-7.3,7.6-11.5,10.4c-5.7,3.8-12.6,4.7-19.4,5.1
	c-6,0.3-12-0.3-18,0.2c-6.7,0.5-13.4,1.4-19.5,4.8c-9.3,5.2-12.8,12.9-11,23.6c2.3,13.6,4.1,27.3,6.1,41c1.7,11.8-1.9,22.7-5.9,33.5
	c-7.2,19.4-4.9,30.9,11.1,44.8c11.8,10.3,24.7,19.4,37.4,28.6c9.5,6.9,20,11.8,31.4,14.6c18.4,4.6,34.9-5.8,39-24.5
	c2.9-13.4,2.9-27,0.9-40.5c-1.7-11.5-4.6-22.9-5.7-34.5c-1-9.7-0.3-19.6-0.2-29.5c0.1-16.9,6.2-32.5,10.5-48.5
	c4.1-15.3-2-32.2-14-38c-4.3-2.1-8.8-2.7-13.5-2.5H546.5z"/>
<path class="st0" d="M634.5,562c-10.3,4.2-13.9,12.7-14.5,23c-0.4,6.2-0.9,12.3-1,18.5c0,13.6,5.1,16.8,15.5,19.4
	c8.9,2.3,18,4,27,6.1c12.2,2.9,14.1,0.1,15.3-10.1c1.5-13.1-0.7-26.2-6.9-37.9c-7.2-13.6-19-20.5-34.8-19.1"/>
<path class="st0" d="M1354.5,345c-11,2.7-13.8,11.9-14.3,21c-1.1,20.8-1.3,41.7-1.1,62.5c0.1,12,4.6,23.1,9.4,34
	c5.2,11.9,8.7,24.3,7.4,37.5c-0.7,7.5-2.3,15-3.4,22.5c-0.5,3.2-1.4,6.3-1.4,9.5c-0.5,16.8-0.9,33.7-0.9,50.5c0,3.7,1.1,7.5,2.5,11
	c3.5,8.8,7.1,13.2,21.4,12.4c8.1-0.4,15.9-2.7,23.5-5.8c10.2-4.2,15.9-12.6,20.9-21.6c7-12.7,15.9-23.8,26-34
	c5.6-5.7,10.7-11.8,13.6-19.4c2.8-7.5,4.7-14.8,3.1-23c-2.6-12.9-4.5-25.9-6-39c-1-8.6-0.6-17.3-1.2-26
	c-1.1-17.2-4.2-33.7-13.9-48.6c-5.3-8.1-12-14.4-20.6-18.4c-13.7-6.3-27.6-12.1-41.5-18.1c-7.4-3.2-14.9-6.2-23-7"/>
<path class="st0" d="M1265.5,329c-12.6,3-16.5,12.2-17.6,24c-1.5,16.2,1.9,30.7,12.1,43.5c4.1,5.1,9.2,8.4,15.5,9.4
	c9.5,1.4,17.3-6.3,19.4-14.4c4.8-18.2-2.2-45.4-18-57.4c-3.1-2.4-7.3-3.4-10.9-5.1"/>
<path class="st0" d="M548,579c-6.7,3-13.2,6.5-20,8.9c-5.8,2-11.9,3.6-18,4c-9.5,0.6-19,0.1-28.5,0.2c-5.6,0.1-11,1.6-15.4,5
	c-7.6,5.9-7.6,14.6-6.9,22.9c0.6,7.7,2.7,15.3,3.8,23c0.9,6,1.8,12,1.9,18c0.2,9.4-2,18.5-4.4,27.5c-2.5,9.6-2.8,19,4.5,27
	c5,5.5,11.5,8.3,18.5,10.6c6.8,2.2,13.3,0.4,19.5-1.7c11-3.8,21.5-2.5,32.1,1.2c8.3,2.9,11.1,1.5,15.6-5.9c4-6.6,5.2-13.8,5.3-21.1
	c0.1-13-0.9-26-0.8-39c0.1-10.8,1.1-21.7,1.9-32.5c0.9-11.5,2.2-23,2.8-34.5c0.2-2.9-0.6-6.3-2-8.9c-1.8-3.3-5.3-5-9.3-4.6H548z"/>
<path class="st0" d="M751.5,583.5c-6.7,2.2-9.1,7.2-5.9,14c3.9,8.2,9.7,15.2,17.9,19.5c17.2,8.9,33.5,19.3,50.2,29.2
	c13.5,8,27.6,15.2,43.3,19c14.2,3.4,26.7,1.1,38.5-6.7c4-2.6,7.9-5.5,12-8c5.2-3.1,10.9-4.1,17-3.6c1.5,0.1,3,0.1,4.5,0
	c4.5-0.3,6-2.4,3.4-5.9c-8.7-12-15.9-25.4-27.5-34.9c-5-4.1-11.3-6.1-17.9-7.2c-15.5-2.8-29.2,2-43.1,7.9c-9.4,4-18.3,8.9-28.9,10.5
	c-9.5,1.4-16.8-0.7-23-7.4c-4.1-4.4-7.5-9.5-11.6-13.9c-7.6-8.3-17.2-12.4-28.5-12.5"/>
<path class="st0" d="M1011.5,589c-12.5,3.3-15.6,12.9-15.3,24c0.2,9.4,1,18.9,3,28c3.6,16.2,15.2,25,30.3,30.1
	c10.2,3.5,21,6.8,27.9,15.5c20.3,25.6,46.9,44.2,71,65.5c15.5,13.7,30.1,28.3,45.1,42.4c3.6,3.4,7.2,6.8,11,10
	c7,5.8,13.2,4.8,17.3-3.5c2.8-5.6,4.9-11.8,6-18c1.7-10.4,6.6-19.5,10.7-28.9c3.7-8.5,7.1-17.2,7.3-26.5
	c0.2-12.1-4.4-22.8-10.8-33.1c-10.1-16.2-23-29.6-38.7-40.3c-9-6.1-19.2-9.6-30.4-9.1c-16.3,0.7-32.7,1.6-49,1.9
	c-9.4,0.2-17.5-3.6-23.5-10.9c-9-11.1-17.5-22.6-29-31.5c-9-6.9-18.6-12.5-29.5-15.4c-0.9-0.2-2,0-3,0"/>
<path class="st0" d="M1539.5,328c-2.7,0.7-5.4,1.2-8,2c-9,2.9-13.4,9.1-13.6,18.5c-0.1,6.9,1,13.4,4.1,19.5
	c6.7,13.1,19.5,13.4,29.4,7.5c8-4.8,11.2-12.9,13.5-21.5c0.7-2.6,0.8-5.3,1-8c0.9-9.2-4.7-15.1-15-16.9c-3.6-0.6-7.3-0.7-11-1"/>
<path class="st0" d="M489.5,602c-2.7,0.7-5.4,1.2-8,2c-8.5,2.7-12.4,8.2-12.5,17c-0.1,11.7,1.8,23.1,3.9,34.5c1.7,8.9,2.8,18,4.1,27
	c1.7,11.7,10.1,17.6,21.5,15.6c6.4-1.1,13-1.3,19.5-2.1c4.4-0.5,8.8-0.8,13-2.1c9.2-2.9,12.3-11,13.9-19.4c1.6-8.6,2.2-17.3,3.1-26
	c0.5-4.7,1.4-9.4,0.9-14c-0.9-7.9-0.2-16.2-4.7-23.6c-2.7-4.4-6.8-6-11.1-6.8c-4.9-0.9-10-0.9-15-1.1c-9.3-0.4-18.7-0.7-28-1H489.5z
	"/>
<path class="st0" d="M933,325c-13.2,4-21.5,13.9-28.9,24.6c-2,2.8-2.8,6.9-2.9,10.4c-0.1,3.3,4.4,5.6,8.8,5
	c8.4-1.2,16.1-4.4,22.4-10c5.2-4.6,10.3-9.5,12.6-16.4c2.7-8.1-1-13.5-9.5-13.5c-0.7,0-1.3,0-2,0"/>
<path class="st0" d="M1021.5,609c-8.7,3.3-12.2,9.9-12.6,19c-0.5,11.2,2.1,20.9,11.7,27.3c4.4,2.9,9.7,4.9,14.9,6
	c6,1.3,12.3,1.8,18.5,1.5c7.6-0.4,10-4.8,8-13.3c-3.4-14-9.8-26.1-22-34.5c-5.4-3.7-11.2-6.5-18-6"/>
<path class="st0" d="M497.5,613c-3,0.8-6,1.6-9,2.5c-7.1,2.2-8.9,8.3-9.4,14.5c-0.9,13.3,1.7,26.2,8,37.9
	c4.2,7.8,11.1,12.3,20.4,12.1c4-0.1,8.1,0.1,12-0.6c9.9-1.8,15-8.4,17.6-17.9c2.9-10.7,4.4-21.2,0.9-32c-2.8-8.7-8.7-13.4-17.5-14.4
	c-7.5-0.9-15-1.4-22.5-2H497.5z"/>
<path class="st0" d="M864.5,615c-4.3,2.2-8.6,4.5-13,6.5c-5.2,2.3-7.1,7-8.2,11.6c-0.6,2.6,1,6.5,2.8,8.8c5.3,6.5,15.8,10,24.8,6.9
	c8.7-3,14-10,15-19.3c0.8-8.2-3.5-13.8-12.9-14.5c-2.7-0.2-5.3,0-8,0"/>
<path class="st0" d="M502.5,626c-15,3.4-13.1,20.4-6.6,31.1c5.3,8.6,18.5,10.3,25.6,5c5.3-4,9-15,7-21.5c-3-9.4-9.3-14.5-18-14.5
	c-2.5,0-5,0-7.5,0H502.5z"/>
<path class="st0" d="M176.5,324c-8.8,4.9-9.9,7.9-5.3,17.9c3.8,8.2,10.1,14.9,17.8,20.1c4.5,3,11.9,2.5,14.5,0.5
	c3.7-2.8,6.5-9.4,5.1-15c-2.9-11.6-9.8-19.3-21.1-22.9c-3.2-1-7-0.5-10.5-0.6H176.5z"/>
<path class="st0" d="M1122.5,657c-4.2,0.7-8.4,1.2-12.5,2c-11.2,2.3-22.4,4.6-33.5,7c-2.5,0.6-5.1,5.4-4.5,7.9
	c2.9,12.5,8.9,23.3,17.9,32.6c12.6,12.9,26.8,23.6,41.1,34.4c8.6,6.6,17,13.6,26.1,19.3c5.7,3.6,12.4,6,18.9,7.5
	c6,1.4,12.2-0.5,17.4-4.3c9.9-7.3,17.4-16.2,20.5-28.5c2.7-10.6,1.2-20.6-4.1-30c-11.9-21.2-28.8-36.8-52-44.9
	c-5.2-1.8-10.9-2.5-16.5-3c-6.1-0.5-12.3-0.1-18.5-0.1"/>
<path class="st0" d="M1260.5,314c-15.4,5.6-21,17.6-22.6,33c-1.8,16.9,1.7,32.8,8.3,47.9c4.8,10.9,11.8,20.6,23.8,25.1
	c10.3,3.9,18.7,1.7,26.1-6.5c6.4-7.1,8.6-15.6,8.8-24.6c0.5-22.1-5.1-42.6-18.5-60.4c-4.6-6.2-9.8-12.2-17.9-14
	c-2.4-0.5-5-0.4-7.5-0.6"/>
<path class="st0" d="M1129.5,670c-4.2,0.7-8.5,0.9-12.5,2.1c-4.8,1.5-9.8,3.2-13.9,6c-5.8,4-7.1,12.4-3,18.8c2.8,4.4,6,8.8,10,11.9
	c15.4,12.3,30.5,25.3,47.1,35.8c14.5,9.2,29.8,7.3,41.2-7.2c6.7-8.5,6.2-18.2,2-27.4c-7.2-15.6-20.2-25.2-35.4-32
	c-8.7-3.8-17.7-7.2-27.5-7.1c-2.5,0-5-0.6-7.5-0.9"/>
<path class="st0" d="M251.5,677c-9.8,2.8-18.6,7.3-25.5,15c-9.1,10.3-14.1,22.1-12.9,36c0.8,10,5.5,18.7,10.9,27c1,1.5,2,3,3,4.5
	c5.1,8.1,5.2,15.5-0.8,23.6c-5.5,7.4-10.1,15.6-14,24c-4,8.7-5.1,18.3-4.1,27.9c0.4,3.9,2.9,7,6.9,7.9c5.6,1.3,11.3,2.5,17,3
	c8.6,0.7,17.4,1.4,26,1c14.2-0.6,28.5-1.3,42-6.8c11.5-4.7,21-11.3,23.5-24.5c1.6-8.6,0-16.9-3-25c-3.1-8.3-6.4-16.6-8.9-25
	c-1.8-6-2.8-12.3-3.5-18.5c-1-8.6-3.4-16.8-7.2-24.5c-5.2-10.5-10.4-21-16.6-30.9C277.8,681,267.7,676,255,677c-1,0.1-2,0-3,0"/>
<path class="st0" d="M156.5,308c-3.7,1.3-7.4,2.5-11,4.1c-4.2,1.8-4.7,4.3-3.6,9c2.2,9.4,7.5,17.1,13.2,24.4
	c7.9,10.3,16.2,20.4,25,30c9.8,10.5,24.9,11.5,35.8,4.5c10.2-6.5,14.6-15.9,10.9-28.9c-3.9-13.7-11.2-25.8-23.3-34
	c-6.8-4.6-14.4-7.3-22.5-8c-8-0.6-16-0.7-24-1.1H156.5z"/>
<path class="st0" d="M1471.5,686c-5.8,1.5-11.8,2.6-17,6c-11,7.3-20.3,16.1-26.5,28c-3.7,7.2-3.1,13.9,0.9,21.1
	c5.5,9.8,13.5,15.8,24.1,19c11.5,3.5,20.8-2.6,24.9-13.6c3.7-9.8,6.6-19.9,7-30.5c0.3-6.7,0.9-13.5-0.2-20c-1.3-8.2-4.5-9.9-12.8-10
	"/>
<path class="st0" d="M714.5,307c-11.8,2.9-19.4,10.9-24.9,21c-4.3,7.8-0.5,15.3,6.4,17.5c16.3,5.2,30.5,1.5,43-9.6
	c6.3-5.6,6-12,0.1-18c-6.7-6.9-14.4-10.9-24.1-10.9"/>
<path class="st0" d="M1340,303c-6,2.7-8.7,7.5-9,14c-0.2,4.2-1,8.3-0.9,12.5c0.2,19,0.6,38,1,57c0.2,8.2,0.8,16.3,0.9,24.5
	c0,5.2-0.6,10.3-0.9,15.5c-0.7,11.8,2.9,22.5,7.9,33c5.4,11.3,9.7,23.2,9,35.9c-0.4,7.2-1.8,14.3-2.9,21.5c-0.9,6-2.4,12-2.9,18
	c-1,10.6-1.4,21.3-2.1,32c-0.6,9.8-1.4,19.7-2,29.5c-0.7,11.8-1.4,23.7-2,35.5c-0.1,1.5,0.5,3,1,4.5c2.6,8.7,6.7,10.4,14.4,5.4
	c5.5-3.5,10.7-7.6,16-11.5c10.1-7.4,21.9-10.6,33.5-14.5c2.5-0.8,5-1.6,7.5-2.5c8.8-3.2,14.1-9.3,16.6-18.5
	c5.2-19.5,16-35.6,30.4-49.6c7-6.8,12.6-15.1,13.9-25c1-7.2,0.9-14.7,0-22c-1.2-9.7-3.8-19.3-5.2-29c-1.2-7.9-1.5-16-2.1-24
	c-0.7-9.3-0.6-18.8-2.2-28c-4.5-26.7-16.6-48-43.3-58.7c-11.7-4.7-23-10.3-34-16.5c-13.3-7.5-22.7-19.3-31.1-31.8
	c-2.6-3.8-5.5-7.6-10.9-7.5"/>
<path class="st0" d="M1262.5,298c-10.4,2.9-19.1,8.1-25.5,17c-4.9,6.8-8.1,14-9,22.5c-2.2,21.1,2.3,41,10,60.5
	c4.3,11,9.7,21.3,17.1,30.4c10.7,13.2,8.6,20.3-0.6,32c-8.4,10.7-14.7,22.4-18.5,35.5c-4.4,15.1-9.1,30.1-14,45
	c-3,9.3-2.6,18.8-0.8,28c2.8,14.2,8.7,27.2,20.4,36.4c6.5,5.1,13.4,10.5,21,13.3c16.9,6.4,30.1,1.2,39.4-14.7
	c6-10.1,8.7-21.2,10.9-32.5c2.6-13.4,4.9-27,7-40.5c1.5-9.6,2.5-19.4,4.1-29c2.7-16.8-5-29.7-15.5-41.5c-2.8-3.2-5.3-6.7-8-10
	c-4.6-5.5-4.3-11.5-1.5-17.5c3.2-6.7,7.3-13.1,9.8-20.1c4.5-12.3,3.6-25.1,2.3-38c-1.6-15.7-6.1-30.5-13.2-44.4
	c-4-7.8-8.7-15.5-14-22.4c-5-6.5-11.9-10.8-20.8-10.1"/>
<path class="st0" d="M1010,280c-7.5,1.3-14,4.3-19.6,9.9c-5.3,5.4-12.1,7.3-19.9,7.3c-9.7-0.1-19.3,1.1-29,1.8
	c-10,0.8-18.2,5.9-25.4,12.1c-16.8,14.4-31.3,30.9-43.6,49.4c-5.6,8.4-8.6,17.8-10.4,27.5c-1.1,5.7,2,8.8,7.9,9
	c12.4,0.4,23.9-3.8,35.5-7.5c18.5-6,34.8-15.5,48-30c11.5-12.6,21.6-26.3,28.4-42.1c4.4-10.1,12.4-13.3,22.1-14.5
	c5.9-0.7,11.6-1.8,16-6.4c5.1-5.5,3.6-12.4-3.5-15c-1.9-0.7-4-1-6-1.5"/>
<path class="st0" d="M247.5,701c-8.3,3.2-12.1,9.5-11.3,18c0.4,4,2.6,8,4.9,11.5c4.6,7.1,17.3,11.6,25.4,9.6c3.3-0.8,8.4-7.3,8.5-11
	c0.3-11.6-3.9-21.1-14.6-26.3c-3.6-1.7-8.2-1.2-12.4-1.7"/>
<path class="st0" d="M1139.5,277c-12.2,5-24.4,9.8-36.5,15.1c-13.4,5.9-18.5,17-18,30.9c0.4,11.5,8.3,20.3,19.9,23
	c11.4,2.7,22.6,1,32.9-3.3c9.3-3.8,18.6-8.3,25.7-16.2c5.5-6,7.7-12.2,4.5-20.1c-4.4-10.6-9.8-20.4-19.6-26.9
	c-2.4-1.5-5.6-1.8-8.4-2.6"/>
<path class="st0" d="M56.5,268c-9.8,3.3-13.7,10.3-13.6,20.5c0.2,16.3,3.8,31.9,9.4,46.9c1.9,5.2,6.7,9.5,10.8,13.5
	c5.2,5.1,14.3,4.6,21.9-2c11.1-9.5,16.9-21.8,15.9-36.4c-0.5-7.9-3.8-15-8.7-21.6c-6.7-9-13.9-16.9-25.2-19.8
	c-3.2-0.8-6.6-0.7-10-1.1H56.5z"/>
<path class="st0" d="M1031.5,254c-1.8,0.3-3.7,0.9-5.5,1c-8.5,0.4-17,0.7-25.5,1c-8,0.3-14.8,4.1-21.5,8c-9.9,5.8-19.5,12.3-31,15
	c-20.8,5-36.7,17.4-50.1,33.8c-9,10.9-19.2,20.7-28.9,31.1c-6.7,7.3-13.4,14.6-20,22c-7.5,8.4-16.9,13.6-27.5,17
	c-4.5,1.5-9.2,2.6-12.5,6.5c-3.2,3.8-4.6,7.6-3.2,13c2.8,11.3,7.8,20.8,18.3,26.3c3.9,2.1,8.5,3.4,13,4c11.5,1.6,22.3-1.4,31.4-8
	c18.8-13.6,40.1-22.1,60.6-32.3c15-7.5,26.8-18.9,38-31c9.1-9.7,18.4-19.2,28-28.5c7-6.8,16.3-9.7,25.5-11.9
	c16.1-3.8,23.6-14.9,27.4-29.7c2.2-8.6,4.4-17.3,6.5-26c2-8-0.7-11.5-9-11.5c-4.5,0-9,0-13.5,0"/>
<path class="st0" d="M1372.5,378c-10.4,2.6-14.1,10.2-14.5,20c-0.4,11-1.5,22-0.8,33c0.8,13.6,5.9,26.4,10.9,39
	c5.4,13.4,9.1,27,7.9,41.5c-0.5,6.4-1.9,12.6-2.4,19c-0.7,9.7-2.5,19.7,2,29c4,8.2,13.1,10.2,20.9,5c3.5-2.4,7-5,10-8
	c10.3-10.4,21.6-19.9,29.5-32.5c5.8-9.2,7.4-19.2,5.1-30c-0.9-4.1-0.9-8.3-1.1-12.5c-0.4-14.5-0.6-29-1.1-43.5
	c-0.5-13.1-3.8-25.3-10.9-36.5c-7.8-12.4-19.9-18-33.1-21.3c-7.1-1.7-14.6-1.5-22-2.2"/>
<path class="st0" d="M1295.5,735c-21.4,8.3-32.4,25.2-37.3,46.5c-2,8.8-1.2,19.2,0.7,29.5c1,5.4,1.2,11,2.1,16.5
	c1.1,6.2,2.5,12.4,4,18.5c3.7,14.9,18.8,17.9,31,8.6c11.6-8.9,19.3-20.3,25-33.5c4.5-10.3,9.5-20.4,14.4-30.5
	c5.9-12.3,4.6-23.9-3.6-34.4c-4.6-5.9-10.2-11.1-16-16c-5.6-4.8-12.7-5.8-19.9-5.1"/>
<path class="st0" d="M54.5,246c-4.7,1-9.4,1.7-14,3.1C29,252.6,21.9,261.3,22.3,273c0.2,6.7,2.7,13.5,4.8,20
	c4.8,14.9,9.4,29.9,15.2,44.4c2.7,6.8,6.9,13.6,12,18.9c11.6,12.3,22.5,12.7,35.8,2.1c9.8-7.9,18-17.4,25.1-27.9
	c2.3-3.4,4.7-7,7.5-10c6.5-6.7,6.9-14.1,2.3-21.5c-6.6-10.6-13.9-20.7-20.9-31.1c-5.6-8.2-13.3-13.7-22.5-16.9
	c-5.9-2-12.3-2.9-18.5-4.1c-2.6-0.5-5.3-0.7-8-1H54.5z"/>
<path class="st0" d="M1447.5,230c-1.7,0.3-3.7,0.2-4.9,1.1c-2.9,2.1-4.2,5.2-3.6,8.9c1.5,9.2,3.7,18.4,8.6,26.4
	c5.5,9.2,13.7,12.6,25,6.6c7.1-3.7,12.8-8.9,16.3-15.7c5.6-10.9,1.8-17.9-9.4-22.2c-6.9-2.6-14.6-3-21.9-4.2c-3.1-0.5-6.3-0.7-9.5-1
	"/>
<path class="st0" d="M1052.5,227c-10.7,3.3-21.2,7-32,9.9c-5.8,1.5-11.9,1.8-18,2.1c-10.3,0.5-18.8,5.3-27,10.6
	c-13,8.5-26.6,15.6-41.5,20.6c-13.1,4.5-23.3,13.5-32.2,24.2c-14.4,17.4-29.2,34.4-46.9,48.6c-11.2,8.9-22.7,17.1-36.5,21.5
	c-6.8,2.2-13.7,4.1-20.5,6.6c-6.1,2.2-12.3,5.2-13.3,12.5c-0.6,4-0.3,8.9,1.5,12.4c6.2,12.3,12.6,24.7,21.9,35
	c6.3,6.9,14.6,10.5,23.9,12.2c17,3.1,32-2.3,45.4-11.3c18.2-12.3,37.5-22.3,57.1-31.9c14.4-7.1,25.7-18.1,36.7-29.8
	c11.4-12.1,22.9-24.4,38.4-31.5c5.8-2.7,11.8-5.1,18-6.4c15.4-3.2,25-12.2,29.5-27.1c3.1-10.5,6.6-21,14-29.5
	c3.9-4.5,7.9-9.1,12-13.5c12.3-13.5,5.2-27.2-10-33.1c-6.6-2.6-13.3-1.6-20-1.9"/>
<path class="st0" d="M1293.5,751c-14.6,4.6-22.4,15.3-26,29.5c-3.5,14.3-0.8,27.9,7.1,39.9c6,9.1,16.6,8.6,25.8,1.1
	c11.2-9.2,17.7-22,21.3-35.5c3.8-14.5-2.3-28.7-18.2-34.3c-2.9-1-6.3-0.5-9.5-0.6"/>
<path class="st0" d="M389.5,225c-5.7,1.3-11.4,2.5-17,4c-13.5,3.7-24.9,11-33.9,21.5c-9.3,10.9-7.3,20.9,3.6,29.1
	c8,6,17.8,10.1,27.4,13.6c13.2,4.7,25.8,1.6,35.2-8.5c10.3-10.9,17.5-23.9,18.6-39.3c0.8-10.5-5.2-20-18.4-20.5c-5-0.2-10,0-15,0
	H389.5z"/>
<path class="st0" d="M846,219c-5,1.5-8.4,4.5-9,10c-0.4,4.5,2.1,6.8,6.5,6c3.3-0.6,7.9-5.2,8.5-8.5c0.8-4.2-0.6-6.1-5.5-7.5"/>
<path class="st0" d="M693.5,761c-13.2,2.2-20.2,12.4-28,21.5c-4.3,5-8.9,10-12.4,15.6c-3.3,5.3-2.6,10,1.9,13.8
	c16.7,14.1,33.4,28.5,54.9,35.1c8.6,2.7,17.2,2.6,26,1c5.6-1,11.3-1.3,17-2.1c22.6-3.1,40.1-13.5,46.1-40c1.6-7,2.9-13.8,3-21
	c0.2-8.8-4.7-16.5-14.6-18.9c-5.7-1.4-11.6-1.7-17.5-2.1c-14.7-0.8-29.3-1.4-44-2c-10.7-0.4-21.3-0.7-32-1"/>
<path class="st0" d="M1292,771c-11,3.3-12.4,11.6-10.4,22c1.3,6.8,8.3,9.3,13.8,4.9c5-3.9,7.8-9.4,7.5-15.9c-0.3-6.9-3.3-10-10.5-11
	"/>
<path class="st0" d="M1046.5,210c-8.2,2-16.3,4.5-24.5,5.9c-15.1,2.6-29.3,6.8-42.1,15.9c-11.7,8.3-23.5,17-37.4,21.7
	c-6.7,2.3-13.3,5.2-20,7.4c-9.7,3.1-16.3,10.1-22.4,17.6c-9,11-17.4,22.6-26.6,33.4c-13.3,15.6-30.7,25.2-49.9,32.1
	c-16.5,6-32.8,12.4-49,19c-3.3,1.4-6.1,4.1-9,6.4c-5.6,4.4-6.3,14.2-2,19.9c4.8,6.3,10.2,12.2,14.9,18.6
	c6.9,9.5,13.2,19.4,20.1,28.9c6.2,8.6,15.2,13.2,25.5,15c21.4,3.8,41-1.3,59-13c19.2-12.5,39.2-23.6,60.1-32.9
	c12.3-5.5,22.1-14,31.1-23.9c9.4-10.4,19.7-19.9,31.9-27.1c10.4-6.1,22-9,33.5-12.1c5.5-1.5,10.8-3.6,16-6
	c8.5-4,10.5-12.3,12.6-20.4c1.2-4.7,2.6-9.4,4-14c3.7-12,12.4-19.8,22.5-26.5c6.6-4.4,13.8-8.1,18.6-14.9c6.4-9.2,4.5-20.9-2.5-27.6
	c-12.7-12.3-28.4-18.5-45.1-22.3c-5.9-1.3-12.3-0.8-18.5-1.2"/>
<path class="st0" d="M725.5,777c-5.5,1.3-11.1,2.3-16.5,4.1c-8.6,2.9-15.4,8.2-19.1,16.9c-2.7,6.4,0.2,11.7,4.1,15.9
	c9.3,9.9,20.8,16.6,33.9,20c12.5,3.2,25.2,3.6,37.4-1c11.6-4.4,18.5-12.6,20.8-25.4c1.1-6.4,0.1-12-2.9-16.9
	c-4.4-7-12-9.8-19.8-11.6c-12.4-2.8-25-1.9-37.5-2"/>
<path class="st0" d="M742.5,793c-2.8,1-5.9,1.6-8.4,3.1c-6.6,4-10.2,7.8-4,16.3c4,5.5,9.8,8.8,16.9,9.7c6.3,0.7,11.8,0.1,17.1-4
	c7-5.4,7.8-11.6,2-18.1c-4.5-5.1-10.3-6.4-16.6-6.9c-2.2-0.2-4.3,0-6.5,0"/>
<path class="st0" d="M414.5,201c-7.5,1.7-15,3.6-22.5,4.9c-7.3,1.3-14.6,2.3-22,3c-7.3,0.7-14.5,3-19.8,7.3
	c-11.5,9.4-22.3,19.6-31.3,31.7c-11,14.9-6.5,34.1,8.6,45.1c11.5,8.4,24.7,13.7,37.6,19.3c4.8,2.1,10.2,3.3,15.4,3.5
	c9.6,0.4,18.3-3.6,26.5-8.3c9.2-5.3,17.9-12.1,29-12.9c7.5-0.5,15,0,22.5-0.7c4.9-0.5,10-1.8,14.4-4c7-3.4,8.9-10.1,8.5-17.3
	c-0.6-10.2-0.9-20.4,1-30.5c1.9-10,0.5-15-11-18.2c-11.8-3.3-22.1-9-32.5-15.2c-7.3-4.4-15-8.3-24-7.6"/>
<path class="st0" d="M1400.5,183c-6.9,3-11.6,7.7-13.1,15.5c-1.2,6.2,0.7,11.9,3.8,16.4c4.6,6.6,10.4,12.6,16.4,18.1
	c12.2,11.1,19.9,24.6,23.4,40.6c0.8,3.9,1.5,7.9,3.1,11.5c5.3,11.7,10.5,14.2,23.4,10.6c14-4,25.6-12.2,35.9-22.1
	c4.9-4.7,9.9-9.8,13.4-15.5c7.9-13.1,5.9-26-8.9-32.7c-8.5-3.8-17.4-6.7-26.5-9c-16.1-4.1-30-12.1-43-22.1c-6-4.6-12.2-9.2-20-10.5
	c-2.5-0.4-5-0.4-7.5-0.5"/>
<path class="st0" d="M931.5,174c-7.3,2.5-14.9,4.6-21.9,7.7c-3.8,1.7-7,4.9-10,7.9c-2.5,2.5-2.1,6.5,0.4,8.9
	c9.5,9.3,33.8,12.5,44.9,5.4c5.1-3.2,9.7-7.2,11.2-13.9c1.4-6.2,0.3-9.5-5.1-13.1c-6-4.1-12.6-2.6-19.1-2.9"/>
<path class="st0" d="M1399.5,168c-6.2,1.7-12.1,3.7-16.5,9c-7.7,9.1-10,19.2-8.2,31.1c1.6,10.2,7,17.5,13.7,24.5
	c6.4,6.7,13.1,13.3,18.9,20.6c8,10.1,7.6,21.9,5.7,33.9c-0.8,5.4-1.2,11.1-0.5,16.5c2.3,15.9,24.9,26.2,40.3,14.5
	c11.9-9,23.8-18.1,35.5-27.5c9.2-7.4,18.3-15,27-23c5.4-5,9.8-11.2,11.5-18.4c3.5-14.8-0.2-21.7-11.9-30c-6.8-4.8-14.6-7.3-22.5-9.4
	c-24.7-6.6-46.6-18.5-67-33.6c-7.6-5.7-16.1-8.1-25.5-8"/>
<path class="st0" d="M926.5,157c-6.2,1.3-12.3,2.7-18.5,4c-16.9,3.7-33,9.2-47.1,19.8c-6.5,4.9-14.1,8.4-21.4,12.1
	c-14.1,7.2-22,19-25.4,34.1c-1.9,8.4-4.5,16.9-4.8,25.5c-0.6,14.6,10.4,20.9,23.3,18c14.3-3.2,24.4-12.3,33.5-23
	c5.1-6,10.1-12.2,15.6-17.9c5-5.3,11.5-7.7,18.9-7.6c8.5,0.1,17,0.4,25.5-0.1c20-1.1,35.6-9.7,45-27.9c9.3-18-0.4-29.9-18-35
	c-8.5-2.5-17.3-2-26-2"/>
<path class="st0" d="M1278.5,475c-14.9,4.7-21.7,16.7-26.4,30c-3.7,10.4-7.1,21.1-8.9,32c-3.2,18.5,0.3,36.9,20.8,48.9
	c11,6.4,18.1,3.2,24.7-8c4.5-7.6,7.5-16.4,10.1-24.9c3.3-11,6.2-22.2,7.9-33.5c1.2-8.1,1.1-16.8,0-24.9
	c-1.6-11.5-12.1-19.5-23.8-19.5c-1.3,0-2.7,0-4,0"/>
<path class="st0" d="M540.5,130.5c-1.3,0.3-2.7,0.6-4,1c-5.1,1.7-6.7,5.1-4.5,10c2.7,6.2,7.5,10.2,14,12c7,1.9,11.5-1.7,10.3-10.5
	c-1.1-8.4-4-11.8-15.3-12.5"/>
<path class="st0" d="M907.5,123.5c-3.5,1.7-7.7,2.6-10.4,5.1c-8.5,7.9-18.1,13.1-29.1,16.5c-10.4,3.1-18.2,10-25.1,18.3
	c-5.5,6.6-11.4,13.1-18,18.4c-10.1,8.2-16.8,17.8-20.1,30.6c-3.6,14.2-8.6,28.1-13.3,42c-4.4,12.9-2.2,24.7,5.6,35.5
	c5.4,7.5,18.9,12.6,31,10.4c8.3-1.6,16.4-3.3,22.8-8.5c6.7-5.5,12.6-12.1,18-18.9c6.5-8,11.9-16.8,18.2-24.9
	c6.9-8.8,16.4-12.6,27.4-13.1c35.7-1.3,60.8-19,76.4-50.6c2.9-5.9,5.8-12.1,3.3-19.5c-2-5.8-6.6-8.1-11.1-11
	c-9.7-6.1-20.8-8.7-31.5-11.9c-9.7-3-19-6.9-27.5-12.5c-4.8-3.2-9.8-6.3-16-6"/>
<path class="st0" d="M219.5,117c-5.2,1.6-9.5,4.3-13,8.5c-7.8,9.4-4.5,24.2,4,29.1c4,2.3,8.3,2.2,11.4,0.2
	c8.9-5.7,15.2-13.4,15.1-24.8c-0.1-8.3-4.5-12.9-13-13c-1.3,0-2.7,0-4,0H219.5z"/>
<path class="st0" d="M388.5,110c-13.2,4.2-16.9,14.6-17.5,27c-0.4,7.3,0.1,14.5,5,20.5c5.2,6.2,12.4,8.6,19.9,7.3
	c7.3-1.2,12.2-6.2,14.1-13.8c3.2-13.1-0.2-24.7-8.2-34.9c-2.9-3.7-7.6-6-12.8-6.1H388.5z"/>
<path class="st0" d="M1277.5,108c-15.9,4-21.7,25.2-18.8,38.1c1.9,8.1,4.5,15.3,10.8,20.3c6.9,5.5,13.2,6.9,19.8,1.4
	c2.7-2.3,4.4-6.3,5.5-9.9c4.1-12.7,3.6-25.7,0.5-38.4c-1.8-7.4-6-12.4-17.4-11.5"/>
<path class="st0" d="M123,100.5c-5,2.9-8,9.4-5.8,14.4c0.9,2.1,3.6,4.3,5.9,4.9c2.5,0.7,5.1-0.6,6.5-3.7c3.3-7.4,1.2-15.3-6.1-15.5"
	/>
<path class="st0" d="M904.5,475c-7.8,2.3-15.8,4.3-23.5,7.1c-11.3,4-22.5,8.3-33.5,13c-4.5,1.9-8.6,4.9-12.5,7.9
	c-10,7.7-7.1,18.5,1.9,24.5c5.1,3.4,10.6,3.9,16.5,3.5c14.5-0.8,28.1-5.8,42-9.1c5.9-1.4,11.8-2.5,17.5-4.6
	c10.9-4,15.2-13.4,15.8-23.9c0.6-9.7-6.3-19.9-17.3-18.5c-2.1,0.3-4.3,0-6.5,0"/>
<path class="st0" d="M240.5,473c-4,0.7-8,1.4-12,2c-20.4,3.2-37.4,11.6-48.7,29.9c-3.9,6.3-9.3,11.7-14.4,17
	c-5.4,5.6-9.1,11.9-9.3,19.6c-0.2,8.2,2.8,15.9,8.4,21.9c14.1,14.9,31.5,24.7,51.5,29.4c12.7,3,25.6,4.8,38.5,7.1
	c7.2,1.3,14.4,2.5,21.5,4c14.9,3.3,21.4-5.9,21.9-16.5c0.7-14.1,1.5-28.4,0.9-42.5c-0.7-14.6-1.9-29.2-7.7-43.1
	c-5.7-13.7-15.6-22.4-29.2-26.7c-6.6-2.1-13.9-1.6-20.9-2.2L240.5,473z"/>
<path class="st0" d="M1278.5,94c-4.8,2.3-10,4.1-14.4,7.1c-10.8,7.3-14.8,18.3-16.2,30.9c-1.8,16.3,3.2,30.4,12.1,43.5
	c8.1,11.9,23.8,16,36.5,9.5c8.5-4.3,11.5-12.3,12.3-20.5c1.2-13.4,1.2-27,1.1-40.5c-0.1-5.3-1.4-10.8-2.9-16
	c-2.8-9.2-9.8-14-19.4-14c-2.8,0-5.7,0-8.5,0"/>
<path class="st0" d="M384.5,93c-11.2,3.8-15.7,13.6-20.4,23c-5.4,10.8-7.1,22.5-7.1,34.5c0,6-0.8,12-0.9,18
	c-0.1,6.2-3.7,10.6-7.1,14.9c-6.9,8.6-12.3,18.1-18.1,27.4c-5.8,9.2-13.1,17.5-19.8,26.1c-5,6.5-9.1,13.2-12.2,20.9
	c-5.4,13.9-2.4,26.4,5.9,37.4c8.3,11,18.2,20.7,27.3,31.2c4.6,5.3,8.4,11.3,13.1,16.4c6.9,7.4,13.8,14.9,21.6,21.4
	c6.4,5.4,9.3,12.6,12.2,19.7c3.5,8.4,5.9,17.4,9.2,25.9c2.2,5.6,5.5,10.8,11.5,12.9c7.2,2.6,15.7-2.4,18.5-9.9
	c3.8-10,1.7-19.8-1.1-29.5c-2.1-7.3-4.6-14.5-7.5-21.5c-5.3-12.7,0.6-26.5,10-33.2c9.8-7,20.7-9.3,32.1-10.9
	c18-2.5,35.9-5.8,50.5-17.9c4.1-3.4,6.5-7.8,6.9-13c0.4-5.6,0.2-11.3,0.1-17c-0.3-9.8,2.3-19.1,4.5-28.5c3.9-16.9,1.5-26.5-9.6-35.4
	c-6.6-5.3-15-7.8-23.4-9.1c-17.3-2.7-32.3-10-44.4-22.6c-4.6-4.7-5.9-11.1-7.1-17.4c-3.5-18-7-36-18.8-51.1
	c-4.4-5.6-9.4-9.8-15.7-12.2c-2.8-1.1-6.3-0.5-9.4-0.7H384.5z"/>
<path class="st0" d="M1283.5,82c-6.7,1.9-13.3,3.4-19.6,6.9c-13.5,7.5-21.1,18.7-23.9,33.6c-3.2,17.3,0.1,33.7,7.1,49.5
	c2.7,6.1,6.1,11.8,9.5,17.5c5.1,8.7,13.4,12.7,23,13.3c6.1,0.4,12.4-0.6,18.5-1.9c12.1-2.7,18.1-11.8,20.8-22.9
	c1.9-7.8,2.5-15.9,3.1-24c0.7-8.3,1.6-16.7,0.9-25c-1-10.9,0-22.1-4.7-32.6c-3.5-8-9.8-11.8-17.7-13.3c-5.4-1-11-0.8-16.5-1.1"/>
<path class="st0" d="M381.5,78c-8.1,3.3-13.2,10-17.3,17.1c-7.1,12.1-13.6,24.5-16.6,38.4c-1.5,7.1-1.7,14.5-3.8,21.4
	c-2.3,7.4-5.8,14.5-9.4,21.5c-5.6,11-11.2,21.9-17.6,32.5c-5.1,8.4-11.2,16.1-16.9,24.1c-8.9,12.4-17.3,24.9-21.1,40
	c-2.2,9.1-1.4,17.7,4.2,24.9c11.8,15.1,23.9,30.1,36.5,44.5c9.8,11.2,20.5,21.5,30.9,32.1c9.5,9.7,14.8,21.6,18.6,34.5
	c2.6,8.9,4.3,18.5,11.3,25.6c6.2,6.2,13.5,7.5,22,6.6c7.5-0.8,13.7-3.5,19.6-8c6.7-5.2,10.3-12.3,10.7-20.1c0.6-10.9-0.5-22-0.7-33
	c-0.2-7.5-1.1-15.2,0.2-22.5c1.7-9.4,8.9-15.5,17.3-19.4c9.8-4.5,20-8,29.9-12.2c13.6-5.7,28.2-9.3,40.5-17.9
	c4.6-3.2,6.9-7.6,6.9-13c0-7.7-1.2-15.4-0.8-23c0.5-8.9,1.7-17.8,3.4-26.5c4.7-23.3-0.5-40.5-21.7-53.3c-10.9-6.6-23-11.4-34.4-17.2
	c-16.7-8.5-28.2-21.5-35.8-38.9c-6.3-14.4-12.5-29.2-22.7-41.6c-5.7-6.9-12-13-20.6-15.8c-3.8-1.2-8.3-0.5-12.4-0.7H381.5z"/>
<path class="st0" d="M1288.5,71c-5.8,1.3-11.8,2.2-17.5,4.1c-17.6,6-31.3,16.3-37,34.9c-1.5,4.9-2.5,9.9-3,15
	c-1.9,20,4.4,38.5,10.9,57c3.3,9.2,6.7,18.3,10,27.5c2.6,7.3,6.9,10.3,14.5,10.5c11.7,0.3,23.2-1.4,34.5-4.2
	c12.2-3,20.4-11,25.1-22.8c4.3-10.7,5.9-21.9,7.9-33c2.2-12.1,4.4-24.1,4.1-36.5c-0.2-5.8,0.5-11.7,0.9-17.5c0.2-3.5,0.6-7,1-10.5
	c1.3-10.8-6-16.6-14-19.5c-12-4.4-24.4-5.5-37-5"/>
<path class="st0" d="M381.5,64c-8.3,2.3-14,7.7-18,15c-9.8,18.1-21,35.5-27,55.5c-2.3,7.8-3.6,16-6.7,23.4
	c-4.1,10-9.9,19.2-14.2,29.1c-10.3,23.4-26,43.1-41.6,62.9c-3.8,4.8-8.2,9.1-12.4,13.5c-8.4,8.9-9.8,15.9-4.6,28.5
	c4,9.7,10.9,16.8,18.1,24c8.7,8.7,17.5,17.2,26,26c10.8,11.2,21.5,22.5,32,34c4.6,5.1,9.1,10.3,13,16c5.6,8.2,7.7,17.9,10.2,27.4
	c1.3,5.3,2.6,10.7,5.1,15.4c5.4,10.5,14.8,15.4,26.3,17.2c16.3,2.5,30.3-2.6,43-12.1c8.4-6.3,12-15.3,12.5-25.5
	c0.4-8.5,0.5-17,0-25.5c-1.3-21.1,7.6-36.2,26.1-46c16-8.5,32.6-15.5,50.5-18.9c7.9-1.5,16-2.1,24-3.1c9.6-1.2,10.8-7.8,8-15
	c-3-7.6-5.9-15.2-8.5-23c-2.7-8.3-2.3-16.8-1.2-25.5c1.4-10.7,2.3-21.7,1.9-32.5c-0.4-11-6.1-20.3-13.3-28.5
	c-10-11.3-23-18.7-35.6-26.4c-12.7-7.8-24.4-16.7-35.4-26.7c-11-10-17.9-22.9-24.6-35.9c-5.7-11.1-11.9-21.7-21-30.5
	C405.1,68.3,394.5,62.5,381.5,64z"/>
<path class="st0" d="M381.5,51c-13,3-19.9,12.2-25.6,23.4c-7,13.8-14.8,27.1-22.4,40.6c-6.7,11.8-9.3,25.2-14.6,37.5
	c-9.2,21.4-18.1,43.1-31.4,62.5c-7.5,10.9-15.7,21.3-26.5,28.9c-8.3,5.9-17.7,6.8-28,5.4c-9.3-1.3-19.3-1.7-28.4,0.1
	c-8.8,1.8-11.3,5.7-8.9,12.5c0.9,2.4,3.6,4.5,5.9,6c3.6,2.3,7.4,4.5,11.5,6c14.6,5.4,24.9,15.8,33,28.6
	c7.8,12.4,18.6,21.9,29.4,31.6c10.3,9.3,20.1,19.3,29.5,29.5c7.9,8.6,15.3,17.8,22.5,27c7.5,9.4,10.4,20.8,11.5,32.5
	c1.7,18.4,13.5,32,31.6,36c22.6,4.9,44.1,2.2,64-10c11.4-7,17.9-17.1,17.6-31c-0.2-8.2,0.1-16.3-0.1-24.5
	c-0.4-16.4,6-29.7,19.1-39.4c11.8-8.8,25-15,39.5-18c9.4-1.9,18.9-0.6,28.5,0.6c10.7,1.4,21.8,1.4,32.4,0
	c12.7-1.6,17.5-14.1,16.2-26.2c-1-8.6-7.1-12.5-13.2-16.4c-7.7-4.9-14.4-10.4-16.9-19.6c-2.4-9.1-1.8-18.2-0.7-27.5
	c0.8-7.4-0.1-15,0.3-22.5c0.4-7.4-1.2-14.6-5.3-20.4c-4.9-7-10.8-13.6-17.4-19c-20.7-16.9-41.9-33.1-62.9-49.7
	c-12.5-9.9-21.8-22.5-28.6-37C436.1,83.9,427,71,414.1,60.9c-9.6-7.4-20-11-32.1-9.9H381.5z"/>
<path class="st0" d="M938.5,442c-5.7,1.3-11.6,1.9-16.9,4.2c-10.7,4.5-21,10-31.6,14.8c-18.5,8.4-37.8,14.1-57.5,19.1
	c-11.3,2.9-23,5.3-32.5,12.9c-2.5,2-5,4.1-7,6.5c-4.4,5.4-4.3,11.5-0.5,16.9c10.3,14.5,23.7,25.6,40.5,31.9
	c8.2,3.1,16.8,2.1,25.5,0.8c13.5-1.9,26.5-6.7,40.5-6.3c8.3,0.3,16.7-0.4,25-0.9c21-1.4,28.8-6.2,38-26.5c2.9-6.4,5.6-12.9,9.1-19
	c5.7-9.9,4.9-19.3-0.1-29.1c-3.8-7.5-8.8-14-15-19.5c-4.9-4.3-10.9-5.4-17-6"/>
<path class="st0" d="M304.5,43c-11.4,4-20.3,11.4-29.1,19.4C259.7,76.8,241.1,86.8,222,96c-8.5,4.1-17,8.3-23.5,15.5
	c-6.1,6.7-9.5,14.6-10.4,23.5c-0.9,9.3-1.4,18.7-2.1,28c-0.2,3-1,6-0.9,9c0.3,7.8,3.9,12.8,12,13.8c8.5,1,17.5,1.4,25.9-0.1
	c10-1.7,17-8.4,22.2-17.6c11.3-20.2,21.1-40.9,27.9-63.1c2.6-8.6,8.2-14.9,16.4-19.1c9.4-4.7,19.5-8.4,26.6-16.9
	c3.6-4.3,5.2-9.4,5.8-14.6c0.7-6-5.2-11.4-11.3-11.5c-1.8,0-3.7,0-5.5,0H304.5z"/>
<path class="st0" d="M656,36c-11.2,2.5-15.6,11.1-17.9,21c-1.5,6.4-3,13-2.9,19.5c0.2,8.1,0.9,16.4,5.8,23.5
	c4.5,6.6,16.5,8.5,23.9,2.9c7.6-5.8,14.4-12.2,16.4-22.8c1.7-9.1-0.2-17.1-3.4-25c-1.7-4.2-5.1-7.8-7.9-11.6
	c-3.3-4.5-8.3-6.3-13.5-7.5"/>
<path class="st0" d="M1177.5,34c-4.7,1.3-9.7,1.9-13.9,4.2c-8.4,4.5-17.1,9-24.4,15c-18.2,14.9-28.9,35.7-39.9,55.9
	c-3.6,6.7-5.2,14.5-5.2,22.4c0,6.3-0.1,12.7,0,19c0.1,9.3,6.4,14.7,14,16.2c15.7,3.1,30.1,9.7,45.5,13.8c6.5,1.7,13.2,1.9,19.5-0.6
	c7.2-2.9,10.6-8.9,12.1-16.4c1.6-7.8,0.2-15.3-1-23c-2.2-15.1-5.9-30.1-3.9-45.5c1.1-8.6,4.1-17,6.3-25.5c1.8-7,4-13.9,5.4-21
	c1.1-5.4-5.4-12.8-10.9-13.5c-1-0.1-2-0.6-3-1"/>
<path class="st0" d="M1278.5,461c-16.9,6.2-27,18.9-32.4,35.5c-4.4,13.2-8.5,26.5-12,40c-6.7,25.8,2.4,46.1,23,61.9
	c3.6,2.7,7.7,5.2,12,6.4c11.6,3.3,20.4-1.4,27-13.3c5.7-10.3,8.2-21.7,10.9-33c2.6-10.9,5.4-21.9,6.9-33c1.5-10.7,2.6-21.7,1.9-32.5
	c-0.8-12.8-9.2-21.5-19.7-28c-5.2-3.3-10.9-4.4-17-4"/>
<path class="st0" d="M922.5,458c-28.2,10-56.3,20-84.5,30c-7.6,2.7-15,5.8-21,11.5c-7.2,6.7-8.7,14.1-2.8,22.9
	c8.8,13.2,21.5,20.7,37.8,19.4c7.6-0.6,15-3,22.5-4.3c9.6-1.7,19.3-3.1,29-4.5c7-1.1,14.2-1.3,20.9-3.2c7.8-2.2,14-7.1,17.6-14.8
	c4.9-10.5,8.2-21.4,7.8-33c-0.4-10-4.6-20.7-16.4-23.4c-3.4-0.8-7-0.4-10.5-0.6"/>
<path class="st0" d="M1163,395c-7,2.5-9.1,6.1-6.5,11c1.9,3.5,6.5,5.1,10.5,3.5c4-1.6,7.1-6.5,6-10c-1.5-4.8-5.5-4.7-9.5-4.5"/>
<path class="st0" d="M744,424c-6,3.8-5.5,9-4.1,15c2.3,10,7.9,17.7,15.2,24.4c3.9,3.6,5.5,2.8,7.5-2.4c2.9-7.8,4-15.7,0.9-23.5
	c-3.4-8.6-9-15-18.9-13.5"/>
<path class="st0" d="M1387.5,394c-9.2,1.8-15,7.5-16.9,16.5c-1.8,8.9-2.8,17.7-1.9,27c1.5,16.1,8.8,29.9,14.5,44.4
	c4,10.4,7.3,20.8,7.9,32.1c0.2,4.5,0.8,9.1,2,13.5c1.9,6.8,6.1,8.7,12.8,5.3c9.9-5,18.8-11.7,21.1-23.8c0.7-3.5,1.8-7,1.9-10.5
	c0.3-8.7-0.2-17.3,0.2-26c0.4-11,1.9-22,1.8-33c-0.1-11.3-2.9-22.3-9.9-31.4c-8.2-10.7-19.6-14.8-32.9-14.1"/>
</svg>
