<?xml version="1.0" encoding="utf-8"?>
<!-- Generator: Adobe Illustrator 24.3.0, SVG Export Plug-In . SVG Version: 6.00 Build 0)  -->
<svg version="1.1" id="Layer_1" xmlns="http://www.w3.org/2000/svg" xmlns:xlink="http://www.w3.org/1999/xlink" x="0px" y="0px"
	 viewBox="0 0 1600 900" style="enable-background:new 0 0 1600 900;" xml:space="preserve">
<style type="text/css">
	.st0{fill:none;stroke:#000000;stroke-width:2;stroke-linecap:round;stroke-linejoin:round;stroke-miterlimit:10;}
</style>
<path class="st0" d="M248.6,126c-17,1.1-22.4,13.3-33.5,24c-71.3,20.2-77.1,11.3-60.2,92c-61.5,94,153.9,205.3,131.1,57
	C250.1,233.3,334.8,139.6,248.6,126z"/>
<path class="st0" d="M251.6,142c-38.7,43.5-99.1,10.7-96.6,55.5c18.6,69.1-34.8,105.8,48.6,147.9c94.5,59.1,67.8-60.8,65.4-114.4
	C270.1,201.7,301.3,143.4,251.6,142z"/>
<path class="st0" d="M253.1,167c-57.4,29.8-107.5-14.4-83.1,82c1.7,18.4-14.2,38.3,0.1,54.5c9.5,10,25.3,14.6,37.9,8.8
	c23.2-9.5,39.1,12.9,47.6-4.8c12-28.9,0.4-62,6.5-92.5C260.9,202.2,274.1,166.2,253.1,167z"/>
<path class="st0" d="M194.6,190c-30.2,3-19.3,33-16.6,53.5c-0.4,43.1,20.1,48.5,58,38.4c18.2-4.7,16.4-43.6,17.9-59.4
	C258.6,184.7,220.3,191,194.6,190z"/>
<path class="st0" d="M202.6,201c-38.3,5.8-14.4,80.2,22,66.4C262.4,252,246.1,190.2,202.6,201z"/>
<path class="st0" d="M207.6,214c-25.8,7.6-4.1,51.9,19,36C243.2,233.5,230.4,209.9,207.6,214z"/>
<path class="st0" d="M742.4,240.5c-39.7,2-52.2,24.5-78.2,44c-166.3,37.1-179.8,20.8-140.5,168.9C380.3,625.7,882.6,830,829.3,558
	C746,437.4,943.6,265.6,742.4,240.5z"/>
<path class="st0" d="M749.4,269.9c-90.2,79.8-231,19.6-225.2,101.8c43.4,126.8-81.3,194.1,113.4,271.4
	C858,751.5,795.8,531.5,790.2,433.2C792.6,379.6,865.3,272.5,749.4,269.9z"/>
<path class="st0" d="M752.9,315.8C619,370.4,502.3,289.4,559.1,466.2c3.9,33.8-33.1,70.3,0.2,100c22.2,18.3,58.9,26.8,88.5,16.2
	c54.2-17.5,91.2,23.6,111.1-8.8c28-53,0.9-113.8,15-169.8C771.1,380.4,802,314.3,752.9,315.8z"/>
<path class="st0" d="M616.5,358c-70.5,5.5-45.1,60.5-38.7,98.2c-0.8,79.1,46.9,88.9,135.4,70.4c42.5-8.6,38.2-80,41.7-108.9
	C765.8,348.4,676.6,359.9,616.5,358z"/>
<path class="st0" d="M635.1,378.1c-89.4,10.7-33.5,147.2,51.3,121.8C774.6,471.8,736.6,358.5,635.1,378.1z"/>
<path class="st0" d="M646.8,402c-60.3,13.9-9.6,95.2,44.4,66.1C730,437.8,700.1,394.6,646.8,402z"/>
<path class="st0" d="M1227.3,104.3c-53.9,1.1-70.8,13.3-106.2,24c-225.8,20.2-244.1,11.3-190.7,92c-194.7,94,487.3,205.3,415,57
	C1232.3,211.6,1500.5,118,1227.3,104.3z"/>
<path class="st0" d="M1236.8,120.3c-122.4,43.5-313.6,10.7-305.8,55.5c59,69.1-110.3,105.8,154,147.9
	c299.3,59.1,214.7-60.8,207.2-114.4C1295.5,180.1,1394.2,121.7,1236.8,120.3z"/>
<path class="st0" d="M1241.6,145.3c-181.8,29.8-340.3-14.4-263.1,82c5.4,18.4-44.9,38.3,0.3,54.5c30.1,10,80,14.6,120.1,8.8
	c73.6-9.5,123.8,12.9,150.8-4.8c38-28.9,1.2-62,20.4-92.5C1266.4,180.5,1308.2,144.5,1241.6,145.3z"/>
<path class="st0" d="M1056.4,168.3c-95.7,3-61.2,33-52.5,53.5c-1.1,43.1,63.7,48.5,183.8,38.4c57.6-4.7,51.8-43.6,56.6-59.4
	C1259.1,163,1138,169.3,1056.4,168.3z"/>
<path class="st0" d="M1081.7,179.3c-121.4,5.8-45.5,80.2,69.6,66.4C1271,230.3,1219.4,168.6,1081.7,179.3z"/>
<path class="st0" d="M1097.5,192.3c-81.8,7.6-13,51.9,60.2,36C1210.5,211.8,1170,188.2,1097.5,192.3z"/>
<path class="st0" d="M1314,571.4c-1.1-31.8-13.3-41.7-24-62.5c-20.2-133-11.3-143.8-92-112.3c-94-114.7-205.3,287-57,244.4
	C1206.7,574.3,1300.3,732.3,1314,571.4z"/>
<path class="st0" d="M1298,577c-43.5-72.1-10.7-184.7-55.5-180.1c-69.1,34.7-105.8-65-147.9,90.7c-59.1,176.3,60.8,126.5,114.4,122
	C1238.2,611.6,1296.6,669.7,1298,577z"/>
<path class="st0" d="M1273,579.8c-29.8-107.1,14.4-200.4-82-154.9c-18.4,3.2-38.3-26.5-54.5,0.2c-10,17.7-14.6,47.1-8.8,70.7
	c9.5,43.3-12.9,72.9,4.8,88.8c28.9,22.4,62,0.7,92.5,12C1237.7,594.4,1273.8,619,1273,579.8z"/>
<path class="st0" d="M1250,470.7c-3-56.4-33-36.1-53.5-30.9c-43.1-0.7-48.5,37.5-38.4,108.2c4.7,33.9,43.6,30.5,59.4,33.3
	C1255.2,590.1,1248.9,518.8,1250,470.7z"/>
<path class="st0" d="M1239,485.6c-5.8-71.5-80.2-26.8-66.4,41C1187.9,597.1,1249.7,566.8,1239,485.6z"/>
<path class="st0" d="M1226,495c-7.6-48.2-51.9-7.7-36,35.5C1206.5,561.5,1230,537.6,1226,495z"/>
</svg>
