<?xml version="1.0" encoding="utf-8"?>
<!-- Generator: Adobe Illustrator 24.3.0, SVG Export Plug-In . SVG Version: 6.00 Build 0)  -->
<svg version="1.1" id="Layer_1" xmlns="http://www.w3.org/2000/svg" xmlns:xlink="http://www.w3.org/1999/xlink" x="0px" y="0px"
	 viewBox="0 0 1600 900" style="enable-background:new 0 0 1600 900;" xml:space="preserve">
<style type="text/css">
	.st0{fill:none;stroke:#000000;stroke-width:2;stroke-linecap:round;stroke-linejoin:round;stroke-miterlimit:10;}
</style>
<g>
	<path class="st0" d="M763,471.5c-19.9,62.8,78.5,99.3,128.5,80.6c27.3-5.7,64.9,11.7,82.4-17.2c24.4-29.8,49.6-47.7,14-82.9
		c-39.3-69.7-144.9,53.4-224.4,19"/>
	<path class="st0" d="M1072,466.5c-9.7,6.9-3.2,20.9-1.9,30.5c13.8,41-49.1,49.2,1,85.9c26.1,20,62.4,33.4,94,18.3
		c20.1-18.1,0.9-46-21.6-52.2c-51-11-38.3-55.3-71-83"/>
	<path class="st0" d="M392,619.5c6.8-0.6,3.3-13.2,4-18c-3.5-30.3,24.5-49.5,30.9-76.5c4.9-35.7-78.4-37.2-77.8,7
		c4.9,30.1,17.4,69.4,42.5,88"/>
	<path class="st0" d="M568.5,402.5c-1.9-36-75.6-45-81.3-6c-0.9,42.1,75.2,58.6,81.3,6.5"/>
	<path class="st0" d="M275.5,772c26.6-21.1,18.5-61.1-6.4-80.1c-74.9-14.1-45.6,63.6,5.4,81.6"/>
	<path class="st0" d="M273.5,774c-154.2,88.3,115.7,74,2,0"/>
	<path class="st0" d="M1114.5,130.5c0.9,19.5,25.9,32,43,33.5c42.4-14.2-17.5-119-43-34"/>
	<path class="st0" d="M1406.5,480c15-6.2,17.9-49.3,6.9-60.4c-39.4-29.4-40.3,52.2-7.4,60.4"/>
	<path class="st0" d="M1410.5,52c-76.1,7.5-19.7,71,10.9,39C1426.1,78.7,1428.5,53.2,1410.5,52z"/>
	<path class="st0" d="M551.5,402.5c-2.7-29.3-67.1-21.4-44.6,8.6c12.9,14.5,40.4,13.4,44.6-8.1"/>
	<path class="st0" d="M1542.5,498c2.6-12.8,24.4-38.6,10-46.9c-34.7-4.1-31.7,30.4-10.5,46.9"/>
	<path class="st0" d="M964,817.5c61.2,21.4,47-53,0-0.5"/>
	<path class="st0" d="M1145.5,705c40.5,66.5,58-25.5-0.5-0.5"/>
	<path class="st0" d="M993,739.5c47-12-34.9-49.1-18-9c4.2,5.9,10.4,8.6,17.5,9.5"/>
	<path class="st0" d="M363.5,263c4.6,18.7,33.2,11.8,28-7.5C386.6,242.4,363.7,251.7,363.5,263z"/>
	<path class="st0" d="M1134.5,479c-44.4,17.3,35.7,75.3,38.4,34.5c-3.3-18.4-18.1-35.2-37.9-34.5"/>
	<path class="st0" d="M239.5,483c-34.3,1.8-58.7,50.6-50.1,79.1c19.4,20,80.9,42,97.6,12.9C296.9,537.4,289.7,480.2,239.5,483z"/>
	<path class="st0" d="M1278.5,489c-27,5.1-37.7,98.4,1.9,73.4C1293.3,547.1,1314.2,487.3,1278.5,489z"/>
	<path class="st0" d="M1170.5,369c-81.3,9.1-53.4,90.7,14.4,66.9c34.8-9.3,21.5-72.6-13.9-66.9"/>
	<path class="st0" d="M1360.5,363c-41.3,40.5,13.8,105.6,3.1,153.5c-30.6,131.3,91.8,46.9,87.5-23c-0.1-61.1-11.2-136.3-90.1-130.5"
		/>
	<path class="st0" d="M243.5,493c-51.8,5.3-34.6,84.4,13.5,78.9C294,575.1,287.9,491.5,243.5,493z"/>
	<path class="st0" d="M887.5,494c-10.7,3.9-22.3,6.6-30.9,14.6c-6,20.2,69.6-12.6,31.4-14.6"/>
	<path class="st0" d="M511.5,362c-74.7,18-10.7,107.4,40.9,89.4c55.8-35.6,20.1-100.1-40.4-89.4"/>
	<path class="st0" d="M242.5,506c-25,5.3-15.1,42.3,7,44.9C280.1,552.9,269.6,501.2,242.5,506z"/>
	<path class="st0" d="M383.5,509c-28,5.1-28.3,37.8-9,53.5C402.7,575,430.1,504.7,383.5,509z"/>
	<path class="st0" d="M1180.5,354c-32.2,11.6-78.3,16.3-91.4,52.6c-14.9,38,0.5,24.4,26.4,38.4c14.6,6,77.4,37.6,84.1,21.1
		c7.3-12.9,21.7-22.2,22.5-38.1c-3.9-25-7.2-76.2-41.1-74"/>
	<path class="st0" d="M543.5,538c-17,1.1-22.4,13.3-33.5,24c-71.3,20.2-77.1,11.3-60.2,92c-61.5,94,153.9,205.3,131.1,57
		C545.1,645.3,629.8,551.7,543.5,538z"/>
	<path class="st0" d="M1267.5,349c-12.1,7.2-8.2,26.5,1.1,34.4C1291.8,397.7,1287.3,346.8,1267.5,349z"/>
	<path class="st0" d="M546.5,554c-38.7,43.5-99.1,10.7-96.6,55.5c18.6,69.1-34.8,105.8,48.6,147.9c94.5,59.1,67.8-60.8,65.4-114.4
		C565,613.8,596.2,555.4,546.5,554z"/>
	<path class="st0" d="M634.5,562c-17.2,6.8-14.5,26.5-15.4,41.5c-0.8,24.7,26.4,19.5,42.4,25.5c37.2,1.6,6.7-78.1-26.5-67"/>
	<path class="st0" d="M1354.5,345c-27.6,14.4-10.6,57.6-15.4,83.5c6.9,35.1,25.1,66.6,11.9,103.5c-22.1,148,102.1,41,110.1-30
		c-8.9-86.7-5.5-137.4-106.2-157"/>
	<path class="st0" d="M1265.5,329c-31.7,7.9-18.5,72.6,10,76.9C1313.6,404.7,1294.8,333,1265.5,329z"/>
	<path class="st0" d="M548,579c-57.4,29.8-107.5-14.4-83.1,82c1.7,18.4-14.2,38.3,0.1,54.5c9.5,10,25.3,14.6,37.9,8.8
		c23.2-9.5,39.1,12.9,47.6-4.8c12-28.9,0.4-62,6.5-92.5C555.8,614.2,569,578.2,548,579z"/>
	<path class="st0" d="M751.5,583.5c-30.6,27.9,83.3,72.4,105.4,81.7c34.9,9.4,42-21.5,72.1-18.2c11.8-7.2-17-32.1-24.1-40.8
		c-29.2-21.1-60.5,4.3-89.8,11.2c-30.2,4.9-29.3-35.2-63-33.8"/>
	<path class="st0" d="M1011.5,589c-31.9,14.4-13.7,76.2,18,82c53.8,29.9,95.8,83.4,144,123.4c20.3,22.2,28.4,15.6,34.3-11.5
		c8.6-33.8,31.2-53.1,7.3-88.5c-38.1-75.1-91.8-29.5-141.6-58.4c-15.8-20-34.7-43.3-61.5-47"/>
	<path class="st0" d="M1539.5,328c-37.8,0.9-20.5,68.1,12,47.4c20.9-14.1,20.5-51.6-11.5-47.4"/>
	<path class="st0" d="M489.5,602c-30.2,3-19.3,33-16.6,53.5c-0.4,43.1,20.1,48.5,58,38.4c18.2-4.7,16.4-43.6,17.9-59.4
		C553.5,596.8,515.3,603,489.5,602z"/>
	<path class="st0" d="M933,325c-14.9,5.3-29.8,19-31.8,35c12.3,21.9,69.6-32.3,32.3-35"/>
	<path class="st0" d="M1021.5,609c-33.2,20,1.3,61.4,32.5,53.8c24.2-0.8-7.3-57.8-32-53.8"/>
	<path class="st0" d="M497.5,613c-38.3,5.8-14.4,80.2,22,66.4C557.3,664,541,602.3,497.5,613z"/>
	<path class="st0" d="M864.5,615c-29.9,6-24.2,41.3,6.4,33.8c20.6-7.7,21.7-38.2-5.9-33.8"/>
	<path class="st0" d="M502.5,626c-25.8,7.6-4.1,51.9,19,36C538.2,645.5,525.4,621.9,502.5,626z"/>
	<path class="st0" d="M176.5,324c-19.1,8.1,1.8,30.8,12.5,38C221.7,374.8,211,319.1,176.5,324z"/>
	<path class="st0" d="M1122.5,657c-14.9,5.6-45,0.4-50.5,17c15,38,77.3,102.1,121.5,89.5c58.4-42.5-16.1-117-70.5-106.5"/>
	<path class="st0" d="M1260.5,314c-39.4,13.3-24,93.7,9.5,106C1329,435.1,1304.7,310.6,1260.5,314z"/>
	<path class="st0" d="M1129.5,670c-104.7,10.9,95.6,139.4,70.9,40c-12.6-26.6-42.6-38.4-70.4-40"/>
	<path class="st0" d="M251.5,677c-86.7,37,9.2,77.2-39.3,130.1c-32.9,60.1,103.7,49.4,111.3,8.4c-9.7-42.4-15.6-136.3-71.5-138.5"/>
	<path class="st0" d="M156.5,308c-38.4,9.6,12.3,50.8,23.6,67.4C261,413.4,224.7,287.4,156.5,308z"/>
	<path class="st0" d="M1471.5,686c-72.3,9.9-40.6,111,6.4,60.5c4.4-16.1,19.5-58.1-5.9-60.5"/>
	<path class="st0" d="M714.5,307c-98.7,67.3,102.6,34.9,0.5,0"/>
	<path class="st0" d="M1340,303c-24.3,31.7-1.2,84.8-9,123.5c-2,24.8,18.9,44.1,16.9,69c-7.3,45.1-9.5,90.9-11.8,136.5
		c5.7,33.7,43.9-18.7,64.9-16c34.2-7.7,17.1-37.1,54.4-70.6c31.9-34.3,0.8-86.3,4.4-127.9c-10.2-66.4-85.6-65.2-119.4-114.5"/>
	<path class="st0" d="M1262.5,298c-57.1,17.4-34.2,95.3-7.4,130.5c21.7,26.1-49,94.8-33.9,140.5c8.7,58.6,89.4,72.2,91.8,2.5
		c3.4-36.2,25.9-81.4-4.4-111c-20.4-20.2-8.4-26.2,0.3-47.5C1317.7,375.4,1305.5,307.1,1262.5,298z"/>
	<path class="st0" d="M1010,280c-28.7,22.5-61.2,9.3-93.9,31.1c-22.8,21.1-48.1,45.2-54,76.9c31.3,32.1,107.5-33.1,119.8-70.6
		c3.5-17.6,70.1-18.9,28.6-37.4"/>
	<path class="st0" d="M247.5,701c-25.8,10.8-3.1,45,19,39c19.9-11.4,2-42.7-18.5-39"/>
	<path class="st0" d="M1139.5,277c-33.2,5.2-84.5,46.8-34.5,69c46.7,12.9,94-48.5,35-69"/>
	<path class="st0" d="M56.5,268c-27.3,13.5-10.2,63.7,6.6,80.9C116.5,363.6,108,262.7,56.5,268z"/>
	<path class="st0" d="M1031.5,254c-77.1,1.7-135.2,53.9-182.5,112c-10.1,17.8-46.2,12.2-43.2,36.5c25.5,83.5,157.7-35.3,189.3-69.5
		c21.1-17.7,45-6.8,52.9-41.6c5.7-19.8,15.2-43.8-16-37.5"/>
	<path class="st0" d="M1372.5,378c-42.6,30.6,6.8,92.4,3.4,133.5c-17.7,74.6,29.6,61.2,60,12.5c9.6-55.5,18.7-148.2-63-146"/>
	<path class="st0" d="M1295.5,735c-48.6,5.8-54.4,145.2,0.6,119.6c35.3-29.1,69.3-113.6-0.1-119.6"/>
	<path class="st0" d="M54.5,246c-66.4-5.5-9.1,151.4,35.4,112.4C151.1,317.5,121.5,253.1,54.5,246z"/>
	<path class="st0" d="M1447.5,230c-17,0.6-4.2,28,0.1,36.4C1481.7,299.1,1522.7,224.1,1447.5,230z"/>
	<path class="st0" d="M1052.5,227c-42.5,9.7-80,22.4-118.4,43.2c-45,21.6-64.8,79.3-115.6,94.3c-15.6,5.2-42.1,8.5-32.3,31.4
		c55.6,128,170.8-40.2,241.3-63.8c31.6-4.7,26.9-37,43.5-56.6c29-20.7,17.9-53.2-18-48.5"/>
	<path class="st0" d="M1293.5,751c-42.9,10.1-30.3,98.5,6.9,70.4c23.7-17.8,36.3-70.4-6.4-70.4"/>
	<path class="st0" d="M389.5,225c-19.2,3.5-38.3,9.9-50.9,25.6c-19.4,22,13.3,36.7,31,42.7C413.6,312,453.1,213.3,389.5,225z"/>
	<path class="st0" d="M846,219c-8.3,0.6-14.1,17.3-2.5,16c6.9-1.6,14-13.9,3-16"/>
	<path class="st0" d="M693.5,761c-121.1,55.4,84.5,139.6,105.6,45c21.3-63.3-69.2-37.7-105.1-45"/>
	<path class="st0" d="M1292,771c-16.5,1.9-14.4,37.7,3.4,26.9c9.3-6.4,11.9-26-2.9-26.9"/>
	<path class="st0" d="M1046.5,210c-47.3,4-80.6,36.5-124,50.9c-38.4,18.6-39.2,64.3-99,83.1c-16.7,8.9-76.6,18.3-60,45.4
		c20.9,19.8,29.4,56.7,60.5,62.5c70.5,2.1,129.3-56.9,182-96.9c85.9-23.5,36.8-28.4,88.5-79.1c58.1-31.5-9.9-68.9-47.5-66"/>
	<path class="st0" d="M725.5,777c-81.9,15.8-5.3,74.2,40,55.9c26.8-9,29.9-50-2-53.9c-12.4-2.8-25-1.9-37.5-2"/>
	<path class="st0" d="M742.5,793c-25.5,5.4-15.9,25.4,4.5,29.1c32.6,3.8,25.1-35.1-4-29.1"/>
	<path class="st0" d="M414.5,201c-43.4,0.7-136.3,40.6-87,92c59,46.2,82.5,0.5,145.4-3.2c15.7-8.4,4.4-33,9.5-47.9
		c9.3-17.3-53.5-38.2-67.5-41"/>
	<path class="st0" d="M1400.5,183c-42.6,30.7,38.8,62.3,33.6,102c13,32.7,61.9-9.8,72.7-27.1c16.9-26.4-14.6-37-35.4-41.8
		C1444,212.4,1427.8,183.9,1400.5,183z"/>
	<path class="st0" d="M931.5,174c-67.3,17.1-16.3,43.3,13.4,29.9c21.5-14.4,11.6-33.1-12.9-29.9"/>
	<path class="st0" d="M1399.5,168c-47,14.3-18,64.4,7.9,85.1c12.5,14.8,3.2,33.4,5.2,50.4c22.2,52.2,76.9-18,102.8-36.1
		c26.4-26.5,9-51.1-22.9-57.9C1457.2,204.7,1433.8,171.1,1399.5,168z"/>
	<path class="st0" d="M926.5,157c-41,9.4-98.4,26.1-112.5,70c-5.7,18.6-10.9,49.3,18.5,43.5c32.5-5.5,40.6-48.8,68-48.5
		c58.7,15.8,117.8-67.2,26.5-65"/>
	<path class="st0" d="M1278.5,475c-34.6,17.6-54.4,86.7-14.5,110.9C1303.6,602.5,1332.2,466.2,1278.5,475z"/>
	<path class="st0" d="M540.5,130.5c-28.8,4.2,17.9,42,15.8,12.5c-1.1-8.4-4-11.8-15.3-12.5"/>
	<path class="st0" d="M907.5,123.5c-39,22-85.6,44-102.7,88.9c-47.2,96.4,36.4,120.7,82.3,35.6c27.2-29.1,67.7,5.9,103.8-63.6
		c20.1-40.3-59.6-44.7-82.9-60.9"/>
	<path class="st0" d="M219.5,117c-25.9,5.9-20.5,46.1,2.4,37.8C238.4,146.7,246.4,114,219.5,117z"/>
	<path class="st0" d="M388.5,110c-26.7,7.4-23.2,59.9,7.5,54.8C421.5,159.7,412.6,110.4,388.5,110z"/>
	<path class="st0" d="M1277.5,108c-34.1,9-17.8,78.2,11.9,59.8C1300.5,152.6,1306.4,106.7,1277.5,108z"/>
	<path class="st0" d="M123,100.5c-7.8,4.3-9.3,16.6,0.1,19.3c10.4,1.2,10.8-20.4,0.4-19.3"/>
	<path class="st0" d="M904.5,475c-23.7,7.4-49,13.5-69.5,28.1c-37.4,68,167.7-5.4,70-28.1"/>
	<path class="st0" d="M240.5,473c-78,4-118.3,104.8-24.5,119.9c56.5,11.8,93.1,28.5,82.7-47.9C298.8,506.9,284.9,470.2,240.5,473z"
		/>
	<path class="st0" d="M1278.5,94c-94.3,46.7,48.1,166.1,31.3,30C1308.9,102.9,1301,91.4,1278.5,94z"/>
	<path class="st0" d="M384.5,93c-36.9,15.9-18.2,64.3-35.6,90.4c-15.5,25.7-36.6,47.7-50.1,74.5c-10.7,44.2,43.7,75.2,67.8,106.4
		c18.5,14.9,12.4,46.6,32.9,58.5c21.8,4.7,23.4-25.1,17.4-39.4C365.8,294.3,519.6,342.1,509,270c-0.5-21.3,16.5-50-5.1-63.9
		C386.2,184,457.9,114.4,384.5,93z"/>
	<path class="st0" d="M1283.5,82c-94.5,8.6-17.2,187.5,35.3,96C1322,143.2,1338.6,76.9,1283.5,82z"/>
	<path class="st0" d="M381.5,78c-42.2,29.8-32,92.4-64.6,130.9c-14.2,25.4-52.6,58-33.8,89c20.7,27,42.9,52.9,67.4,76.6
		c22.6,24.1,23.5,92.7,71.6,58.6C458,335.9,386.8,361.3,520,308c12-8.3,4.6-24.1,6.1-36c14.4-48.1-3.6-82.8-52.7-97
		C428.2,157.6,432.9,75.5,381.5,78z"/>
	<path class="st0" d="M1288.5,71c-79.9,4.6-66.3,115.8-22,149c71.7,7.8,69.2-61.4,72.5-114.1C1349,74.5,1311.1,69.7,1288.5,71z"/>
	<path class="st0" d="M381.5,64c-41.6,24.6-41.6,84.6-65.9,123c-9.1,40.3-66.9,64.3-58.7,105c23.4,37.9,63.5,63.2,89,100
		c11.2,44,36.8,83.2,84.6,47.9c31.9-78.3-5.2-104.3,113-118.9c20.3-3.2,1.1-26.6-0.5-38c-7.4-28.5,12.7-62.9-12.6-86.5
		C434.3,145.2,432.9,65.1,381.5,64z"/>
	<path class="st0" d="M381.5,51C308.7,89.9,327.6,240.8,233,249.3c-24.7-8-58,10.6-19.9,24.7c32.4,24.6,124,110.3,125.9,149.1
		c11.4,68.6,134.5,39.6,113-29.5c1.8-62,74.9-58.3,119.5-56.8c20.8-2.7,21.6-35.7,3-42.6c-27.3-13.8-15.7-45.2-17.4-69.6
		c-9.9-59-93.3-70.8-114.1-126C431.8,74.7,410.6,48.3,381.5,51z"/>
	<path class="st0" d="M938.5,442c-36.6,8.6-68.2,31.8-106,38.1c-58.9,7.7-46.7,51.4,0.5,68.3c29.8,5.6,60.2-9.1,90.9-6.4
		c49.4,1.2,72.4-93,15-100"/>
	<path class="st0" d="M304.5,43c-34.8,23.4-70.1,46.7-106,68.5c-51.6,117.2,60,88.1,74.6-6.4C276.8,85.5,359.6,55.2,304.5,43z"/>
	<path class="st0" d="M656,36c-22.5,4.5-25.5,48-15,64c39.3,28.2,58.3-56.8,15.5-64"/>
	<path class="st0" d="M1177.5,34c-47.1,8.5-115.3,96.2-69.5,132.7c24,2.8,67.3,34.1,77-3.2c2.9-23-8.4-45.4-4.9-68.5
		C1180,75.9,1207.4,40.6,1177.5,34z"/>
	<path class="st0" d="M1278.5,461c-32,11.1-35.6,47.5-44.4,75.5c-14.8,33.4,34.5,97,62,55C1309.3,553.5,1342.3,466.4,1278.5,461z"/>
	<path class="st0" d="M922.5,458c-27.8,18.5-121.6,20-108.3,64.4c25,37.7,74.3,8.1,110.3,7.4c28.2-6.8,39.9-77.1-1.5-71.8"/>
	<path class="st0" d="M1163,395c-13.5,3.3-6.4,18.3,4,14.5c9.7-4.3,7-16.7-3.5-14.5"/>
	<path class="st0" d="M744,424c-13.1,9.9,2.2,31.4,11.1,39.4c11.9,12.8,17.8-43.4-10.6-39.4"/>
	<path class="st0" d="M1387.5,394c-47.1,23.3,2.7,83.6,3.6,120c24,88.1,79.7-132.5-3.1-120"/>
</g>
</svg>
