<?xml version="1.0" encoding="utf-8"?>
<!-- Generator: Adobe Illustrator 24.3.0, SVG Export Plug-In . SVG Version: 6.00 Build 0)  -->
<svg version="1.1" id="Layer_1" xmlns="http://www.w3.org/2000/svg" xmlns:xlink="http://www.w3.org/1999/xlink" x="0px" y="0px"
	 viewBox="0 0 1280 1024" style="enable-background:new 0 0 1280 1024;" xml:space="preserve">
<g>
	<path d="M708.4,417.9v1h0c7.9,0,13.3,9.8,16.1,29.1c2.4,16.7,2.4,36.8,2.4,51.4c0,30.7-19.4,65-45.4,65c-9.7,0-19.7-4.7-29.7-13.9
		c-13.2-12.2-28.9-16.2-42.7-19.7c-18.9-4.8-33.8-8.6-33.8-31.3c0-20.7,20.4-23.6,44-27.1c20.4-3,43.6-6.4,55.2-23
		c14.1-20.2,25.5-30.5,33.8-30.5L708.4,417.9 M708.4,417.9c-7.9,0-19,8.6-34.6,30.9c-24.3,34.7-99.4,10.2-99.4,50.6
		s45.7,23,76.8,51.8c10.8,10,21.1,14.2,30.4,14.2c27.3,0,46.4-35.8,46.4-66C728,470.6,728,417.9,708.4,417.9L708.4,417.9z"/>
</g>
<g>
	<path d="M727.1,435.8c1.1,0,2,0.4,2.7,1.2c4.6,5.6,0.4,27.7-4,51.1c-2.4,12.5-4.8,25.4-6.3,37.4c-3.7,30.1-20.4,48.9-43.6,48.9
		c-16.2,0-34.6-9.2-53.2-26.5c-32.3-30-48.9-50.5-44.3-72.5c3-14.4,29.5-21.7,78.8-21.7c13.8,0,26.6,0.6,35.9,1
		c3.3,0.1,6.2,0.3,8.4,0.3l0.5,0l0.3-0.3C714.2,442.2,722.5,435.8,727.1,435.8 M727.1,434.8c-4.7,0-12.6,5.6-25.4,19.2
		c-8.6-0.3-25.7-1.3-44.4-1.3c-34.9,0-75.9,3.6-79.8,22.5c-4.6,22.2,11.5,42.6,44.6,73.4c20,18.7,38.4,26.7,53.8,26.7
		c24.2,0,40.9-19.9,44.6-49.7C725.4,486,741.2,434.8,727.1,434.8L727.1,434.8z"/>
</g>
<g>
	<path d="M649.4,435.7c39.2,0,68.9,9.1,79.3,24.2l0.6,0.8l0.8-0.5c8.8-5.8,14.4-8.6,17.1-8.6c0.9,0,1.1,0.4,1.2,0.5
		c1.7,2.6-3.7,14.1-9.8,27.3c-8.9,19-21,45.1-26.6,72.4c-2.7,13.1-7.3,23.1-13.8,29.7c-6.2,6.3-14.2,9.5-23.7,9.5
		c-21.2,0-49.2-15.7-80.9-45.5c-25.3-23.7-26.8-60.6-21.7-79.6c2.1-7.9,5.4-13,8.8-13.8l0.5-0.1l0.2-0.5
		C584.6,442.9,615.7,435.7,649.4,435.7L649.4,435.7 M649.4,434.7c-33.7,0-65.5,7.1-68.9,16.4c-13.3,3-22.7,62.3,12.4,95.1
		c31.8,29.9,60.2,45.8,81.6,45.8c19.3,0,32.9-12.9,38.5-40c10.8-52.7,46.4-101.4,34.2-101.4c-2.9,0-8.5,2.7-17.7,8.8
		C717.2,441.4,682.3,434.7,649.4,434.7L649.4,434.7z"/>
</g>
<g>
	<path d="M656.2,416.9c23.9,0,44.3,3.3,60.6,9.8c20.2,8.1,33.5,20.9,39.6,38.2l0.3,0.8l0.8-0.2c3.7-0.7,6.5-1.1,8.6-1.1
		c1.6,0,3.6,0.2,4.1,1.2c1.3,2.7-5.7,11.2-13.7,21c-16.5,20.4-41.5,51.2-52,91.3c-6.1,23.2-16.9,34.5-33.2,34.5
		c-29.4,0-72.5-37.2-106.9-69.5c-12.4-11.6-15.3-29.4-15.6-42.3c-0.3-15.5,2.9-33,8.9-48.2c6.3-15.9,14.6-26.2,21.1-26.2
		c1.4,0,2.8,0.5,4,1.5l0.6,0.5l0.6-0.5C588.7,424.4,620.5,416.9,656.2,416.9L656.2,416.9 M656.2,415.9c-35.8,0-68,7.6-72.6,11.1
		c-1.5-1.2-3-1.7-4.7-1.7c-20.4,0-49.5,86.2-15.1,118.5c43.3,40.9,81.1,69.8,107.5,69.8c15.9,0,27.8-10.5,34.2-35.2
		c18.6-71.2,84.7-114.8,60.7-114.8c-2.2,0-5.1,0.4-8.8,1.1C743.8,426.1,697.6,415.9,656.2,415.9L656.2,415.9z"/>
</g>
<g>
	<path d="M664.3,397.9c29.6,0,54.2,4.6,73.1,13.7c24.6,11.8,40.4,31.5,46.9,58.6l0.1,0.5l0.5,0.2c5.7,1.9,8.8,4.2,9.3,6.8
		c1.1,5.8-8.8,14.5-22.6,26.4c-23.8,20.7-59.9,52-74.6,100.2c-6.6,21.8-17,32.4-31.6,32.4c-28.7,0-71.2-40.3-120.3-86.9
		c-3.3-3.1-6.6-6.2-9.9-9.4c-8.4-7.9-12.5-21.5-11.9-39.2c0.5-15.5,4.7-33.8,11.8-51.5c12-30.4,29-51.6,41.4-51.6
		c3.5,0,6.6,1.7,9.3,5.2l0.2,0.3l0.3,0.1c0.6,0.2,1.4,0.2,2.6,0.2c3.5,0,9.5-0.8,17.2-1.7C620.3,400.6,641.7,397.9,664.3,397.9
		 M664.3,396.9c-34.7,0-65.6,6.2-75.4,6.2c-1,0-1.8-0.1-2.3-0.2c-3-3.8-6.4-5.5-10.1-5.5c-29.6,0-76.7,111.2-41.9,144
		c53.7,50.8,99.8,96.5,130.9,96.5c14.3,0,25.4-9.7,32.5-33.1c27.4-90,129.4-120.6,87.2-134.8C770.8,409.4,713.7,396.9,664.3,396.9
		L664.3,396.9z"/>
</g>
<g>
	<path d="M573.2,370.3v1c5.9,0,11.2,2.7,15.8,8c2.1,2.4,6.8,3.5,15.8,3.5c6.6,0,14.9-0.6,24.6-1.2c12.9-0.9,27.6-1.9,43.3-1.9
		c35.9,0,63.9,5.6,85.6,17c13.7,7.2,25.1,17,33.8,29c9.8,13.5,16.6,30.2,20.2,49.7l0.1,0.3l0.2,0.2c5.1,4.8,7.4,9.4,7,14
		c-0.8,10.6-16.3,21.3-35.8,34.7c-32,22-75.7,52-94,106.1c-7.2,21.4-17.5,31.7-31.4,31.7c-26.9,0-65.3-38.3-109.7-82.7
		c-13.6-13.6-27.7-27.7-42.4-41.6c-7.8-7.4-11.5-20.4-10.6-37.7c0.8-15.7,5.3-34.2,12.9-53.3c14.9-37.6,41.9-75.7,64.5-75.7
		L573.2,370.3 M573.2,370.3c-43,0-103.7,134.4-67.6,168.5c63.2,59.9,117.1,124.6,152.7,124.6c13.6,0,24.6-9.5,32.4-32.4
		c34.6-102.3,161.7-118.7,122.6-155.8c-15.2-83-83.3-96.5-140.5-96.5c-27.5,0-52.5,3.1-67.9,3.1c-7.7,0-13.1-0.8-15.1-3.1
		C584.8,372.9,579.1,370.3,573.2,370.3L573.2,370.3z"/>
</g>
<g>
	<path d="M570.5,340.9v1c8.4,0,15.6,4.4,21.5,13.2c3.2,4.8,11.3,6.8,27.8,6.8c7.2,0,15.6-0.4,24.6-0.8c10.8-0.5,23-1,35.6-1
		c26.8,0,66.2,2.1,98.6,20.3c15.9,8.9,29.1,21.2,39,36.4c11.2,17.1,18.9,38.6,22.6,63.8l0,0.2l0.1,0.2c4.9,8.1,6.4,15.4,4.6,22.1
		c-4,15.6-24.7,27.5-50.8,42.5c-19.8,11.4-42.2,24.3-62.5,41.9C708,608,691.9,630.7,682.3,657c-7.8,21.4-18.3,31.8-32,31.8
		c-27.4,0-65.4-40.7-109.5-87.9c-20.3-21.7-41.2-44.1-63.5-65.3c-7.2-6.8-10.3-19.1-9-35.7c1.2-15.3,6-33.9,13.8-53.7
		c10.4-26.2,25.4-52.3,41.1-71.6c17.1-21,33.9-32.6,47.4-32.6L570.5,340.9 M570.5,340.9c-51.9,0-131.2,160.2-94,195.4
		c72.2,68.6,133.5,153.5,173.7,153.5c13.5,0,24.6-9.6,33-32.5c41.8-114.6,194-116.9,157.9-176.8c-16-107.3-96-121.3-161.2-121.3
		c-23.1,0-44.3,1.8-60.1,1.8c-13.8,0-23.6-1.3-26.9-6.3C586.5,345.1,578.8,340.9,570.5,340.9L570.5,340.9z"/>
</g>
<g>
	<path d="M567.9,312.7c10.9,0,20,6.2,27.1,18.3c2.7,4.7,8,7.7,16.5,9.4c8.3,1.6,18.7,1.9,28.8,1.9c4.2,0,8.6,0,13.3-0.1
		c5-0.1,10.2-0.1,15.6-0.1c35.1,0,75.9,2.5,112,21.3c19.8,10.3,36.8,24.8,50.6,43.1c15.8,21,28,47.8,36.2,79.6
		c10.8,42-23.9,59.6-67.9,81.9c-22.4,11.3-47.7,24.2-70.3,42.1c-25.9,20.6-44,44.6-55.1,73.3c-8.4,21.7-19.3,32.3-33.2,32.3
		c-28.7,0-67.9-44.7-113.3-96.4c-25.5-29-51.8-59-80.3-86.1c-6.8-6.4-9.5-17.9-8-34.2c1.4-14.9,6.3-33.4,14.3-53.5
		c12.8-32.1,31.8-64.9,52.3-90C529.1,327.9,550.9,312.7,567.9,312.7L567.9,312.7 M567.9,311.7c-61.4,0-159,185.8-120.6,222.2
		c80.9,77,149.4,182.8,194.3,182.8c13.6,0,25.1-9.7,34.1-33C724.8,556.8,891.3,572.2,869,485.8C833.9,349.9,738,341,669.3,341
		c-10.4,0-20.1,0.2-28.9,0.2c-22.5,0-39.1-1.3-44.5-10.7C588.3,317.3,578.7,311.6,567.9,311.7L567.9,311.7z"/>
</g>
<g>
	<path d="M565.4,282.4v1c13.5,0,24.5,7.9,32.6,23.4c7.4,14.1,30.1,15.2,61.4,15.2c2.7,0,5.4,0,8.2,0c2.9,0,5.9,0,8.9,0
		c40.1,0,86.3,1.8,126.7,23.3c22.2,11.8,40.9,28.8,55.7,50.5c17,24.9,29.4,57.1,36.9,95.6c4.8,24.6-1.2,43.5-19,59.6
		c-16.2,14.7-40.9,25.8-67,37.6c-25.7,11.6-54.8,24.8-80.4,43.4c-29.3,21.4-49.6,46.8-62.2,77.7c-9,22.3-20.3,33.1-34.5,33.1
		c-30.4,0-71.5-49.3-119-106.4c-28.6-34.4-61.1-73.4-94.9-105.7c-12.5-11.9-9.9-43.3,7.2-86.1c14.8-37,38.5-77.4,63.5-107.9
		c28.1-34.3,55-53.2,75.8-53.2L565.4,282.4 M565.4,282.4c-71.2,0-187,211.2-147.2,249c89.3,85.2,164.9,212.3,214.6,212.3
		c13.9,0,25.9-10,35.5-33.7C724.6,570.9,918,599,896.9,491.1c-32.1-164.4-142.8-170.2-220.3-170.2c-5.9,0-11.6,0-17.1,0
		c-30.4,0-53.3-1-60.5-14.6C590.1,289.6,578.5,282.4,565.4,282.4L565.4,282.4z"/>
</g>
<g>
	<path d="M562.9,253.1v1c16.1,0,28.9,9.6,38.3,28.5c9.4,19,40.6,19.2,80.1,19.3c42.9,0.2,96.3,0.5,142.5,24.8
		c25.3,13.4,45.5,32.2,61.7,57.6c18.5,29,31.4,66.7,38.3,112.1c4.6,30.1-3.3,52.8-24.9,71.3c-19.6,16.8-48.7,28.7-79.5,41.4
		c-60.1,24.6-128.2,52.5-159.4,126.7c-9.6,22.9-21.5,34.1-36.1,34.1c-32.4,0-75.6-54.4-125.7-117.3c-32.6-41-69.5-87.5-108.3-124.5
		c-12.1-11.5-9.2-42.5,7.8-85c16.8-42.1,44.8-89,74.7-125.3c33.8-41.1,66-63.7,90.5-63.7L562.9,253.1 M562.8,253.1
		c-81.1,0-215,236.5-173.7,275.8C486.8,622.2,569.3,771,623.8,771c14.4,0,26.8-10.3,37-34.7c63.7-151.3,283.9-110,264-239.9
		c-43.4-283-293.7-155.2-322.8-214.2C592,261.8,578.4,253.1,562.8,253.1L562.8,253.1z"/>
</g>
<g>
	<path d="M560.3,223.8v1c18.7,0,33.4,11.3,43.9,33.6c10.7,22.7,45.8,23.2,90.4,23.7c46.7,0.5,104.9,1.2,154,28.9
		c26.9,15.2,48.2,36.4,64.9,65c19.1,32.5,31.9,74.8,38.2,125.8c4.4,35.8-5.5,62.3-31,83.3c-23.1,19-56.6,31.6-92.2,44.9
		c-66.4,25-141.7,53.2-176.1,132.3c-10.3,23.7-22.6,35.2-37.8,35.2c-34.6,0-80.2-59.7-133-128.8c-36.3-47.5-77.5-101.4-120.9-142.9
		c-6-5.8-8.2-16.4-6.6-31.6c1.6-14.4,6.6-32.2,14.8-52.8c18.5-46.3,51.4-100.8,85.9-142.3c39.7-47.8,77.1-74.1,105.4-74.2
		L560.3,223.8 M560.3,223.8c-91.1,0-243,261.8-200.3,302.6c105.9,101.3,195.3,272,254.7,272c14.8,0,27.8-10.7,38.7-35.8
		c71-163.6,318-108.7,299.3-261c-39.3-319.3-314.9-173.9-347.6-243.6C593.8,234,578.2,223.8,560.3,223.8L560.3,223.8z"/>
</g>
<g>
	<path d="M557.7,194.6v1c21.3,0,38,13,49.6,38.8c12,26.5,51,27.2,100.4,28.1c50.5,0.9,113.3,2,165.4,32.9
		c28.6,16.9,50.9,40.6,68.2,72.3c19.7,36.1,32.6,83,38.3,139.4c9.1,90.9-60.9,115.3-142.1,143.6c-37.1,12.9-75.4,26.3-109.7,47
		c-39,23.7-66.1,53.4-82.8,90.9c-10.9,24.5-23.8,36.3-39.6,36.3c-36.8,0-85-65.2-140.8-140.7c-39.9-54-85.2-115.2-133-161
		c-5.9-5.7-8-16.1-6.3-31.2c1.6-14.3,6.7-32.1,15-52.8c20.4-50.9,57.5-111.8,96.9-159c45.5-54.6,88.3-84.6,120.5-84.7L557.7,194.6
		 M557.7,194.6c-101.2,0-271,287.1-226.8,329.4c114.1,109.2,210.3,302,274.5,302c15.4,0,28.9-11.1,40.5-36.9
		c78.3-175.8,352.2-107.2,334.7-282c-35.6-355.4-336-192.5-372.4-273C595.6,206.2,578.1,194.6,557.7,194.6L557.7,194.6z"/>
</g>
<g>
	<path d="M555.1,165.3v1c23.9,0,42.5,14.8,55.2,43.9c6.1,13.9,18.9,22.6,40.3,27.2c19.2,4.1,43.9,4.7,70,5.3
		c27.2,0.6,58.1,1.4,88.5,6.2c34.8,5.5,63.7,15.6,88.3,30.8c30.2,18.7,53.6,44.7,71.6,79.6c20.4,39.6,33.4,91.1,38.5,153
		c2.1,25.1-0.8,46.2-8.9,64.5c-7.2,16.5-18.5,30.5-34.6,42.8c-30.1,23.2-72.6,37-117.6,51.6c-40.4,13.1-82.1,26.7-119.2,48.2
		c-42.2,24.5-71.5,55.6-89.7,95.3c-11.5,25.3-25,37.6-41.4,37.6c-39.2,0-90-70.8-148.9-152.8c-43.4-60.5-92.6-129-144.8-178.9
		c-11.5-11-8.3-40.7,9-83.8c22.2-55.4,63.6-122.6,107.9-175.5c51.5-61.4,99.7-95.2,135.7-95.2L555.1,165.3 M555,165.3
		c-111.3,0-299,312.4-253.3,356.2c122.2,117,225.3,332,294.4,332c16,0,30.1-11.5,42.3-38.2c85.9-187.9,386.3-105.6,370-303.1
		c-32.3-391.3-357.2-211-397.2-302.4C597.5,178.4,577.9,165.3,555,165.3L555,165.3z"/>
</g>
<g>
	<path d="M552.4,137c26.6,0,47.1,16.5,61,49c6.7,15.7,20.7,25.5,44,30.8c20.9,4.8,47.7,5.5,76.1,6.3c29.2,0.8,62.2,1.8,94.6,7.2
		c37.1,6.2,67.7,17.3,93.6,33.9c15.1,9.7,28.9,21.5,40.9,35.2c13,14.8,24.5,32.2,34.1,51.7c21.1,43.2,34.2,99.2,38.8,166.5
		c1.9,28.2-1.6,51.8-10.8,72.2c-8.3,18.3-21,33.8-38.9,47.2c-33.6,25.2-80.6,39.6-130.4,54.8c-43.7,13.4-88.8,27.2-128.8,49.4
		c-45.4,25.3-76.9,58-96.4,99.9c-12.2,26.2-26.3,38.9-43.3,38.9c-41.6,0-95.2-76.5-157.2-165.2c-46.8-66.9-99.9-142.7-156.2-196.7
		c-11.4-10.9-8.1-40.7,9.3-83.9c11.5-28.6,28.4-61.3,49.1-94.8c21.2-34.4,45.4-67.9,69.8-96.9C459,174.5,512.6,137,552.4,137
		L552.4,137 M552.4,136C431,136,225.3,473.7,272.6,519c130.3,124.8,240,362.1,314.1,362.1c16.6,0,31.4-11.9,44.2-39.5
		c93-200.2,420.4-103.9,405.4-324.1c-29.2-427.1-378.4-229.6-422-331.8C599.3,150.7,577.7,136,552.4,136L552.4,136z"/>
</g>
</svg>
