<svg width="708" height="58" viewBox="0 0 708 58" fill="none" xmlns="http://www.w3.org/2000/svg">
<path d="M4 54C4 26.3858 26.3858 4 54 4C81.6142 4 104 26.3858 104 54C104 26.3858 126.386 4 154 4C181.614 4 204 26.3858 204 54C204 26.3858 226.386 4 254 4C281.614 4 304 26.3858 304 54C304 26.3858 326.386 4 354 4C381.614 4 404 26.3858 404 54C404 26.3858 426.386 4 454 4C481.614 4 504 26.3858 504 54C504 26.3858 526.386 4 554 4C581.614 4 604 26.3858 604 54C604 26.3858 626.386 4 654 4C681.614 4 704 26.3858 704 54" stroke="#56CCF2" stroke-width="8" stroke-linecap="round"/>
</svg>
