<?xml version="1.0" encoding="utf-8"?>
<!-- Generator: Adobe Illustrator 24.3.0, SVG Export Plug-In . SVG Version: 6.00 Build 0)  -->
<svg version="1.1" id="Layer_1" xmlns="http://www.w3.org/2000/svg" xmlns:xlink="http://www.w3.org/1999/xlink" x="0px" y="0px"
	 viewBox="0 0 1600 900" style="enable-background:new 0 0 1600 900;" xml:space="preserve">
<g>
	<path d="M916.8,66.7L916.8,66.7l0.4,0c18.1,0.2,24.2,14.3,28.5,27.5c15.1,46.1,42.2,73.5,87.7,88.8c31.1,10.4,52.2,26.1,64.3,47.9
		c11.6,20.9,15.3,47.9,11.3,82.6c-1.8,15.3,0.5,31.1,7.4,51.3c5.6,16.3,5,30-1.5,39.5c-6.8,9.9-20.1,15.4-38.5,16.1
		c-0.7,0-1.5,0-2.7,0c-0.7,0-1.6,0-2.8,0c-2,0-4.7,0-8.8,0c-11.3-3-23.1-5.9-35.5-9c-30.9-7.7-65.9-16.4-99.5-27.2
		c-6.9-2.2-11.6-5.9-14.1-11c-2.5-5.1-4.3-13.7,3.6-34.6c4.7-12.3,9.9-24.7,15-36.7c5.8-13.6,11.7-27.6,16.9-41.7
		c8.5-23.1,0.6-42.3-22.7-55.6c-20.8-11.9-34.3-22.7-43.8-35.1c-11.8-15.4-16.7-32.9-15.1-53.5C868.8,90.2,892.6,66.7,916.8,66.7
		 M916.8,65.7c-24.5,0-48.9,23.6-51,50.3c-3.5,45.1,24.5,69.6,59.4,89.5c21.5,12.3,31.1,30.5,22.3,54.4c-9.7,26.5-21.9,52-31.9,78.4
		c-6.7,17.6-12.2,39.4,11.1,46.9c46.9,15,95.1,25.7,135.2,36.2c6.4,0,9.6,0,11.7,0c1.2,0,2,0,2.8,0c37.6-1.3,52.7-22.4,41-56.9
		c-5.6-16.5-9.4-33.4-7.3-50.8c7.9-67.7-12.8-110.3-76.2-131.6c-46.7-15.7-72.6-44-87.1-88.2c-4.5-13.6-11-28-29.5-28.2
		C917,65.7,916.9,65.7,916.8,65.7L916.8,65.7z"/>
</g>
<g>
	<path d="M1012,51v1h0c10.2,0,20.6,7.3,28.6,20c8,12.7,12.6,29.3,12.6,45.5c0.4,9.1-1.5,15.8-5.5,20c-3.4,3.6-8.5,5.4-15.2,5.5
		c-0.2,0-0.4,0-0.6,0c-13.2,0-25.8-5.5-35.5-15.5c-10.8-11.1-16.7-26.4-16.3-42.1c0.6-20.7,11.5-32.6,30.9-33.4c0.3,0,0.6,0,0.9,0
		L1012,51 M1012,51c-0.3,0-0.7,0-1,0c-20.9,0.9-31.3,14.3-31.8,34.4c-0.9,31.8,23.5,58.6,52.8,58.6c0.2,0,0.4,0,0.6,0
		c17-0.2,22.2-11.4,21.6-26.6C1054.2,83.4,1034.2,51,1012,51L1012,51z"/>
</g>
<g>
	<path d="M761.6,76.8c6.6,0,12,2,15.8,6.1c4.4,4.6,6.5,11.4,6.1,19.8c-2.6,56.1,17.2,94.5,62.4,121.1c22.9,13.4,35.6,29.6,37.7,47.9
		c3.3,28.6-19.3,57-38.8,75.7c-22.3,21.4-52.2,34.9-91.5,41.3c-13,2.1-24,6.6-33.4,13.7c-8.8,6.6-16.5,15.6-23.3,27.4
		c-8.7,15-19.7,29.7-32.6,43.5c-11.1,11.8-20.3,17.4-29.1,17.4c-10.7,0-21.3-8-34.5-26c-19.7-26.8-43.5-47-72.8-61.9
		c-25.6-13-54.9-21.5-89.7-26.2l-0.1,0l-0.1,0c-5,0.5-9.7,1-14.2,1.4c-9.2,0.9-17.9,1.8-26.5,2.7c-5.5,0.6-10.5,0.9-15,0.9
		c-32,0-44.8-14.4-47-53c-1.3-23,4.1-44.1,16-62.7c7.5-11.7,17.6-18.1,28.5-18.1c14.6,0,28.6,11,38.6,30.1
		c7.1,13.6,13,27.8,17.6,42.1c9.5,29.6,29,43.9,61.2,45.1c10.2,0.4,20.5,0.9,30.5,1.4c17.9,0.9,36.4,1.8,54.6,1.8
		c7.6,0,14.7-0.2,21.5-0.5c28.1-1.3,46.5-4.2,57.6-15.2c10.6-10.4,14.6-27.6,18.6-57.7c7.2-53.3-10.6-94.5-56-129.5
		c-10-7.7-18.2-18.3-24.2-26.6c-6.8-9.4-9-18.6-6.2-26c2.6-7.2,9.6-12.3,20-14.8C664.5,85.4,715.7,80.3,759,76.9
		C759.9,76.9,760.7,76.8,761.6,76.8 M761.6,75.8c-0.9,0-1.8,0-2.7,0.1c-49,3.8-98,9.3-145.9,21c-22.9,5.6-28.2,23.3-14.3,42.4
		c7,9.8,15,19.5,24.4,26.8c42.5,32.8,63.2,72.6,55.6,128.6c-8,59.1-15.8,69.2-75.3,72.1c-7.2,0.3-14.3,0.5-21.5,0.5
		c-28.4,0-56.7-2.2-85.1-3.2c-31.4-1.1-50.7-14.7-60.3-44.4c-4.7-14.5-10.7-28.7-17.7-42.2c-10.5-20.2-25.3-30.7-39.5-30.7
		c-10.8,0-21.3,6.1-29.3,18.5c-12.3,19.2-17.5,40.9-16.2,63.3c2.2,39,15.1,53.9,48,53.9c4.6,0,9.7-0.3,15.1-0.9
		c12.7-1.3,25.5-2.5,40.7-4.1c63.6,8.5,120.8,31.8,161.8,87.6c13.1,17.8,24.1,26.4,35.3,26.4c9.4,0,18.9-6,29.8-17.7
		c12.4-13.2,23.7-28,32.8-43.7c12.9-22.4,29.8-36.3,56-40.6c34.1-5.6,66.9-17.5,92-41.6c40.9-39.2,62.8-88.9,0.9-125.2
		c-47.5-27.9-64.4-68-61.9-120.2C785.2,87.2,777.3,75.8,761.6,75.8L761.6,75.8z"/>
</g>
<g>
	<path d="M258.6,502.3L258.6,502.3c1.7,0,3.5,0.2,5.4,0.7c12.2,3.2,13.9,14.3,15.6,25c0.2,1.1,0.3,2.1,0.5,3.2
		c0.5,2.8,0.6,5.7,0.7,9.3c0.1,1.8,0.1,3.9,0.2,6.1c-0.9,6.8-1.4,14-1.9,21c-2.3,32.5-4.7,66.2-43.7,84.4c-11.9,5.6-27.8,12-44.4,12
		c-6.8,0-13.2-1-19.8-3.1c-8.9-2.8-14.2-6.8-15.8-11.8c-1.4-4.5,0.3-10,5.1-16.2c27.5-35.5,52.9-73.3,75.5-112.5
		C241.2,511.5,247.9,502.3,258.6,502.3 M258.6,501.3c-11.2,0-18.2,9.6-23.5,18.7c-22.6,39.2-47.7,76.6-75.4,112.4
		c-11.6,15-4.8,24.5,11.2,29.6c6.8,2.2,13.5,3.1,20.1,3.1c15.5,0,30.2-5.3,44.9-12.1c48.1-22.5,41.2-67.9,46.2-106.3
		c-0.4-6.7-0.2-11.3-0.9-15.7c-1.9-11.8-2.7-25.4-16.8-29C262.3,501.5,260.4,501.3,258.6,501.3L258.6,501.3z"/>
</g>
<g>
	<path d="M167.1,345.4L167.1,345.4c0.6,0,1.1,0,1.7,0.1c18.2,1.5,29.3,12,32.1,30.4c-0.9,11.6-6.7,18.3-16.1,18.3
		c-0.6,0-1.2,0-1.9-0.1c-18.5-1.6-29.4-12.5-30.7-30.8c-0.4-5.5,1.1-10.3,4.1-13.5C159,346.9,162.7,345.4,167.1,345.4 M167.1,344.4
		c-10.6,0-16.6,8.2-15.9,18.9c1.4,19,12.9,30.2,31.6,31.8c0.7,0.1,1.3,0.1,1.9,0.1c10.3,0,16.3-7.4,17.2-19.3
		c-2.8-18.4-14.1-29.8-33-31.3C168.3,344.4,167.7,344.4,167.1,344.4L167.1,344.4z"/>
</g>
<g>
	<path d="M1293,154.7c15.3,0,27.4,10.7,35.9,31.9c13.5,33.5,35.2,50.8,68.2,54.3c36.7,4,61.2,21.5,72.7,52.2c7,18.7-1.2,35.6-9.2,52
		l-0.5,1c-0.8,1.5-1.5,3.1-2.3,4.6c-8.4,17.2-17.2,35-19.1,55.3c-0.8,8.3-9.1,19.5-21.6,29.3c-12.4,9.7-25.9,15.7-35.3,15.7
		c-1.1,0-2.1-0.1-3.1-0.2c-18-3.1-20.8-18.1-23.5-32.6l-0.3-1.7c-0.9-4.8-1.7-9.7-2.6-14.4c-3.1-18-6.2-36.5-14.2-53.8
		c-5.1-11.1-12-19.6-20.5-25.1c-8.5-5.5-18.8-8.3-30.8-8.3c-0.8,0-1.7,0-2.6,0c-0.8,0-1.6,0-2.4,0c-18.2,0-35,6-51.4,11.8
		c-10.1,3.6-20.6,7.3-31.2,9.5c-4.8,1-9.3,1.5-13.6,1.5c-11.5,0-21-3.7-27.5-10.8c-7.9-8.5-11.3-21.7-9.9-38
		c2.8-34.1,17.7-56.4,48-72.4c15-7.8,28.3-19.2,41.2-30.2c7.3-6.2,14.8-12.6,22.5-18.3C1272.2,159.2,1283.2,154.7,1293,154.7
		 M1293,153.7c-10,0-21.2,4.5-33.4,13.5c-21.5,15.8-40.4,36.1-63.7,48.3c-31.1,16.3-45.7,39.1-48.6,73.2
		c-2.6,30.9,11.9,49.9,38.4,49.9c4.3,0,8.9-0.5,13.8-1.5c27.8-5.8,53.1-21.2,82.3-21.2c0.8,0,1.6,0,2.4,0c0.9,0,1.7,0,2.6,0
		c23.6,0,40.3,10.8,50.4,32.9c10,21.7,12.3,45,16.7,68c2.9,15.2,5.3,31.8,24.7,35.1c1,0.2,2.1,0.3,3.3,0.3c20.3,0,56-27.2,57.8-46
		c2.1-21.9,11.9-40.4,21.3-59.6c8.2-16.8,17-34.3,9.7-53.8c-12.7-33.7-39.9-49.2-73.6-52.8c-34.8-3.7-54.8-22.6-67.4-53.7
		C1321.1,164.6,1308.5,153.7,1293,153.7L1293,153.7z"/>
</g>
<g>
	<path d="M538.3,176.4c9.6,0,18.2,0.4,26.3,1.1c16.6,1.5,31.8,7.6,43.9,17.5c12.2,10,21.2,24,26.2,40.4c4.8,15.9,6.4,30.5,4.8,43.4
		c-1.8,15.1-8.1,28.4-18.6,39.5c-13.5,14.3-32.4,15.5-50.5,15.5c-2,0-4,0-5.9,0l-0.4,0l-0.1,0l-0.1,0c-6.4,0.8-12.7,1.1-18.6,1.1
		c-29.7,0-53.1-9.3-71.5-28.5c-15.5-16.1-27.7-39.8-37.3-72.2c-2-6.9-5.3-13.4-8.5-19.8c-2.6-5.3-5.4-10.7-7.3-16.2
		c-2.4-6.6-2.1-13.1,0.6-17c1.9-2.7,4.8-4,8.7-4c0.6,0,1.3,0,2,0.1c9.2,1,19.1,1.5,30.2,1.5c12.8,0,25.7-0.6,38.3-1.2
		C512.9,177,525.7,176.4,538.3,176.4L538.3,176.4 M538.3,175.4c-25.3,0-50.7,2.5-76.1,2.5c-10,0-20.1-0.4-30.1-1.5
		c-0.7-0.1-1.4-0.1-2.1-0.1c-11.9,0-14,11.8-10.3,22.3c4.4,12.3,12.1,23.5,15.8,36C452.8,293,481.8,336,545.3,336
		c5.9,0,12.2-0.4,18.7-1.1c2.1,0,4.2,0,6.4,0c18.3,0,37.5-1.3,51.2-15.8c22.8-24.1,22.7-54.7,14-83.9
		c-10.2-34.1-36.8-55.5-70.9-58.7C555.9,175.7,547.1,175.4,538.3,175.4L538.3,175.4z"/>
</g>
<g>
	<path d="M936.8,425.3c30.6,0,59.2,8.4,84.9,25c18.8,12.1,40.2,17.7,67.1,17.7c13.8,0,27.8-1.4,43.2-3.1c4.4-0.5,8.4-0.7,12.2-0.7
		c14.8,0,27,3.6,37.2,11c8.9,6.5,13.7,15.8,12.4,24.3c-1.1,7.3-6.6,13.2-15,16c-48.5,16.2-86.7,46.7-120.8,77.2
		c-17.6,15.8-37.2,23.5-59.8,23.5c-22.7,0-46.1-7.7-68.7-15.1c-3.3-1.1-6.8-2.2-10.2-3.3c-23.1-7.4-37.3-25.1-44.6-55.6
		c-3.8-15.7-6.6-28.5-9-40.3c-6.9-34.5-8.9-53.8-0.4-64.2c8.5-10.4,28-12.3,63.4-12.3l0.6,0C931.8,425.4,934.3,425.3,936.8,425.3
		 M936.8,424.3c-2.5,0-5,0.1-7.5,0.2c-0.2,0-0.4,0-0.6,0c-71.7,0-78,7.7-63.9,77.6c2.7,13.5,5.8,27,9,40.4
		c6.2,25.9,18.5,47.8,45.3,56.3c26.4,8.4,53,18.4,79.2,18.4c20.5,0,40.7-6.1,60.5-23.7c36-32.2,73.5-61.3,120.5-77
		c20.4-6.8,21-29,2.9-42.1c-11.5-8.3-24.5-11.2-37.8-11.2c-4.1,0-8.2,0.3-12.3,0.7c-14.5,1.6-28.9,3.1-43.1,3.1
		c-22.9,0-45.3-3.9-66.6-17.6C996.2,432.7,967.5,424.3,936.8,424.3L936.8,424.3z"/>
</g>
<g>
	<path d="M1340.7,555.8v1c9,0,20.2,0.8,32.8,1.8c24.4,1.9,49.4,2.9,73.5,3.8c18,0.7,36.7,1.5,55,2.6c27.2,1.6,49.5,11.1,64.5,27.2
		c15,16.1,22.9,39.2,22.9,66.6c0,18-6.3,34.2-17.6,45.7c-11.2,11.3-26.8,17.5-43.9,17.5c-8.8,0-17.9-1.6-27.1-4.8
		c-51.9-18.2-121-39.4-195.3-42.4c-12.4-0.5-21.8-5.3-27.1-14c-7.2-11.8-6.1-29.9,3-49.5c9.9-21.2,17-35.7,25.5-44
		c7.8-7.6,17.1-10.5,34-10.5L1340.7,555.8 M1340.7,555.8c-32.9,0-39.6,10.4-60.4,55.1c-16.4,35.3-6.5,63.7,25,64.9
		c67.7,2.7,131.6,20.1,195,42.3c9.5,3.3,18.7,4.9,27.4,4.9c35.6,0,62.5-26.1,62.5-64.1c0-56.4-32.3-91.5-88.3-94.9
		c-42.8-2.6-85.7-3.1-128.4-6.4C1360.2,556.6,1349.5,555.8,1340.7,555.8L1340.7,555.8z"/>
</g>
<g>
	<path d="M1262.4,371.7v1c0.6,0,1.1,0,1.7,0c18.5,0.5,28.7,17.8,28.7,48.5c-0.6,3.2-0.8,7-0.9,10.9c-0.5,11.4-1,24.3-13,28.2
		c-1.9,0.6-3.8,0.9-5.6,0.9c-10.3,0-17.6-9.8-24.7-19.2c-2.4-3.2-4.6-6.2-7-8.8c-9.6-10.7-21.5-24-12.9-41.2
		c6.3-12.7,18-19.4,33.8-19.4L1262.4,371.7 M1262.4,371.7c-15.2,0-27.8,6.1-34.7,19.9c-8.7,17.4,2.7,30.7,13,42.3
		c9.5,10.6,18.2,28.3,32.5,28.3c1.9,0,3.8-0.3,5.9-1c17-5.5,12.2-27.7,14.6-40c0-31.8-10.9-49-29.7-49.6
		C1263.6,371.7,1263,371.7,1262.4,371.7L1262.4,371.7z"/>
</g>
<g>
	<path d="M901.6,657.9v1h0c1.7,0,3.6,0.1,5.5,0.4c23,3.2,45.7,9.5,67.7,15.5c25.8,7.1,52.4,14.5,79.7,17c15.2,1.4,28.9,2.8,42.2,6.2
		c10.3,2.6,17.5,7.7,19.6,14.1c1.8,5.1,0.3,10.8-4.4,16.8c-12.8,16.5-29.1,31-48.5,43c-16.1,10-34.3,18.5-55.9,26
		c-31.3-2-46.7-20.1-61.6-37.7l-1.4-1.6l-0.7-0.8c-20.2-23.7-41.1-48.2-53.9-77.5c-3.1-7.1-3.5-12.8-1.1-16.4c2.1-3.2,6.5-5,12.6-5
		L901.6,657.9 M901.6,657.9c-12.6,0-19.3,7-12.4,22.8c13,29.8,33.9,54.2,54.7,78.6c15.7,18.4,31.1,37.7,63.9,39.7
		c37.9-13.2,77.1-33.4,105-69.4c12.5-16.1,1.2-28.2-15.8-32.4c-13.8-3.5-28.2-4.9-42.4-6.2c-50.5-4.6-97.4-25.5-147.4-32.5
		C905.3,658.1,903.4,657.9,901.6,657.9L901.6,657.9z"/>
</g>
<g>
	<path d="M780.6,496.5v1c20.1,0,36.2,11.5,43.2,30.9c7.3,20.4,8.8,42,10.3,63c0.2,3.2,0.4,6.4,0.7,9.6c0.8,9-0.5,15.4-3.9,19.1
		c-2.3,2.6-5.8,3.9-10.3,3.9c-3.9,0-8.6-1-14-2.9c-35.3-12.4-58.7-36.9-69.7-72.6c-7-22.9,1.4-39.8,23.8-47.4
		c6.8-2.3,13.5-3.5,20-3.5L780.6,496.5 M780.6,496.5c-6.5,0-13.3,1.2-20.3,3.6c-23.6,8.1-31.4,26-24.4,48.7
		c11,35.8,34.7,60.7,70.3,73.3c5.4,1.9,10.2,2.9,14.4,2.9c10.6,0,16.7-6.8,15.2-24c-1.9-24.5-2.5-49.3-11-72.9
		C817.5,507.9,800.9,496.5,780.6,496.5L780.6,496.5z"/>
</g>
<g>
	<path d="M113.1,459.8v1c10.3,0,20.3,8.1,29.2,15.3l0.8,0.7c8.7,7,12.7,16.9,12.8,31.3c-1.8,12.7-4,28.5-20.7,32
		c-1.5,0.3-2.9,0.5-4.3,0.5c-11.2,0-16.8-10.3-22.2-20.3c-0.4-0.7-0.7-1.3-1.1-2c-3.3-6.1-5.4-11.4-6.5-16.3
		c-0.6-2.8-1.4-5.6-2.3-8.6c-3.3-11.3-6.7-22.9,3.9-29.4c3.3-2,6.6-3,10.2-3L113.1,459.8 M113.1,459.8c-3.6,0-7.2,0.9-10.8,3.2
		c-14.1,8.7-4.9,25.7-2.1,39.1c1.2,5.8,3.7,11.4,6.6,16.6c5.7,10.4,11.5,22.8,24.1,22.8c1.4,0,2.9-0.2,4.5-0.5
		c17.5-3.6,19.7-19.9,21.5-32.9c-0.1-14-4-24.7-13.2-32.1C134.7,468.6,124.1,459.8,113.1,459.8L113.1,459.8z"/>
</g>
<g>
	<path d="M755.7,724L755.7,724c0.1,0,0.2,0,0.3,0c50.4,3,81.3,23.1,87.1,56.6c1.6,9.4,2.2,21-7.4,27.7c-2.4,1.7-4.8,2.5-7.5,2.5
		c-5.2,0-10.3-3-15.3-5.9c-0.8-0.5-1.6-0.9-2.4-1.4c-26.6-15.1-43.5-39.7-57.7-64c-3.1-5.3-4-10.1-2.4-12.9
		C751.3,724.8,753.2,724,755.7,724 M755.7,723c-7.7,0-9.5,7.3-3.8,16.9c14.9,25.4,31.7,49.3,58.1,64.3c5.7,3.2,11.9,7.5,18.2,7.5
		c2.7,0,5.4-0.7,8.1-2.6c9.6-6.7,9.6-18,7.8-28.7c-5.7-33.4-36-54.3-88-57.4C756,723,755.8,723,755.7,723L755.7,723z"/>
</g>
<g>
	<path d="M1120.1,48.3L1120.1,48.3c0.6,0,1.2,0.1,1.9,0.2c16.4,3.5,26.3,15.6,29.4,36c-0.8,9.3-3.5,20.4-12.2,20.4
		c-0.7,0-1.4-0.1-2.1-0.2c-21.6-3.8-24.5-22.3-25.6-40.9c-0.3-5.3,1.1-10.5,3.7-13.2C1116.5,49.1,1118.2,48.3,1120.1,48.3
		 M1120.1,47.3c-7.4,0-10.1,9.2-9.7,16.5c1.1,18.6,4.1,38,26.4,41.9c0.8,0.1,1.6,0.2,2.3,0.2c9,0,12.4-10.4,13.3-21.4
		c-2.5-17.1-10.6-32.7-30.1-36.9C1121.5,47.4,1120.8,47.3,1120.1,47.3L1120.1,47.3z"/>
</g>
<g>
	<path d="M197.2,761.3L197.2,761.3L197.2,761.3c27.1,3.4,48.8,18.8,61.3,43.3c6.8,13.3,6.4,25-1.3,34.7c-5.2,6.7-12.2,10-20.8,10
		c-3.8,0-7.9-0.6-12.3-1.9c-26.8-7.8-48-25.4-62.9-52.2c-4-7.1-4.3-14-0.9-19.7C165.7,766.5,179.1,761.3,197.2,761.3 M197.2,760.3
		c-32.1,0-47.4,16.4-36.8,35.4c14,25.3,34.9,44.4,63.5,52.7c4.2,1.2,8.4,2,12.6,2c8,0,15.6-2.8,21.6-10.4c9-11.4,7.3-24.2,1.4-35.8
		C245.4,776.8,221.7,763.4,197.2,760.3C197.2,760.3,197.2,760.3,197.2,760.3L197.2,760.3z"/>
</g>
<g>
	<path d="M660.4,819.2v1c0.7,0,1.3,0,2,0c10.1,2.2,27.1,9.2,29.2,32.2c0.4,4.7-0.7,9.1-3.1,11.6c-1.6,1.8-3.8,2.7-6.4,2.7
		c-0.7,0-1.4-0.1-2.2-0.2c-9.6-1.6-17.3-5.8-23-12.6c-5.2-6.1-8.7-14.3-10.4-24.3c-0.4-2.4,0-4.4,1.2-5.8c2-2.4,6.4-3.7,12.6-3.7
		L660.4,819.2 M660.4,819.2c-10.1,0-16.1,3.2-14.8,10.7c3.4,19.2,13.6,34.2,34.3,37.6c0.8,0.1,1.6,0.2,2.3,0.2
		c8.2,0,11.1-8.1,10.4-15.4c-1.8-20-14.8-29.8-30-33.1C661.8,819.2,661.1,819.2,660.4,819.2L660.4,819.2z"/>
</g>
<g>
	<path d="M1012.8,209.1l0,1h0c19.7,0,39.7,9.1,54.8,24.8c15.8,16.5,24.6,38.3,24.6,61.4c-0.5,4.4-1,9.5-1.6,15
		c-1.6,15.2-3.6,34.1-6.4,52.9c-2.6,17.5-14.1,27.2-32.3,27.2l-0.1,0c-26.9,0-54.8-4.8-90.3-15.5c-11.6-3.5-19.6-9.6-23.4-17.6
		c-3.6-7.8-3.2-17.3,1.3-27.7c14.2-33,30.7-65.8,46.7-97.4c2.1-4.1,4.1-8.2,6.2-12.3c3.5-6.9,10.8-10.8,20.6-10.8L1012.8,209.1
		 M1012.8,209.1C1012.8,209.1,1012.8,209.1,1012.8,209.1c-9.4,0-17.6,3.5-21.5,11.3c-18.3,36.3-36.9,72.5-52.9,109.8
		c-9.3,21.7-1.3,39.4,22.7,46.6c29.5,8.9,59.6,15.5,90.6,15.6c0,0,0,0,0.1,0c18.4,0,30.5-9.8,33.3-28c3.9-25.7,6.2-51.7,8.1-67.9
		C1093.2,247.1,1053.7,209.1,1012.8,209.1L1012.8,209.1z"/>
</g>
<g>
	<path d="M913.1,131.4c3,2.6,5.2,5.2,6.5,7.7c-0.4,0.8-2.7,3.4-3.8,4.2c-2.1-1.4-4.1-3.1-6.5-5.3c-0.6-0.6-1.3-1.2-2-1.8
		c0.9-0.8,1.9-1.6,2.7-2.3C911.1,133,912.4,131.9,913.1,131.4 M913.2,130.3c-0.7,0-4,3.2-7.4,6c4.1,3.6,6.7,6.3,9.9,8.3c0,0,0,0,0,0
		c0.6,0,5.3-4.7,4.8-5.5C919,135.6,916.2,132.7,913.2,130.3C913.3,130.3,913.2,130.3,913.2,130.3L913.2,130.3z"/>
</g>
<g>
	<path d="M702.3,102.9c19.1,0,31.8,3.9,39.9,12.1c14.4,14.7,15,43.6,14.2,86.1c-0.1,5.7-0.7,11.6-1.9,18.2
		c-1.8,10.5-0.9,17.9,3,22.5c2.9,3.5,7.6,5.3,13.8,5.3c3.5,0,7.5-0.6,12-1.7c10-2.4,18.6-3.6,26.4-3.6c17.6,0,31.7,6.2,42.9,18.9
		c9.8,11.1,10.9,24.7,3.2,40.4c-5.5,11.2-13.1,19.8-22.5,25.7c-9,5.6-20.1,8.9-32.8,9.8c-1.6,0.1-3.2,0.2-5.5,0.2
		c-1.5,0-3.1,0-5.1,0c-3,0-6.7-0.1-11.5-0.1h0l0,0c-0.8,0.1-2.1,0.2-3.7,0.3c-5.4,0.4-14.4,1-23.4,2.1c-2.9,0.4-5.8,0.5-8.4,0.5
		c-11.6,0-20.2-3.4-25.5-10c-6-7.5-7.5-19.1-4.2-33.7c1.2-5.5,3.6-11,5.8-16.4c6.5-15.4,13.2-31.3-3.7-48.2
		c-18.5-18.6-37.8-38.6-57.4-59.4c-2.9-3.1-6.3-6.1-9.5-9c-11.8-10.4-23.9-21.2-17.2-38.3c7.3-18.3,25.7-19.3,43.6-20.2
		c3.4-0.2,6.7-0.4,9.9-0.7C691,103.2,697,102.9,702.3,102.9 M702.3,101.9c-5.4,0-11.4,0.3-17.9,0.9c-20,1.8-45.4-0.9-54.3,21.5
		c-9,22.6,13.9,34.4,26.9,48.3c18.8,20.1,37.9,40,57.4,59.5c22.3,22.3,2.3,42.8-2.4,63.7c-6.3,28.3,5.1,44.9,30.7,44.9
		c2.7,0,5.5-0.2,8.5-0.6c11.7-1.4,23.5-2.1,27.1-2.4c8.1,0,13,0.1,16.6,0.1c2.1,0,3.8,0,5.5-0.2c25.3-1.7,44.8-12.8,56.2-36
		c7.1-14.4,7.7-29.1-3.3-41.5c-12.6-14.3-27.6-19.3-43.7-19.3c-8.6,0-17.6,1.4-26.6,3.7c-4.4,1.1-8.3,1.6-11.8,1.6
		c-13.3,0-19-8.3-15.8-26.6c1.1-6,1.8-12.2,1.9-18.3C758.6,131.5,755.5,101.9,702.3,101.9L702.3,101.9z"/>
</g>
<g>
	<path d="M629.3,390.5c0.9,0.1,1.8,0.2,2.7,0.3c15.2,1.7,34.2,3.8,34.5,28.5c0.1,10.4-2.6,19.4-7.8,25.9
		c-5.6,7.1-13.9,11.2-24.5,12.2c-0.3,0-0.6,0-1,0c-7.5,0-18.8-7.3-29.4-19c-10.5-11.5-17.3-23.9-17.4-31.8c0-2.7,1-5.1,3-7.2
		C595.1,393.6,608.9,390.5,629.3,390.5 M629.3,389.5c-29.4,0-44.1,6.3-44,17.2c0.2,17.6,30.9,51.8,47.8,51.8c0.4,0,0.7,0,1.1,0
		c22.7-2.1,33.4-18.3,33.2-39.1C667.2,392.2,645.1,391.4,629.3,389.5C629.3,389.5,629.3,389.5,629.3,389.5L629.3,389.5z"/>
</g>
<g>
	<path d="M381.9,280.8L381.9,280.8c0.3,0,0.5,0,0.8,0c19.6,0.5,22.9,16.8,25.9,31.1c0.3,1.5,0.6,2.9,0.9,4.3
		c-0.3,17.9-8.3,27.4-22.9,27.4c-0.2,0-0.4,0-0.6,0c-7.9-0.1-14.3-2.6-18.7-7.3c-5-5.3-7.5-13.1-7.2-22.7
		C360.4,299.5,363.2,280.8,381.9,280.8 M381.9,279.8c-19.2,0-22.4,18.4-22.9,33.8c-0.5,17.3,7.9,30.7,26.9,31.1c0.2,0,0.4,0,0.6,0
		c15.5,0,23.6-10.2,23.9-28.5c-3.3-14.9-5.2-35.8-27.7-36.4C382.4,279.8,382.2,279.8,381.9,279.8L381.9,279.8z"/>
</g>
<g>
	<path d="M235.4,589.2L235.4,589.2c1.8,0,4.3,1.1,4.3,10.4c-2.8,16.5-11.8,26.2-26.9,28.8c-0.4,0.1-0.8,0.1-1.1,0.1
		c-1.8,0-3.5-0.8-4.5-2.1c-0.9-1.2-1.2-2.7-0.8-4.3c5.1-19,13.6-29,27.6-32.6C234.5,589.2,235,589.2,235.4,589.2 M235.4,588.2
		c-0.5,0-1.1,0.1-1.7,0.2c-16.9,4.3-24.2,17.9-28.4,33.3c-1.1,4.2,2.2,7.7,6.3,7.7c0.4,0,0.9,0,1.3-0.1
		c17.6-3.1,25.3-15.2,27.7-29.7C240.7,593.4,239.7,588.2,235.4,588.2L235.4,588.2z"/>
</g>
<g>
	<path d="M1282.2,190.5v1c6.5,0,13.1,3.4,18.1,9.3c13.5,15.8,21.9,35.3,26.2,61.5c1.8,10.9-4.2,19.4-16,22.8
		c-4,1.2-7.9,2.3-11.9,3.5c-31.8,9.3-64.8,18.8-97.6,26.2c-2.4,0.5-4.7,0.8-6.9,0.8c-13.3,0-21.3-10.5-22.4-29.6
		c0.5-1.3,0.9-3,1.4-4.9c1.3-5,2.9-11.2,6.7-15.2c31-32.4,61.6-56,93.5-72.2c2.8-1.4,5.7-2.1,8.7-2.1V190.5 M1282.2,190.5
		c-3.1,0-6.2,0.7-9.2,2.2c-35.8,18.1-66.3,43.6-93.8,72.4c-5.5,5.8-6.6,15.9-8.5,20.6c1.1,20,9.5,30.8,23.4,30.8
		c2.2,0,4.6-0.3,7.1-0.8c36.9-8.3,73.2-19.1,109.6-29.7c11.1-3.2,18.8-11.5,16.7-24c-3.8-22.7-11.2-44.2-26.4-62
		C1295.9,194.1,1289.1,190.5,1282.2,190.5L1282.2,190.5z"/>
</g>
<g>
	<path d="M545.6,192.7c37.7,1.6,63.7,19.5,71.5,49.2c3.7,14.1,4.4,26.5,2.1,37c-2.7,12.4-9.6,22.4-20.5,29.7
		c-13.3,9-29.2,13.8-45.8,13.8c-20.4,0-40.7-7-57.2-19.7c-17.2-13.2-28.6-31.5-32.2-51.7c-5.9-32.7,0.8-43.1,32.7-50.3
		c11.2-2.5,22.8-4.2,34-5.7C535.3,194.2,540.5,193.5,545.6,192.7 M545.6,191.7c-16.5,2.6-33.3,4.3-49.6,8
		c-32.8,7.5-39.5,18.4-33.5,51.5c7.8,43.2,49,72.2,90.5,72.2c16,0,32.1-4.4,46.3-13.9c24-16.2,25.5-42.1,18.8-67.8
		C610,210.8,582.7,193.2,545.6,191.7L545.6,191.7z"/>
</g>
<g>
	<path d="M483.1,413.7c23.7,0,44.9,6.1,61.4,17.6c36.2,25.3,56.1,66.7,50.9,105.5c-1,7.1-1.9,14.2-2.8,21.2l0,0.3l0,0.3
		c-2.9,22.3-5.9,45.4-10.1,68.3c-4.8,26.4-14.7,45.9-30.2,59.6c-16,14.1-36.5,21-62.7,21c-2.6,0-5.2-0.1-8-0.2l0,0l0,0
		c-6.9,0-14,0.2-20.9,0.4c-7.5,0.2-15.3,0.4-23.2,0.4c-11.3,0-20.8-0.4-29.7-1.3c-37.2-3.8-63.6-18.6-80.7-45.3
		c-14.6-22.8-21.2-54.2-20.2-96c1-41.4,23.1-80.6,62.1-110.5C402.6,429.1,445.3,413.7,483.1,413.7 M483.1,412.7
		c-38.1,0-81,15.5-114.9,41.4c-39.3,30.1-61.5,69.6-62.5,111.3c-1,42,5.7,73.5,20.4,96.6c17.3,27,43.9,41.9,81.5,45.7
		c9,0.9,18.4,1.3,29.8,1.3c7.9,0,15.7-0.2,23.2-0.4c6.9-0.2,14-0.4,20.9-0.4c2.7,0.1,5.4,0.2,8,0.2c26.5,0,47.2-7,63.4-21.2
		c15.6-13.8,25.6-33.5,30.5-60.2c4.2-22.9,7.2-46,10.1-68.3l0-0.3c0.9-7.2,1.9-14.3,2.8-21.5c5.3-39.1-14.8-80.9-51.3-106.4
		C528.5,418.9,507,412.7,483.1,412.7L483.1,412.7z"/>
</g>
<g>
	<path d="M483.1,423.7c21.6,0,40.9,5.5,55.6,15.8c33.1,23.2,51.5,60.8,46.7,95.9c-1,7.2-1.9,14.5-2.8,21.5l0,0.2l0,0.1
		c-2.9,22.2-5.9,45.1-10,67.8c-4.4,24.2-13.2,41.8-26.9,53.9c-14.1,12.4-32.4,18.5-56.1,18.5c-2.5,0-5.1-0.1-7.7-0.2l0,0l0,0
		c-7.1,0-14.4,0.2-21.5,0.4c-7.5,0.2-15.2,0.4-22.9,0.4c-11,0-20.1-0.4-28.7-1.3c-34-3.4-58-16.7-73.3-40.7
		c-13.5-21.1-19.6-50.7-18.7-90.4c0.9-38.3,21.6-74.8,58.2-102.8C406.9,438.3,447.4,423.7,483.1,423.7 M483.1,422.7
		c-35.9,0-76.6,14.7-108.8,39.3c-36.9,28.2-57.7,65-58.6,103.6c-1,39.9,5.2,69.7,18.8,90.9c15.5,24.2,39.7,37.7,74,41.2
		c8.6,0.9,17.8,1.3,28.8,1.3c7.8,0,15.5-0.2,23-0.4c7.1-0.2,14.3-0.4,21.4-0.4c2.7,0.1,5.3,0.2,7.8,0.2c23.9,0,42.5-6.1,56.8-18.7
		c13.9-12.3,22.8-30.1,27.3-54.5c4.1-22.6,7.1-45.6,10-67.8l0-0.2c0.9-7.2,1.9-14.5,2.9-21.7c4.8-35.4-13.7-73.5-47.1-96.9
		C524.4,428.2,505,422.7,483.1,422.7L483.1,422.7z"/>
</g>
<g>
	<path d="M483.1,433.7c19.6,0,36.8,4.8,49.9,14c30.1,21.1,46.8,55,42.5,86.4c-1,7.3-1.9,14.6-2.9,21.8l0,0.1
		c-2.9,22.1-5.9,44.9-9.9,67.2c-4,21.9-11.8,37.6-23.7,48.2c-12.2,10.8-28.3,16-49.5,16c-2.4,0-4.9-0.1-7.4-0.2l0,0l0,0
		c-7.3,0-14.7,0.2-22,0.4c-7.4,0.2-15.1,0.4-22.7,0.4c-10.6,0-19.4-0.4-27.7-1.2c-30.8-3.1-52.3-14.9-65.9-36.1
		c-12.4-19.4-18-47.1-17.1-84.7c0.8-35.2,20.1-69,54.3-95.1C411.3,447.6,449.5,433.7,483.1,433.7 M483.1,432.7
		c-33.8,0-72.2,13.9-102.7,37.3c-34.4,26.3-53.8,60.4-54.7,95.9c-0.9,37.9,4.7,65.8,17.2,85.3c13.7,21.5,35.5,33.5,66.6,36.6
		c8.3,0.8,17.1,1.2,27.8,1.2c7.6,0,15.3-0.2,22.7-0.4c7.2-0.2,14.7-0.4,21.9-0.4c2.6,0.1,5.1,0.2,7.5,0.2c21.4,0,37.8-5.3,50.1-16.2
		c12.2-10.8,20-26.7,24.1-48.8c4.1-22.4,7.1-45.2,10-67.3c1-7.3,1.9-14.6,2.9-21.9c4.3-31.8-12.5-66-42.9-87.3
		C520.4,437.6,502.9,432.7,483.1,432.7L483.1,432.7z"/>
</g>
<g>
	<path d="M483.1,442.7v1h0c17.5,0,32.8,4.2,44.2,12.2c12.4,8.7,23.1,20.7,29.9,33.8c7.4,14.1,10.3,29,8.4,43.1
		c-1,7.3-2,14.7-2.9,21.9c-2.9,22-5.8,44.7-9.9,66.8c-7.1,38.7-26.6,56-63.4,56c-2.3,0-4.7-0.1-7.2-0.2l0,0h0
		c-7.5,0-15.1,0.2-22.5,0.4c-7.4,0.2-15,0.4-22.4,0.4c-10.3,0-18.8-0.4-26.7-1.2c-27.5-2.8-46.6-13.1-58.5-31.6
		c-11.3-17.6-16.4-43.5-15.5-79.1c0.8-32.1,18.7-63.1,50.4-87.4c28.7-21.9,64.6-35,96.1-35L483.1,442.7 M483.1,442.7
		c-62.9,0-145.7,52.8-147.4,123.4c-1.7,69.2,18.5,106,74.9,111.7c8.9,0.9,17.8,1.2,26.8,1.2c14.9,0,30-0.8,44.9-0.8
		c2.5,0.1,4.9,0.2,7.2,0.2c37.4,0,57.2-17.6,64.3-56.8c5.4-29.4,8.7-59.1,12.8-88.7c4.1-30.2-13.9-60.4-38.8-77.8
		C515.8,446.6,500.2,442.7,483.1,442.7L483.1,442.7z"/>
</g>
<g>
	<path d="M937.8,438.1v1h0c2.3,0,4.6,0.1,6.8,0.2c33.3,2.3,59.4,17.9,87.7,36.5c13.6,8.9,29,13.1,44,17.1c6.2,1.7,12.7,3.4,18.9,5.5
		c4.9,1.6,8,3.9,9.2,6.8c1.1,2.6,0.8,5.9-0.9,9.7c-7.4,16.1-27.2,35.2-52.7,51.1c-25.5,15.9-51.6,25.3-69.8,25.3c-0.6,0-1.2,0-1.9,0
		c-38.7-1.1-62.5-9.1-77.4-26.2c-15.1-17.3-21.7-44.6-21.5-88.6c0.1-10.9,6-20.3,17.1-27.2c10.6-6.6,25-10.2,40.5-10.2L937.8,438.1
		 M937.8,438.1c-31.3,0-58.5,14.9-58.6,38.4c-0.5,85.8,25.1,113.7,99.8,115.8c0.6,0,1.2,0,1.9,0c39.1,0,107.4-42.3,123.5-77
		c4.4-9.4-0.1-14.9-8.9-17.9c-21.1-7-43.6-9.9-62.6-22.5c-27-17.8-54.1-34.3-88.1-36.7C942.4,438.2,940,438.1,937.8,438.1
		L937.8,438.1z"/>
</g>
<g>
	<path d="M1473.7,589.5c12.1,0,23.9,0.2,35.1,0.5c17.9,0.6,32.7,7.1,42.7,19c9.7,11.5,14.8,27.6,14.8,46.7c0,14.3-4.1,26-11.9,33.8
		c-7.6,7.6-18.8,11.7-32.4,11.7c-9.2,0-19.3-1.8-30.2-5.4c-33.2-10.9-67.3-21.1-100.3-31c-15-4.5-30.4-9.1-45.6-13.7
		c-0.8-0.3-1.7-0.5-2.6-0.8c-12.8-3.8-26.1-7.8-25.1-24.1c1.1-18,13.8-31.3,31-32.3C1389,591.6,1431.6,589.5,1473.7,589.5
		L1473.7,589.5 M1473.6,588.5c-41.5,0-83.1,2-124.5,4.5c-17.6,1-30.8,14.5-31.9,33.2c-1.1,18.3,14.8,21.8,28.4,25.9
		c48.6,14.8,97.6,28.7,145.8,44.6c11.1,3.7,21.4,5.4,30.5,5.4c27.8,0,45.3-16.4,45.3-46.5c0-38.5-20.6-65.5-58.5-66.7
		C1497.1,588.7,1485.4,588.5,1473.6,588.5L1473.6,588.5z"/>
</g>
<g>
	<path d="M959.7,698.1c24.4,3.5,49.5,7.2,72.2,19.4c9,4.8,12.6,10.7,11,17.9c-3.5,15.9-17.4,21.3-30.2,25.1
		c-2.7,0.8-5.7,1.2-8.8,1.2c-12.4,0-27.3-6.3-40-16.9c-12.8-10.7-20.7-23.9-21.2-35.3c-0.4-9.3,5.7-10,12.8-10.8
		C956.9,698.5,958.4,698.4,959.7,698.1 M959.7,697.1c-8.1,1.4-18.5,0-17.9,12.4c1.1,25.2,35.7,53.2,62.2,53.2c3.2,0,6.2-0.4,9.1-1.2
		c13.4-4,27.3-9.7,30.9-25.8c2-9.2-4.1-15.1-11.5-19C1009.7,704.5,984.7,700.8,959.7,697.1L959.7,697.1z"/>
</g>
<g>
	<path d="M781.6,528.3L781.6,528.3c0.3,0,0.6,0,0.9,0c18,0.7,20.3,14.5,22.5,27.8l0,0c-1,9-2.1,18.3-11.1,18.3c-0.4,0-0.9,0-1.4-0.1
		c-15-1.3-24.1-11.8-25.5-29.5c-0.4-5.2,0.8-9.5,3.5-12.4C773,529.7,776.8,528.3,781.6,528.3 M781.6,527.3c-10.7,0-16.5,7-15.6,17.7
		c1.4,16.2,9.2,28.8,26.4,30.4c0.5,0,1,0.1,1.5,0.1c10,0,11.1-10.1,12.1-19.4c-2.2-13.6-4.7-28.1-23.5-28.8
		C782.2,527.3,781.9,527.3,781.6,527.3L781.6,527.3z"/>
</g>
<g>
	<path d="M1035.7,249.5v1c10,0,18.8,5.7,26.1,17c15.9,24.7,6.8,51.4-3.1,74.4c-6.5,15.3-19.2,21.6-43.5,21.6c-1.8,0-3.8,0-5.8-0.1
		c-1.5-0.1-3.2-0.3-5-0.4c-13-0.8-30.8-2-37.5-19.7c-10-26.5,8.5-47.1,24.8-65.2l0.7-0.8c16-17.8,30.6-26.9,43.3-26.9L1035.7,249.5
		 M1035.7,249.5c-12.9,0-27.8,9.1-44.1,27.2c-16.7,18.6-36,39.6-25.7,67c7.9,20.9,31,19.5,43.3,20.7c2,0.1,4,0.1,5.9,0.1
		c22.2,0,37.1-4.9,44.5-22.2c10.5-24.5,18.8-50.9,3-75.4C1055.1,255.3,1046.1,249.5,1035.7,249.5L1035.7,249.5z"/>
</g>
<g>
	<path d="M691.9,141l0,1c2.4,0,4.4,0.8,5.7,2c1,1,1.4,2.3,1.4,3.8c0,1-1.3,2.2-2.4,3.3c-0.4,0.4-0.8,0.8-1.1,1.1
		c-5.7-1.9-8.2-3.5-8-7.2c0-0.8,2.8-3.1,4.3-3.1L691.9,141 M691.9,141c-1.9,0-5.2,2.5-5.3,4c-0.3,5,3.9,6.7,9.3,8.4
		c1.3-1.7,4.1-3.6,4.1-5.6C700.1,143.1,696,141,691.9,141C691.9,141,691.9,141,691.9,141L691.9,141z"/>
</g>
<g>
	<path d="M1267.4,242.7L1267.4,242.7c4.5,0,5.8,6,6.1,8.2c-4,13.8-16.5,16-28.5,18.1l-0.4,0.1c-1.1,0-4.4-3.2-4.7-4.3
		c4.2-11.7,13.3-19.3,26.4-21.9C1266.6,242.8,1267.1,242.7,1267.4,242.7 M1267.4,241.7c-0.4,0-0.9,0-1.4,0.1
		c-12.9,2.6-22.7,10-27.2,22.7c-0.4,1,3.9,5.5,5.7,5.5c0.1,0,0.1,0,0.2,0c12.6-2.2,25.7-4.3,29.8-19.1
		C1273.9,245.9,1271.6,241.7,1267.4,241.7L1267.4,241.7z"/>
</g>
<g>
	<path d="M544.2,209.2v1l0.1,0c17.6,0,32.9,5.7,43.1,16c8.9,8.9,13.6,20.8,13.6,34.3c0,13.6-4.9,25.1-14.1,33.1
		c-9.3,8-22.5,12.3-38.2,12.3c-18.5,0-35.2-5.4-47.1-15.3c-11.8-9.8-18.3-23.7-18.3-39c0-12.5,5.6-22.9,16.2-30.1
		c10.7-7.3,26.2-11.1,44.8-11.1V209.2 M544.2,209.2c-38.4,0-61.9,16.1-62,42.3c0,32.3,27.6,55.4,66.4,55.4c0,0,0,0,0,0
		c32.6,0,53.3-18,53.4-46.4C602.1,230.1,578.6,209.2,544.2,209.2C544.3,209.2,544.3,209.2,544.2,209.2L544.2,209.2z"/>
</g>
<g>
	<path d="M483.4,458.4c19.6,0,37.3,7.1,49.8,20.1c12.6,13,19.1,31.2,18.4,51.1c-0.9,26.9-4.7,55.5-11.2,85
		c-3.9,17.8-10.2,28.8-20.2,35.7c-10,6.9-24.2,9.9-46,9.9c-2.5,0-5.1,0-7.9-0.1c-4.4,0-8.9,0.1-13.3,0.1c-4.3,0.1-8.8,0.1-13.2,0.1
		c-6.1,0-11.1-0.1-15.8-0.4c-17.6-1.1-31.3-5.4-42.1-13.1c-11.7-8.4-19.5-20.6-23.8-37.4c-11-42.8,1.7-86.7,31.7-109.2
		c26.3-19.8,50.6-36.5,81-41C475.1,458.7,479.3,458.4,483.4,458.4L483.4,458.4 M483.4,457.4c-4.1,0-8.4,0.3-12.7,1
		c-31.5,4.7-56.9,22.7-81.5,41.2c-31,23.3-42.9,68-32.1,110.3c9,35,33.2,49.2,66.7,51.2c5.3,0.3,10.6,0.4,15.8,0.4
		c8.8,0,17.7-0.3,26.5-0.3c2.7,0.1,5.4,0.1,7.9,0.1c42.2,0,59.4-11.5,67.2-46.4c6.2-27.9,10.3-56.7,11.3-85.2
		C554.1,487.1,523.8,457.4,483.4,457.4L483.4,457.4z"/>
</g>
<g>
	<path d="M944.4,454.5v1h0c13.4,0,27,3.3,38.3,9.3c17.4,9.2,34,22.8,52.3,42.8c5.4,5.9,8,11.9,7.6,17.8c-0.4,6.5-4.4,13.1-11.9,19.5
		c-19.1,16.2-42.4,24.1-71.4,24.1c-18.7-0.9-41.7-5-53.2-29.5c-8.8-18.7-16.9-43.2-2.2-67.1c6.4-10.3,21.9-16.8,40.4-16.8
		L944.4,454.5 M944.4,454.5c-18.1,0-34.3,6-41.3,17.2c-14,22.8-8.2,46.1,2.1,68.1c11.3,24.3,34,29.2,54,30.1c0,0,0,0,0,0
		c29.4,0,52.8-8,72-24.3c13.1-11.2,17.5-24.4,4.4-38.7c-15.4-16.9-32.3-32.3-52.6-43C971.1,457.5,957.3,454.5,944.4,454.5
		L944.4,454.5z"/>
</g>
<g>
	<path d="M1488.7,613.6c14.2,0.3,24,2.2,31.5,6c9.3,4.7,15.3,12.6,18.2,24.1c2.4,9.2,1,17.7-3.8,24c-4.5,5.8-11.5,8.9-19.7,8.9
		c-1.8,0-3.7-0.2-5.5-0.5c-12.4-2-25.1-5.7-38.7-11.4c-13.5-5.6-26.5-12.6-36.3-18c-5.3-2.9-8.2-6.5-8.1-10c0-3.8,3.4-7.7,9.4-11
		c16.3-8.8,33.8-10.4,50.7-11.9L1488.7,613.6 M1488.6,612.6c-17.3,1.6-36.1,3-53.4,12.3c-13.2,7.1-12.9,16.3-1.3,22.8
		c23.7,13.1,48.2,25.2,75.3,29.5c2,0.3,3.9,0.5,5.7,0.5c18.2,0,29.4-15,24.5-34.1C1532.9,618,1512.9,613.1,1488.6,612.6
		L1488.6,612.6z"/>
</g>
<g>
	<path d="M543.6,229.7c11.6,0,20.8,3.1,26.7,9.1c5,5.1,7.5,12.2,7.4,21.1c-0.1,9.7-3.4,16.7-10,21.4c-5.6,3.9-13.6,6.2-24.5,7
		c-7.9-1.1-17.8-3-25-8.1c-7.3-5.2-10.8-12.9-10.6-23.5c0.2-9.9,4-17.2,11.3-21.6c5.8-3.5,14-5.3,24.4-5.3L543.6,229.7L543.6,229.7
		 M543.6,228.7c-0.1,0-0.2,0-0.3,0c-17.8,0.1-36.3,5.2-36.7,27.9c-0.4,24,17.7,30,36.6,32.6c19.8-1.4,35.2-7.9,35.5-29.3
		C579,237.4,563,228.7,543.6,228.7L543.6,228.7z"/>
</g>
<g>
	<path d="M483.3,475.3c9.9,0,19,2.1,26.8,6.4c14.5,7.8,23.2,19.2,26.6,34.9c3.1,13.9,1.8,29.1,0.1,44.9c-0.4,3.5-0.7,7.1-1,10.6
		c-2.5,27.9-5.2,56.8-36.9,70c-10.1,4.2-22.5,6.4-35.8,6.4c-36.5,0-72.4-15.6-81.8-35.5c-5.3-11.1-7.5-23-6.7-35.4l0,0l0,0
		c0-23.7,13.2-49.2,36.1-70.1C432.7,487.3,459.9,475.3,483.3,475.3L483.3,475.3 M483.3,474.3c-49.1,0-109.8,51.8-109.8,103.2
		c-0.8,12.5,1.5,24.6,6.8,35.9c10,21.2,47.7,36.1,82.7,36.1c12.9,0,25.5-2,36.2-6.5c36.4-15.2,35.2-50.2,38.5-81.4
		c3.3-30.5,5.5-63-27.2-80.7C502.3,476.4,493.1,474.3,483.3,474.3L483.3,474.3z"/>
</g>
<g>
	<path d="M950.1,476.6v1h0c12,0,26.3,7,35.7,17.3c6.3,6.9,9.4,14.3,8.7,20.8c-2.1,20.9-19.2,23.7-35.8,26.4l-0.1,0
		c-12.3-0.9-21.8-4.5-28.3-10.5c-6.7-6.2-10.2-15.2-10.5-26.7c-0.2-8,2-14.5,6.4-19.1c5.1-5.3,13.1-8.1,23.3-8.2l0.4,0L950.1,476.6
		 M950.1,476.6c-0.1,0-0.3,0-0.4,0c-18.2,0.2-31.2,9-30.7,28.3c0.6,24,14.9,36.4,39.8,38.2c16.4-2.7,34.6-5.5,36.8-27.3
		C997.4,497.9,971.8,476.6,950.1,476.6L950.1,476.6z"/>
</g>
<g>
	<path d="M484.8,494.1v1h0c12.5,0,22.3,5,29,14.8c6.9,10.1,10.4,25,10.4,44.2c0,48.3-16.3,74.8-47,76.5c-3.7,0.2-7.4,0.3-10.9,0.3
		c-38,0-60.9-12.5-68.2-37.2c-4.6-15.5-2.8-31.7,5.2-46.8c8-15.2,21.8-28.5,40-38.7c15.8-8.8,29.8-13.3,41.6-13.3L484.8,494.1
		 M484.8,494.1c-11.8,0-26,4.4-42.1,13.4c-37.4,20.9-55.1,54.5-45.6,86.6c7.4,25.1,30.7,37.9,69.2,37.9c3.5,0,7.2-0.1,11-0.3
		c31.3-1.8,48-28.7,48-77.5C525.2,514.8,510.5,494.1,484.8,494.1L484.8,494.1z"/>
</g>
<g>
	<path d="M476.8,518.3v1c0.4,0,0.9,0,1.3,0c12.3,0.4,20.6,4.8,25.3,13.6c4.3,8,5.2,18.5,5.5,28.6c0.6,17.6-3.7,31.7-12.5,40.8
		c-7.2,7.5-17.6,11.5-29.8,11.5l-0.1,0c-27.7,0-47.1-16-47.1-38.8c0-12.8,6.3-26.5,17.3-37.5c11.6-11.6,26.1-18.2,40-18.2
		L476.8,518.3 M476.8,518.3c-29.2,0-58.4,28.9-58.4,56.7c0,23.3,19.9,39.7,48.1,39.8c0,0,0.1,0,0.1,0c27.7,0,44.4-19.5,43.3-53.3
		c-0.7-20.7-3.8-42.4-31.8-43.2C477.6,518.3,477.2,518.3,476.8,518.3L476.8,518.3z"/>
</g>
<g>
	<path d="M470.3,554.3v1h0c3.4,0,6.2,1,8.2,3.1c2.3,2.3,3.5,5.9,3.4,10c-0.1,9.5-5.2,14.8-14.6,15.6c-4.4-0.4-14.2-2.4-13.4-12.9
		c0.7-9.6,6.9-15.7,16.1-15.8l0.2,0L470.3,554.3 M470.3,554.3c-0.1,0-0.2,0-0.3,0c-10.4,0.1-16.4,7.1-17.1,16.7
		c-0.6,8.8,5.7,13.2,14.4,14c10.2-0.8,15.4-7,15.6-16.6C483,560.5,478.8,554.3,470.3,554.3L470.3,554.3z"/>
</g>
</svg>
