<svg width="480" height="480" viewBox="0 0 480 480" fill="none" xmlns="http://www.w3.org/2000/svg">
<path d="M360.143 323.471L373.413 332.745C376.116 328.881 378.664 324.904 381.034 320.814L367.001 312.73C364.883 316.399 362.594 319.979 360.143 323.471Z" fill="black"/>
<path d="M352.36 333.571L364.786 343.98C367.821 340.367 370.694 336.617 373.413 332.745L360.143 323.47C357.708 326.937 355.111 330.299 352.36 333.571Z" fill="black"/>
<path d="M156.312 359.329C152.847 356.891 149.486 354.283 146.216 351.529L135.794 363.93C138.205 365.963 140.672 367.931 143.205 369.819C144.243 370.596 145.299 371.358 146.362 372.111C146.581 372.265 146.808 372.419 147.027 372.573L156.312 359.329Z" fill="black"/>
<path d="M159.291 99.6025C155.201 101.96 151.224 104.495 147.369 107.184L156.662 120.428C160.144 117.99 163.731 115.713 167.391 113.599L159.291 99.6025Z" fill="black"/>
<path d="M147.019 372.573C150.882 375.286 154.867 377.83 158.966 380.211L167.066 366.206C163.397 364.076 159.802 361.792 156.312 359.329L147.019 372.573Z" fill="black"/>
<path d="M385.887 252.425C385.53 256.678 385.003 260.89 384.28 265.053L400.245 267.864C401.048 263.255 401.649 258.573 402.047 253.843L385.887 252.425Z" fill="black"/>
<path d="M381.553 277.487L397.209 281.674C398.411 277.146 399.433 272.537 400.245 267.856L384.28 265.045C383.558 269.249 382.641 273.396 381.553 277.487Z" fill="black"/>
<path d="M190.182 377.02L184.639 392.215C189.062 393.827 193.575 395.245 198.168 396.476L202.364 380.851C198.241 379.749 194.175 378.469 190.182 377.02Z" fill="black"/>
<path d="M178.38 372.127L171.538 386.772C175.807 388.765 180.173 390.595 184.637 392.224L190.181 377.028C186.171 375.562 182.235 373.926 178.38 372.127Z" fill="black"/>
<path d="M146.224 351.529C143.059 348.864 139.983 346.053 137.02 343.097C136.955 343.032 136.89 342.967 136.825 342.902L125.349 354.356C125.414 354.421 125.479 354.485 125.544 354.55C127.378 356.381 129.261 358.171 131.185 359.912C132.694 361.281 134.236 362.618 135.795 363.93L146.224 351.529Z" fill="black"/>
<path d="M202.364 380.851L198.167 396.476C202.713 397.691 207.331 398.719 212.022 399.546L214.838 383.605C210.626 382.868 206.47 381.944 202.364 380.851Z" fill="black"/>
<path d="M167.067 366.206L158.967 380.211C160.282 380.972 161.613 381.726 162.952 382.455C165.76 383.977 168.633 385.411 171.539 386.772L178.381 372.127C174.526 370.321 170.76 368.344 167.067 366.206Z" fill="black"/>
<path d="M290.359 377.052L295.902 392.248C300.366 390.628 304.733 388.805 309.002 386.813L302.16 372.168C298.305 373.974 294.368 375.602 290.359 377.052Z" fill="black"/>
<path d="M128.221 333.498L115.795 343.907C118.059 346.604 120.397 349.228 122.824 351.772C123.66 352.647 124.504 353.505 125.356 354.356L136.832 342.902C133.805 339.873 130.94 336.73 128.221 333.498Z" fill="black"/>
<path d="M265.694 383.621L268.51 399.562C273.201 398.744 277.819 397.715 282.365 396.5L278.168 380.875C274.07 381.968 269.906 382.892 265.694 383.621Z" fill="black"/>
<path d="M253.024 385.249L254.437 401.384C259.185 400.979 263.884 400.372 268.51 399.562L265.694 383.621C261.514 384.35 257.285 384.885 253.024 385.249Z" fill="black"/>
<path d="M214.838 383.597L212.022 399.538C216.648 400.348 221.339 400.955 226.095 401.368L227.508 385.233C223.239 384.869 219.018 384.326 214.838 383.597Z" fill="black"/>
<path d="M278.169 380.875L282.365 396.5C286.959 395.277 291.48 393.859 295.903 392.248L290.359 377.052C286.366 378.51 282.3 379.782 278.169 380.875Z" fill="black"/>
<path d="M227.507 385.241L226.095 401.376C230.77 401.781 235.493 402 240.266 402V385.8C235.98 385.8 231.727 385.606 227.507 385.241Z" fill="black"/>
<path d="M240.323 385.8C240.307 385.8 240.282 385.8 240.266 385.8V402C240.282 402 240.307 402 240.323 402C245.079 402 249.786 401.781 254.437 401.384L253.025 385.249C248.821 385.606 244.592 385.8 240.323 385.8Z" fill="black"/>
<path d="M107.177 332.672C109.888 336.544 112.761 340.294 115.796 343.907L128.222 333.498C125.479 330.226 122.882 326.865 120.447 323.398L107.177 332.672Z" fill="black"/>
<path d="M386.415 239.716H402.648C402.639 234.962 402.412 230.248 402.006 225.598L385.839 227.008C386.204 231.203 386.407 235.448 386.415 239.716Z" fill="black"/>
<path d="M386.415 240C386.415 244.172 386.228 248.319 385.887 252.425L402.055 253.835C402.444 249.275 402.647 244.658 402.647 240C402.647 239.903 402.647 239.806 402.647 239.717H386.415C386.415 239.806 386.415 239.903 386.415 240Z" fill="black"/>
<path d="M384.175 214.396L400.148 211.585C399.32 206.911 398.281 202.318 397.064 197.791L381.408 201.978C382.512 206.061 383.437 210.2 384.175 214.396Z" fill="black"/>
<path d="M385.838 227.008L402.006 225.598C401.592 220.868 400.975 216.194 400.163 211.585L384.19 214.396C384.913 218.551 385.465 222.763 385.838 227.008Z" fill="black"/>
<path d="M381.415 201.979L397.072 197.791C395.838 193.214 394.418 188.719 392.802 184.321L377.568 189.853C379.029 193.83 380.312 197.872 381.415 201.979Z" fill="black"/>
<path d="M377.576 189.844L392.81 184.312C391.179 179.873 389.353 175.524 387.356 171.279L372.682 178.108C374.484 181.947 376.115 185.867 377.576 189.844Z" fill="black"/>
<path d="M103.085 189.812L87.8512 184.28C86.236 188.678 84.8157 193.174 83.582 197.75L99.2382 201.938C100.342 197.831 101.624 193.789 103.085 189.812Z" fill="black"/>
<path d="M99.2397 201.938L83.5835 197.75C82.3661 202.27 81.3272 206.871 80.4912 211.537L96.472 214.347C97.2187 210.16 98.144 206.021 99.2397 201.938Z" fill="black"/>
<path d="M107.98 178.076L93.314 171.247C91.3174 175.492 89.4912 179.841 87.8599 184.28L103.094 189.813C104.547 185.827 106.178 181.915 107.98 178.076Z" fill="black"/>
<path d="M107.981 178.076C109.783 174.244 111.763 170.494 113.906 166.825L99.8728 158.741C99.7511 158.952 99.6212 159.154 99.5076 159.365C97.2838 163.228 95.2223 167.197 93.3149 171.247L107.981 178.076Z" fill="black"/>
<path d="M96.4788 214.347L80.498 211.537C79.6782 216.137 79.0695 220.811 78.6475 225.542L94.815 226.951C95.1883 222.707 95.7402 218.503 96.4788 214.347Z" fill="black"/>
<path d="M107.509 146.858C104.798 150.698 102.25 154.667 99.8799 158.741L113.913 166.825C116.039 163.172 118.328 159.599 120.787 156.133L107.509 146.858Z" fill="black"/>
<path d="M253.025 94.7508L254.437 78.6156C249.787 78.2187 245.079 78 240.323 78V94.2C244.592 94.2 248.829 94.3944 253.025 94.7508Z" fill="black"/>
<path d="M240.323 94.2V78C235.567 78 230.86 78.2187 226.201 78.6156L227.613 94.7508C231.818 94.3944 236.054 94.2 240.323 94.2Z" fill="black"/>
<path d="M227.621 94.7509L226.2 78.6157C221.469 79.0207 216.794 79.6282 212.184 80.4301L215 96.3709C219.164 95.65 223.376 95.1154 227.621 94.7509Z" fill="black"/>
<path d="M146.581 128.171C149.844 125.434 153.204 122.85 156.669 120.428L147.368 107.184C147.036 107.419 146.687 107.646 146.354 107.889C145.291 108.642 144.244 109.404 143.197 110.181C140.794 111.98 138.44 113.843 136.144 115.77L146.581 128.171Z" fill="black"/>
<path d="M167.391 113.608C171.068 111.486 174.834 109.525 178.673 107.743L171.831 93.0986C168.82 94.4999 165.849 95.9822 162.944 97.5536C161.71 98.2178 160.493 98.9063 159.283 99.6029L167.391 113.608Z" fill="black"/>
<path d="M343.627 136.903C346.597 139.868 349.414 142.938 352.092 146.105L364.518 135.696C361.474 132.092 358.293 128.625 354.949 125.296L343.473 136.749C343.521 136.806 343.578 136.855 343.627 136.903Z" fill="black"/>
<path d="M343.472 136.758L354.948 125.304C351.613 121.983 348.123 118.808 344.511 115.787L334.082 128.188C337.312 130.893 340.445 133.744 343.472 136.758Z" fill="black"/>
<path d="M334.082 128.179L344.511 115.778C340.9 112.757 337.158 109.898 333.287 107.192L323.994 120.436C327.451 122.858 330.811 125.45 334.082 128.179Z" fill="black"/>
<path d="M323.993 120.436L333.286 107.192C329.431 104.495 325.454 101.96 321.363 99.6025L313.263 113.607C316.924 115.722 320.511 117.998 323.993 120.436Z" fill="black"/>
<circle cx="240" cy="240" r="239.5" stroke="black"/>
</svg>
