<svg width="480" height="480" viewBox="0 0 480 480" fill="none" xmlns="http://www.w3.org/2000/svg">
<path d="M354.687 354.417L367.413 367.143C371.112 363.435 374.649 359.556 378.024 355.533L364.245 343.968C361.221 347.559 358.044 351.051 354.687 354.417Z" fill="black"/>
<path d="M333.06 372.651L343.365 387.366C347.658 384.351 351.816 381.147 355.83 377.772L344.265 363.993C340.638 367.053 336.903 369.942 333.06 372.651Z" fill="black"/>
<path d="M321.126 380.292L330.108 395.853C334.653 393.216 339.072 390.39 343.356 387.375L333.051 372.66C329.19 375.387 325.203 377.925 321.126 380.292Z" fill="black"/>
<path d="M380.472 320.811L396.033 329.793C398.643 325.266 401.055 320.604 403.278 315.834L387.006 308.247C385.017 312.522 382.839 316.716 380.472 320.811Z" fill="black"/>
<path d="M308.58 386.853L316.167 403.125C320.937 400.893 325.59 398.472 330.117 395.844L321.135 380.283C317.04 382.668 312.846 384.855 308.58 386.853Z" fill="black"/>
<path d="M387.006 308.247L403.278 315.834C405.483 311.1 407.49 306.258 409.281 301.308L392.406 295.161C390.795 299.607 388.995 303.972 387.006 308.247Z" fill="black"/>
<path d="M392.406 295.161L409.281 301.308C411.054 296.403 412.62 291.399 413.97 286.305L396.609 281.652C395.403 286.224 394.008 290.733 392.406 295.161Z" fill="black"/>
<path d="M354.552 354.552C351.24 357.864 347.802 361.005 344.265 363.993L355.83 377.772C359.844 374.397 363.714 370.851 367.422 367.143L354.696 354.417C354.642 354.462 354.597 354.507 354.552 354.552Z" fill="black"/>
<path d="M99.474 320.721C97.116 316.626 94.938 312.441 92.958 308.166L76.686 315.753C78.882 320.478 81.267 325.104 83.85 329.595C83.868 329.631 83.895 329.667 83.913 329.703L99.474 320.721Z" fill="black"/>
<path d="M116.079 135.654C119.04 132.144 122.163 128.733 125.448 125.448C125.511 125.385 125.574 125.331 125.637 125.268L112.902 112.542C112.839 112.605 112.776 112.659 112.713 112.722C111.696 113.739 110.688 114.774 109.698 115.809C107.142 118.491 104.676 121.254 102.291 124.089L116.079 135.654Z" fill="black"/>
<path d="M99.4736 320.721L83.9126 329.703C86.5316 334.257 89.3576 338.676 92.3546 342.96L107.07 332.655C104.361 328.785 101.823 324.798 99.4736 320.721Z" fill="black"/>
<path d="M70.6919 301.227C72.4829 306.177 74.4899 311.019 76.6859 315.753L92.9579 308.166C90.9689 303.882 89.1689 299.526 87.5669 295.08L70.6919 301.227Z" fill="black"/>
<path d="M78 240C78 239.874 78 239.748 78.009 239.613H60.009C60.009 239.739 60 239.865 60 240C60 245.157 60.225 250.26 60.657 255.3L78.585 253.734C78.207 249.189 78 244.608 78 240Z" fill="black"/>
<path d="M116.079 135.654L102.3 124.089C98.9341 128.085 95.7391 132.225 92.7241 136.509L107.439 146.814C110.139 142.98 113.028 139.263 116.079 135.654Z" fill="black"/>
<path d="M78.5847 253.734L60.6567 255.3C61.0977 260.556 61.7637 265.758 62.6547 270.879L80.3667 267.756C79.5657 263.13 78.9717 258.45 78.5847 253.734Z" fill="black"/>
<path d="M386.772 171.231L403.044 163.644C400.812 158.892 398.391 154.257 395.772 149.739L380.211 158.721C382.578 162.798 384.765 166.974 386.772 171.231Z" fill="black"/>
<path d="M78.648 225.501L60.72 223.935C60.261 229.101 60.018 234.33 60 239.613H78C78.018 234.879 78.234 230.172 78.648 225.501Z" fill="black"/>
<path d="M268.08 80.4118L271.203 62.6998C266.091 61.8088 260.907 61.1338 255.66 60.6838L254.094 78.6118C258.792 79.0168 263.463 79.6108 268.08 80.4118Z" fill="black"/>
<path d="M211.92 80.4119L208.797 62.7C203.613 63.609 198.51 64.734 193.488 66.075L198.141 83.4359C202.677 82.2389 207.276 81.2219 211.92 80.4119Z" fill="black"/>
<path d="M198.141 83.436L193.488 66.075C188.412 67.425 183.417 68.991 178.53 70.773L184.677 87.6569C189.096 86.0549 193.587 84.651 198.141 83.436Z" fill="black"/>
<path d="M380.202 158.721L395.763 149.739C393.126 145.203 390.309 140.802 387.303 136.527L372.588 146.832C375.306 150.693 377.835 154.662 380.202 158.721Z" fill="black"/>
<path d="M184.677 87.6569L178.53 70.7729C173.598 72.5639 168.765 74.5709 164.049 76.7759L171.636 93.0479C175.911 91.0589 180.258 89.2589 184.677 87.6569Z" fill="black"/>
<path d="M125.637 125.268C128.985 121.929 132.468 118.761 136.05 115.746L124.485 101.967C122.622 103.533 120.777 105.126 118.977 106.764C116.907 108.645 114.891 110.571 112.911 112.542L125.637 125.268Z" fill="black"/>
<path d="M372.579 146.832L387.294 136.527C384.279 132.243 381.084 128.103 377.718 124.107L363.93 135.672C366.99 139.281 369.879 143.007 372.579 146.832Z" fill="black"/>
<path d="M295.322 87.6569L301.469 70.773C296.582 69 291.587 67.434 286.511 66.075L281.858 83.436C286.412 84.651 290.903 86.0549 295.322 87.6569Z" fill="black"/>
<path d="M281.859 83.4449L286.512 66.084C281.49 64.743 276.387 63.609 271.203 62.7L268.08 80.4119C272.724 81.2219 277.323 82.2389 281.859 83.4449Z" fill="black"/>
<path d="M308.364 93.0479L315.951 76.7759C311.226 74.5709 306.402 72.5639 301.47 70.7729L295.323 87.6569C299.751 89.2589 304.098 91.0589 308.364 93.0479Z" fill="black"/>
<path d="M320.883 99.5639L329.865 84.0029C325.347 81.3929 320.703 78.9899 315.951 76.7759L308.364 93.0479C312.621 95.0279 316.797 97.2059 320.883 99.5639Z" fill="black"/>
<circle cx="240" cy="240" r="239.5" stroke="black"/>
</svg>
