<svg width="600" height="328" viewBox="0 0 600 328" fill="none" xmlns="http://www.w3.org/2000/svg">
<path d="M472.5 146.5C442.5 70.5001 354.9 -58.6999 244.5 32.5001C106.5 146.5 137.5 232.5 224 236C293.2 238.8 418.5 285.5 472.5 308.5C520.833 324.5 613.4 332.4 597 236C576.5 115.5 572.5 18.5 472.5 53C372.5 87.5 321 57.0002 317.5 146.5C314 236 455.5 270.5 293 308.5C130.5 346.5 -17.5 325.5 3.00001 236C23.5 146.5 -0.761154 15 92.5 53C167.109 83.4 224.92 128 244.5 146.5C320.5 177.667 472.5 221.3 472.5 146.5Z" stroke="black"/>
</svg>
